<svg xmlns="http://www.w3.org/2000/svg" width="12.6" height="14" viewBox="0 0 12.6 14"><path id="today_24dp_5F6368_FILL0_wght400_GRAD0_opsz24" fill="#5f6368" d="M124.2-869.85a1.69,1.69,0,0,1-1.242-.508,1.69,1.69,0,0,1-.508-1.242,1.69,1.69,0,0,1,.508-1.243,1.69,1.69,0,0,1,1.242-.507,1.69,1.69,0,0,1,1.243.507,1.69,1.69,0,0,1,.507,1.243,1.69,1.69,0,0,1-.507,1.242A1.69,1.69,0,0,1,124.2-869.85ZM121.4-866a1.348,1.348,0,0,1-.989-.411A1.348,1.348,0,0,1,120-867.4v-9.8a1.348,1.348,0,0,1,.411-.989,1.348,1.348,0,0,1,.989-.411h.7V-880h1.4v1.4h5.6V-880h1.4v1.4h.7a1.348,1.348,0,0,1,.989.411,1.348,1.348,0,0,1,.411.989v9.8a1.348,1.348,0,0,1-.411.989,1.348,1.348,0,0,1-.989.411Zm0-1.4h9.8v-7h-9.8Zm0-8.4h9.8v-1.4h-9.8Zm0,0v0Z" transform="translate(-120 880)"/></svg>