<svg xmlns="http://www.w3.org/2000/svg" width="31" height="30" viewBox="0 0 31 30"><g id="Groupe_67" data-name="Groupe 67" transform="translate(-1086 -3730)"><g id="Rectangle_697" fill="#337ab7" stroke="#337ab7" stroke-width="1.5" data-name="Rectangle 697" transform="translate(1086 3733)"><rect width="28" height="27" stroke="none" rx="3"/><rect width="26.5" height="25.5" x=".75" y=".75" fill="none" rx="2.25"/></g><g id="Rectangle_696" fill="#fff" stroke="#337ab7" stroke-width="1.5" data-name="Rectangle 696" transform="translate(1089 3730)"><rect width="28" height="28" stroke="none" rx="3"/><rect width="26.5" height="26.5" x=".75" y=".75" fill="none" rx="2.25"/></g><g id="Groupe_65" data-name="Groupe 65" transform="translate(1066.356 2754.996)"><path id="Tracé_1815" fill="#337ab7" d="M36.643,982.362a1.993,1.993,0,0,0-1.993,1.993v2.657H31.993a1.993,1.993,0,1,0,0,3.986H34.65v2.657a1.993,1.993,0,0,0,3.986,0V991h2.657a1.993,1.993,0,1,0,0-3.986H38.636v-2.657A1.993,1.993,0,0,0,36.643,982.362Z" data-name="Tracé 1815"/></g></g></svg>