<svg xmlns="http://www.w3.org/2000/svg" width="12.093" height="20" viewBox="0 0 12.093 20"><path id="directions_walk_24dp_5F6368_FILL0_wght400_GRAD0_opsz24" fill="#5f6368" d="M240.93-880l2.6-13.116-1.674.651v3.163H240v-4.372l4.7-2a2.066,2.066,0,0,1,.686-.163,1.7,1.7,0,0,1,.686.093,2.481,2.481,0,0,1,.616.326,1.673,1.673,0,0,1,.477.535l.93,1.488a4.848,4.848,0,0,0,1.64,1.6,4.459,4.459,0,0,0,2.36.628v1.86a6.138,6.138,0,0,1-2.907-.674A7.471,7.471,0,0,1,247-891.7l-.581,2.86,1.953,1.86V-880h-1.86v-6.047l-1.954-1.488L242.884-880Zm6.047-16.279a1.791,1.791,0,0,1-1.314-.547,1.791,1.791,0,0,1-.547-1.314,1.791,1.791,0,0,1,.547-1.314,1.791,1.791,0,0,1,1.314-.547,1.791,1.791,0,0,1,1.314.547,1.792,1.792,0,0,1,.547,1.314,1.792,1.792,0,0,1-.547,1.314A1.791,1.791,0,0,1,246.977-896.279Z" transform="translate(-240 900)"/></svg>