<?xml version="1.0" encoding="UTF-8" standalone="no"?>
<!-- Generator: Adobe Illustrator 16.0.0, SVG Export Plug-In . SVG Version: 6.00 Build 0)  -->

<svg
   xmlns:dc="http://purl.org/dc/elements/1.1/"
   xmlns:cc="http://creativecommons.org/ns#"
   xmlns:rdf="http://www.w3.org/1999/02/22-rdf-syntax-ns#"
   xmlns:svg="http://www.w3.org/2000/svg"
   xmlns="http://www.w3.org/2000/svg"
   xmlns:sodipodi="http://sodipodi.sourceforge.net/DTD/sodipodi-0.dtd"
   xmlns:inkscape="http://www.inkscape.org/namespaces/inkscape"
   version="1.1"
   id="Capa_1"
   x="0px"
   y="0px"
   width="958.62px"
   height="958.621px"
   viewBox="0 0 958.62 958.621"
   style="enable-background:new 0 0 958.62 958.621;"
   xml:space="preserve"
   sodipodi:docname="drill.svg"
   inkscape:version="0.92.2 5c3e80d, 2017-08-06"><metadata
     id="metadata47"><rdf:RDF><cc:Work
         rdf:about=""><dc:format>image/svg+xml</dc:format><dc:type
           rdf:resource="http://purl.org/dc/dcmitype/StillImage" /><dc:title></dc:title></cc:Work></rdf:RDF></metadata><defs
     id="defs45" /><sodipodi:namedview
     pagecolor="#ffffff"
     bordercolor="#666666"
     borderopacity="1"
     objecttolerance="10"
     gridtolerance="10"
     guidetolerance="10"
     inkscape:pageopacity="0"
     inkscape:pageshadow="2"
     inkscape:window-width="740"
     inkscape:window-height="480"
     id="namedview43"
     showgrid="false"
     inkscape:zoom="0.24618698"
     inkscape:cx="479.31"
     inkscape:cy="479.31049"
     inkscape:window-x="0"
     inkscape:window-y="0"
     inkscape:window-maximized="0"
     inkscape:current-layer="Capa_1" /><g
     id="g10"
     style="fill:#000000"><g
       id="g8"
       style="fill:#000000"><path
         d="M128.293,399.812h15.44v273.777h186.655v-171.87c4.077-0.768,8.334-1.755,12.5-3.021c4.381-1.333,8.652-2.979,12.5-5.002    c12.779-6.722,20.846-17.646,12.342-35.406c-6.271-13.1-9.502-24.245-10.957-33.478c-0.734-4.653-1.022-8.825-1.005-12.5    c0.023-5.115,0.62-9.278,1.366-12.5h228.71c11.1,0,20.097-8.997,20.097-20.096v-2.358V75.84v-2.358    c0-11.099-8.997-20.096-20.097-20.096H128.293C57.439,53.386,0,110.825,0,181.679v89.84C0,342.374,57.439,399.812,128.293,399.812    z M307.659,158.518c9.763-9.763,25.592-9.763,35.354,0c9.764,9.763,9.764,25.592,0,35.355l-74.373,74.373    c-4.881,4.881-11.28,7.322-17.678,7.322c-6.398,0-12.796-2.441-17.678-7.322c-9.763-9.763-9.763-25.592,0-35.355L307.659,158.518z     M112.083,232.891l74.373-74.373c9.763-9.763,25.592-9.763,35.355,0c9.763,9.763,9.763,25.592,0,35.355l-74.373,74.373    c-4.881,4.881-11.28,7.322-17.678,7.322s-12.796-2.441-17.678-7.322C102.32,258.483,102.32,242.654,112.083,232.891z"
         id="path2"
         style="fill:#000000" /><path
         d="M512.918,875.073V728.75c0-16.657-13.503-30.161-30.161-30.161h-127.37h-12.5h-12.5H143.733h-12.5h-12.5H107.45    c-16.657,0-30.161,13.503-30.161,30.161v146.323c0,16.656,13.503,30.16,30.161,30.16h375.307    C499.415,905.233,512.918,891.73,512.918,875.073z"
         id="path4"
         style="fill:#000000" /><path
         d="M933.12,201.099H754.541C743.809,138.106,694.003,88.441,630.94,77.916v297.368    c63.062-10.526,112.869-60.191,123.601-123.185H933.12c14.083,0,25.5-11.417,25.5-25.5S947.203,201.099,933.12,201.099z"
         id="path6"
         style="fill:#000000" /></g></g><g
     id="g12"
     style="fill:#000000" /><g
     id="g14"
     style="fill:#000000" /><g
     id="g16"
     style="fill:#000000" /><g
     id="g18"
     style="fill:#000000" /><g
     id="g20"
     style="fill:#000000" /><g
     id="g22"
     style="fill:#000000" /><g
     id="g24"
     style="fill:#000000" /><g
     id="g26"
     style="fill:#000000" /><g
     id="g28"
     style="fill:#000000" /><g
     id="g30"
     style="fill:#000000" /><g
     id="g32"
     style="fill:#000000" /><g
     id="g34"
     style="fill:#000000" /><g
     id="g36"
     style="fill:#000000" /><g
     id="g38"
     style="fill:#000000" /><g
     id="g40"
     style="fill:#000000" /></svg>