<?xml version="1.0" encoding="UTF-8" standalone="no"?>
<svg
   xmlns:dc="http://purl.org/dc/elements/1.1/"
   xmlns:cc="http://creativecommons.org/ns#"
   xmlns:rdf="http://www.w3.org/1999/02/22-rdf-syntax-ns#"
   xmlns:svg="http://www.w3.org/2000/svg"
   xmlns="http://www.w3.org/2000/svg"
   xmlns:sodipodi="http://sodipodi.sourceforge.net/DTD/sodipodi-0.dtd"
   xmlns:inkscape="http://www.inkscape.org/namespaces/inkscape"
   height="64"
   width="64"
   id="svg4470"
   version="1.1"
   inkscape:version="0.92.3 (2405546, 2018-03-11)"
   sodipodi:docname="hiking.svg">
  <metadata
     id="metadata4485">
    <rdf:RDF>
      <cc:Work
         rdf:about="">
        <dc:format>image/svg+xml</dc:format>
        <dc:type
           rdf:resource="http://purl.org/dc/dcmitype/StillImage" />
        <dc:title></dc:title>
      </cc:Work>
    </rdf:RDF>
  </metadata>
  <defs
     id="defs4483" />
  <sodipodi:namedview
     pagecolor="#ffffff"
     bordercolor="#666666"
     borderopacity="1"
     objecttolerance="10"
     gridtolerance="10"
     guidetolerance="10"
     inkscape:pageopacity="0"
     inkscape:pageshadow="2"
     inkscape:window-width="1280"
     inkscape:window-height="1002"
     id="namedview4481"
     showgrid="false"
     inkscape:zoom="3.5923079"
     inkscape:cx="36.317202"
     inkscape:cy="19.847738"
     inkscape:window-x="2552"
     inkscape:window-y="1016"
     inkscape:window-maximized="1"
     inkscape:current-layer="svg4470" />
  <path
     style="fill:#ffaa45;fill-opacity:1;fill-rule:nonzero;stroke:none;stroke-width:0.95808065"
     d="M 32.000936,4 C 16.536815,4.0000001 4,16.535363 4,32 4,47.464637 16.536815,60 32.000936,60 47.464099,60 60,47.464637 60,32 60,16.535363 47.464099,4 32.000936,4 Z M 33.630769,11.816347 C 34.393495,11.794991 35.541733,12.055197 36.24112,13.595936 36.24112,13.595936 37.137645,14.295317 36.969024,14.714964 36.801365,15.13461 36.689674,15.105673 36.353393,15.1622 36.353393,15.1622 36.074582,15.638329 36.074582,16.002406 36.074582,16.366483 36.129929,17.149876 35.485147,16.814542 35.485147,16.814542 35.233655,17.261884 35.065994,17.177572 35.065994,17.177572 34.953257,17.56867 34.813379,17.56867 34.813379,17.56867 34.73042,18.242436 33.918936,18.158123 33.106498,18.074769 32.937474,18.214536 33.217229,18.801845 33.496984,19.390116 33.870568,20.955002 33.898352,21.543273 33.970207,22.619216 33.888963,24.178039 33.888963,24.178039 33.888963,24.178039 33.750328,26.837401 33.078725,27.424714 33.078725,27.424714 35.176347,28.993388 35.735857,29.32968 35.735857,29.32968 37.459419,29.079499 37.913958,29.438214 H 37.925186 C 37.940956,29.42482 38.595744,28.873415 39.023593,29.249215 39.023593,29.249215 39.684059,30.174212 39.727172,30.987636 39.731004,31.261652 39.653429,31.48905 39.446488,31.612645 L 39.066631,31.741763 C 39.032045,31.748374 38.985243,31.745787 38.948744,31.751152 L 41.068836,46.09079 41.370102,48.358784 C 41.370102,48.358784 41.483797,48.289753 41.502959,48.480417 41.52212,48.671079 41.667626,50.269364 41.667626,50.269364 41.667626,50.269364 41.770005,50.469382 41.553482,50.518245 L 41.768672,50.909342 C 41.768672,50.909342 42.450755,50.936543 42.449797,51.173193 42.447881,51.409843 41.744347,51.515638 41.744347,51.515638 41.744347,51.515638 41.860003,52.548151 41.755575,52.726357 L 41.648916,52.741332 41.590905,52.748806 C 41.590905,52.748806 41.386313,52.416181 41.293381,51.597967 41.293381,51.597967 40.523067,51.708462 40.496242,51.465106 40.469416,51.221749 41.031411,51.01974 41.031411,51.01974 L 41.169881,50.649226 41.138073,50.565019 C 41.138073,50.565019 41.055411,50.605633 41.029543,50.469583 41.003675,50.332575 40.685238,48.555262 40.685238,48.555262 40.685238,48.555262 40.665416,48.465708 40.7526,48.454212 40.7526,48.454212 40.585358,47.311517 40.41578,46.165634 40.284836,45.279469 38.763196,35.151265 38.258264,31.78857 37.51094,31.76525 36.717607,31.583582 36.576037,31.317007 36.576037,31.317007 36.408526,31.094534 35.651654,30.925909 34.895741,30.758242 33.776901,30.448791 33.608282,30.366395 33.608282,30.366395 35.709108,37.478721 35.932337,38.654305 L 35.904266,38.961196 C 35.904266,38.961196 36.240412,40.163637 36.269154,40.836221 36.269154,40.836221 35.432689,47.641986 35.952918,48.603915 35.952918,48.603915 36.273825,49.124101 36.314063,49.404823 36.353344,49.684587 37.194435,49.726669 37.515386,49.926911 37.83538,50.127153 38.477179,49.605935 38.677414,50.127138 38.876692,50.647385 38.637233,51.088034 37.876532,51.128274 37.11487,51.168514 35.833219,51.248036 35.152035,51.248036 34.47181,51.248036 34.109811,51.167575 33.628862,51.287337 33.148872,51.408058 32.066364,51.449285 32.227319,50.527597 32.387316,49.605908 32.186132,49.685535 32.266619,49.245769 32.347096,48.805044 32.787731,49.084897 32.908447,48.164167 33.028205,47.242478 33.549393,48.443168 32.908447,46.040262 32.908447,46.040262 32.065366,44.718417 32.947747,42.234072 32.947747,42.234072 32.747526,41.594109 32.627768,41.513629 32.627769,41.513629 32.626885,43.034952 31.866182,43.435437 31.104521,43.834962 30.103552,44.316765 29.30261,44.797729 28.50071,45.278695 28.061094,45.640705 27.620384,46.081429 27.179674,46.521196 25.657504,46.96183 25.137275,47.522317 24.616088,48.083763 24.094092,48.082714 23.614102,48.723681 23.133153,49.364647 23.69364,50.768049 23.653401,51.047813 23.614121,51.328536 24.135203,51.127316 24.456155,51.24804 24.776149,51.367802 25.135468,52.089174 24.334525,52.129414 23.533584,52.169654 22.132144,52.289447 21.770954,51.968485 21.410722,51.64848 19.398173,49.388734 18.962253,49.316877 18.962253,49.316877 17.962482,48.216099 19.063298,47.716931 20.163157,47.216804 21.261503,47.017535 21.561377,46.917893 21.861251,46.818251 22.86183,46.218078 23.462537,45.617351 23.462537,45.617351 24.592799,43.832372 25.908222,43.104219 27.224603,42.376065 27.868391,42.068188 28.344549,41.760639 28.820708,41.45309 29.045613,40.753065 28.793642,40.388988 L 28.372618,40.41706 C 28.372618,40.41706 28.038239,40.332422 28.093807,39.911814 28.149374,39.492168 27.785639,37.590646 27.281697,36.386318 26.777755,35.181033 26.385383,34.929711 26.385383,34.762044 26.385382,34.762044 26.106467,34.342265 26.190775,33.809561 26.190776,33.809561 26.274443,33.277279 25.938161,33.472731 25.602839,33.669141 25.013569,34.315018 23.864849,34.146393 22.718046,33.977768 20.841931,32.66064 20.281463,31.820389 19.721953,30.981096 19.974867,30.981275 20.002651,29.776948 20.031393,28.57262 19.949191,23.246606 19.555429,20.313872 L 19.246679,19.920903 C 19.246679,19.920903 18.911835,19.558713 18.827525,19.363261 18.744174,19.166852 18.518684,17.403234 18.88179,16.758436 19.246813,16.114595 20.198695,14.993831 21.095444,14.434303 21.990276,13.873816 22.27063,13.93009 23.026543,14.125542 23.782456,14.321951 24.314841,14.629934 24.875308,14.54658 25.434818,14.462268 26.414559,14.966677 26.806407,15.246439 27.199214,15.526204 27.8992,15.946943 27.8992,16.198922 27.8992,16.449943 28.486254,16.478402 29.186599,16.17085 29.886944,15.862343 31.145767,14.853467 31.145767,14.853467 31.145767,14.853467 30.89399,12.446624 32.85419,11.943623 32.85419,11.943623 33.173109,11.829192 33.630747,11.816375 Z"
     id="path31"
     inkscape:connector-curvature="0" />
</svg>
