<?xml version="1.0" encoding="UTF-8" standalone="no"?><svg xmlns:dc="http://purl.org/dc/elements/1.1/" xmlns:cc="http://creativecommons.org/ns#" xmlns:rdf="http://www.w3.org/1999/02/22-rdf-syntax-ns#" xmlns:svg="http://www.w3.org/2000/svg" xmlns="http://www.w3.org/2000/svg" xmlns:sodipodi="http://sodipodi.sourceforge.net/DTD/sodipodi-0.dtd" xmlns:inkscape="http://www.inkscape.org/namespaces/inkscape" height="64" width="64" id="svg4470" inkscape:version="0.92.3 (2405546, 2018-03-11)" sodipodi:docname="hiking.svg"><metadata id="metadata4485"><rdf:RDF><cc:Work><dc:format>image/svg+xml</dc:format><dc:type rdf:resource="http://purl.org/dc/dcmitype/StillImage"/><dc:title/></cc:Work></rdf:RDF></metadata><sodipodi:namedview pagecolor="#ffffff" bordercolor="#666666" borderopacity="1" objecttolerance="10" gridtolerance="10" guidetolerance="10" inkscape:pageopacity="0" inkscape:pageshadow="2" inkscape:window-width="1280" inkscape:window-height="1002" id="namedview4481" showgrid="false" inkscape:zoom="3.6" inkscape:cx="36.3" inkscape:cy="19.8" inkscape:window-x="2552" inkscape:window-y="1016" inkscape:window-maximized="1" inkscape:current-layer="svg4470"/><path style="fill:#ffaa45;fill-opacity:1;fill-rule:nonzero;stroke:none;stroke-width:0.95808065" d="M32 4a28 28 0 1 0 0 56 28 28 0 0 0 0-56zm1.6 7.8c.8 0 2 .3 2.6 1.8 0 0 1 .7.8 1.1-.2.4-.3.4-.6.5 0 0-.3.4-.3.8s0 1.1-.6.8c0 0-.3.5-.4.4 0 0-.1.4-.3.4 0 0 0 .6-.9.6-.8-.1-1 0-.7.6.3.6.7 2.2.7 2.7v2.7s-.1 2.6-.8 3.2l2.6 2s1.8-.3 2.2 0c0 0 .7-.5 1.1-.2 0 0 .7 1 .7 1.8 0 .3 0 .5-.3.6l-.3.1h-.2l2.2 14.4.3 2.3s0-.1.1 0l.2 1.9-.1.2.2.4s.7 0 .6.3c0 .2-.7.3-.7.3s.2 1 0 1.2h-.1s-.2-.3-.3-1.1c0 0-.8.1-.8-.1 0-.3.5-.5.5-.5l.2-.4-.2-.1-.3-2-.3-2.3-2.1-14.4c-.8 0-1.6-.2-1.7-.5 0 0-.2-.2-1-.4l-2-.5s2.1 7 2.3 8.3v.3l.4 1.8s-.9 6.8-.3 7.8c0 0 .3.5.3.8 0 .3.9.3 1.2.5.3.2 1-.3 1.2.2.2.5 0 1-.8 1l-2.7.1h-1.6c-.5.2-1.5.2-1.4-.7.2-.9 0-.8 0-1.3.1-.4.6-.1.7-1 .1-1 .6.2 0-2.2 0 0-.8-1.3 0-3.8l-.3-.7s0 1.5-.7 2l-2.6 1.3a8 8 0 0 0-1.7 1.3c-.4.4-2 .9-2.5 1.4-.5.6-1 .6-1.5 1.2-.5.7 0 2 0 2.3 0 .3.5.1.9.2.3.2.6.9-.2 1-.8 0-2.2 0-2.5-.2-.4-.4-2.4-2.6-2.8-2.7 0 0-1-1 0-1.6 1.2-.5 2.3-.7 2.6-.8a7 7 0 0 0 1.9-1.3s1-1.8 2.4-2.5l2.4-1.3c.5-.3.7-1 .5-1.4h-.4s-.4 0-.3-.5c0-.4-.3-2.3-.8-3.5-.5-1.2-1-1.5-1-1.6 0 0-.2-.5-.1-1 0 0 0-.5-.3-.3s-.9.8-2 .6a7 7 0 0 1-3.6-2.3c-.6-.8-.3-.8-.3-2s0-6.6-.4-9.5l-.4-.4-.4-.5c0-.2-.3-2 0-2.6.4-.7 1.4-1.8 2.3-2.4.9-.5 1.2-.5 2-.3.7.2 1.2.5 1.8.4.5 0 1.5.5 2 .7.3.3 1 .7 1 1 0 .2.6.3 1.3 0 .7-.3 2-1.3 2-1.3s-.3-2.5 1.7-3h.7z" id="path31" inkscape:connector-curvature="0"/></svg>
