<svg xmlns="http://www.w3.org/2000/svg" xmlns:svg="http://www.w3.org/2000/svg" id="svg4470" width="64" height="64"><metadata id="metadata4485"/><path id="path31" fill="#f93" fill-opacity="1" fill-rule="nonzero" stroke="none" stroke-width=".958" d="M32 4a28 28 0 1 0 0 56 28 28 0 0 0 0-56zm1.6 7.8c.8 0 2 .3 2.6 1.8 0 0 1 .7.8 1.1-.2.4-.3.4-.6.5 0 0-.3.4-.3.8s0 1.1-.6.8c0 0-.3.5-.4.4 0 0-.1.4-.3.4 0 0 0 .6-.9.6-.8-.1-1 0-.7.6.3.6.7 2.2.7 2.7v2.7s-.1 2.6-.8 3.2l2.6 2s1.8-.3 2.2 0c0 0 .7-.5 1.1-.2 0 0 .7 1 .7 1.8 0 .3 0 .5-.3.6l-.3.1h-.2l2.2 14.4.3 2.3s0-.1.1 0l.2 1.9-.1.2.2.4s.7 0 .6.3c0 .2-.7.3-.7.3s.2 1 0 1.2h-.1s-.2-.3-.3-1.1c0 0-.8.1-.8-.1 0-.3.5-.5.5-.5l.2-.4-.2-.1-.3-2-.3-2.3-2.1-14.4c-.8 0-1.6-.2-1.7-.5 0 0-.2-.2-1-.4l-2-.5s2.1 7 2.3 8.3v.3l.4 1.8s-.9 6.8-.3 7.8c0 0 .3.5.3.8 0 .3.9.3 1.2.5.3.2 1-.3 1.2.2.2.5 0 1-.8 1l-2.7.1h-1.6c-.5.2-1.5.2-1.4-.7.2-.9 0-.8 0-1.3.1-.4.6-.1.7-1 .1-1 .6.2 0-2.2 0 0-.8-1.3 0-3.8l-.3-.7s0 1.5-.7 2l-2.6 1.3a8 8 0 0 0-1.7 1.3c-.4.4-2 .9-2.5 1.4-.5.6-1 .6-1.5 1.2-.5.7 0 2 0 2.3 0 .3.5.1.9.2.3.2.6.9-.2 1-.8 0-2.2 0-2.5-.2-.4-.4-2.4-2.6-2.8-2.7 0 0-1-1 0-1.6 1.2-.5 2.3-.7 2.6-.8a7 7 0 0 0 1.9-1.3s1-1.8 2.4-2.5l2.4-1.3c.5-.3.7-1 .5-1.4h-.4s-.4 0-.3-.5c0-.4-.3-2.3-.8-3.5-.5-1.2-1-1.5-1-1.6 0 0-.2-.5-.1-1 0 0 0-.5-.3-.3s-.9.8-2 .6a7 7 0 0 1-3.6-2.3c-.6-.8-.3-.8-.3-2s0-6.6-.4-9.5l-.4-.4-.4-.5c0-.2-.3-2 0-2.6.4-.7 1.4-1.8 2.3-2.4.9-.5 1.2-.5 2-.3.7.2 1.2.5 1.8.4.5 0 1.5.5 2 .7.3.3 1 .7 1 1 0 .2.6.3 1.3 0 .7-.3 2-1.3 2-1.3s-.3-2.5 1.7-3h.7z"/></svg>