<svg xmlns="http://www.w3.org/2000/svg" xmlns:svg="http://www.w3.org/2000/svg" id="svg6900" width="64" height="64"><metadata id="metadata6916"/><path id="path280" fill="#f93" fill-opacity="1" fill-rule="nonzero" stroke="none" stroke-width=".937" d="M31.9 4A28.5 28.5 0 0 1 60 32c0 15-13 28-28.1 28C16.7 60 4 47 4 32 4 16.7 16.7 4 31.9 4zm2.8 11.3c-1 0-1.5.4-1.5.4l-.9.8c-.2.2-.3.3-.2.7 0 .3 0 0 0 0-2.1-.8-5.4.1-5.4.1-4.7 1.3-6.2 6.5-6.2 6.5l-.2.7s-.9 3.5 1.4 3c.1 0 .2 0 0 .3-1.6 1.9-.7 5.6-.7 5.6.2.5.3.2.3.6V39c0 .4 0 .1-.5.8-.6.6-2 2.4-2.1 3.4l-.8 2.7s-.7 1.8-1.6 2.3c-.3.2-.5.2-.6.5-.2.3-.3.8-.2 1l.5.6 1.2 1.4c.2.3 1.2 1 2 1.2.6.2 1.7.5 1.3-.6-.4-1-.5-1-.7-1.3-.3-.5-.4-.5-.3-1 0-.4 0-.8-.3-1-.3-.4-.3-.2 0-.5.2-.4.4-.4.3-.8l-.3-.4c0-.1-.2-.3 0-.5l2.8-3.8 1.4-1.4c.2 0 1-.6 1.2-1 .3-.3.5-.6.6-1.2l1.2-5.9h1.1l.5-.1 1.1-.2c1.2-.3 1.5-.6 1.8-.5l.4.1c.7 3.1.4 8.8.4 8.8s.4 1.9.6 2.2c0 0 .2.4.4.4l2-1.2c.9-.6 1.3-1 1.6-.7l.1.1-.1.3c-.3.4-.5.3-.4.6 0 .3.2.2 0 .7l-.2.9L32 53c-.3.7-.8.7-.8 1.6 0 1-.2 1.2-.3 1.7l-.7 2.4H32a27 27 0 0 0 23.3-40.2c-1.6.6-4.6 1.8-5.2 1.8-.8 0-1 .6-1.8.1 0 0-.2-.5-.6-.3 0 0-.2-.4-.5-.2 0 0-.2-.5-.8 0 0 0-.3.2-.4 0-.2 0-.3-.3-.7 0-.4.2-.9.7-1 1.1 0 0-.4.5-.6.5l-.6.3-1 .9c-.3.2-.1.2-1.4.6-1.3.3-1 .4-1.4.2 0 0-1.2-1-2-2.3 0 0-.1-.4.1-.4.3 0 .5-.2.4-.6v-.7-.5c.2-.2.2-.4.2-.5 0 0 .6-1.6-.3-2.3a4.9 4.9 0 0 0-3-1zm.2 8.7l.3.2c.2 0 1.5 1 1.7 1.1l1.3 1c.2.2.4.2.7.2l1.3.1c-.6 1.3-3.4 4.9-3.4 4.9l-.7.7c-.3.3-.3 1-.3 1s-.6-1.2-.7-3.1c0-.4-.1-.4-.3-.5 0 0-1.7-1.1-2.5-1.9 0 0 1-2 2.4-3.6l.2-.1z"/></svg>