<?xml version="1.0" encoding="UTF-8" standalone="no"?>
<svg
   xmlns:dc="http://purl.org/dc/elements/1.1/"
   xmlns:cc="http://creativecommons.org/ns#"
   xmlns:rdf="http://www.w3.org/1999/02/22-rdf-syntax-ns#"
   xmlns:svg="http://www.w3.org/2000/svg"
   xmlns="http://www.w3.org/2000/svg"
   xmlns:sodipodi="http://sodipodi.sourceforge.net/DTD/sodipodi-0.dtd"
   xmlns:inkscape="http://www.inkscape.org/namespaces/inkscape"
   id="svg958"
   width="64"
   height="64"
   version="1.1"
   sodipodi:docname="other.svg"
   inkscape:version="0.92.4 (5da689c313, 2019-01-14)">
  <defs
     id="defs298" />
  <sodipodi:namedview
     pagecolor="#ffffff"
     bordercolor="#666666"
     borderopacity="1"
     objecttolerance="10"
     gridtolerance="10"
     guidetolerance="10"
     inkscape:pageopacity="0"
     inkscape:pageshadow="2"
     inkscape:window-width="1366"
     inkscape:window-height="707"
     id="namedview296"
     showgrid="false"
     inkscape:zoom="8.015625"
     inkscape:cx="32"
     inkscape:cy="32"
     inkscape:window-x="0"
     inkscape:window-y="0"
     inkscape:window-maximized="1"
     inkscape:current-layer="svg958" />
  <metadata
     id="metadata955">
    <rdf:RDF>
      <cc:Work
         rdf:about="">
        <dc:format>image/svg+xml</dc:format>
        <dc:type
           rdf:resource="http://purl.org/dc/dcmitype/StillImage" />
        <dc:title></dc:title>
      </cc:Work>
    </rdf:RDF>
  </metadata>
  <path id="other_logo"
		d="M 32,4 C 47.46,4 60,16.54 60,32 C 60,47.46 47.46,60 32,60 C 16.54,60 4,47.46 4,32 C 4,16.54 16.54,4 32,4 Z M 21,32 C 18.24,32 16,34.24 16,37 C 16,39.76 18.24,42 21,42 C 23.76,42 26,39.76 26,37 C 26,34.24 23.76,32 21,32 Z M 35,32 C 32.24,32 30,34.24 30,37 C 30,39.76 32.24,42 35,42 C 37.76,42 40,39.76 40,37 C 40,34.24 37.76,32 35,32 Z M 49,32 C 46.24,32 44,34.24 44,37 C 44,39.76 46.24,42 49,42 C 51.76,42 54,39.76 54,37 C 54,34.24 51.76,32 49,32 Z"
		style="fill:#f93;"/>
</svg>
