<svg xmlns="http://www.w3.org/2000/svg" xmlns:svg="http://www.w3.org/2000/svg" id="svg4947" width="64" height="64"><metadata id="metadata4961"/><path id="path4244" fill="#f93" fill-opacity="1" fill-rule="nonzero" stroke="none" stroke-width=".976" d="M32 4a28 28 0 1 1 0 56 28 28 0 0 1 0-56zm-4.6 10.7c-.4 0-.9 0-1.4.4l-.2-.1c-.9-.3-1.7 0-2.4.5l-1-.4c-.4 0-1 0-1.5.3-.9-.2-1.6.1-2.2 1-.7-.2-1.5-.4-2.4.7-1.2-.3-1.8.5-2.2 1.6-1-.1-1.9.2-2.2 1.4-1 .5-1.8 1.4-1.6 4 0 1.3.4 2.6 1 3.5l.5 1c-.2 1 0 1.3.6 1.4 0 .9.6.8 1.3.5l.6-.2a279.3 279.3 0 0 0 11.5 6.6l1.7 1v1.9l.3 1c0 .3.2.5.5.6a7.4 7.4 0 0 0 1 .5c.2 0 .3.1.4.3.2 0 .3.5.3.7l-.4.5-.2.7.2.8.2.8c.1.3.4.6.7.6.3 0 .3.6.4.8l.2 1c0 .3-.2.3-.4.5s-.3.5-.3.8c0 .3.2.5.6.6.4.1.6 0 .7-.3.1-.2.4-.3.5-.2.2 0 .2.4.2.5l-.2.7-.4.8-.2 1.3c0 .3.2.6.4.7.2.1.7-.2.8-.4l.5-.3h.3l.6-.6-.2-.7v-1.2-.9c0-.3 0-.8.2-1v-.7c-.2 0-.3-.2-.3-.4l.1-.7-.1-1c0-.2-.3-1-.2-1.2l.4-1c0-.4.5-.2.7-.2l.5-.3v-.2c.2-.1.2-.5.3-.6a10.4 10.4 0 0 1 1-.5c.2-.1.4-.3.5-.6.1-.2 0-.8-.1-1l-.5-1-.4-1v-.1-.2l2.2-3.7 2.7-4.4c.6.2 1.3.2 2.2.1l2 .2a210.5 210.5 0 0 1 2.6.5c.4 0 .8.2 1.1.3.9-.6 1.5-1.4 1.9-2.5l.8-2.7c.2-1.5.3-3-.3-4.4a4.5 4.5 0 0 0-3.6-2.4c-.8-1.3-2.4-2.7-4.1-2.2-.7-.7-1.3-1.2-2.6-.8-.6-.4-1.3-.7-2.5 0l-.2-.2c-.5-.6-1.3-.8-2.3-.4l-.7-.2c-.7 0-1.3.1-1.8.8l-.2-.3c-.5-.7-1.3-.8-2.4-.3-.6-.3-1.3-.4-1.9-.2l-.6.3c-.3-.3-.6-.5-1-.5zM26 27.8a49.3 49.3 0 0 0 3 .1 45.7 45.7 0 0 0 1.8.2l2.5 8.1 1.4 4.7a1 1 0 0 1-.4 0H34l-.6-.1c0-.2 0-.4.3-.5.8-.4.5-1.9-.4-2.2h-.2c-1.1 0-1.5 1.5-1 2l.2.4c0 .3-.3.2-.4.2-.2 0-.2-.2-.3-.3 0-.2 0-.3-.6-.2-.5 0-.7-.2-1.1-.4a3 3 0 0 1-1-1l-.4-1-.3-.5v-.1l-2.4-7.8-.5-1.4.5-.1h.2zm-1 .2l.8 2.4 1.9 6h-.2v.5l-1.7-3.7-2.3-4.8L25 28zm6.1 0a86.8 86.8 0 0 1 3.7.3l.5 6.7.2 2.8-.2.4.1.2-.1.7-.4 1.5-1.6-5.4-2.2-7.1zm4 .3h.2a44.8 44.8 0 0 1 1.7.2l-1 6.1-.3 2.3-.4-5.8-.2-2.8zm-11.9.1l2.6 5.5 1.4 3-1.4-1.6-3.4-3.8-2-2.2a15.2 15.2 0 0 0 2.8-.9zm14.7.2l.4.1h.5l1.9.8-2.4 3.9-2.3 3.8V36.6l1.9-8zm-17.8.7l2.3 2.6 3.4 3.9.4.5-.4-.4-3.4-3-3.8-3.3 1.5-.3zm-1.9.3l4.2 3.7 3.4 3 .9.8-1-.5a2287.7 2287.7 0 0 1-11.1-6.4l3.6-.6zm10.2 9s.3.3.3.5a5.2 5.2 0 0 0 .5.9c.2.3.3.2.5.4.3.2.1.3-.1.3l-.6-.2a1 1 0 0 1-.6-.6l-.2-1c0-.3.2-.3.2-.3zm7.2.2l.4 1.3.1.3c.1.2 0 .3 0 .4h-.2c-.2.2-.4.1-.6.1H35l.2-.5z"/></svg>