<?xml version="1.0" encoding="UTF-8" standalone="no"?><!--Created with Inkscape (http://www.inkscape.org/)--><svg xmlns:dc="http://purl.org/dc/elements/1.1/" xmlns:cc="http://creativecommons.org/ns#" xmlns:rdf="http://www.w3.org/1999/02/22-rdf-syntax-ns#" xmlns:svg="http://www.w3.org/2000/svg" xmlns="http://www.w3.org/2000/svg" xmlns:sodipodi="http://sodipodi.sourceforge.net/DTD/sodipodi-0.dtd" xmlns:inkscape="http://www.inkscape.org/namespaces/inkscape" width="64" height="64" id="svg909" sodipodi:docname="rock_climbing.svg" inkscape:version="0.92.3 (2405546, 2018-03-11)"><sodipodi:namedview id="base" pagecolor="#ffffff" bordercolor="#666666" borderopacity="1" inkscape:pageopacity="0" inkscape:pageshadow="2" inkscape:zoom="4" inkscape:cx="38.6" inkscape:cy="37" inkscape:document-units="px" inkscape:current-layer="svg909" showgrid="false" units="px" inkscape:window-width="1280" inkscape:window-height="1002" inkscape:window-x="2552" inkscape:window-y="1016" inkscape:window-maximized="1"/><metadata id="metadata906"><rdf:RDF><cc:Work><dc:format>image/svg+xml</dc:format><dc:type rdf:resource="http://purl.org/dc/dcmitype/StillImage"/><dc:title/></cc:Work></rdf:RDF></metadata><path sodipodi:nodetypes="ssssscccccccscccccccccccccccccccccccccccccccccccccccsccccccccccccccccccccccscsc" inkscape:connector-curvature="0" id="path200" d="M32.1 4A28.6 28.6 0 0 0 4 31.7C4 46.7 17.2 60 32.1 60A29 29 0 0 0 60 31.7C60 16.8 47 4 32.1 4zm-.7 1C56.2 4.5 72 37.7 44.2 56.3c-.7-.5-1.4-2.2-2-3.6v-1.4c-.1-.9-1-2.4-1.7-3.8-.8 0-2.3.2-2.8.5-.6.4-2.1.6-2.3-.3-.1-.8 0-1.7-.2-2.5-.3-.8-2-3-2-4.5 0 0-.3-.7-1.3-.5h-.4l-.2.1c-2 .3-8.8 1-10.4 0L19.6 39s-.5-.6-1-1.6l-.7-1.7a7 7 0 0 1-.2-2.8s-.1-2.3-.5-4c-.4-1.6-.3-5.4.5-6l1.4-1.3s.9-.5.7-1v-1s-.3 1-1 1.6c-.3.3-.4.2-.4.2s-1.1-.2-.6-1.8c.6-1.6.9-.4 1.3-1.5.4-1 .7-1.5 1.2-1.7.5-.1.8 0 .8 0s1.5-5.8 3.2-8.6V6.1c2.5-.7 4.4-1 7-1zm-5.8 3.2l-.6.3s-1 6.7-1.7 8.3c0 0 2.8 1.2.7 4.9 0 0 .1.8.5 0 0 0 2.5-5.1 4.5-7.5-.5-.5-1-.5-1.9-1.5-.7-.9-1.2-2.8-1.5-4.5zm3.4 8.5c-.4.6-1 1.5-1.1 2.3-.2 1.4-1.8 4.9-2.4 5.4 0 0-2.4.6-2.8.4 0 0 1 1 1 2.7 0 0 2.9-4.9 4.9-3.4l.2.3c.3.6 1.2 2.3 1.7 4.7 0 0 1.4 3.8 2.7 5 .6.6 1.4.8 2.2.7-.8-1-1.5-2.9-2-4.5-.7-2-1.4-3.4-1.8-5.5-.4-2-1-3.3-1.7-5-.4-.7-.6-1.6-.8-2.3l-.1-.7zm-1.7 12.9s-2 5.7-3.4 6.9c0 0 3.8-.3 6.6-.3h1.2l-.6-1a81 81 0 0 1-.8-1.2l-.3-.4a25 25 0 0 1-2.7-4zm9.5 6.3L35.3 37c.5.3 1 .8 1 1.7 0 0 .6 5.3 1.2 6 0 0 1.2.4 2.2.4-.3-1.2-1-2.9-1.8-4.2-1-1.4-.8-1.8-.8-2.7 0-.7 0-1.6-.3-2.3z" style="fill:#ffaa45;fill-opacity:1;fill-rule:nonzero;stroke:none;stroke-width:0.92269206"/></svg>
