<?xml version="1.0" encoding="UTF-8" standalone="no"?>
<svg
   xmlns:dc="http://purl.org/dc/elements/1.1/"
   xmlns:cc="http://creativecommons.org/ns#"
   xmlns:rdf="http://www.w3.org/1999/02/22-rdf-syntax-ns#"
   xmlns:svg="http://www.w3.org/2000/svg"
   xmlns="http://www.w3.org/2000/svg"
   xmlns:sodipodi="http://sodipodi.sourceforge.net/DTD/sodipodi-0.dtd"
   xmlns:inkscape="http://www.inkscape.org/namespaces/inkscape"
   height="64"
   width="64"
   id="svg4470"
   version="1.1"
   inkscape:version="0.92.3 (2405546, 2018-03-11)"
   sodipodi:docname="slacklining.svg">
  <metadata
     id="metadata4485">
    <rdf:RDF>
      <cc:Work
         rdf:about="">
        <dc:format>image/svg+xml</dc:format>
        <dc:type
           rdf:resource="http://purl.org/dc/dcmitype/StillImage" />
        <dc:title />
      </cc:Work>
    </rdf:RDF>
  </metadata>
  <defs
     id="defs4483" />
  <sodipodi:namedview
     pagecolor="#ffffff"
     bordercolor="#666666"
     borderopacity="1"
     objecttolerance="10"
     gridtolerance="10"
     guidetolerance="10"
     inkscape:pageopacity="0"
     inkscape:pageshadow="2"
     inkscape:window-width="1280"
     inkscape:window-height="1002"
     id="namedview4481"
     showgrid="false"
     inkscape:zoom="8"
     inkscape:cx="25.235071"
     inkscape:cy="42.856654"
     inkscape:window-x="2552"
     inkscape:window-y="1016"
     inkscape:window-maximized="1"
     inkscape:current-layer="svg4470"
     showguides="true"
     inkscape:guide-bbox="true" />
  <path
     id="path31"
     d="M 32.000936,4 C 16.53686,4.0000001 4,16.534472 4,31.999064 4,47.463656 16.53686,60 32.000936,60 47.464053,60 60,47.463657 60,31.999064 60,16.534472 47.464053,4 32.000936,4 Z M 26.158987,7.5871288 C 26.244353,7.5760511 26.311673,7.6490338 26.278745,7.7555385 26.26012,7.815772 26.214356,7.9710743 26.175827,8.099843 L 26.104722,8.3337454 26.220737,8.1896615 C 26.283883,8.1109086 26.386588,7.9537368 26.449026,7.8397434 L 26.56317,7.632038 26.666087,7.6732048 C 26.812499,7.7293857 26.796996,7.8414732 26.566912,8.4160791 26.328338,9.0118928 26.382415,9.1862589 26.660474,8.7192168 26.950048,8.2328371 27.14721,7.9685934 27.204999,7.9875698 27.340732,8.0321389 27.310662,8.3192768 27.135763,8.6649515 L 26.956126,9.0204832 26.974839,9.3460754 C 26.98465,9.5252651 26.988321,9.8152186 26.982323,9.9897751 L 26.971097,10.306011 26.574398,10.693354 26.177699,11.078825 26.130918,11.267819 26.084138,11.45494 26.153373,11.599025 C 26.288083,11.884096 26.366656,12.151403 26.4247,12.514051 26.457092,12.716401 26.580747,13.287932 26.699769,13.784609 L 26.916831,14.688408 26.886892,15.051425 26.856952,15.41257 26.997293,15.633374 C 27.074398,15.754591 27.175081,15.854492 27.219968,15.85605 27.264854,15.857583 27.369991,15.951575 27.453871,16.065626 27.53775,16.179678 27.720832,16.332137 27.861797,16.404317 28.002762,16.476498 28.258886,16.681773 28.430648,16.859024 L 28.743142,17.180874 29.008855,17.227654 C 29.154749,17.253627 29.34973,17.313608 29.442978,17.360511 29.536198,17.407408 29.808239,17.462659 30.047382,17.484011 30.494587,17.523943 30.750778,17.610239 31.061583,17.82083 L 31.24122,17.940588 31.379691,17.854513 C 31.456336,17.806648 31.520032,17.711898 31.520032,17.644936 V 17.523307 L 32.055201,16.986267 32.592241,16.451098 32.431316,16.003876 32.270392,15.558526 32.221739,14.804424 C 32.194913,14.390199 32.14607,14.035093 32.113209,14.014769 32.044707,13.972432 32.085198,13.745716 32.234838,13.32616 L 32.339626,13.03425 32.270392,12.991212 32.201156,12.948174 32.328399,12.790991 32.455642,12.631938 32.624052,12.66562 C 32.835286,12.706002 32.908183,12.609848 32.706386,12.557089 L 32.558559,12.519664 32.631537,12.446687 32.702643,12.37371 32.880409,12.454172 C 32.977988,12.498626 33.058175,12.561757 33.058175,12.592642 33.058175,12.62353 33.132056,12.648779 33.222842,12.648779 H 33.387509 L 33.350086,12.547733 33.31079,12.448558 33.436161,12.403649 C 33.504375,12.379353 33.609871,12.316508 33.671935,12.263307 33.734017,12.210106 33.818378,12.187645 33.859057,12.212785 33.899775,12.237924 34.222074,12.269693 34.575735,12.283891 L 35.219433,12.310088 35.363518,12.444815 C 35.442941,12.519449 35.552096,12.582759 35.604905,12.585158 35.733094,12.591002 36.445245,13.480137 36.600394,13.827648 36.668225,13.979471 36.75625,14.124391 36.796872,14.149497 36.837494,14.174598 36.86985,14.295178 36.86985,14.418953 V 14.64537 L 36.720153,14.834364 C 36.427406,15.202145 36.314201,15.514853 36.205566,16.263975 36.175962,16.467844 36.107934,16.722101 36.052127,16.830955 35.996271,16.939809 35.911114,17.206083 35.863134,17.422261 L 35.775187,17.815217 35.956695,17.948074 C 36.056592,18.020848 36.185584,18.171998 36.242991,18.283022 L 36.34778,18.483243 36.30287,18.726501 C 36.277961,18.859998 36.229813,19.000526 36.198082,19.038995 L 36.141945,19.110102 36.45631,19.201791 C 36.629337,19.252732 36.887285,19.378734 37.030775,19.482474 37.174264,19.586213 37.334523,19.671467 37.386306,19.671467 37.496704,19.671467 37.908207,19.897162 38.364955,20.206636 38.543155,20.327375 38.87328,20.482726 39.098473,20.552812 39.323666,20.622894 39.558499,20.726822 39.620543,20.782972 L 39.734688,20.884018 39.775855,20.818525 39.815151,20.751161 40.29044,20.768002 40.763859,20.782972 40.878003,20.93454 40.990276,21.084238 42.051258,21.044943 43.110369,21.005647 43.325559,21.076754 43.540749,21.14786 44.972232,21.174057 C 45.759484,21.188198 46.771522,21.220065 47.221439,21.247034 L 48.039162,21.297558 48.087813,21.437899 C 48.114352,21.515301 48.136517,21.604964 48.138337,21.638119 48.141211,21.693629 48.923336,22.070268 49.670866,22.37538 L 49.981489,22.502623 50.206035,22.775821 C 50.507222,23.143334 51.022903,23.685234 51.070538,23.685234 51.155518,23.685234 51.519325,24.101619 51.484078,24.158653 51.407816,24.282033 51.216748,24.212901 50.56718,23.819962 L 49.904769,23.417649 H 49.706419 C 49.597803,23.417649 49.400632,23.373661 49.268553,23.318475 49.136475,23.263291 48.919256,23.217567 48.785779,23.217429 H 48.544392 L 48.316102,23.078959 48.089685,22.940488 48.033548,23.028436 C 48.002698,23.077134 47.976116,23.138386 47.975541,23.165035 47.975004,23.191678 47.879517,23.263432 47.762221,23.324089 L 47.548902,23.43449 47.427273,23.359641 C 47.271674,23.262463 46.991748,23.26203 46.9314,23.359641 L 46.884619,23.436361 46.310154,23.397066 C 45.993571,23.375548 45.538838,23.386834 45.299696,23.421393 43.936293,23.618441 42.612276,23.664188 39.981689,23.604772 L 38.241454,23.565476 37.859725,23.425135 C 37.649095,23.347876 37.429223,23.284793 37.371337,23.284793 37.31347,23.284793 37.141912,23.223645 36.989608,23.150065 36.619479,22.971238 36.519907,22.981912 36.385204,23.209944 36.191646,23.537612 35.86771,24.530783 35.866876,24.800482 35.865918,25.150401 35.719076,25.660732 35.507602,26.054198 35.311582,26.418923 35.286511,26.672748 35.425268,26.862565 L 35.516958,26.989809 35.445852,27.103953 35.374745,27.218097 35.457078,27.609182 C 35.502874,27.82417 35.59907,28.249273 35.670398,28.554148 35.868584,29.401206 35.825627,29.797077 35.492632,30.178367 L 35.400943,30.283156 35.597421,30.513316 C 35.705644,30.63991 35.796146,30.793536 35.797641,30.855749 35.799557,30.917966 35.830087,30.988322 35.866876,31.01106 35.903666,31.033796 35.93424,31.098615 35.93424,31.157015 35.93424,31.215409 36.069952,31.408529 36.235506,31.585525 L 36.536772,31.907374 V 32.064557 C 36.536772,32.15108 36.493076,32.280084 36.44134,32.350854 L 36.34778,32.479968 36.031544,32.395763 C 35.63158,32.288787 35.629909,32.290563 35.831322,32.723227 L 35.999733,33.084372 V 33.338858 L 36.001604,33.591473 35.767701,33.690648 C 35.638937,33.744452 35.531927,33.815883 35.531927,33.849701 35.531927,33.883521 35.480285,33.928058 35.415912,33.948876 35.35153,33.969695 35.263371,34.065297 35.219433,34.160324 L 35.138971,34.332475 35.208207,34.510241 35.27557,34.689878 35.19885,35.960437 C 35.070671,38.091726 34.941138,39.035213 34.598189,40.309153 34.528825,40.566689 34.436955,40.953085 34.394226,41.168042 L 34.317506,41.557256 34.396098,42.11675 C 34.439785,42.424317 34.476515,42.836479 34.478431,43.031778 L 34.482173,43.387309 34.360544,43.619341 34.237044,43.853243 34.212717,44.289238 C 34.175161,44.98785 34.184274,45.091776 34.321248,45.554182 34.494179,46.137908 34.623807,47.209711 34.579477,47.6986 L 34.543923,48.093428 34.669295,48.207572 C 34.83506,48.357584 34.831215,48.468974 34.631871,49.021553 L 34.465332,49.481872 34.588832,49.811207 34.710462,50.140542 35.045411,50.479233 C 35.228899,50.665387 35.405035,50.862807 35.438367,50.917098 35.471707,50.971392 35.635829,51.121937 35.801383,51.252047 L 36.100778,51.489691 36.214923,51.463495 C 36.277005,51.449392 36.388153,51.498252 36.461924,51.572025 L 36.596651,51.706753 37.719384,51.474722 C 38.337709,51.347511 39.279809,51.155032 39.813279,51.046213 40.346748,50.937392 41.596819,50.679346 42.590169,50.47362 43.583529,50.267892 45.32869,49.90829 46.469208,49.674608 47.609727,49.440926 53.561105,48.193695 54.646439,47.968055 54.464554,48.275893 54.401202,48.371683 54.242256,48.589301 52.844832,48.854509 51.460446,49.109113 49.296622,49.541751 47.586486,49.908325 41.029579,51.232746 39.345474,51.551442 38.664846,51.680244 37.581052,51.887326 36.937214,52.011762 36.293375,52.136198 35.609068,52.258152 35.415912,52.283089 L 35.064123,52.327998 V 52.455241 52.582485 H 34.935009 C 34.863632,52.582485 34.785601,52.613058 34.762856,52.649848 34.696654,52.756939 34.478087,52.726419 34.382999,52.597453 34.334904,52.532247 34.174626,52.430129 34.027467,52.369165 L 33.759882,52.258763 33.14238,52.217596 32.523006,52.176429 V 52.240051 52.301801 L 32.298459,52.251278 32.072042,52.200755 31.954155,52.266248 31.834397,52.333612 31.718382,52.180172 31.604237,52.026731 31.203796,52.06977 C 30.776048,52.114482 30.649424,52.15767 30.187723,52.417816 L 29.892071,52.582485 H 29.675009 C 29.469772,52.582485 29.248733,52.546134 28.391352,52.367294 L 28.037692,52.294316 27.755138,52.357937 27.472583,52.421559 27.137635,52.363551 C 26.953989,52.332204 26.754496,52.260797 26.692285,52.204497 L 26.57814,52.10158 C 26.252463,51.744139 26.33441,51.317465 26.462125,50.872189 L 26.510776,50.73559 26.222609,50.664483 C 25.894503,50.585261 22.662299,49.703222 21.250776,49.307849 20.735704,49.163575 19.456935,48.816506 18.408394,48.535035 17.359853,48.253566 15.522968,47.759502 14.327263,47.436629 13.131557,47.113757 11.778229,46.751346 11.318341,46.632005 10.858455,46.512664 10.01551,46.28516 9.4452501,46.126775 8.9386373,45.988131 8.4341389,45.842274 7.9295619,45.696395 L 7.6825609,45.256658 C 15.869719,47.504713 13.514573,46.772083 20.884018,48.800749 21.396629,48.939888 24.64092,49.840002 26.22448,50.282755 L 26.849467,50.456779 27.096468,50.417483 C 27.232261,50.395773 27.454397,50.408464 27.588599,50.445551 L 27.831857,50.512915 28.004009,50.716878 C 28.098359,50.82901 28.194722,51.002139 28.2192,51.100477 28.243631,51.198817 28.308608,51.310858 28.363283,51.351221 L 28.462458,51.42607 28.385739,51.646874 C 28.343392,51.768362 28.309019,51.87411 28.309019,51.882648 28.309019,51.926575 28.938493,52.045241 29.379356,52.084739 L 29.880843,52.129649 30.131587,52.02486 C 30.269366,51.96729 30.38233,51.896076 30.38233,51.865807 30.38233,51.813803 28.631215,51.306395 28.46433,51.310054 28.421217,51.310998 28.364883,51.21477 28.338958,51.096735 L 28.292178,50.883416 28.367027,50.857219 28.441875,50.832894 28.402579,50.675711 28.363283,50.518529 28.471815,50.144285 C 28.53179,49.937918 28.641079,49.662681 28.713202,49.534267 28.785344,49.405853 28.843412,49.249485 28.844188,49.18622 28.844964,49.122959 28.922485,48.859936 29.014468,48.6024 29.158111,48.200389 29.233715,47.932963 29.345674,47.432887 29.358033,47.377702 29.414744,47.219859 29.472918,47.082968 L 29.579577,46.834097 29.431751,46.530958 C 29.350794,46.364324 29.260991,46.227821 29.23153,46.227821 29.110267,46.227821 29.190858,46.008769 29.373743,45.840478 29.481448,45.741377 29.633738,45.494561 29.712434,45.292211 29.791091,45.089861 29.977001,44.702669 30.124102,44.433321 L 30.389815,43.944932 30.518929,43.196444 C 30.589347,42.785161 30.71909,42.05035 30.807097,41.562869 L 30.966151,40.675911 H 30.874461 30.7809 L 30.797741,40.153841 30.816453,39.63177 30.402914,38.999298 C 30.174923,38.652077 29.848453,38.066709 29.678751,37.6988 29.50904,37.330891 29.29785,36.879579 29.209075,36.693955 L 29.04815,36.355265 28.782437,36.237378 C 28.489931,36.108329 28.465428,36.063232 28.408194,35.526314 28.350997,34.989572 28.264796,34.714278 28.076987,34.459719 27.859311,34.164676 27.728476,33.749141 27.637251,33.060046 L 27.564273,32.500551 27.734554,32.150634 27.906706,31.798844 V 31.544358 31.288001 L 28.015237,31.168243 28.125639,31.046614 27.932904,30.977378 C 27.826873,30.938557 27.701952,30.89248 27.655963,30.876333 27.504623,30.823189 27.617802,30.4201 27.871153,30.107261 27.915847,30.052076 28.019844,29.721386 28.103184,29.371872 28.186536,29.022358 28.322501,28.584663 28.406322,28.400708 L 28.559762,28.067631 28.531694,27.431416 C 28.515982,27.081903 28.489877,25.831836 28.473686,24.654526 28.457495,23.477216 28.431199,22.183162 28.415678,21.778461 L 28.38761,21.043072 28.301533,20.842851 C 28.254377,20.732478 28.078165,20.506924 27.910448,20.341364 27.488398,19.924735 27.153066,19.530021 26.793331,19.025896 26.624801,18.789724 26.415043,18.5442 26.327396,18.481372 26.121619,18.333864 24.701646,16.699482 24.454305,16.325726 L 24.263441,16.039429 24.259698,13.924951 24.254085,11.812343 24.426238,11.63832 C 24.52053,11.543155 24.633545,11.453312 24.678851,11.438099 L 24.761186,11.410031 24.83042,10.64096 C 24.867795,10.217864 24.926474,9.7361812 24.961406,9.5706218 24.996337,9.4050626 25.028824,9.0896602 25.032512,8.8689144 25.036153,8.6481687 25.074671,8.3614673 25.118589,8.2326996 L 25.19718,7.998797 H 25.298226 25.399271 L 25.376817,8.346844 C 25.337967,8.9460387 25.500703,9.1731004 25.59575,8.6518529 25.648846,8.3606587 25.937987,7.7387182 26.071039,7.6282955 26.100318,7.6039969 26.130531,7.5908212 26.158987,7.5871288 Z M 35.833195,31.36285 35.574965,31.516289 35.316737,31.667858 35.505731,31.767033 C 35.609777,31.821547 35.736584,31.906201 35.786413,31.956027 35.880878,32.050482 36.334997,32.084724 36.334681,31.997193 36.334614,31.969601 36.222186,31.815081 36.083937,31.65476 Z M 31.104622,41.880977 C 31.075209,41.880977 31.050835,41.932605 31.050356,41.996992 31.049819,42.061374 31.029111,42.187273 31.005447,42.275804 L 30.962408,42.43673 31.033515,42.393691 C 31.072029,42.369884 31.115776,42.243989 31.130818,42.114879 31.14586,41.985771 31.133555,41.880977 31.104622,41.880977 Z M 30.958666,42.616367 C 30.944583,42.616367 30.918191,42.690929 30.900658,42.782905 30.883126,42.874879 30.895431,42.951315 30.926856,42.951315 30.958567,42.951315 30.984863,42.87488 30.984863,42.782905 30.984863,42.690931 30.97275,42.616367 30.958666,42.616367 Z M 31.185084,47.934374 V 48.012965 C 31.185084,48.056049 31.250121,48.356165 31.331039,48.680991 L 31.478866,49.272296 31.482608,50.129315 31.48635,50.988205 31.630434,51.066796 C 31.779979,51.147474 32.188058,51.623921 32.188058,51.717981 32.188058,51.778358 32.388337,51.824412 32.706386,51.837739 L 32.925318,51.847094 32.923447,51.328767 C 32.922489,50.150392 32.775446,49.417911 32.523006,49.337789 L 32.388278,49.296622 32.247937,48.989742 32.109467,48.682862 32.14689,48.491997 C 32.167872,48.387236 32.16936,48.218927 32.148762,48.117753 L 32.111338,47.934374 H 31.647275 Z M 30.889431,48.463929 C 30.744137,48.498259 30.449694,49.119127 30.449694,49.453804 V 49.665252 L 30.629331,49.936579 C 30.893843,50.333343 30.994592,50.441809 31.095265,50.441808 H 31.185084 V 50.005814 C 31.185084,49.619605 31.025598,48.621937 30.941825,48.486384 30.928477,48.464786 30.910187,48.459024 30.889431,48.463929 Z M 27.452,50.584021 27.272363,50.591506 27.472583,50.6439 C 27.582956,50.671981 27.682018,50.697558 27.693387,50.701908 27.70476,50.706219 27.695586,50.68069 27.672803,50.6439 27.650069,50.60711 27.551005,50.579672 27.452,50.584021 Z M 26.82327,50.84412 C 26.735454,50.84412 26.568784,51.232111 26.568784,51.437297 26.568784,51.859743 26.876084,52.163328 27.3154,52.176429 L 27.491295,52.182043 27.48194,51.964981 27.472583,51.746049 27.79069,51.766632 28.108799,51.787215 V 51.48782 51.186554 L 27.990912,51.152872 C 27.667977,51.056051 26.86691,50.84412 26.82327,50.84412 Z"
     style="fill:#ffaa45;fill-opacity:1;fill-rule:nonzero;stroke:none;stroke-width:0.95806462"
     inkscape:connector-curvature="0" />
</svg>
