<svg xmlns="http://www.w3.org/2000/svg" xmlns:svg="http://www.w3.org/2000/svg" id="svg4470" width="64" height="64"><metadata id="metadata4485"/><path id="path31" fill="#f93" fill-opacity="1" fill-rule="nonzero" stroke="none" stroke-width=".958" d="M32 4a28 28 0 1 0 0 56 28 28 0 0 0 0-56zm-5.8 3.6s.1 0 0 .2V8l-.1.2.1-.1.2-.4.2-.2c.2.1.2.2 0 .8-.3.6-.2.8 0 .3l.6-.7v.7L27 9v1.3l-.4.4-.4.4v.2l-.1.2v.1c.2.3.3.6.3 1l.3 1.2.2.9v.7l.1.2c0 .2.2.3.2.3s.2 0 .3.2l.4.3.5.5.3.3h.3l.4.2h.6c.5.1.8.2 1 .4l.2.1h.2l.1-.3.6-.6.5-.5-.2-.5-.1-.4v-.8L32 14l.1-.7.1-.3h-.1l.1-.2.2-.2h.1c.2.1.3 0 .1 0h-.1v-.2H33l.2.2H33.4v-.2l.3-.1s.1-.1.2 0H35.2l.2.1.2.2 1 1.2c0 .2.2.3.2.3v.7c-.4.4-.5.7-.6 1.5l-.1.5-.2.6-.1.4.2.1.2.4.1.2v.2l-.1.3v.1l.3.1.5.3.4.2 1 .5.7.4.5.2h1.2v.1l.2.2h4l2.2.1.8.1v.1l.1.2 1.6.8.3.1.2.3.9.9.4.5s-.3 0-1-.4l-.6-.4H49.3l-.5-.2h-.3l-.2-.1-.2-.2v.1l-.1.2-.2.1-.3.1h-2.2c-1.4.2-2.7.3-5.3.2h-1.8l-.3-.2-.5-.1-.4-.1c-.4-.2-.5-.2-.6 0-.2.3-.5 1.3-.5 1.6 0 .4-.2.9-.4 1.3-.2.3-.2.6 0 .8v.2l-.1.1v.4l.3 1c.2.8.1 1.2-.2 1.6h-.1l.2.3.2.4v.1l.1.2.3.4.3.3v.5H36c-.4-.1-.4-.1-.2.3l.2.4v.5h-.2l-.3.2v.1l-.3.3V36a19.1 19.1 0 0 1-.8 5.2v2.4l-.2.3v.4l.1 1.3c.2.5.3 1.6.3 2.1v.5c.2.2.2.3 0 .8l-.1.5v.3l.2.3.3.4.4.4.4.4.3.2h.4l.1.2 1.1-.2a1512.4 1512.4 0 0 1 8.8-1.8l8.1-1.7a6 6 0 0 1-.4.6l-4.9 1a822.3 822.3 0 0 1-13.9 2.7h-.3v.2h-.2l-.1.1c-.1.2-.3.1-.4 0l-.4-.2-.2-.1H33l-.6-.1v.1h-.2l-.2-.1H32l-.2.1v-.1l-.2-.2h-.4a2 2 0 0 0-1 .4l-.3.2h-.2a7 7 0 0 1-1.3-.2l-.4-.1h-.2l-.3.1H27l-.4-.2-.1-.1c-.3-.4-.3-.8-.1-1.2v-.2h-.3a435 435 0 0 1-14.9-4L9.4 46 8 45.7l-.2-.4 13.2 3.5 5.3 1.5.6.2h1l.2.2.2.4.2.3v.5l1 .2h.7l.3-.2-2-.6v-.2l-.1-.2h.1V50l.3-.6.1-.3.2-.6.3-1.2.2-.3v-.6l-.3-.3.2-.4.3-.5.4-.9.3-.5.1-.7.3-1.6.2-1h-.2v-1l-.4-.6a12.1 12.1 0 0 1-1.2-2.3l-.2-.3-.2-.2c-.3 0-.3-.1-.4-.7 0-.5-.1-.8-.3-1a3 3 0 0 1-.5-1.4v-.6l.1-.3.2-.4v-.5l.1-.1.1-.2H28l-.2-.1c-.2 0 0-.5.2-.8l.2-.7c0-.4.2-.8.3-1l.2-.3v-.7a145.3 145.3 0 0 1-.2-5.6V21l-.1-.2-.4-.5-1.1-1.3-.5-.5-1.8-2.2-.2-.3v-4.2l.1-.2.3-.2.1-.8A13 13 0 0 1 25 9l.1-.7.1-.2h.2v.3c0 .6.1.9.2.4 0-.3.3-1 .5-1v-.1zm9.6 23.8l-.2.1-.3.2h.2l.3.3h.5s0-.2-.2-.3zm-4.7 10.5v.4l-.1.1.1-.3V42zm-.1.7l-.1.2v-.2zm.2 5.3v.1l.1.7.2.6V51h.1l.6.7.5.1h.2v-.5c0-1.1-.1-1.9-.4-2h-.1l-.2-.3v-.5V47.9h-.6zm-.3.6c-.2 0-.5.6-.5 1v.2l.2.2.5.5V50c0-.4 0-1.4-.2-1.5zm-3.4 2h-.2l.2.1.2.1-.2-.1zm-.7.3l-.2.6c0 .5.3.8.7.8h.2v-.5h.6v-.5H28l-1.2-.4z"/></svg>