<?xml version="1.0" encoding="UTF-8" standalone="no"?><svg xmlns:dc="http://purl.org/dc/elements/1.1/" xmlns:cc="http://creativecommons.org/ns#" xmlns:rdf="http://www.w3.org/1999/02/22-rdf-syntax-ns#" xmlns:svg="http://www.w3.org/2000/svg" xmlns="http://www.w3.org/2000/svg" xmlns:sodipodi="http://sodipodi.sourceforge.net/DTD/sodipodi-0.dtd" xmlns:inkscape="http://www.inkscape.org/namespaces/inkscape" height="64" width="64" id="svg7142" inkscape:version="0.92.3 (2405546, 2018-03-11)" sodipodi:docname="snow_ice_mixed.svg"><metadata id="metadata7168"><rdf:RDF><cc:Work><dc:format>image/svg+xml</dc:format><dc:type rdf:resource="http://purl.org/dc/dcmitype/StillImage"/><dc:title/></cc:Work></rdf:RDF></metadata><sodipodi:namedview pagecolor="#ffffff" bordercolor="#666666" borderopacity="1" objecttolerance="10" gridtolerance="10" guidetolerance="10" inkscape:pageopacity="0" inkscape:pageshadow="2" inkscape:window-width="1280" inkscape:window-height="1002" id="namedview7164" showgrid="false" inkscape:zoom="8.2" inkscape:cx="26.8" inkscape:cy="31.5" inkscape:window-x="2552" inkscape:window-y="1016" inkscape:window-maximized="1" inkscape:current-layer="svg7142"/><path style="fill:#ffaa45;fill-opacity:1;fill-rule:nonzero;stroke:none;stroke-width:0.95806462" d="M32 4a28 28 0 1 0 0 56 28 28 0 0 0 0-56zm15.8 6.3a27 27 0 0 1 3.4 40.3 27.8 27.8 0 0 1-25.4 7.5l2.1-4.8h-2.8c-1.3-.1-2.2-.5-2.2-.5V52l.3-2 .6-1.7c.3-.8.4-2 .4-2 0-1.4 1.3-4.2 1.5-5 .3-.8.3-1 .2-1.5l-1-4.4c-.9-2-.4-3.8-.4-3.8 0-.5.4-1.5.4-1.5-.1 0-1.3.2-1.7.1-.5-.1-1-.6-1-.6l-.6-.3-.3-.3s-1-.5-.9-.8c0 0-1-3.2.6-5.5.2-.3.3-.7.8-1.3.4-.7.8-.6 1.6-1.5l1-1.7c.4-.7.8-1 .8-1l.7-.4.7-.2.6.1c.3.1 1.3.7 1.2 0-.1-.5 0-1.5.3-1.8.3-.3 1.4-.6 1.9-.7.4 0 .9 0 1.6.5.8.3.5 1.8 1 1.8s.4.6.4.6c.1.4-.2.6-.2.6v.7 1.1c0 .4-.5.4-.5.4s-.6.1.5 1l.5.1c.3.1.4 0 .8-.1.5-.1 1.2 0 1.8-.2l2-.7 1-.6c.2 0 .3 0 .4-.3 0-.2.2-.3.5-.4.2-1.3.9-5.2 1.1-5.7 0 0 0-.5-.3-.5l-1 .2s-1-.1-.4-.3l1.4-.2h.3s1.6 0 1.6.3l1.4 2.2a85 85 0 0 1-2-1c-.3.5-1.1 3-1.2 5.3l.3.3c.5.1-.4.4 0 .7.4.3-.1.8-.1.8-.2.5-.7.6-.7.5h-1c-.3-.1-1 .2-1.3.4l-2 1.3c-.5.4-2 .7-2 .7.2.2.3 1.3.4 1.5l.2.8.5.7.4 1 .5 1.4.5.8.8 1 .3-.4.4-.3zM32.7 27.2l-.2.1-.4 1.2-.3.4c-.5.4-.6 1.4-.6 1.6-.2 1.6.3 2.4.3 2.4l.4 1.2 1 2.7c.2.8.2 1.5.2 1.9 0 .4-.6 1.6-1.1 2.4l-.8 1.5c-.4 1 0 1.1.1 1.2.2 0 .3.2.3.4s-.3.3-.5.5c0 .3 0 .8.3 1l6.1-13.3c-.2 0-.3 0-.4-.2-.2 0-.4-.2-.6-.4-.3-.2-.4-.6-1-.9-.5-.3-2-2.4-2.3-2.7-.3-.3-.4-.4-.4-.8v-.2h-.1zM28 48c-.4 0-.8 0-1 .2l-.4.6c0 .2 0 0 .3.3.1.2 0 .3 0 .4-.2.1-.2.1-.1.2l.3.3c0 .2.3.5.6.6l1 .3h.2l1.2-2.5h-.4a6 6 0 0 0-1.7-.4z" id="path240" inkscape:connector-curvature="0" sodipodi:nodetypes="ssssscccccccccccscccccccccccsccccccscssccccccccscccccsccccccccccccccsccccccccccccccccccccccccscccccccsccccscccccccccccs"/></svg>
