<svg xmlns="http://www.w3.org/2000/svg" xmlns:svg="http://www.w3.org/2000/svg" id="svg5707" width="64" height="64"><metadata id="metadata5721"/><path id="path26" fill="#f93" fill-opacity="1" fill-rule="nonzero" stroke="none" stroke-width=".958" d="M32 4a28 28 0 1 0 0 56 28 28 0 0 0 0-56zm4.2 6.7c1.2 0 2 1 2 1 .1.5.3 1 .6 1.4.5.7.3 1.4 0 2l-.3.7c0 .5-.1.9-.5 1-.5.2-.2 1.1-1 1V19c.6 2.5.3 5 .3 5v.5l.2.1c.4 0 .8.1 1.1-.3.6-.6 1.3-.2 2-.3.1 0 .3 1 .2 1.3-.3.4-.6 1-1 1.1-.5.2-.7.7-1.1 1-.3.2-.3.4 0 .7.3.3.5.4.8 0 .2-.4.6-.4 1-.4s.5.1.5.4c0 .2 0 .4.2.6.2.4.1.7-.3 1l-.5.5c-.6.2-.9.6-1.1 1.2-.5 1-.8 2.2-1.4 3.3-.2.3 0 .9.1 1.4.5 1.3.8 2.7 1.1 4 .2.8.1 1.4 0 2.4-.7 7.6 1 7.1 1 7.1.6-.4.8-.2 1 .2.4.3 1.2 0 1.2.8h.8l2-.9c.4-.1.5.2.7.4.3.2.3.5.1.7a6.2 6.2 0 0 1-4.1 1.8H31c-.7 0-1.3-.3-2-.3-.3 0-.2-.3-.2-.5s.2-.5.3-.5h.3l5-.4h.2c.4 0 .9-.1 1.2-.4 0 0 .3 0-.5-2.6-.3-.7-.3-1.5-.3-2.3v-2.3l-.2-.4-.3.3a32 32 0 0 1-1.4 3.4c0 .2 0 .7.2 1 .3.5 0 .6-.4.5-.6 0-.3.6-.6.7l-.3.2-.1-.3c.4-.4.3-.7 0-1.1-.1-.2-.2-1 .5-.4 0 0 .3-.2.3-.4.2-1 .7-1.7 1-2.6v-.3h-.3s-5.1 3-5.5 3.4l.4.2c.4 0 .7-.3 1-.4l1.1-.5h.5l-.2.6-1.8 1.2c-.4.3-1 .4-.8 1 .1.4-.4.6-.7.5-1-.4-1.3-.3-2.6-.2l-8 .8-.7.2c-.4.3-.7-.2-.8-.4-.2-.4.2-.5.4-.6l9.7-1.5c.6-.1.7-.1.4-.8-.2-.6-.3-1.3-.9-1.8-.2-.1-.2-.6-.1-1l.5-.4s4.9-2.4 6-4.5l1.3-2.6c.2-.4.2-.6 0-1-.4-1.5-1.1-2.8-1.8-4-.3-.6-.5-1.3-.5-2-.2 0-1.4.2-1.8 0-.4 0-1-.4-1-.4l-.6-.4-.3-.2s-1-.6-.9-.9c0 0-1-3 .3-5.5l.8-1.3c.5-.6.8-.6 1.5-1.5l1-1.7c.4-.8.8-1 .8-1l.7-.5.7-.3.6.2c.2 0 .6.3 1 .3.6-.7.8-1.5.6-2.5 0-.6.2-1.2-.2-1.8-.1-.1 0-.6.2-.8.9-1 1.7-1.2 2.4-1.1zM37.8 27l-.2.1v.2l.3-.2h-.1zm0 2.5h-.2c-.5.4-.8 1-.6 1.7l.2.5c-.7.5.2 1 0 1.6 0 .2.4.5.6.8v-.8l.5-.7.9-2.2-.3-.6c0 .2 0 .4-.2.5h-.4v-.2c0-.4-.2-.6-.4-.6zm-4.7 7.8H33c-.3 1.1-1 1.8-1.5 2.8v.4l.3-.1c.3-.1.6-.2.6-.7 0-.4.4-.8.6-1.2l.3-.9v-.3z"/></svg>