<?xml version="1.0" encoding="UTF-8" standalone="no"?>
<svg
   xmlns:dc="http://purl.org/dc/elements/1.1/"
   xmlns:cc="http://creativecommons.org/ns#"
   xmlns:rdf="http://www.w3.org/1999/02/22-rdf-syntax-ns#"
   xmlns:svg="http://www.w3.org/2000/svg"
   xmlns="http://www.w3.org/2000/svg"
   xmlns:sodipodi="http://sodipodi.sourceforge.net/DTD/sodipodi-0.dtd"
   xmlns:inkscape="http://www.inkscape.org/namespaces/inkscape"
   height="64"
   width="64"
   id="svg7142"
   version="1.1"
   inkscape:version="0.92.3 (2405546, 2018-03-11)"
   sodipodi:docname="snow_ice_mixed.svg">
  <metadata
     id="metadata7168">
    <rdf:RDF>
      <cc:Work
         rdf:about="">
        <dc:format>image/svg+xml</dc:format>
        <dc:type
           rdf:resource="http://purl.org/dc/dcmitype/StillImage" />
        <dc:title></dc:title>
      </cc:Work>
    </rdf:RDF>
  </metadata>
  <defs
     id="defs7166" />
  <sodipodi:namedview
     pagecolor="#ffffff"
     bordercolor="#666666"
     borderopacity="1"
     objecttolerance="10"
     gridtolerance="10"
     guidetolerance="10"
     inkscape:pageopacity="0"
     inkscape:pageshadow="2"
     inkscape:window-width="1280"
     inkscape:window-height="1002"
     id="namedview7164"
     showgrid="false"
     inkscape:zoom="8.2024387"
     inkscape:cx="26.771347"
     inkscape:cy="31.452942"
     inkscape:window-x="2552"
     inkscape:window-y="1016"
     inkscape:window-maximized="1"
     inkscape:current-layer="svg7142" />
  <path
     style="fill:#ffaa45;fill-opacity:1;fill-rule:nonzero;stroke:none;stroke-width:0.95806462"
     d="M 32.000935,4 C 16.536814,4 4,16.536815 4,32.000936 4,47.465057 16.536814,60 32.000935,60 47.464098,60 60,47.465057 60,32.000936 60,16.536815 47.464098,4 32.000935,4 Z M 47.802743,10.341371 C 60.699403,20.603145 62.561724,38.527106 51.192167,50.619575 44.682807,56.757487 35.650164,60.330059 25.780162,58.115811 L 27.927289,53.252382 C 27.565888,53.303715 27.247771,53.332035 27.103953,53.33284 26.59522,53.334756 26.17415,53.329966 25.008186,53.25425 23.843179,53.177605 22.940488,52.762119 22.940488,52.762119 22.940488,52.762121 22.850267,52.400691 22.867512,52.133389 22.909667,51.487668 23.215559,50.14054 23.215559,50.14054 23.338192,49.689291 23.641764,48.776764 23.819964,48.362881 24.149538,47.597387 24.209178,46.30641 24.209178,46.30641 24.157442,44.979491 25.523358,42.193304 25.737964,41.401942 25.952568,40.610581 26.034664,40.488278 25.910116,39.871285 25.786526,39.254291 24.879075,35.535668 24.879075,35.535668 24.045556,33.511277 24.476762,31.660371 24.476762,31.660371 24.554365,31.183256 24.88843,30.241986 24.88843,30.241986 24.797414,30.247734 23.585897,30.426144 23.153809,30.313093 22.720765,30.200044 22.208843,29.742371 22.208843,29.742371 L 21.615667,29.37187 C 21.615667,29.37187 21.47513,29.230346 21.323756,29.121127 21.323756,29.121127 20.353582,28.564072 20.431184,28.260365 20.431184,28.260365 19.470814,25.109245 20.966353,22.753365 21.151259,22.461155 21.313802,22.095278 21.778462,21.471579 22.243125,20.848833 22.629823,20.930482 23.350288,19.98583 24.070752,19.041179 23.924603,19.112226 24.370103,18.3429 24.814644,17.573575 25.219636,17.375479 25.219636,17.375479 25.219636,17.375479 25.788502,16.936954 25.947541,16.885219 26.107538,16.832525 26.40334,16.664101 26.63615,16.677513 26.868001,16.690926 27.113954,16.767629 27.246168,16.834696 27.468438,16.940084 28.5071,17.530775 28.398839,16.892707 28.291537,16.254636 28.445277,15.285314 28.739401,15.006518 29.033526,14.727721 30.14846,14.352937 30.586295,14.295453 31.024129,14.237012 31.484075,14.375376 32.219868,14.757644 32.955662,15.139912 32.683167,16.573251 33.194774,16.630735 33.706379,16.688219 33.619541,17.2052 33.619541,17.2052 33.708641,17.597049 33.389381,17.802118 33.389381,17.802118 33.462203,17.907506 33.346239,18.229042 33.31079,18.496342 33.274384,18.763641 33.326043,19.275129 33.353827,19.619074 33.383527,19.962064 32.89912,20.040098 32.89912,20.040098 32.89912,20.040098 32.270929,20.13396 33.445516,20.919572 33.533658,20.978972 33.726783,21.073086 33.94139,21.149731 34.156954,21.226377 34.262237,21.046051 34.744143,20.958867 35.227968,20.871683 35.894824,20.908568 36.538642,20.77923 37.182462,20.649891 38.126904,20.229209 38.503424,20.064423 38.880901,19.898679 39.212946,19.662202 39.47833,19.538611 39.742755,19.415978 39.784926,19.475905 39.8769,19.237344 39.948755,19.049564 40.148959,18.936392 40.397098,18.803221 40.612663,17.490673 41.267081,13.595123 41.512346,13.137168 41.512346,13.137168 41.574036,12.573675 41.177397,12.624454 40.780758,12.675231 40.290439,12.832158 40.290439,12.832158 40.290439,12.832158 39.254621,12.653792 39.777725,12.519664 L 41.209207,12.28202 C 41.209207,12.28202 41.209851,12.356165 41.461822,12.306346 41.461822,12.306346 43.136295,12.383058 43.147792,12.583287 43.147792,12.583289 44.082803,14.173599 44.547465,14.78197 44.547464,14.78197 43.759499,14.382037 42.689343,13.80145 42.689343,13.801431 42.654986,13.305188 42.444213,13.84075 42.243978,14.346609 41.403965,16.819357 41.317739,19.07081 41.342649,19.126377 41.540878,19.349442 41.560997,19.357106 41.55774,19.355957 41.549769,19.35337 41.549769,19.35337 42.068082,19.538276 41.247499,19.834573 41.609648,20.141154 41.970841,20.449651 41.488019,20.884027 41.488019,20.884027 41.331854,21.355397 40.840592,21.495303 40.760114,21.441651 40.679636,21.387041 40.115561,21.320381 39.792694,21.305052 39.469826,21.289723 38.885242,21.566244 38.522135,21.799054 38.158071,22.031864 36.985264,22.818629 36.491861,23.148203 35.998457,23.476819 34.532694,23.840555 34.532694,23.840555 34.655327,23.956484 34.831251,25.078437 34.906939,25.315076 35.003702,25.61591 35.026186,25.819587 35.127742,26.089762 35.225463,26.351313 35.46519,26.574407 35.558123,26.813923 35.641474,27.02853 35.890332,27.416995 36.007215,27.753276 36.125057,28.089556 36.409992,28.811623 36.549869,29.203472 36.686875,29.596278 36.826452,29.747442 36.961538,29.970672 37.096625,30.192942 37.837358,31.044497 37.833526,30.975517 37.830652,30.906536 37.789273,30.942214 38.080528,30.606887 38.199672,30.469503 38.371855,30.373317 38.537105,30.300006 Z M 32.665219,27.150734 C 32.602101,27.180558 32.537975,27.309787 32.537975,27.309787 32.565759,27.644152 32.107594,28.496141 32.107594,28.496141 L 31.767033,28.943363 C 31.302371,29.267189 31.188407,30.337496 31.166372,30.5339 30.988172,32.074467 31.475122,32.871053 31.475122,32.871053 31.572845,33.011889 31.748531,33.286405 31.939185,34.087346 32.129841,34.889246 32.542332,35.896277 32.835499,36.757577 33.128712,37.617919 33.116736,38.310285 33.133024,38.686804 33.148353,39.063325 32.454354,40.333209 31.950412,41.063254 L 31.170114,42.608881 C 30.825211,43.510421 31.186142,43.73561 31.340395,43.804591 31.494644,43.873572 31.560256,43.950487 31.600495,44.152639 31.641691,44.35479 31.281744,44.50826 31.14953,44.743944 31.01636,44.981546 31.168509,45.539587 31.396531,45.683296 31.399693,45.685308 31.415444,45.69784 31.418988,45.700139 L 37.547232,32.440672 C 37.300916,32.438756 37.18146,32.319635 37.079427,32.246065 36.938593,32.14451 36.691173,31.965443 36.450697,31.763291 36.210224,31.562097 36.058639,31.242553 35.541284,30.906272 35.023929,30.569993 33.425113,28.490558 33.177933,28.209845 32.93171,27.93009 32.826263,27.841948 32.781235,27.371538 32.769977,27.253696 32.749935,27.189803 32.725102,27.161961 32.706477,27.141076 32.686262,27.140788 32.665223,27.150733 Z M 28.108798,47.994253 C 27.681101,47.983312 27.272303,48.041916 27.010392,48.233769 26.89255,48.397597 26.772417,48.501683 26.746549,48.767067 26.719724,49.032447 26.790065,48.875715 26.969225,49.070204 27.1484,49.26469 26.997401,49.364764 26.913092,49.491229 26.828782,49.619609 26.802495,49.63407 26.890635,49.727003 26.979735,49.818977 27.039508,49.826701 27.154477,50.003943 27.270402,50.180226 27.477031,50.508664 27.766365,50.610218 28.057618,50.711773 28.361429,50.830783 28.759984,50.920841 28.857368,50.943183 28.923249,50.957497 28.977045,50.982588 L 30.159656,48.426502 C 30.048924,48.392031 29.936523,48.362561 29.826579,48.317971 29.588859,48.222165 28.821621,48.012491 28.108798,47.994253 Z"
     id="path240"
     inkscape:connector-curvature="0"
     sodipodi:nodetypes="ssssscccccccccccscccccccccccsccccccscssccccccccscccccsccccccccccccccsccccccccccccccccccccccccscccccccsccccscccccccccccs" />
</svg>
