<?xml version="1.0" encoding="UTF-8" standalone="no"?>
<svg
   xmlns:dc="http://purl.org/dc/elements/1.1/"
   xmlns:cc="http://creativecommons.org/ns#"
   xmlns:rdf="http://www.w3.org/1999/02/22-rdf-syntax-ns#"
   xmlns:svg="http://www.w3.org/2000/svg"
   xmlns="http://www.w3.org/2000/svg"
   xmlns:sodipodi="http://sodipodi.sourceforge.net/DTD/sodipodi-0.dtd"
   xmlns:inkscape="http://www.inkscape.org/namespaces/inkscape"
   height="64"
   width="64"
   id="svg5707"
   version="1.1"
   inkscape:version="0.92.3 (2405546, 2018-03-11)"
   sodipodi:docname="snowshoeing.svg">
  <metadata
     id="metadata5721">
    <rdf:RDF>
      <cc:Work
         rdf:about="">
        <dc:format>image/svg+xml</dc:format>
        <dc:type
           rdf:resource="http://purl.org/dc/dcmitype/StillImage" />
        <dc:title></dc:title>
      </cc:Work>
    </rdf:RDF>
  </metadata>
  <defs
     id="defs5719" />
  <sodipodi:namedview
     pagecolor="#ffffff"
     bordercolor="#666666"
     borderopacity="1"
     objecttolerance="10"
     gridtolerance="10"
     guidetolerance="10"
     inkscape:pageopacity="0"
     inkscape:pageshadow="2"
     inkscape:window-width="1280"
     inkscape:window-height="1002"
     id="namedview5717"
     showgrid="false"
     inkscape:zoom="2.5673415"
     inkscape:cx="-13.773183"
     inkscape:cy="15.461962"
     inkscape:window-x="2552"
     inkscape:window-y="1016"
     inkscape:window-maximized="1"
     inkscape:current-layer="svg5707" />
  <path
     style="fill:#ffaa45;fill-opacity:1;fill-rule:nonzero;stroke:none;stroke-width:0.95806462"
     d="M 32.000935,4 C 16.536815,4 4,16.536815 4,32.000936 4,47.465057 16.536815,60 32.000935,60 47.464099,60 60,47.465057 60,32.000936 60,16.536815 47.464099,4 32.000935,4 Z M 36.201824,10.65593 C 37.374611,10.729193 38.183447,11.658904 38.183447,11.658904 38.327156,12.159013 38.528814,12.659991 38.80282,13.099743 39.250236,13.817333 39.126047,14.484207 38.787846,15.173055 38.682459,15.386703 38.477598,15.616519 38.501549,15.816755 38.559033,16.294829 38.396386,16.686886 38.01316,16.845925 37.520715,17.049993 37.781264,17.914407 37.056967,17.833929 37.047386,18.216197 36.983282,18.644063 37.05323,18.967889 37.595495,21.486641 37.335785,24.074448 37.335785,24.074448 37.257223,24.157799 37.261401,24.349203 37.28152,24.482374 37.289184,24.536984 37.439511,24.609662 37.524779,24.607746 37.917586,24.601039 38.322816,24.713567 38.643768,24.310222 39.157291,23.666402 39.883669,24.067817 40.513117,24.03141 40.731556,24.018955 40.908843,25.082886 40.750762,25.288869 40.452804,25.678803 40.236715,26.289703 39.854448,26.420958 39.30356,26.609697 39.085271,27.058744 38.690548,27.350954 38.360016,27.595261 38.435344,27.833055 38.705523,28.101313 38.972823,28.368613 39.223117,28.461097 39.454011,28.120024 39.726101,27.715721 40.097966,27.693206 40.52622,27.700871 40.854837,27.706619 40.9697,27.812904 40.9697,28.142478 40.968742,28.321636 41.067676,28.511902 41.158693,28.677647 41.38767,29.099196 41.321938,29.445507 40.943503,29.736758 40.748057,29.886216 40.569677,30.073937 40.352197,30.178366 39.831968,30.42842 39.534249,30.820808 39.304313,31.353492 38.831988,32.447602 38.498013,33.595572 37.930839,34.658066 37.727729,35.039376 37.81855,35.591865 38.018789,36.108262 38.523689,37.408355 38.769868,38.793477 39.098484,40.150097 39.289139,40.938584 39.247777,41.548826 39.145266,42.547129 38.36636,50.082308 40.191278,49.629697 40.191278,49.629697 40.671269,49.243598 40.891773,49.41765 41.183024,49.762554 41.503018,50.140989 42.31143,49.855036 42.348795,50.619573 42.591185,50.584125 42.847766,50.587737 43.074828,50.50917 43.749305,50.273487 44.420714,50.020767 45.078904,49.74197 45.478417,49.572393 45.635869,49.872762 45.82365,50.080662 46.055502,50.336465 46.121009,50.597552 45.928438,50.778626 44.824748,51.814294 43.353669,52.648244 41.755618,52.636747 38.196407,52.609922 34.634818,52.593136 31.076566,52.657327 30.391549,52.669781 29.836066,52.3263 29.192247,52.318635 28.765908,52.313845 28.869678,51.978403 28.900336,51.764754 28.919497,51.627751 29.092758,51.345018 29.225929,51.250169 29.293951,51.201308 29.426553,51.246529 29.529066,51.24078 31.189392,51.138267 32.848057,51.034541 34.508383,50.932029 34.55916,50.929155 34.61579,50.943574 34.663694,50.930113 35.078536,50.811313 35.579978,50.793829 35.885601,50.5409 35.885601,50.5409 36.242674,50.554868 35.3785,47.923063 35.132277,47.172898 35.139284,46.359382 35.08659,45.572811 35.034855,44.802527 35.083237,44.025656 35.067879,43.252498 35.065963,43.134657 34.957911,43.017593 34.89947,42.900709 34.79025,43.009928 34.627395,43.10066 34.579491,43.231915 34.177104,44.355724 33.772247,45.474594 33.245312,46.551459 33.123637,46.799598 33.261436,47.250128 33.41185,47.539463 33.690647,48.073105 33.457042,48.196786 33.005795,48.134511 32.416586,48.054034 32.733285,48.723392 32.38455,48.826863 32.267666,48.861353 32.164435,48.938746 32.055215,48.995272 32.029347,48.903298 31.953361,48.760352 31.987854,48.723945 32.354792,48.333055 32.324598,48.002672 32.008433,47.560046 31.865681,47.360769 31.810802,46.682579 32.498693,47.155863 32.522644,47.17215 32.780663,46.967962 32.805572,46.841498 32.987605,45.886307 33.54454,45.080516 33.831001,44.169396 33.854953,44.091793 33.799309,43.978591 33.75428,43.896198 33.745657,43.879911 33.598264,43.906392 33.548445,43.950463 33.548445,43.950463 28.394207,46.910973 27.953497,47.299947 28.11541,47.374676 28.303146,47.543101 28.434401,47.507653 28.798465,47.408014 29.141034,47.225907 29.489769,47.071659 29.838505,46.916452 30.176551,46.736935 30.533909,46.607596 30.655583,46.564483 30.820535,46.642613 30.966161,46.665607 30.912509,46.775785 30.888673,47.146032 30.801494,47.20639 30.202703,47.620274 29.574572,47.99338 28.990153,48.426425 28.641417,48.685103 28.09116,48.811926 28.245408,49.489278 28.314389,49.792985 27.821255,50.041512 27.515632,49.912174 26.546071,49.502122 26.247424,49.586223 24.869727,49.72131 L 16.986278,50.537161 C 16.700773,50.559197 16.379733,50.599148 16.151713,50.748609 15.751242,51.010161 15.545887,50.516443 15.406967,50.282675 15.179906,49.896575 15.61858,49.752147 15.811151,49.713824 L 25.539624,48.164455 C 26.124043,48.084935 26.177889,48.060984 25.930709,47.445906 25.673947,46.808793 25.627571,46.130888 25.028781,45.632694 24.832377,45.468865 24.840625,44.970476 24.884696,44.642818 24.90769,44.470366 25.210813,44.335744 25.388055,44.18437 25.388055,44.18437 30.250398,41.774164 31.329178,39.661631 31.765098,38.809912 32.157545,37.930079 32.661487,37.120514 32.90771,36.72675 32.912904,36.485317 32.764404,36.042692 32.289203,34.623798 31.56564,33.329842 30.857631,32.034538 30.572127,31.512393 30.424915,30.762827 30.404796,30.013621 30.35785,30.040446 30.32246,30.062271 30.32246,30.062271 30.232401,30.069936 29.029372,30.289108 28.593453,30.191386 28.156575,30.092705 27.629774,29.654345 27.629774,29.654345 L 27.02349,29.302637 C 27.02349,29.302637 26.879302,29.165678 26.724095,29.061249 26.724095,29.061249 25.734519,28.539792 25.801583,28.23417 25.801583,28.23417 24.735528,25.116987 26.149631,22.710329 26.324957,22.41237 26.473247,22.039504 26.916831,21.400475 27.359457,20.762404 27.748371,20.832806 28.436261,19.864203 29.123193,18.8956 28.981266,18.969416 29.39994,18.185719 29.818614,17.401064 30.215791,17.192101 30.215791,17.192101 30.215791,17.192101 30.767862,16.734041 30.924984,16.677515 31.083065,16.619073 31.375169,16.439736 31.607979,16.445485 31.840789,16.450275 32.088523,16.519811 32.22361,16.582084 32.361572,16.642442 32.813524,16.873455 33.11244,16.896448 33.778295,16.221971 34.009009,15.386718 33.838473,14.374043 33.741709,13.796331 34.020625,13.174427 33.554048,12.622582 33.454409,12.503782 33.621065,12.028328 33.795435,11.834799 34.663442,10.875536 35.498152,10.611975 36.201824,10.65593 Z M 37.76055,27.148863 C 37.687737,27.16515 37.619954,27.211673 37.550974,27.246166 L 37.661376,27.356568 C 37.726525,27.320162 37.793574,27.283525 37.861596,27.246166 37.827106,27.211675 37.786417,27.143114 37.76055,27.148863 Z M 37.885923,29.562736 C 37.806566,29.558042 37.724489,29.577931 37.646407,29.62823 37.052406,30.009539 36.792516,30.637941 36.978381,31.308586 37.0282,31.487744 37.251205,31.775941 37.227253,31.795103 36.505831,32.34599 37.400408,32.854378 37.277772,33.406223 37.231785,33.613165 37.584398,33.909222 37.754933,34.164067 37.790382,33.922635 37.786636,33.665918 37.870949,33.443647 37.971546,33.180179 38.17714,32.956711 38.286359,32.695159 38.596772,31.952659 38.882022,31.201552 39.175189,30.459052 39.082257,30.228158 39.013096,30.053341 38.943158,29.878973 38.872261,30.054299 38.833624,30.258471 38.71674,30.393559 38.643927,30.476911 38.451476,30.455642 38.312557,30.48151 38.327886,30.373248 38.358515,30.264179 38.353725,30.155918 38.338635,29.816045 38.123984,29.576708 37.88592,29.562741 Z M 33.123668,37.367594 C 33.051813,37.399211 32.928417,37.416992 32.915962,37.464898 32.642914,38.501524 31.819412,39.234937 31.420858,40.19875 31.371996,40.316593 31.412427,40.472458 31.411469,40.610419 31.518772,40.572096 31.625058,40.532682 31.733319,40.496274 32.04948,40.388013 32.293921,40.317506 32.326495,39.841348 32.356195,39.407345 32.709257,38.999957 32.904702,38.572661 33.040748,38.273744 33.152242,37.961775 33.249007,37.719384 33.187691,37.545016 33.155251,37.456694 33.123635,37.367594 Z"
     id="path26"
     inkscape:connector-curvature="0" />
</svg>
