<svg xmlns="http://www.w3.org/2000/svg" width="15" height="15" viewBox="0 0 15 15">
  <path id="route_24dp_5F6368_FILL0_wght400_GRAD0_opsz24" d="M125-825a3.21,3.21,0,0,1-2.354-.979,3.21,3.21,0,0,1-.979-2.354v-6.812a2.575,2.575,0,0,1-1.2-.906A2.376,2.376,0,0,1,120-837.5a2.411,2.411,0,0,1,.729-1.771A2.411,2.411,0,0,1,122.5-840a2.411,2.411,0,0,1,1.771.729A2.411,2.411,0,0,1,125-837.5a2.376,2.376,0,0,1-.469,1.448,2.575,2.575,0,0,1-1.2.906v6.812a1.6,1.6,0,0,0,.49,1.177,1.6,1.6,0,0,0,1.177.49,1.6,1.6,0,0,0,1.177-.49,1.6,1.6,0,0,0,.49-1.177v-8.333a3.21,3.21,0,0,1,.979-2.354A3.21,3.21,0,0,1,130-840a3.21,3.21,0,0,1,2.354.979,3.21,3.21,0,0,1,.979,2.354v6.813a2.575,2.575,0,0,1,1.2.906A2.376,2.376,0,0,1,135-827.5a2.411,2.411,0,0,1-.729,1.771A2.411,2.411,0,0,1,132.5-825a2.411,2.411,0,0,1-1.771-.729A2.411,2.411,0,0,1,130-827.5a2.421,2.421,0,0,1,.469-1.458,2.424,2.424,0,0,1,1.2-.9v-6.812a1.6,1.6,0,0,0-.49-1.177,1.6,1.6,0,0,0-1.177-.49,1.6,1.6,0,0,0-1.177.49,1.6,1.6,0,0,0-.49,1.177v8.333a3.21,3.21,0,0,1-.979,2.354A3.21,3.21,0,0,1,125-825Zm-2.5-11.667a.806.806,0,0,0,.594-.24.806.806,0,0,0,.24-.594.806.806,0,0,0-.24-.594.806.806,0,0,0-.594-.24.806.806,0,0,0-.594.24.806.806,0,0,0-.24.594.806.806,0,0,0,.24.594A.806.806,0,0,0,122.5-836.667Zm10,10a.807.807,0,0,0,.594-.24.806.806,0,0,0,.24-.594.806.806,0,0,0-.24-.594.806.806,0,0,0-.594-.24.806.806,0,0,0-.594.24.806.806,0,0,0-.24.594.806.806,0,0,0,.24.594A.807.807,0,0,0,132.5-826.667ZM122.5-837.5ZM132.5-827.5Z" transform="translate(-120 840)" fill="#363636"/>
</svg>
