<?xml version="1.0" encoding="UTF-8" standalone="no"?>
<!-- Created with Inkscape (http://www.inkscape.org/) -->

<svg
   width="140.00014mm"
   height="98.989998mm"
   viewBox="0 0 140.00014 98.989998"
   version="1.1"
   id="svg66412"
   inkscape:version="1.2.1 (9c6d41e410, 2022-07-14)"
   sodipodi:docname="Logo C2C Asso vert04.svg"
   inkscape:export-filename="Logo C2C Asso vert03.png"
   inkscape:export-xdpi="90.714195"
   inkscape:export-ydpi="90.714195"
   xmlns:inkscape="http://www.inkscape.org/namespaces/inkscape"
   xmlns:sodipodi="http://sodipodi.sourceforge.net/DTD/sodipodi-0.dtd"
   xmlns="http://www.w3.org/2000/svg"
   xmlns:svg="http://www.w3.org/2000/svg">
  <sodipodi:namedview
     id="namedview66414"
     pagecolor="#ffffff"
     bordercolor="#000000"
     borderopacity="0.25"
     inkscape:showpageshadow="2"
     inkscape:pageopacity="0.0"
     inkscape:pagecheckerboard="0"
     inkscape:deskcolor="#d1d1d1"
     inkscape:document-units="mm"
     showgrid="false"
     inkscape:zoom="2.0510461"
     inkscape:cx="216.71868"
     inkscape:cy="181.12708"
     inkscape:window-width="1920"
     inkscape:window-height="1001"
     inkscape:window-x="-9"
     inkscape:window-y="-9"
     inkscape:window-maximized="1"
     inkscape:current-layer="layer1" />
  <defs
     id="defs66409" />
  <g
     inkscape:label="Calque 1"
     inkscape:groupmode="layer"
     id="layer1">
    <path
       id="path66389"
       style="stroke-width:0.264583"
       d="m 90.862622,18.790247 0.02635,0.02635 c -1.666869,0 -2.513334,0.529167 -2.566251,0.529167 l 0.264583,1.058333 c 0.02646,0 5.635223,1.21e-4 9.498128,5.92677 5.212278,7.990393 14.710898,11.641366 36.247918,13.837398 l 0.13229,-1.111043 c 0,0 -2.64558,-0.449801 -12.91135,-3.704167 -2.2225,-0.74083 -7.06431,-3.175106 -9.02219,-4.206978 -2.75167,-1.402289 -5.13305,-3.412925 -7.51427,-5.344377 -1.69334,-1.428745 -3.3073,-2.751979 -4.8948,-3.757393 -4.312692,-2.645824 -7.328961,-3.280523 -9.260413,-3.254065 z m -5.08031,3.704167 -0.02635,0.02636 c -0.158747,0 -0.291042,0.07947 -0.396875,0.238228 -3.518947,5.847274 -14.869689,9.842293 -15.584061,9.974585 l -0.581877,0.317293 c -0.264583,0.3175 -0.317293,0.793751 -0.317293,1.058334 l -0.450102,0.79375 c -0.05292,0.07937 -0.0526,0.185208 -0.07906,0.264583 v 0.159163 c 0.05292,0.15875 0.132294,0.264274 0.264583,0.343649 2.010827,1.402286 14.631264,-4.392104 18.838127,-11.377084 0.07937,-0.132291 0.106049,-0.290835 0.07958,-0.449585 -0.02646,-0.132289 -0.10604,-0.26479 -0.211874,-0.344165 l -0.84646,-0.635103 -0.423746,-0.264583 c -0.105833,-0.07937 -0.185209,-0.10542 -0.264584,-0.10542 z M 8.4976245,35.432125 c -1.1112467,0 -1.8782327,0.211771 -2.3280232,0.635104 -0.4233318,0.396872 -0.6351034,1.16417 -0.6351034,2.248958 v 6.958748 c 0,0.793749 0.2116688,1.48167 0.6614583,1.984375 a 2.3283333,2.3283333 0 0 0 1.8784384,0.84646 H 13.736581 V 45.380872 H 9.2386646 c -0.3968738,0 -0.6879173,-0.07948 -0.79375,-0.238228 -0.1587497,-0.15875 -0.2118734,-0.449999 -0.2118734,-0.873332 v -5.55625 c 0,-0.449791 0.8732335,-0.687813 2.6194788,-0.687813 a 27.701875,27.701875 0 0 1 2.910416,0.132291 v -2.725415 z m 6.0854165,3.175 v 2.302185 h 4.842081 c 0.3175,0 0.52896,0.05261 0.581877,0.211357 0.05292,0.07937 0.07968,0.317502 0.05323,0.661458 l -1.058334,-0.05271 a 20.372916,20.372916 0 0 0 -1.217496,-0.05271 c -0.952497,0 -1.693024,0.15865 -2.195732,0.42323 -0.661456,0.370417 -1.005623,1.005111 -1.005623,1.931149 v 1.931665 c 0,0.714372 0.26479,1.243439 0.74104,1.613855 0.396872,0.343956 0.979064,0.529166 1.693436,0.529166 h 3.28042 c 0.635,0 1.137815,-0.211667 1.561145,-0.661458 a 2.2225,2.2225 0 0 0 0.608749,-1.5875 v -5.027083 c 0,-1.481664 -0.794066,-2.222604 -2.434477,-2.222604 z m 11.192081,0 c -0.687914,0 -1.217084,0.21177 -1.5875,0.635104 a 2.3283333,2.3283333 0 0 0 -0.608748,1.640726 v 7.222815 h 2.38125 v -6.376355 c 0,-0.502705 0.344167,-0.74104 1.005623,-0.74104 a 5.1064583,5.1064583 0 0 1 0.714169,0 c 0.396872,0 0.608748,0.238229 0.608748,0.635104 v 6.482291 h 2.38125 v -6.482291 c 0,-0.396875 0.184899,-0.608232 0.608232,-0.608232 a 5.9531249,5.9531249 0 0 0 0.714685,-0.02687 c 0.634997,0 0.978751,0.238335 0.978751,0.74104 v 6.35 h 2.38125 v -7.19646 c 0,-0.661455 -0.211462,-1.217396 -0.581876,-1.640726 a 2.0902083,2.0902083 0 0 0 -1.613855,-0.635104 h -1.825729 c -0.952497,0 -1.561041,0.264897 -1.852083,0.846977 -0.343958,-0.555622 -0.952503,-0.846977 -1.852083,-0.846977 z m 13.12323,0 c -0.714372,0 -1.269793,0.26469 -1.64021,0.767395 -0.317497,0.423334 -0.502811,1.032185 -0.502811,1.773019 v 10.477396 c 1.269994,-0.05292 2.06375,-0.05292 2.38125,0 v -3.54552 a 20.32,20.32 0 0 1 1.984375,0.05271 c 2.328324,0 3.492293,-0.740529 3.492293,-2.195731 v -4.894792 c 0,-0.74083 -0.185002,-1.323229 -0.581877,-1.773018 -0.370414,-0.449792 -0.952502,-0.661459 -1.719791,-0.661459 z m 0.952397,2.408122 h 1.825728 c 0.15875,0 0.264586,0.05282 0.396875,0.158647 0.105833,0.07937 0.158647,0.211357 0.158647,0.343648 v 3.598747 c 0,0.132291 -0.05282,0.264584 -0.158647,0.396875 -0.105833,0.105834 -0.238228,0.185001 -0.37052,0.185001 h -1.772501 c -0.529167,0 -0.767395,-0.264791 -0.767395,-0.74104 v -3.22771 c 0,-0.185205 0.07958,-0.37052 0.211873,-0.502811 0.132292,-0.132292 0.290732,-0.211357 0.47594,-0.211357 z m -22.410002,3.015837 h 2.01073 c 0.423333,0 0.608749,0.158959 0.608749,0.476456 v 0.714169 c 0,0.370413 -0.185623,0.529166 -0.556039,0.529166 h -1.904793 c -0.15875,0 -0.317397,-0.05282 -0.42323,-0.158646 a 0.52916666,0.52916666 0 0 1 -0.185518,-0.37052 v -0.740524 c 0,-0.291039 0.159062,-0.450101 0.450101,-0.450101 z m 51.540524,0.608748 v 5.027083 h 10.63656 c 0.714372,0 1.137711,0.158957 1.322916,0.476457 0.105833,0.185208 0.132396,0.661149 0.105937,1.401982 -0.42333,0 -1.217086,3.05e-4 -2.38125,-0.07906 -1.137705,-0.07937 -2.010836,-0.105937 -2.645833,-0.105937 -2.116661,0 -3.730835,0.3175 -4.842082,0.926042 -1.428747,0.793747 -2.169377,2.222506 -2.169377,4.233333 v 4.259688 c 0,1.587497 0.52917,2.751669 1.5875,3.571875 0.899583,0.767291 2.169383,1.137915 3.756877,1.137915 h 7.19646 a 4.4979166,4.4979166 0 0 0 3.439583,-1.402498 c 0.873122,-0.952497 1.322917,-2.116465 1.322917,-3.492293 v -11.05979 c 0,-3.254366 -1.772615,-4.894792 -5.318022,-4.894792 z m 23.415625,3.783748 c -1.21708,0 -2.196045,0.370108 -2.910417,1.137399 -0.687914,0.740831 -1.058333,1.746562 -1.058333,2.963643 v 12.964583 h 4.33927 V 54.03254 c 0,-0.899581 0.581985,-1.322916 1.746146,-1.322916 h 0.68833 l 0.608232,0.05271 c 0.714372,0 1.084688,0.37083 1.084688,1.085205 v 11.641666 h 4.312918 V 53.847539 c 0,-0.714375 0.34396,-1.085205 1.05833,-1.085205 a 11.324167,11.324167 0 0 0 1.32292,-0.05271 c 1.16416,0 1.74614,0.423335 1.74614,1.322916 v 11.456665 h 4.31292 V 52.524622 c 0,-1.217081 -0.34396,-2.222812 -1.05834,-2.963643 a 3.7570833,3.7570833 0 0 0 -2.91041,-1.137399 h -3.28094 c -1.69332,0 -2.804377,0.528964 -3.359999,1.507919 -0.582084,-1.005414 -1.69375,-1.507919 -3.334164,-1.507919 z m 23.627494,0 c -1.29646,0 -2.27531,0.449692 -2.93677,1.349272 -0.60854,0.793747 -0.92604,1.852086 -0.92604,3.175 v 18.944063 c 2.27539,-0.07938 3.70386,-0.07938 4.3124,0 v -6.40271 l 1.5875,0.07906 1.95802,0.07958 c 4.23331,0 6.32364,-1.322926 6.32364,-3.96875 v -8.889897 c 0,-1.322911 -0.37041,-2.38125 -1.05833,-3.175 -0.71437,-0.793747 -1.74605,-1.190625 -3.09542,-1.190625 z m -55.324268,2.38125 c -1.455203,0 -2.434273,0.264586 -3.016353,0.79375 -0.529164,0.529167 -0.820105,1.508128 -0.820105,2.910417 v 9.074898 c 0,1.031872 0.26438,1.878853 0.84646,2.566769 0.608539,0.714372 1.42896,1.084688 2.460832,1.084688 h 7.355106 v -3.54552 h -5.820833 c -0.555622,0 -0.925938,-0.10573 -1.084688,-0.290938 -0.15875,-0.185209 -0.264584,-0.582293 -0.264584,-1.137915 v -7.19646 c 0,-0.608542 1.137715,-0.926042 3.439584,-0.926042 a 35.348333,35.348333 0 0 1 3.730521,0.185002 v -3.492294 z m 56.991348,1.957504 h 3.36 c 0.26458,0 0.47615,0.07937 0.68782,0.264583 a 0.79374999,0.79374999 0 0 1 0.26458,0.608748 v 6.508647 a 1.0583333,1.0583333 0 0 1 -0.26458,0.687813 c -0.21167,0.238125 -0.42334,0.344165 -0.66146,0.344165 h -3.25407 c -0.89958,0 -1.34978,-0.449794 -1.34978,-1.322916 V 54.03254 c 0,-0.343956 0.10594,-0.661564 0.37052,-0.899686 0.2381,-0.264583 0.52947,-0.37052 0.84697,-0.37052 z m -42.439264,3.731038 h 0.02635 4.33927 c 0.926039,0 1.375626,0.370212 1.375626,1.111043 v 1.53479 c 0,0.79375 -0.423024,1.21698 -1.26969,1.21698 h -4.154268 c -0.370416,0 -0.687813,-0.105937 -0.952397,-0.37052 -0.26458,-0.238122 -0.396875,-0.52896 -0.396875,-0.84646 v -1.5875 c 0,-0.714372 0.344063,-1.058333 1.031979,-1.058333 z" />
    <path
       id="path66391"
       style="fill:#ff9933;fill-opacity:1;stroke:none;stroke-width:0.264583;stroke-opacity:1"
       d="m 58.530229,5.5874349 c -1.61395,0 -2.486877,0.4498957 -2.566252,0.5028117 l 0.132292,1.5079183 c 0.05292,0 7.064185,0.8464957 10.768335,9.8422941 5.027063,12.170786 16.192901,18.732837 42.783436,25.056351 l 0.34364,-1.561145 c -0.0265,0 -3.254,-1.005235 -15.451246,-7.19646 -2.645821,-1.322909 -8.22876,-5.556671 -10.530623,-7.302913 -3.122072,-2.407701 -5.768032,-5.635638 -8.30802,-8.73125 C 73.849716,15.429633 72.077097,13.286493 70.251477,11.619625 64.827543,6.7248524 60.885013,5.6403519 58.530229,5.5874349 Z m -9.604065,6.6672931 c -0.211666,0 -0.396876,0.158854 -0.529167,0.37052 -4.392064,8.519548 -20.902294,18.653229 -21.775415,18.891354 l -0.767395,0.47594 a 2.9897916,2.9897916 0 0 0 -0.396875,1.508435 l -0.529166,1.16427 a 0.92604165,0.92604165 0 0 0 -0.10542,0.608232 0.79374999,0.79374999 0 0 0 0.290938,0.476456 c 2.566451,1.984367 18.467734,-6.694307 23.732918,-16.854268 0.105834,-0.185208 0.132395,-0.396565 0.105937,-0.608232 -0.05292,-0.211663 2.063543,-4.497917 1.904793,-4.630208 l -1.058333,-0.873332 -0.529167,-0.42323 a 0.52916666,0.52916666 0 0 0 -0.343648,-0.105937 z m 1.111043,14.181564 c -0.978954,0.05292 -3.333444,0.793981 -3.783231,6.694165 a 23.01875,23.01875 0 0 1 -2.69906,0.185002 l -0.661459,0.132291 c -0.317496,0.238125 -0.528856,0.661458 -0.608231,0.926042 l -0.635104,0.635103 c -0.07937,0.07938 -0.10573,0.158751 -0.158646,0.264584 v 0.132291 c -0.02646,0.132291 -4.13e-4,0.291041 0.10542,0.396875 0.502704,0.635 2.302193,0.820416 4.683435,0.608749 0.05292,0.873121 0.15875,1.799274 0.264583,2.75177 0.264584,2.751654 0.528956,5.58251 0.185002,7.99021 -0.264583,1.746242 -0.926149,5.97969 -1.561145,7.51427 -2.910405,7.17018 -3.96875,8.651668 -3.96875,8.651668 l 0.926041,1.005623 c 9.73663,-10.689122 11.98592,-17.859622 8.519894,-27.463956 a 21.695833,21.695833 0 0 1 -0.344165,-1.058334 c 4.44498,-0.952496 9.524909,-2.883867 12.594063,-5.714896 0.07937,-0.105834 0.159059,-0.238228 0.185518,-0.37052 0,-0.15875 -0.02656,-0.290939 -0.105936,-0.42323 l -0.635104,-0.820105 -0.343648,-0.396875 c -0.185208,-0.211666 -0.476663,-0.238035 -0.68833,-0.02635 -2.778113,2.566447 -7.672933,3.915424 -11.641667,4.603336 -0.317496,-3.783525 1.428751,-5.106148 1.455209,-5.106148 l -0.687814,-1.084688 z m 12.7,8.784477 v 0.02635 c -1.164158,0 -2.328234,0.264583 -3.465938,0.79375 a 11.350625,11.350625 0 0 0 -5.371248,5.212085 c -0.555625,1.137704 -0.84646,2.249168 -0.84646,3.386873 0,1.428745 0.396982,2.54 1.16427,3.307292 0.582079,0.582079 1.375837,1.031672 2.38125,1.375626 a 8.2549999,8.2549999 0 0 0 6.296773,-0.237711 c 1.137705,-0.47625 2.117084,-1.111564 2.937288,-1.90531 0.635,-0.635 1.137399,-1.428548 1.534274,-2.43396 0.396871,-1.005413 0.582393,-2.037193 0.582393,-3.069064 0,-0.608537 -0.07947,-1.191042 -0.238228,-1.746663 -0.15875,-0.529162 -0.396772,-1.031879 -0.687814,-1.455208 a 3.3602083,3.3602083 0 0 0 -1.058333,-0.978747 c -0.370417,-0.211667 -0.79406,-0.344165 -1.243852,-0.344165 a 4.2333333,4.2333333 0 0 0 -1.401981,0.31781 c -0.529167,0.211666 -1.058751,0.449485 -1.48208,0.740523 -0.396875,0.291042 -0.608232,0.502812 -0.608232,0.635104 0,0.105833 0.132188,0.264793 0.42323,0.476456 0.661454,0.502708 1.163963,1.111251 1.507918,1.852084 0.343958,0.714371 0.529167,1.481464 0.529167,2.301668 0,1.005413 -0.264381,1.905004 -0.84646,2.645833 -0.529163,0.767292 -1.190835,1.137915 -1.931665,1.137915 -0.793746,0 -1.428444,-0.3174 -1.931148,-0.952396 a 4.1010416,4.1010416 0 0 1 -0.74104,-2.566769 8.4137499,8.4137499 0 0 1 1.693436,-5.053438 c 0.529167,-0.714371 1.111457,-1.243335 1.799374,-1.64021 0.687912,-0.396875 1.401985,-0.635 2.195731,-0.661458 0.661459,-0.05292 0.979269,-0.264687 0.979269,-0.635104 0,-0.343954 -0.714689,-0.529166 -2.169894,-0.529166 z m 79.735183,31.53916 c -0.0258,1.8e-4 -0.0517,3.15e-4 -0.0775,5.17e-4 0.002,0.018 0.003,0.03695 0.003,0.05633 0.025,-0.01881 0.0499,-0.03748 0.0744,-0.05684 z m -8.32611,5.315438 c -0.0113,0.0019 -0.0227,0.004 -0.0341,0.0057 0.0113,-0.0021 0.0228,-0.0033 0.0341,-0.0057 z m -0.19895,0.02222 c -0.0275,0.0019 -0.0551,0.0036 -0.0827,0.0047 0.007,1.23e-4 0.0125,0.0016 0.0191,0.0016 0.0216,0 0.0422,-0.0052 0.0636,-0.0062 z m 9.21184,0.438216 c -0.024,0.02282 -0.0479,0.04534 -0.0724,0.0677 -0.0298,0.06945 -0.0592,0.138995 -0.0884,0.208773 -0.005,0.01584 -0.01,0.03132 -0.015,0.04703 a 4.6302083,4.6302083 0 0 0 0.1757,-0.323494 z m -0.32453,0.469738 c -0.009,0.02646 -0.019,0.05249 -0.0289,0.07855 a 4.6302083,4.6302083 0 0 0 0.0537,-0.0677 c -0.008,-0.0037 -0.0167,-0.007 -0.0248,-0.01085 z" />
    <path
       style="fill:#ff9933;fill-opacity:1;stroke:none;stroke-width:0;stroke-opacity:1"
       d="m 24.922678,91.640719 c -0.762089,-0.712843 -1.489114,-1.885944 -2.108184,-3.401695 -0.336404,-0.823663 -0.50886,-1.095843 -0.714589,-1.12782 -0.321575,-0.04998 -3.815424,0.639902 -5.071139,1.001328 -0.609592,0.175456 -0.972225,0.217969 -1.181275,0.138489 -0.281658,-0.107088 -0.362187,-0.01344 -1.214949,1.412689 -0.950344,1.589334 -1.505347,2.198114 -2.003944,2.198114 -0.415761,0 -1.144892,-0.526275 -1.286327,-0.928452 -0.137843,-0.391949 0.121187,-0.870636 2.289767,-4.231519 0.709584,-1.099716 1.899023,-3.073405 2.643195,-4.385971 2.380982,-4.199559 3.108441,-5.397592 3.402581,-5.603618 0.465815,-0.326269 1.342739,-0.261387 1.732293,0.128167 0.274516,0.274515 0.320194,0.419851 0.273675,0.870746 -0.04216,0.408628 0.09389,0.983694 0.555294,2.347219 1.903293,5.624513 3.067926,8.178284 4.43602,9.727181 0.889442,1.006991 0.963004,1.213409 0.648896,1.820829 -0.248119,0.479808 -0.557223,0.642413 -1.221203,0.642413 -0.453776,0 -0.623504,-0.08746 -1.180111,-0.6081 z m -5.365662,-6.182603 c 1.236808,-0.216244 2.015963,-0.409051 1.98552,-0.491329 -0.02756,-0.07448 -0.390879,-1.165801 -0.807376,-2.425157 -0.416499,-1.259356 -0.797086,-2.289736 -0.845751,-2.289736 -0.1027,0 -2.948519,5.358146 -2.948519,5.551509 0,0.07115 0.130612,0.102653 0.290248,0.07 0.159636,-0.03266 1.20628,-0.219536 2.325878,-0.415285 z"
       id="path61742" />
    <path
       style="fill:#ff9933;fill-opacity:1;stroke:none;stroke-width:0;stroke-opacity:1"
       d="m 28.725871,91.991909 c -0.395005,-0.159406 -0.69105,-0.63699 -0.69105,-1.114817 0,-0.300945 0.106508,-0.500946 0.396897,-0.745291 0.441544,-0.371536 0.748016,-0.406281 1.592164,-0.180504 1.068795,0.285858 3.794583,-0.385628 4.027313,-0.992111 0.130979,-0.341329 -0.403193,-0.769165 -2.024158,-1.621208 -1.778632,-0.934921 -2.354765,-1.374042 -2.705965,-2.062454 -0.303337,-0.594587 -0.334378,-1.615178 -0.06848,-2.251561 0.2805,-0.671336 1.312664,-1.699118 2.288659,-2.278944 1.118671,-0.664591 2.236975,-1.009121 3.275488,-1.009121 0.721903,0 0.872406,0.04432 1.204709,0.354746 0.20886,0.195111 0.417536,0.54329 0.463725,0.773729 0.07126,0.355555 0.02323,0.479726 -0.317326,0.820282 -0.345233,0.345234 -0.459303,0.388175 -0.816435,0.30734 -0.82437,-0.186587 -1.579322,-0.11009 -2.337049,0.23681 -0.997955,0.456877 -1.496562,1.000382 -1.496562,1.631312 0,0.721101 0.331843,1.033579 2.065271,1.944738 2.274792,1.195721 3.03167,2.144848 2.698141,3.383478 -0.302045,1.121712 -2.02329,2.272062 -4.079382,2.726349 -0.987037,0.21808 -3.015256,0.263144 -3.475961,0.07723 z"
       id="path61744" />
    <path
       style="fill:#ff9933;fill-opacity:1;stroke:none;stroke-width:0;stroke-opacity:1"
       d="m 37.491014,91.867494 c -0.551643,-0.33636 -0.703392,-1.035259 -0.332851,-1.533007 0.364677,-0.489868 0.824457,-0.620691 1.523939,-0.433607 0.815173,0.218025 1.414124,0.193892 2.578433,-0.103886 1.588572,-0.406289 2.006708,-0.793207 1.472139,-1.362228 -0.164282,-0.174871 -0.964126,-0.667454 -1.777428,-1.094629 -1.812653,-0.952066 -2.372681,-1.38471 -2.719332,-2.1008 -0.724781,-1.4972 0.05491,-3.12879 2.10149,-4.397592 1.17398,-0.727823 2.305018,-1.105847 3.308659,-1.105847 0.904777,0 1.430397,0.224928 1.649537,0.70589 0.24602,0.539943 0.18182,0.896289 -0.23309,1.293797 -0.37588,0.360116 -0.40512,0.366381 -0.99974,0.214196 -0.741993,-0.189902 -1.284561,-0.09831 -2.240064,0.378145 -0.920946,0.459227 -1.403959,1.017627 -1.403959,1.623086 0,0.609905 0.445328,1.009915 2.033593,1.826644 1.71869,0.883796 2.26431,1.305803 2.60906,2.017961 0.70257,1.451322 -0.22494,2.787346 -2.578667,3.714427 -1.672871,0.658908 -4.20047,0.839904 -4.991719,0.35745 z"
       id="path61746" />
    <path
       style="fill:#ff9933;fill-opacity:1;stroke:none;stroke-width:0;stroke-opacity:1"
       d="M 49.447858,91.870293 C 47.98046,91.42393 47.00673,90.108938 46.89675,88.425101 46.74092,86.039408 48.2622,82.8018 50.214198,81.364813 c 1.84233,-1.356243 4.17511,-1.262422 5.51606,0.221846 1.92241,2.127882 1.44045,5.682527 -1.11272,8.206811 -0.54064,0.534522 -1.30077,1.158063 -1.68918,1.385644 -1.13832,0.666991 -2.60349,0.957953 -3.4805,0.691179 z m 2.15059,-2.211755 c 1.82682,-0.884346 3.17409,-3.221493 2.9555,-5.126969 -0.18912,-1.648598 -1.19272,-2.436252 -2.48463,-1.950008 -0.87862,0.330692 -2.01662,1.917131 -2.5082,3.496566 -0.26142,0.839962 -0.324678,2.451963 -0.11758,2.996663 0.33018,0.868447 1.1231,1.083241 2.15491,0.583748 z"
       id="path61748" />
    <path
       style="fill:#ff9933;fill-opacity:1;stroke:none;stroke-width:0;stroke-opacity:1"
       d="m 60.334028,91.680947 c -1.86776,-0.869678 -2.26216,-3.465648 -0.96213,-6.332808 0.90289,-1.991286 2.78675,-4.34626 3.94672,-4.933712 1.51349,-0.766487 2.61991,-0.4241 3.38503,1.047512 0.481,0.92514 0.50048,2.22462 0.0407,2.714038 -0.66023,0.702781 -1.45702,0.329015 -1.69872,-0.796843 -0.2074,-0.966126 -0.32918,-1.192252 -0.64211,-1.192252 -0.41868,0 -0.87299,0.375642 -1.4671,1.213085 -1.21064,1.70647 -2.0068,3.731448 -2.0068,5.10417 0,0.566923 0.0573,0.725866 0.37708,1.045623 0.3853,0.385304 0.61718,0.437668 1.68691,0.380936 0.82881,-0.04395 1.60628,-0.331176 2.6627,-0.983689 1.06404,-0.657217 1.5975,-0.810644 1.8328,-0.527121 0.25816,0.311057 0.0474,0.77897 -0.66708,1.480732 -1.86681,1.8337 -4.70234,2.611776 -6.488,1.780329 z"
       id="path61750" />
    <path
       style="fill:#ff9933;fill-opacity:1;stroke:none;stroke-width:0;stroke-opacity:1"
       d="m 70.284748,91.682738 c -0.16945,-0.169447 -0.34909,-0.526651 -0.3992,-0.793787 -0.1491,-0.794764 0.0434,-3.35175 0.3977,-5.283589 0.18218,-0.993296 0.38422,-2.253266 0.44897,-2.799937 0.14094,-1.190006 0.37404,-1.688878 0.88874,-1.902077 0.59909,-0.248152 1.45757,0.06948 1.68528,0.623533 0.11304,0.275051 0.0433,0.715129 -0.37689,2.378287 -0.65989,2.611898 -0.87229,4.627036 -0.64718,6.14014 l 0.16223,1.090433 -0.46653,0.42754 c -0.58613,0.537152 -1.23,0.582578 -1.69312,0.119457 z"
       id="path61752" />
    <path
       style="fill:#ff9933;fill-opacity:1;stroke:none;stroke-width:0;stroke-opacity:1"
       d="m 83.730348,91.606239 c -0.47291,-0.371991 -0.7575,-1.202473 -0.85212,-2.486657 l -0.0832,-1.12975 -0.68642,0.807252 c -0.89057,1.047358 -1.92662,1.910617 -2.83998,2.366343 -0.57264,0.285726 -0.91392,0.36576 -1.57867,0.370213 -0.74064,0.005 -0.90996,-0.04145 -1.33629,-0.366337 -0.9206,-0.701545 -1.18934,-1.937152 -0.78884,-3.626953 0.41604,-1.75541 1.76949,-3.949806 3.39256,-5.500481 1.23382,-1.17878 2.20411,-1.693482 3.32731,-1.765001 0.9496,-0.06047 1.50141,0.174731 1.75522,0.748133 0.12622,0.285152 0.28753,0.411575 0.59995,0.470186 0.24989,0.04688 0.51323,0.211291 0.63424,0.39598 0.19206,0.293111 0.18465,0.43806 -0.10297,2.016006 -0.23067,1.26551 -0.30879,2.145424 -0.30554,3.441676 0.005,1.975893 0.17295,2.56172 0.83235,2.902712 0.4067,0.210315 0.49048,0.532043 0.25373,0.97441 -0.33339,0.622959 -1.63134,0.846326 -2.22129,0.382268 z m -4.30888,-2.570324 c 0.24617,-0.152138 0.80969,-0.663718 1.25227,-1.136841 1.87763,-2.007195 2.71132,-4.055112 2.11794,-5.202602 -0.22464,-0.434396 -0.72633,-0.510254 -1.32534,-0.200403 -0.92427,0.478096 -2.70513,2.809999 -3.34393,4.378621 -0.3734,0.916911 -0.47737,2.342936 -0.18404,2.524278 0.23587,0.145825 0.9377,-0.02598 1.4831,-0.363053 z"
       id="path61754" />
    <path
       style="fill:#ff9933;fill-opacity:1;stroke:none;stroke-width:0;stroke-opacity:1"
       d="m 90.872948,91.848348 c -1.10825,-0.211425 -1.76598,-0.946237 -1.98346,-2.215903 -0.15726,-0.918102 0.0436,-2.486772 0.62698,-4.895983 0.16993,-0.701812 0.30897,-1.333934 0.30897,-1.40471 0,-0.07909 -0.21999,-0.09569 -0.57082,-0.04308 -0.71286,0.106899 -1.40441,-0.109768 -1.74914,-0.548024 -0.5647,-0.717896 -0.15004,-1.456756 0.81755,-1.456756 0.30886,0 0.91926,-0.03739 1.35642,-0.08308 l 0.79485,-0.08308 0.24986,-0.852167 c 0.13742,-0.468691 0.37517,-1.331323 0.52834,-1.916959 0.3419,-1.307211 0.77954,-1.781434 1.53279,-1.660917 0.53292,0.08526 0.91013,0.483301 0.91013,0.960382 0,0.184018 -0.1789,0.966179 -0.39756,1.738133 -0.21866,0.771953 -0.3634,1.437719 -0.32165,1.479476 0.0418,0.04176 0.92011,0.0073 1.9519,-0.07658 1.27158,-0.10337 1.95423,-0.110617 2.11889,-0.02249 0.60302,0.322725 0.35584,1.156763 -0.44156,1.48994 -0.23315,0.09741 -1.28309,0.32272 -2.33322,0.500681 -1.05012,0.177962 -1.95498,0.369232 -2.01079,0.425046 -0.20181,0.201813 -0.89919,3.611972 -0.97578,4.771564 -0.0649,0.983118 -0.0414,1.243978 0.13665,1.51574 0.42234,0.644575 1.69251,0.342802 3.22245,-0.765606 0.69299,-0.502055 0.82688,-0.53417 1.17273,-0.281279 0.18871,0.137988 0.21838,0.26883 0.14711,0.64874 -0.17717,0.944414 -2.19095,2.513206 -3.49466,2.722441 -0.2838,0.04555 -0.6321,0.10069 -0.774,0.122536 -0.1419,0.02186 -0.51224,-0.0088 -0.82298,-0.06806 z"
       id="path61756" />
    <path
       style="fill:#ff9933;fill-opacity:1;stroke:none;stroke-width:0;stroke-opacity:1"
       d="m 98.692378,91.733757 c -0.69035,-0.54303 -0.75404,-2.138743 -0.20856,-5.225401 0.13793,-0.780447 0.36826,-2.202662 0.51186,-3.16048 0.2776,-1.851615 0.44003,-2.254223 0.9952,-2.466679 0.431462,-0.165113 1.172522,0.03089 1.504752,0.398 0.29389,0.324755 0.22959,0.940541 -0.31032,2.971673 -0.21688,0.815919 -0.45937,2.005936 -0.53886,2.644484 -0.13848,1.112491 -0.0889,3.294573 0.0886,3.900524 0.065,0.221761 -0.0204,0.393446 -0.36866,0.741746 -0.534352,0.534353 -1.152032,0.606722 -1.674002,0.196133 z"
       id="path61758" />
    <path
       style="fill:#ff9933;fill-opacity:1;stroke:none;stroke-width:0;stroke-opacity:1"
       d="m 106.53083,91.870198 c -1.9875,-0.483852 -3.01815,-2.679362 -2.47031,-5.262269 0.37571,-1.771396 1.73077,-4.122722 2.91761,-5.06272 2.37206,-1.878703 5.2407,-1.391256 6.46656,1.098809 1.06932,2.1721 0.36154,4.975836 -1.80662,7.156622 -1.695,1.704861 -3.53785,2.451624 -5.10724,2.069558 z m 2.1035,-2.20114 c 0.84138,-0.381844 2.0248,-1.641081 2.50953,-2.670297 0.363,-0.770723 0.41345,-1.010722 0.41497,-1.973898 0.001,-0.892709 -0.0523,-1.197887 -0.28917,-1.64208 -0.63433,-1.189739 -2.03677,-1.256568 -3.08576,-0.14704 -1.11007,1.174149 -1.84657,3.001388 -1.84657,4.581332 0,0.976262 0.2984,1.872252 0.6738,2.023176 0.36133,0.145267 1.09682,0.0677 1.6232,-0.171193 z"
       id="path61760" />
    <path
       style="fill:#ff9933;fill-opacity:1;stroke:none;stroke-width:0;stroke-opacity:1"
       d="m 116.57834,91.477397 c -0.41953,-0.169508 -0.82436,-0.767453 -0.82139,-1.213212 0.002,-0.221017 0.11861,-1.098447 0.26032,-1.949842 0.1417,-0.851394 0.3154,-2.587252 0.386,-3.857461 0.10959,-1.971841 0.16751,-2.372831 0.3962,-2.742864 0.47091,-0.761947 1.18972,-0.915931 1.73415,-0.371496 0.28657,0.286571 0.31664,0.42087 0.31664,1.414418 0,0.603782 -0.11593,1.694852 -0.25761,2.424599 -0.14169,0.72975 -0.25654,1.384866 -0.25523,1.455817 0.001,0.07095 0.3156,-0.466201 0.69843,-1.193665 0.79092,-1.502947 1.42376,-2.412436 2.07879,-2.987564 1.15472,-1.013857 2.54114,-1.268452 3.48958,-0.640808 0.95123,0.629497 1.2287,1.425044 1.79195,5.137849 0.11246,0.741294 0.27628,1.495938 0.36406,1.67699 0.14669,0.302567 0.2271,0.329181 0.99453,0.329181 0.81057,0 0.8361,0.01013 0.87504,0.347306 0.0932,0.80719 -1.01153,1.652182 -2.16002,1.652182 -1.36941,0 -1.93121,-0.781142 -2.273,-3.160479 -0.40869,-2.845065 -0.46518,-3.12614 -0.70882,-3.526772 -0.36548,-0.600982 -0.77174,-0.546068 -1.51694,0.205042 -1.04439,1.052679 -3.20126,4.412469 -3.7887,5.901713 -0.43137,1.093582 -0.87137,1.395074 -1.60398,1.099066 z"
       id="path61762" />
    <path
       style="fill:#ff9933;fill-opacity:1;stroke:none;stroke-width:0;stroke-opacity:1"
       d="m 107.90922,346.94435 c -2.41961,-1.92179 -2.2546,-4.9827 0.36099,-6.6965 1.06682,-0.69901 1.65248,-0.72524 4.73652,-0.21211 2.92148,0.48609 4.16046,0.46002 7.29504,-0.15347 4.40348,-0.86184 8.05369,-2.35633 8.48213,-3.47281 0.49628,-1.29331 -1.9049,-3.28404 -7.98989,-6.62411 -8.99137,-4.9354 -11.41357,-8.02361 -10.65187,-13.58079 0.93826,-6.84534 12.44855,-14.62488 21.66865,-14.64534 2.32007,-0.005 2.79167,0.17747 4.26611,1.65191 1.88811,1.88811 2.11723,3.51745 0.7347,5.2248 -0.84558,1.04425 -1.30562,1.14176 -5.48501,1.16259 -3.95947,0.0197 -4.88399,0.1923 -6.99979,1.30649 -6.03504,3.17806 -7.05747,7.48702 -2.50767,10.5684 1.11106,0.75247 3.77425,2.32777 5.91819,3.50066 4.21023,2.3033 7.70895,5.22735 8.81582,7.36779 2.55805,4.94673 -2.21291,10.66372 -11.62536,13.93054 -2.77849,0.96435 -4.81877,1.27514 -9.62077,1.46552 -5.67622,0.22504 -6.18389,0.17058 -7.39779,-0.79357 z"
       id="path1817"
       transform="scale(0.26458333)" />
    <path
       style="fill:#ff9933;fill-opacity:1;stroke:none;stroke-width:0;stroke-opacity:1"
       d="m 141.82143,346.94072 c -1.9006,-1.15895 -2.41162,-2.97407 -1.39227,-4.94528 1.1034,-2.13375 2.6523,-2.56088 6.77466,-1.8682 2.9482,0.49538 4.00587,0.45936 7.16801,-0.24415 4.3719,-0.97266 7.92145,-2.64126 8.14037,-3.8267 0.2275,-1.23185 -1.67989,-2.77825 -7.07495,-5.73598 -8.82276,-4.83688 -10.3211,-6.19766 -11.44303,-10.39242 -0.51437,-1.92319 -0.47677,-2.63498 0.26319,-4.98241 2.1751,-6.90021 13.90402,-13.97426 21.95864,-13.24389 3.48563,0.31607 5.15991,1.75518 5.15991,4.43515 0,2.71805 -1.34618,3.46127 -6.26929,3.46127 -3.70096,0 -4.55901,0.17524 -7.05796,1.44142 -3.71576,1.88274 -5.19988,3.65267 -5.19988,6.20127 0,2.54555 1.25796,3.71362 7.78393,7.22777 7.90979,4.25931 10.25565,6.77053 10.25565,10.97857 0,3.56818 -2.76389,6.5938 -8.5209,9.32779 -4.3987,2.08893 -9.08845,3.07764 -14.63802,3.08605 -3.4621,0.005 -4.70874,-0.18894 -5.90806,-0.92026 z"
       id="path1819"
       transform="scale(0.26458333)" />
    <path
       style="fill:#ff9933;fill-opacity:1;stroke:none;stroke-width:0;stroke-opacity:1"
       d="m 186.1075,346.77096 c -2.16699,-0.69437 -5.77823,-3.95413 -6.97135,-6.29284 -1.60421,-3.14451 -2.0885,-6.95119 -1.41648,-11.13395 1.66229,-10.34622 8.02853,-20.0424 15.44271,-23.52022 4.22375,-1.98125 9.28313,-2.19618 12.87365,-0.54689 9.20592,4.22871 11.50121,17.07768 4.97564,27.85356 -2.1606,3.56787 -7.1761,8.78275 -10.49567,10.91292 -4.48156,2.87581 -10.43088,4.00197 -14.4085,2.72742 z m 9.05469,-7.9101 c 7.29211,-3.39485 12.74926,-14.07705 10.83955,-21.21807 -1.88402,-7.04498 -8.17154,-8.24815 -13.20722,-2.52732 -6.55735,7.44955 -8.83988,21.55044 -3.92112,24.22374 1.83612,0.99791 3.3681,0.88138 6.28879,-0.47835 z"
       id="path1821"
       transform="scale(0.26458333)" />
    <path
       style="fill:#ff9933;fill-opacity:1;stroke:none;stroke-width:0;stroke-opacity:1"
       d="m 228.17625,346.22916 c -2.91117,-1.36737 -3.75382,-2.24854 -5.20726,-5.44527 -2.46803,-5.42823 -0.90467,-14.37852 3.93189,-22.51017 9.27279,-15.59025 19.40777,-20.05861 24.62662,-10.8575 1.30327,2.29773 1.51411,3.15434 1.51411,6.15165 0,4.14476 -0.8746,5.53759 -3.47722,5.53759 -1.92618,0 -2.65075,-0.94544 -3.78112,-4.93367 -0.42707,-1.50681 -1.12464,-3.0286 -1.55015,-3.38174 -3.14978,-2.61409 -12.51551,11.68009 -13.79817,21.05908 -0.51073,3.73456 0.0134,5.87595 1.78043,7.27464 1.17479,0.9299 1.78238,1.02438 5.39198,0.83852 3.86095,-0.19881 4.36493,-0.36389 9.90197,-3.24347 6.21929,-3.23439 7.72628,-3.47008 7.72628,-1.20838 0,1.59567 -4.64468,6.25984 -8.28845,8.32325 -6.55604,3.71257 -13.95618,4.65695 -18.77091,2.39547 z"
       id="path1823"
       transform="scale(0.26458333)" />
    <path
       style="fill:#ff9933;fill-opacity:1;stroke:none;stroke-width:0;stroke-opacity:1"
       d="m 265.73496,346.22603 c -1.61163,-1.61162 -1.9464,-4.63207 -1.29391,-11.67435 0.75468,-8.14518 3.42743,-24.6101 4.3042,-26.51503 0.98287,-2.13549 3.29822,-2.90678 5.70592,-1.90078 2.96244,1.23779 3.10106,2.27373 1.30635,9.76289 -2.86371,11.95003 -3.66074,20.35482 -2.47714,26.12183 0.43814,2.13479 0.40248,2.23677 -1.32135,3.77856 -2.21115,1.97765 -4.51528,2.13568 -6.22407,0.42688 z"
       id="path1825"
       transform="scale(0.26458333)" />
    <path
       style="fill:#ff9933;fill-opacity:1;stroke:none;stroke-width:0;stroke-opacity:1"
       d="m 316.18858,345.51695 c -1.64069,-1.64069 -2.32859,-3.88184 -2.75675,-8.98136 -0.17448,-2.07821 -0.37244,-3.77856 -0.4399,-3.77856 -0.0675,0 -2.39447,2.25294 -5.17113,5.00653 -5.47995,5.43444 -8.85301,7.5024 -13.04743,7.99917 -4.81146,0.56985 -8.24302,-1.95626 -9.34468,-6.87897 -1.51915,-6.7883 2.99572,-17.64513 11.01811,-26.49506 5.48758,-6.05364 11.45329,-9.24253 16.40128,-8.76709 2.20634,0.212 2.72751,0.49724 4.56495,2.49847 1.14084,1.24253 2.39314,2.25914 2.78289,2.25914 0.38974,0 1.10023,0.43272 1.57886,0.96159 0.9719,1.07394 0.93421,1.93109 -0.47216,10.73976 -0.56227,3.52169 -0.75754,7.0213 -0.62568,11.21379 0.2079,6.61076 0.76965,8.44917 3.03538,9.93373 1.96023,1.28439 1.59159,3.74839 -0.74129,4.95476 -2.3329,1.20639 -5.19074,0.92581 -6.78245,-0.6659 z m -16.93161,-8.44148 c 4.49121,-2.28569 12.19127,-11.8846 13.75346,-17.14508 1.75036,-5.89409 0.11533,-9.69795 -3.79897,-8.83823 -3.29388,0.72346 -11.25219,10.41094 -13.86339,16.8756 -1.2876,3.18778 -1.88645,6.97666 -1.40555,8.89273 0.4056,1.61602 2.40278,1.69681 5.31445,0.21498 z"
       id="path1827"
       transform="scale(0.26458333)" />
    <path
       style="fill:#ff9933;fill-opacity:1;stroke:none;stroke-width:0;stroke-opacity:1"
       d="m 344.21459,347.06439 c -0.53631,-0.11341 -1.45185,-0.3073 -2.03453,-0.43086 -1.66392,-0.35283 -4.11358,-2.67883 -5.0937,-4.83655 -1.74636,-3.8446 -1.28575,-8.93312 2.32988,-25.73875 0.28542,-1.32663 0.26193,-1.34078 -2.22592,-1.34078 -4.51435,0 -7.85302,-2.35182 -7.1748,-5.05407 0.38799,-1.54587 2.07659,-2.11898 7.36751,-2.50052 2.41023,-0.17381 4.45678,-0.39056 4.54788,-0.48167 0.0911,-0.0911 1.1167,-3.41612 2.2791,-7.38892 1.69669,-5.79891 2.37787,-7.45073 3.45445,-8.37676 2.33854,-2.01153 6.0469,-0.45506 6.06817,2.54693 0.006,0.82994 -0.59287,3.85387 -1.33054,6.71983 -0.73768,2.86596 -1.21243,5.33964 -1.05501,5.49706 0.15743,0.15743 3.22443,0.10908 6.81555,-0.10743 8.03438,-0.48441 9.13259,-0.35593 9.50089,1.1115 0.39106,1.55813 -0.57708,3.12467 -2.40137,3.88563 -0.84992,0.35452 -4.61692,1.22354 -8.3711,1.93116 -3.75418,0.70761 -7.20484,1.39951 -7.66813,1.53754 -0.96782,0.28835 -1.46596,1.9262 -3.09783,10.18527 -1.49195,7.55094 -1.56952,13.01923 -0.20405,14.3847 1.89997,1.89997 5.45834,0.96937 11.62791,-3.04098 3.5085,-2.2806 4.59269,-2.14762 4.86292,0.59645 0.13913,1.41277 -0.21168,1.96177 -2.97864,4.66154 -3.61802,3.53015 -6.75139,5.27609 -10.81789,6.02783 -1.58036,0.29214 -2.99764,0.50572 -3.14951,0.47461 -0.15187,-0.0311 -0.71492,-0.14935 -1.25124,-0.26276 z"
       id="path1829"
       transform="scale(0.26458333)" />
    <path
       style="fill:#ff9933;fill-opacity:1;stroke:none;stroke-width:0;stroke-opacity:1"
       d="m 373.58984,346.85709 c -2.99283,-1.74316 -3.08593,-8.06734 -0.36736,-24.95387 1.06898,-6.63999 2.26395,-12.83944 2.65551,-13.77657 1.12633,-2.69568 4.00888,-3.24144 6.97542,-1.32068 1.5717,1.01764 1.43187,3.38945 -0.69637,11.81193 -1.7304,6.848 -1.78959,7.37439 -1.88842,16.7957 l -0.10203,9.72615 -1.39909,1.11955 c -1.47078,1.17693 -3.7346,1.4383 -5.17766,0.59779 z"
       id="path1831"
       transform="scale(0.26458333)" />
    <path
       style="fill:#ff9933;fill-opacity:1;stroke:none;stroke-width:0;stroke-opacity:1"
       d="m 401.60729,346.77096 c -2.27445,-0.7288 -5.69401,-3.90227 -6.90872,-6.41153 -3.17821,-6.5653 -1.93022,-15.03509 3.59261,-24.38216 6.90529,-11.68682 18.67682,-15.37295 26.53385,-8.3088 3.42171,3.0764 5.06211,6.58992 5.34312,11.4442 0.26512,4.57968 -0.44927,7.90605 -2.61619,12.18169 -5.57661,11.00344 -17.57253,18.15929 -25.94467,15.4766 z m 9.35394,-7.92913 c 2.64444,-1.25486 7.38143,-6.39294 9.14071,-9.91465 1.47544,-2.95354 1.61784,-3.62733 1.61199,-7.62772 -0.007,-4.80426 -0.65789,-6.67892 -2.94298,-8.47637 -1.96505,-1.54572 -4.15292,-1.76128 -6.61425,-0.6517 -2.55739,1.15289 -4.16213,2.80588 -6.49501,6.69029 -4.34074,7.22762 -5.15462,17.91202 -1.56228,20.50909 1.23859,0.89544 4.36863,0.65416 6.86182,-0.52894 z"
       id="path1833"
       transform="scale(0.26458333)" />
    <path
       style="fill:#ff9933;fill-opacity:1;stroke:none;stroke-width:0;stroke-opacity:1"
       d="m 439.80493,344.8819 c -2.20241,-1.73241 -2.33405,-2.79424 -1.28349,-10.35215 0.52691,-3.79064 1.189,-10.07337 1.47132,-13.96163 0.7512,-10.34603 0.872,-10.9718 2.44259,-12.65313 1.63672,-1.75211 3.25919,-1.90411 5.07538,-0.47549 1.22243,0.96156 1.28464,1.22895 1.28464,5.52098 0,2.48076 -0.34636,6.52682 -0.76968,8.99123 -0.42333,2.46441 -0.68824,4.72511 -0.58869,5.02376 0.0996,0.29866 0.91981,-0.85627 1.82279,-2.5665 2.78706,-5.27862 6.3226,-10.51814 8.30757,-12.31144 4.89591,-4.42316 10.33031,-5.14534 14.20222,-1.88734 2.64855,2.22861 3.56229,5.21051 6.03708,19.70152 0.92122,5.39417 1.43632,6.34659 3.43804,6.35697 0.7897,0.004 2.14887,0.1032 3.02038,0.22022 1.36109,0.18275 1.58456,0.40588 1.58456,1.58214 0,2.86013 -3.89298,5.41222 -8.25583,5.41222 -2.02025,0 -2.72549,-0.25375 -4.12826,-1.4854 -2.15865,-1.89532 -2.88318,-4.14349 -4.40869,-13.67987 -0.66938,-4.18448 -1.41797,-8.13368 -1.66353,-8.77601 -0.67879,-1.77553 -2.27902,-3.01288 -3.42577,-2.64892 -2.94207,0.93378 -12.22854,13.76001 -16.67932,23.03705 -2.96751,6.18537 -4.56837,7.24468 -7.48331,4.95179 z"
       id="path1835"
       transform="scale(0.26458333)" />
    <path
       style="fill:#ff9933;fill-opacity:1;stroke:none;stroke-width:0;stroke-opacity:1"
       d="m 382.71066,293.84006 c -5.9091,-3.68611 -2.92371,-11.46481 4.09641,-10.67354 1.69937,0.19155 2.55434,0.61329 3.58765,1.76977 2.19162,2.45285 1.52066,5.57563 -1.73084,8.05567 -2.25136,1.71719 -4.13079,1.98494 -5.95322,0.8481 z"
       id="path1837"
       transform="scale(0.26458333)" />
    <path
       style="fill:#ff9933;fill-opacity:1;stroke:none;stroke-width:0;stroke-opacity:1"
       d="m 275.90823,294.03162 c -2.18662,-0.9519 -3.80116,-3.77642 -3.43797,-6.01449 0.45401,-2.79773 2.61862,-4.61507 5.81242,-4.87992 2.42215,-0.20087 2.782,-0.0911 4.42152,1.34839 1.476,1.29595 1.78477,1.89278 1.78477,3.44981 0,2.09881 -1.98067,4.81603 -4.43616,6.08581 -1.65675,0.85674 -2.19733,0.8581 -4.14458,0.0104 z"
       id="path1839"
       transform="scale(0.26458333)" />
    <path
       style="fill:#ff9933;fill-opacity:1;stroke:none;stroke-width:0;stroke-opacity:1"
       d="m 93.783645,345.40046 c -2.327597,-2.37874 -3.514054,-4.23728 -6.05566,-9.48596 -1.738498,-3.59017 -3.367097,-6.65502 -3.619109,-6.81077 -0.58511,-0.36162 -8.024,0.91912 -14.632134,2.5192 -2.815637,0.68177 -6.435741,1.3804 -8.044676,1.5525 l -2.925336,0.31293 -2.517833,3.90045 c -6.427031,9.9563 -8.055838,11.06255 -11.537403,7.83594 -2.345903,-2.17411 -2.423633,-1.99532 8.282027,-19.04973 2.693295,-4.29049 7.484889,-12.2986 10.647988,-17.7958 5.160636,-8.96874 7.950389,-13.68582 10.011677,-16.92831 1.426738,-2.24432 5.724812,-2.6712 7.41112,-0.73606 0.40436,0.46403 0.851581,2.16009 0.993823,3.76902 0.478957,5.41759 9.702764,30.45135 13.964204,37.89938 1.138029,1.98902 3.366794,5.24536 4.952817,7.23632 1.64725,2.06783 2.88513,4.10635 2.88709,4.75442 0.002,0.62397 -0.63789,1.77583 -1.42174,2.55966 -1.12069,1.1207 -1.86066,1.42517 -3.463631,1.42517 -1.850904,0 -2.304823,-0.27221 -4.933224,-2.95836 z M 73.651396,323.22871 c 3.770917,-0.6991 7.153788,-1.45501 7.517491,-1.67979 0.528939,-0.3269 0.05765,-2.14591 -2.354972,-9.08936 -1.658936,-4.77437 -3.201843,-8.86626 -3.42868,-9.0931 -0.515431,-0.51543 -1.479402,1.11024 -7.188529,12.12295 -2.513859,4.84914 -4.416674,8.97061 -4.228478,9.1588 0.188195,0.1882 0.90125,0.2318 1.584564,0.0969 0.683316,-0.13491 4.327687,-0.81728 8.098604,-1.51639 z"
       id="path2636"
       transform="scale(0.26458333)" />
    <path
       style="fill:#ff9933;fill-opacity:1;stroke:none;stroke-width:0;stroke-opacity:1"
       d="m 107.5415,346.09907 c -1.3519,-1.71867 -1.27389,-3.37186 0.23011,-4.87585 1.2065,-1.2065 1.36396,-1.23148 5.72878,-0.90895 4.84152,0.35775 9.22681,-0.35797 13.33927,-2.17711 3.98896,-1.76451 2.83549,-3.41762 -6.14139,-8.80163 -6.46738,-3.8789 -7.29884,-4.52993 -9.01466,-7.05832 -1.57545,-2.32156 -1.69164,-5.8565 -0.28781,-8.75642 2.83975,-5.86613 12.66355,-11.4798 20.08943,-11.4798 2.56788,0 3.07967,0.1682 4.33664,1.42517 0.94602,0.94601 1.42517,1.92023 1.42517,2.89769 0,2.28762 -1.44789,2.99048 -6.16034,2.99048 -3.55602,0 -4.32981,0.17428 -7.06861,1.59207 -5.01395,2.59557 -6.5773,6.07654 -4.06823,9.0584 0.67648,0.80395 3.58353,2.8368 6.46012,4.51746 2.87659,1.68065 6.38201,4.2067 7.78983,5.61345 2.25877,2.25705 2.55967,2.79356 2.55967,4.56396 0,1.10342 -0.3149,2.61517 -0.69977,3.35944 -1.76409,3.41136 -8.54306,7.56972 -14.31658,8.78207 -1.42101,0.29839 -4.97034,0.54253 -7.8874,0.54253 -5.14899,0 -5.33321,-0.0375 -6.31423,-1.28464 z"
       id="path2638"
       transform="scale(0.26458333)" />
  </g>
</svg>
