<?xml version="1.0" encoding="UTF-8" standalone="no"?>
<svg
   xmlns:dc="http://purl.org/dc/elements/1.1/"
   xmlns:cc="http://creativecommons.org/ns#"
   xmlns:rdf="http://www.w3.org/1999/02/22-rdf-syntax-ns#"
   xmlns:svg="http://www.w3.org/2000/svg"
   xmlns="http://www.w3.org/2000/svg"
   xmlns:sodipodi="http://sodipodi.sourceforge.net/DTD/sodipodi-0.dtd"
   xmlns:inkscape="http://www.inkscape.org/namespaces/inkscape"
   height="65"
   width="65"
   id="svg4470"
   version="1.1"
   inkscape:version="0.91 r13725"
   sodipodi:docname="hiking.svg">
  <metadata
     id="metadata4485">
    <rdf:RDF>
      <cc:Work
         rdf:about="">
        <dc:format>image/svg+xml</dc:format>
        <dc:type
           rdf:resource="http://purl.org/dc/dcmitype/StillImage" />
        <dc:title />
      </cc:Work>
    </rdf:RDF>
  </metadata>
  <defs
     id="defs4483" />
  <sodipodi:namedview
     pagecolor="#ffffff"
     bordercolor="#666666"
     borderopacity="1"
     objecttolerance="10"
     gridtolerance="10"
     guidetolerance="10"
     inkscape:pageopacity="0"
     inkscape:pageshadow="2"
     inkscape:window-width="928"
     inkscape:window-height="1028"
     id="namedview4481"
     showgrid="false"
     inkscape:zoom="10.160581"
     inkscape:cx="-13.087486"
     inkscape:cy="33.727099"
     inkscape:window-x="3585"
     inkscape:window-y="24"
     inkscape:window-maximized="0"
     inkscape:current-layer="svg4470" />
  <g
     id="hiking"
     ng-click="editCtrl.pushToArray(route, 'activities', 'hiking', $event)"
     class="activity-icon"
     transform="matrix(0.99999706,0,0,-1.0000305,0.45155517,167.44463)">
    <title
       id="title4473">hiking</title>
    <g
       id="g306"
       transform="translate(42.43023,144.71482)">
      <g
         id="g4695">
        <g
           id="g4700">
          <path
             style="fill:#ffaa45;fill-opacity:1;fill-rule:nonzero;stroke:none"
             d="m 32.041016,3.4257812 c -16.141,1e-7 -29.2265629,13.0836098 -29.2265629,29.2246098 0,16.140999 13.0855629,29.224609 29.2265629,29.224609 16.14,0 29.224609,-13.08361 29.224609,-29.224609 0,-16.141 -13.084609,-29.2246098 -29.224609,-29.2246098 z m 1.701172,8.1582028 c 0.796112,-0.02229 1.994609,0.249297 2.724609,1.857422 0,0 0.935766,0.729969 0.759765,1.167969 -0.174998,0.438 -0.291578,0.407797 -0.642578,0.466797 0,0 -0.291015,0.496953 -0.291015,0.876953 0,0.38 0.05777,1.197656 -0.615235,0.847656 0,0 -0.2625,0.466907 -0.4375,0.378907 0,0 -0.117671,0.408203 -0.263672,0.408203 0,0 -0.08659,0.703234 -0.933593,0.615234 -0.848,-0.087 -1.024422,0.05888 -0.732422,0.671875 0.292,0.614 0.681937,2.247328 0.710937,2.861328 0.075,1.123 -0.0098,2.75 -0.0098,2.75 0,0 -0.144703,2.775672 -0.845703,3.388672 0,0 2.189437,1.637281 2.773437,1.988281 0,0 1.799004,-0.261123 2.273438,0.113281 l 0.01172,0 c 0.01646,-0.01398 0.699909,-0.589501 1.146485,-0.197265 0,0 0.689375,0.965453 0.734375,1.814453 0.004,0.286 -0.07697,0.523344 -0.292969,0.652344 l -0.396484,0.134765 c -0.0361,0.0069 -0.08495,0.0042 -0.123047,0.0098 l 2.21289,14.966797 0.314453,2.367187 c 0,0 0.118672,-0.07205 0.138672,0.126953 0.02,0.199001 0.171875,1.867188 0.171875,1.867188 0,0 0.10686,0.208766 -0.11914,0.259766 l 0.224609,0.408203 c 0,0 0.711938,0.02839 0.710938,0.27539 -0.002,0.247 -0.736328,0.357422 -0.736328,0.357422 0,0 0.120718,1.077672 0.01172,1.263672 l -0.111328,0.01563 -0.06055,0.0078 c 0,0 -0.213547,-0.347172 -0.310547,-1.201172 0,0 -0.804031,0.115328 -0.832031,-0.138672 -0.028,-0.254 0.558594,-0.464844 0.558594,-0.464844 l 0.144531,-0.386719 -0.0332,-0.08789 c 0,0 -0.08628,0.04239 -0.113281,-0.09961 -0.027,-0.143 -0.359375,-1.998046 -0.359375,-1.998046 0,0 -0.02069,-0.09347 0.07031,-0.105469 0,0 -0.174562,-1.192672 -0.351562,-2.388672 -0.136676,-0.924922 -1.72492,-11.496094 -2.251953,-15.005859 -0.780035,-0.02434 -1.608093,-0.213954 -1.75586,-0.492188 0,0 -0.174843,-0.232203 -0.964844,-0.408203 -0.789,-0.175 -1.956812,-0.497985 -2.132812,-0.583985 0,0 2.192781,7.423391 2.425781,8.650391 l -0.0293,0.320313 c 0,0 0.35086,1.255031 0.38086,1.957031 0,0 -0.873078,7.103422 -0.330078,8.107422 0,0 0.334953,0.542937 0.376953,0.835937 0.041,0.292 0.918906,0.335922 1.253906,0.544922 0.334,0.209 1.003891,-0.335014 1.212891,0.208984 0.208,0.543001 -0.04194,1.002922 -0.835938,1.044922 -0.795,0.042 -2.13275,0.125 -2.84375,0.125 -0.71,0 -1.087844,-0.08398 -1.589844,0.04102 -0.501,0.126 -1.63089,0.169031 -1.46289,-0.792969 0.167,-0.962 -0.04299,-0.87889 0.04102,-1.33789 0.084,-0.46 0.543922,-0.167907 0.669922,-1.128907 0.125,-0.962 0.669,0.291204 0,-2.216796 0,0 -0.879984,-1.379657 0.04102,-3.972657 0,0 -0.208985,-0.667953 -0.333985,-0.751953 1e-6,0 -9.22e-4,1.58786 -0.794921,2.00586 -0.795,0.416999 -1.839782,0.919874 -2.675782,1.421874 -0.837,0.502001 -1.295859,0.879844 -1.755859,1.339844 -0.46,0.459 -2.048797,0.918906 -2.591797,1.503906 -0.544,0.586002 -1.088844,0.584907 -1.589844,1.253907 -0.502,0.669 0.08302,2.133781 0.04102,2.425781 -0.041,0.293 0.502891,0.08298 0.837891,0.208984 0.334,0.125 0.709047,0.877922 -0.126954,0.919922 -0.835999,0.042 -2.298781,0.167032 -2.675781,-0.167968 -0.376,-0.334001 -2.47664,-2.692579 -2.93164,-2.767579 0,0 -1.043532,-1.148921 0.105468,-1.669921 1.148,-0.522001 2.294422,-0.729985 2.607422,-0.833985 0.313,-0.104 1.357375,-0.730422 1.984375,-1.357422 0,0 1.179735,-1.863047 2.552735,-2.623047 1.374,-0.76 2.045968,-1.081343 2.542968,-1.402343 0.497,-0.321 0.73175,-1.051641 0.46875,-1.431641 l -0.439453,0.0293 c 0,0 -0.349015,-0.08834 -0.291015,-0.527344 0.058,-0.438 -0.321657,-2.422687 -0.847657,-3.679687 -0.526,-1.258 -0.935546,-1.520313 -0.935546,-1.695313 -1e-6,0 -0.291124,-0.438139 -0.203126,-0.994141 1e-6,0 0.08733,-0.555562 -0.263671,-0.351562 -0.35,0.205 -0.965063,0.879125 -2.164063,0.703125 -1.197,-0.176 -3.155234,-1.550734 -3.740234,-2.427734 -0.584,-0.876 -0.320016,-0.875813 -0.291016,-2.132813 0.03,-1.257 -0.0558,-6.815953 -0.466797,-9.876953 l -0.322265,-0.410156 c 0,0 -0.3495,-0.378031 -0.4375,-0.582031 -0.087,-0.205 -0.32236,-2.045751 0.05664,-2.71875 0.381,-0.672 1.374547,-1.841782 2.310547,-2.425782 0.934,-0.585 1.226625,-0.526265 2.015625,-0.322265 0.789,0.205 1.344688,0.526453 1.929688,0.439453 0.584,-0.088 1.606625,0.43847 2.015625,0.730468 0.41,0.292001 1.140625,0.731141 1.140625,0.994141 0,0.262 0.61275,0.291703 1.34375,-0.0293 0.731,-0.322 2.044922,-1.375 2.044922,-1.375 0,0 -0.262797,-2.512109 1.783203,-3.037109 0,0 0.332878,-0.119436 0.810547,-0.132813 z"
             transform="matrix(1,0,0,-1,-42.43023,22.86759)"
             id="path31"
             inkscape:connector-curvature="0" />
          <g
             id="g4899">
            <g
               id="g4903" />
          </g>
        </g>
      </g>
    </g>
  </g>
</svg>
