<?xml version="1.0" encoding="UTF-8" standalone="no"?>
<svg
   xmlns:dc="http://purl.org/dc/elements/1.1/"
   xmlns:cc="http://creativecommons.org/ns#"
   xmlns:rdf="http://www.w3.org/1999/02/22-rdf-syntax-ns#"
   xmlns:svg="http://www.w3.org/2000/svg"
   xmlns="http://www.w3.org/2000/svg"
   xmlns:sodipodi="http://sodipodi.sourceforge.net/DTD/sodipodi-0.dtd"
   xmlns:inkscape="http://www.inkscape.org/namespaces/inkscape"
   height="65"
   width="65"
   id="svg4713"
   version="1.1"
   inkscape:version="0.91 r13725"
   sodipodi:docname="ice_climbing.svg">
  <metadata
     id="metadata4741">
    <rdf:RDF>
      <cc:Work
         rdf:about="">
        <dc:format>image/svg+xml</dc:format>
        <dc:type
           rdf:resource="http://purl.org/dc/dcmitype/StillImage" />
      </cc:Work>
    </rdf:RDF>
  </metadata>
  <defs
     id="defs4739" />
  <sodipodi:namedview
     pagecolor="#ffffff"
     bordercolor="#666666"
     borderopacity="1"
     objecttolerance="10"
     gridtolerance="10"
     guidetolerance="10"
     inkscape:pageopacity="0"
     inkscape:pageshadow="2"
     inkscape:window-width="928"
     inkscape:window-height="1028"
     id="namedview4737"
     showgrid="false"
     inkscape:zoom="11.6"
     inkscape:cx="0.76696714"
     inkscape:cy="-13.362069"
     inkscape:window-x="3585"
     inkscape:window-y="24"
     inkscape:window-maximized="0"
     inkscape:current-layer="svg4713" />
  <g
     id="ice_climbing"
     ng-click="editCtrl.pushToArray(route, 'activities', 'ice_climbing', $event)"
     class="activity-icon"
     transform="matrix(0.98316818,0,0,-0.98316817,-94.876172,164.97279)">
    <title
       id="title4716">ice_climbing</title>
    <g
       id="g5202"
       transform="translate(-6.4,30.4)">
      <g
         transform="translate(-54.576271,-166.00678)"
         id="g5173">
        <g
           id="g150"
           transform="translate(219.7496,270.3391)">
          <path
             style="fill:#ffaa45;fill-opacity:1;fill-rule:nonzero;stroke:none"
             d="m 32.679688,2.3320312 c -16.928804,0 -30.7011724,13.7723688 -30.7011724,30.7011718 0,16.928804 13.7723684,30.701172 30.7011724,30.701172 16.928803,0 30.701171,-13.772368 30.701171,-30.701172 0,-7.479983 -2.688527,-14.344214 -7.15039,-19.675781 C 50.594181,6.6225115 42.128507,2.3320312 32.679688,2.3320312 Z M 27.40625,3.84375 c 0.996371,1.1061682 0.82128,3.8193103 -0.947266,8.755859 -0.25717,0.51434 -0.576353,1.109208 -0.93164,1.757813 l -0.1875,0.341797 c -0.06098,0.110188 -0.138357,0.246587 -0.201172,0.359375 0.425357,0.355829 0.382149,0.313277 1.070312,0.902344 1.678318,1.437671 1.441407,3.716796 1.441407,3.716796 l -0.207032,1.181641 c 0.307428,0.42554 0.422971,1.113226 0.554688,1.375 0.195201,0.388337 0.454573,0.376899 1.109375,1.023437 0.653769,0.64654 0.959215,1.678651 1.654297,2.46875 0.694049,0.790101 1.665098,2.279598 1.269531,1.646485 -0.02789,-0.04441 -0.0515,-0.0976 -0.07422,-0.152344 -0.248912,-0.597997 -0.231256,-1.760458 -0.216797,-2.160156 0.0041,-0.09502 -0.02027,-0.186794 -0.06055,-0.271485 -0.298493,-0.634145 -0.280351,-1.112303 -0.296876,-2.152343 -0.0062,-0.431715 -0.05073,-0.702746 -0.105468,-0.871094 -0.04751,-0.145626 -0.158591,-0.259959 -0.294922,-0.328125 -0.717804,-0.358385 -0.827204,-0.997985 -1.023438,-1.142578 -0.206565,-0.151823 0.134583,-0.322899 -0.02344,-0.472656 -0.159054,-0.149758 0.10732,-0.301959 0.01953,-0.423828 -0.08882,-0.122905 0.0092,-0.189543 0.07422,-0.564454 0.04235,-0.248907 0.0646,-0.34965 0.384765,-0.384765 1.159847,-0.129102 1.470704,0.326172 1.470704,0.326172 0.0053,0.0053 0.0066,0.01221 0.01172,0.01758 L 32.347656,18.25 c 1.187733,-1.569873 0.410156,-3.587891 0.410156,-3.587891 l -1.042968,-2.78125 c -0.694049,-0.674425 -1.107892,-0.02305 -1.314453,0.113282 -0.207595,0.137363 -2.535157,1.101562 -2.535157,1.101562 l 0.03906,-0.271484 c 1.402557,-0.595932 3.302734,-2.335938 3.302734,-2.335938 l 2.802735,-0.230469 -0.132813,0.230469 -1.498047,0.515625 0.128906,0.59961 c 0,0 0.429153,1.128565 1.15625,3.214843 0.727099,2.086278 -0.626953,3.9375 -0.626953,3.9375 l -0.728515,0.865235 c 0.05172,0.123588 0.111521,0.243058 0.197265,0.347656 0.424486,0.516405 1.256819,1.407238 1.490235,1.962891 0.233415,0.55462 0.23468,1.997952 0.498047,2.412109 0.264399,0.41519 0.281044,0.556604 0.5,1.417969 0.129101,0.508143 0.463759,1.009569 0.716797,1.335937 0.131165,0.168349 0.34112,0.250992 0.550781,0.214844 0.152856,-0.02582 0.332889,0.01816 0.478515,0.02539 0.235481,0.01136 0.492188,-0.402344 0.492188,-0.402344 0.235481,-0.958449 1.550781,-1.296875 1.550781,-1.296875 2.056327,-0.964646 3.566406,1.589844 3.566406,1.589844 1.140224,1.881781 -1.264199,3.75421 -1.917968,4.214843 -0.13943,0.09915 -0.23278,0.250429 -0.244141,0.421875 -0.02066,0.307778 0.0785,0.844891 0.699219,1.63086 1.048303,1.328195 0.0566,2.816558 -0.570313,3.046875 -0.624848,0.230317 -0.284878,0.01105 -0.541015,0.919922 -0.25717,0.910939 -1.002179,2.173138 -2.289063,2.867187 -1.286882,0.696115 -0.739081,5.176338 -0.4375,6.152344 0.182808,0.59903 -0.51368,2.740279 -0.818359,3.671875 -0.242709,0.744657 -0.277119,2.479288 -0.28125,3.146484 -10e-4,0.150791 0.05171,0.29803 0.160156,0.402344 0.625883,0.609358 0.826364,2.015568 1.091797,2.859375 0.286088,0.913006 0.900869,3.401367 1.214844,4.244141 0.104761,0.679164 -0.319271,1.183347 -0.878907,1.490234 -0.603198,0.09982 -1.209446,0.187288 -1.824218,0.25 -0.251126,-0.103714 -0.396677,-0.294814 -0.333985,-0.585937 0.07126,-0.492651 -0.08362,-1.208339 -0.162109,-1.542969 -0.07746,-0.334631 -0.781994,-1.952906 -1.126953,-2.65625 -0.234448,-0.477159 -0.480969,-1.153938 -0.615235,-1.53711 -0.06094,-0.173512 -0.204473,-0.297293 -0.376953,-0.361328 -0.29022,-0.106379 -0.436864,-0.308377 -0.68164,-0.617187 -0.06197,-0.07746 -0.182203,-0.188491 -0.171875,-0.34961 0.279891,-4.217999 -0.617188,-6.214843 -0.617188,-6.214843 -0.09916,-0.249941 -0.175781,-0.386719 -0.175781,-0.386719 -0.901644,1.044172 -2.351563,1.660156 -2.351563,1.660156 0,0 -0.171651,-0.318341 0.02148,0.09375 0.193135,0.411059 1.07343,3.22175 1.285156,4.22461 0.211726,1.002858 0.260399,1.928445 0.410156,2.740234 0.149758,0.810756 0.246296,0.791033 0.619141,1.40039 0.372845,0.608326 -0.111806,0.84758 -0.623047,1.673829 -0.51434,0.827281 -1.035918,0.351 -1.792969,0.361328 -0.648605,0.01033 -2.368319,-0.03253 -2.849609,-0.04492 -0.02455,-8.99e-4 -0.04794,-0.01386 -0.07227,-0.01758 0.341774,0.69756 0.561288,1.261938 0.689453,1.724609 C 20.55689,60.850842 15.031451,57.631548 10.876953,53.126953 L 7.3222656,48.419922 C 4.5878288,43.930515 3.0117188,38.663081 3.0117188,33.033203 c 0,-1.211718 0.082737,-2.404043 0.2246093,-3.578125 l 0.5175781,-2.996094 c 0.5847587,-2.574028 1.5034663,-5.02172 2.7109376,-7.294922 l 0.0625,-0.07031 C 6.571564,18.986204 6.6257102,18.880615 6.671875,18.773438 10.910469,11.073265 18.469663,5.4543496 27.40625,3.84375 Z m -2.673828,11.935547 c -1.051217,1.870689 -2.242209,3.946994 -3.259766,5.869141 -1.662825,3.139744 -2.955573,6.649 -3.878906,8.126953 -0.511503,0.817261 -1.010943,1.347213 -1.208984,1.755859 l 0.132812,0.708984 c 0.04812,0.04036 0.0856,0.08111 0.152344,0.121094 0.505284,0.30317 0.350478,0.948903 0.224609,1.914063 l 1.271485,6.882812 c 1.541679,5.001561 4.119259,12.815044 5.357422,14.878906 0.730322,1.095913 1.287455,2.01643 1.771484,2.861329 0.347691,-0.526707 1.094366,-0.977246 1.328125,-1.189454 0.445141,-0.40383 0.642769,-0.583396 1.105469,-1.365234 0.463732,-0.780805 -0.826599,-3.420941 -1.195313,-4.101562 -0.369746,-0.67959 -0.14959,-0.881726 -0.648437,-1.332032 -0.497815,-0.449272 -0.633631,-1.094839 -0.744141,-1.738281 -0.110511,-0.64344 0.296114,-1.237181 1.027344,-2.171875 0.568046,-0.725033 2.17727,-2.058437 2.867187,-2.617188 0.177641,-0.143559 0.25131,-0.375714 0.191406,-0.595703 -0.194167,-0.711606 0.476513,-0.514562 0.53125,-2.076171 10e-4,-0.04648 0.0028,-0.09507 0.0059,-0.142579 0.121872,-1.698974 1.325486,-2.957507 1.427734,-3.666015 0.107413,-0.728132 0.371982,-1.308024 0.642578,-2.501953 0.270597,-1.192897 0.870909,-1.352814 1.107422,-2.333985 0.236514,-0.98117 -0.705832,-1.098032 -1.158203,-1.521484 -0.452371,-0.423453 -1.413842,-1.581514 -2.314453,-2.523438 -0.624851,-0.651703 -0.766116,-1.214025 -0.792969,-1.498046 -0.01136,-0.122905 -0.06467,-0.234365 -0.15039,-0.324219 -0.272662,-0.29022 -0.394376,-0.753124 -0.75586,-1.664063 -0.421387,-1.060698 -0.751953,-1.125 -0.751953,-1.125 -1.124731,-0.218956 -1.210364,-1.357061 -1.310547,-1.740234 -0.101215,-0.383173 -0.123937,-0.880877 0,-1.490234 0.09089,-0.447208 0.233902,-0.610582 0.619141,-0.660157 l 0.3125,0.0098 0.160156,-0.941406 C 27.036375,17.633812 25.347656,16.28125 25.347656,16.28125 l -0.615234,-0.501953 z"
             transform="matrix(0.96823145,0,0,-0.96823145,-60.866626,31.983543)"
             id="path152"
             inkscape:connector-curvature="0" />
        </g>
        <g
           id="g154"
           transform="translate(194.7535,257.3167)" />
      </g>
      <g
         id="g5159">
        <g
           id="g158"
           transform="translate(-54.576271,-166.00678)">
          <g
             id="g160"
             clip-path="url(#clipPath162)">
            <g
               id="g166"
               transform="translate(183.6001,288.4223)" />
            <g
               id="g170"
               transform="translate(174.3465,296.625)">
              <g
                 id="g6639" />
            </g>
          </g>
        </g>
        <g
           id="g182"
           transform="translate(135.94793,133.05772)" />
        <g
           id="g186"
           transform="translate(131.32513,123.89912)" />
        <g
           id="g190"
           transform="translate(123.89373,119.72572)" />
      </g>
    </g>
  </g>
</svg>
