<?xml version="1.0" encoding="UTF-8" standalone="no"?>
<svg
   xmlns:dc="http://purl.org/dc/elements/1.1/"
   xmlns:cc="http://creativecommons.org/ns#"
   xmlns:rdf="http://www.w3.org/1999/02/22-rdf-syntax-ns#"
   xmlns:svg="http://www.w3.org/2000/svg"
   xmlns="http://www.w3.org/2000/svg"
   xmlns:sodipodi="http://sodipodi.sourceforge.net/DTD/sodipodi-0.dtd"
   xmlns:inkscape="http://www.inkscape.org/namespaces/inkscape"
   height="65"
   width="65"
   id="svg4340"
   version="1.1"
   inkscape:version="0.91 r13725"
   sodipodi:docname="mountain_biking.svg">
  <metadata
     id="metadata4354">
    <rdf:RDF>
      <cc:Work
         rdf:about="">
        <dc:format>image/svg+xml</dc:format>
        <dc:type
           rdf:resource="http://purl.org/dc/dcmitype/StillImage" />
        <dc:title />
      </cc:Work>
    </rdf:RDF>
  </metadata>
  <defs
     id="defs4352" />
  <sodipodi:namedview
     pagecolor="#ffffff"
     bordercolor="#666666"
     borderopacity="1"
     objecttolerance="10"
     gridtolerance="10"
     guidetolerance="10"
     inkscape:pageopacity="0"
     inkscape:pageshadow="2"
     inkscape:window-width="928"
     inkscape:window-height="1028"
     id="namedview4350"
     showgrid="false"
     inkscape:zoom="7.069231"
     inkscape:cx="24.698388"
     inkscape:cy="27.089611"
     inkscape:window-x="4512"
     inkscape:window-y="24"
     inkscape:window-maximized="0"
     inkscape:current-layer="svg4340" />
  <g
     id="mountain_biking"
     ng-click="editCtrl.pushToArray(route, 'activities', 'mountain_biking', $event)"
     class="activity-icon"
     transform="matrix(1,0,0,-1,0.2249844,76.382009)">
    <title
       id="title4343">activity-icon</title>
    <g
       id="g5289"
       transform="translate(-4.8,11.2)">
      <g
         transform="translate(66.292329,32.67372)"
         id="g58">
        <path
           style="fill:#ffaa45;fill-opacity:1;fill-rule:nonzero;stroke:none"
           d="m 32.267578,3.2832031 c -16.141,0 -29.2265624,13.0836099 -29.2265624,29.2246089 0,16.141001 13.0855624,29.226563 29.2265624,29.226563 16.14,0 29.22461,-13.085563 29.22461,-29.226563 -10e-7,-16.140999 -13.08461,-29.2246089 -29.22461,-29.2246089 z m -1.472656,8.0234379 c 0.153,-0.03 0.448703,0.07484 0.720703,0.08984 0.292,0.017 0.492812,-0.02461 0.632813,0.150391 2.045,0.443 2.772453,2.202438 3.189453,4.273437 -0.422,0.269 -1.004219,-0.374 -1.324219,0 0,0 -0.07856,1.053407 -0.601563,1.566407 -0.309,0.193 -0.224625,0.56939 -0.390625,0.90039 -0.09,0.18 -0.503968,0.357266 -0.542968,0.572266 -0.041,0.228 0.246578,0.495656 0.392578,0.722656 0.302,0.467 0.573094,0.853969 0.871094,1.292969 0.256,0.377 0.414203,0.648594 0.783203,0.933594 0.149,0.115 0.249578,0.255781 0.392578,0.300781 0.212,0.067 0.413859,0.147641 0.630859,0.181641 0.553,0.085 2.708984,1.503906 2.708984,1.503906 0.222001,0.076 0.457407,0.06739 0.691407,0.15039 0.248,0.087 0.664031,0.413938 1.082031,0.210938 0.153,0.038 0.279422,0.194844 0.482422,0.08984 0.14,0.04 0.147781,0.212234 0.300781,0.240234 0.288,-0.213 0.971969,-0.02898 1.292969,-0.208984 0.37,0.19 0.566812,0.368797 0.632812,0.841797 0.078,0.555 -0.430703,1.069218 0.0293,1.324218 0.304,-0.105 0.703047,0.08678 0.873047,0.300782 -0.149,0.087 -0.360547,-0.09558 -0.560547,-0.142579 -0.23,-0.009 -0.373484,0.01488 -0.521484,0.171876 -0.146,-0.014 -0.125031,-0.197391 -0.332031,-0.150391 -0.196,0.1 0.007,0.382266 0,0.572265 0.734,0.25 1.167359,1.433813 0.693359,2.257813 0.32,0.894 0.713047,1.713578 0.873047,2.767578 l 0.05859,0.181641 c 0.034,0.186 0.09009,0.351015 0.121093,0.541015 0.31,-0.02 0.489563,0.164922 0.601563,0.419922 3.064,-1.85 7.0005,-0.55914 8.9375,1.50586 1.268,1.352 2.052016,3.128922 2.166016,5.294921 0.066,1.254 -0.177563,2.657032 -0.601563,3.582032 -0.164,0.358 -0.452109,0.712984 -0.662109,1.083984 -0.632,1.115 -1.482438,1.876094 -2.648438,2.496094 -0.881,0.469 -1.889,0.873453 -3.25,0.814453 -2.063,-0.091 -3.716,-0.646547 -4.875,-1.685547 -0.531,-0.477 -0.931812,-0.965609 -1.382812,-1.474609 -0.343,-0.627 -0.767438,-1.223328 -1.023438,-1.986328 -0.254,-0.755 -0.439422,-1.587297 -0.482422,-2.529297 -0.12,-2.64 0.86611,-4.706188 2.28711,-5.867188 -0.318,-0.511 -0.503344,-1.006203 -0.902344,-1.533203 -0.172,-0.227 -0.334719,-0.414609 -0.511719,-0.724609 -0.086,-0.151 -0.226781,-0.268625 -0.300781,-0.390625 -0.12,-0.197 -0.111484,-0.374625 -0.271484,-0.390625 -0.356,-0.035 -0.779641,1.023219 -0.931641,1.324218 -1.274,2.536 -2.414875,5.052735 -3.671875,7.552735 -0.504,1.003 -1.059063,2.033765 -1.414063,3.009765 10e-4,0.126 0.116938,0.134844 0.210938,0.08984 -0.046,0.196 0.05894,0.300938 0.210937,0.210938 -0.023,0.067 -0.06355,0.117937 -0.06055,0.210937 0.027,0.114 0.120937,0.0213 0.210937,0.0293 -0.115,0.048 -0.06516,0.389188 0.08984,0.242188 0.053,0.035 -0.07084,0.146984 -0.08984,0.208984 0.001,0.1 0.08469,0.115094 0.179687,0.121094 -0.093,0.057 -0.149453,0.269234 0.06055,0.240234 -0.085,0.082 -0.239547,0.269328 -0.06055,0.361328 -0.24,0.101 -0.04698,0.301875 -0.208984,0.421875 0.268,0.639 1.44336,0.509766 1.44336,0.509766 0.689999,-0.018 1.397468,-0.126984 2.105468,-0.208985 0.138,0.157 0.369328,0.357266 0.361328,0.572266 -0.016,0.466 -0.921984,0.592188 -1.083984,0.992188 -0.116,0.004 -0.137531,0.100843 -0.269531,0.08984 0.017,0.317 -0.180938,0.42236 -0.210938,0.69336 -0.407,0.175 -0.927375,0.06838 -1.234375,0.359375 -0.112,0.032 -0.04739,-0.112844 -0.15039,-0.08984 -0.236,0.169 -0.395407,0.08539 -0.691407,0.150391 -0.025,-0.126 0.08209,-0.118688 0.121094,-0.179688 -0.243,-0.064 -0.0538,-0.225328 -0.0918,-0.361328 -0.169,-0.042 -0.358719,0.138938 -0.511718,0.210937 0,0.151001 -0.02159,0.277625 -0.05859,0.390626 -0.866,0.158 -1.407047,0.797859 -2.498047,0.630859 -0.021,-0.131 0.0503,-0.168781 0.0293,-0.300781 -0.302,-0.353 -0.263078,-0.909203 -0.330078,-1.533204 -0.428,0.094 -0.668735,0.373719 -1.052735,0.511719 -0.982,3.212 -3.119968,5.792282 -7.042969,5.988281 -2.702999,0.135 -4.979203,-0.838718 -6.408203,-2.136718 -1.38,-1.253 -2.460656,-3.238594 -2.347656,-5.808594 0.091,-2.087 0.995109,-4.054016 2.287109,-5.416016 1.420001,-1.498 3.39536,-2.5655 6.31836,-2.4375 1.021,0.045 1.789437,0.206266 2.648437,0.572266 0.09,-0.063 -0.04,-0.158484 0,-0.271484 0.17,-0.288 0.359969,-0.571344 0.542969,-0.902344 0.148,-0.268 0.441219,-0.667891 0.449219,-0.962891 0.009,-0.325 -0.364016,-0.994531 -0.541016,-1.144531 -0.202,-0.171 -0.520953,-0.210625 -0.751953,-0.390625 -0.277,-0.216 -0.445406,-0.553203 -0.691406,-0.783203 -1.596,-1.488 -4.419203,-1.882313 -5.658203,-3.820313 -0.376,-1.3 -0.289625,-1.842 -0.390625,-3.25 0,0 -0.27275,-1.835859 0.78125,-3.130859 0.198,-0.244 0.638969,-0.651391 0.542968,-0.900391 -0.108,-0.144 -0.429109,-0.0748 -0.662109,-0.0918 -0.493,-0.295 -0.9875,-1.175625 -0.8125,-2.015624 0,0 1.858109,-7.66136 7.162109,-5.56836 0.221001,0.193 1.769704,1.005672 2.345704,-1.111328 0.022,-0.12 0.100843,-0.151484 0.08984,-0.271484 -0.02,-0.23 -0.345828,-0.741985 -0.298828,-1.083985 0.061,-0.46 0.68611,-0.518984 0.66211,-1.083984 0.183,-0.173 0.553546,-0.283172 0.810547,-0.451172 0.121999,-0.08 0.171734,-0.214234 0.302734,-0.240234 z m 1.519531,11.734375 c -0.05284,0.0095 -0.107765,0.03075 -0.166015,0.0625 -0.04,0.552 0.260562,0.670047 0.601562,0.873046 1.05,0.624 2.270391,1.266594 3.400391,1.683594 0.128,-0.053 0.227328,-0.132687 0.361328,-0.179687 0.177,0.064 0.356328,0.125328 0.361328,0.361328 0.624,0.099 1.334781,0.110234 1.925781,0.240234 0.063,0.138 0.151938,0.248625 0.210938,0.390625 -0.023,0.088 -0.144094,0.07794 -0.121094,0.210938 0.251,0.03 0.382172,0.179625 0.451172,0.390625 0.296,-0.179 0.854281,-0.308563 1.113281,-0.601563 0.059,-0.072 0.169641,-0.08998 0.181641,-0.208984 -0.23,-0.131 -0.291579,-0.43336 -0.392578,-0.69336 -0.044,-0.017 -0.155391,0.0357 -0.150391,-0.0293 -0.113,-0.003 -0.07039,0.149687 -0.150391,0.179687 -0.111,-0.2 -0.437859,-0.182781 -0.630859,-0.300781 0.113,-0.102 0.0583,-0.173031 0.0293,-0.332031 -0.275,-0.065 -0.574594,-0.107844 -0.933594,-0.08984 -0.191,-0.178 -0.589891,-0.102141 -0.962891,-0.119141 -1.958,-0.092 -2.964093,-0.394078 -4.121093,-1.205078 -0.38325,-0.268625 -0.637961,-0.699435 -1.007813,-0.632812 z m -1.912109,1.867187 c -0.105,0.156 -0.51511,0.658047 -0.66211,0.873047 -0.234,0.359 -0.468734,0.549516 -0.927734,0.978516 l -0.576172,0.314453 c -0.387,0.106 -0.967734,0.275203 -1.052734,0.783203 l 0.93164,0.15039 0.722657,0.08984 c 0.968,0.168 1.44775,0.388625 1.96875,0.515625 0.965,0.441 2.656547,0.763813 2.935547,2.132813 0.016,0.078 0.03025,0.201484 0.03125,0.271484 0.009,1.104 -0.576407,2.289594 -0.691407,3.308594 0.002,-0.018 0.0033,-0.0343 0.0293,-0.0293 1.145,-0.67 2.165,-1.421016 3.25,-2.166016 0.787,-0.542 1.609797,-1.207703 2.466797,-1.595703 0.469,-0.212 1.097375,-0.292203 1.234375,-0.783203 -0.056,-0.124 -0.116688,-0.175969 -0.179688,-0.292969 -0.199999,-0.341 -0.411968,-0.596156 -0.542968,-0.910156 -0.071,-0.135 -0.322172,0.04841 -0.451172,-0.05859 0.085,-0.115 0.194937,-0.207578 0.210937,-0.392578 -0.165,-0.309 -0.587359,-0.257453 -0.693359,0.06055 -0.274,-0.168 -0.526344,-0.355875 -0.902344,-0.421875 -0.048,-0.285 -0.312312,-0.561703 -0.570312,-0.720703 -0.134,-0.083 -0.391969,-0.233484 -0.542969,-0.271484 -0.267,-0.066 -0.571109,0.05352 -0.662109,-0.271485 -2.064,-0.233 -4.018172,-0.576453 -5.326172,-1.564453 z m 11.117187,2.181641 c -0.0532,-0.008 -0.107562,-0.0054 -0.164062,0.01563 0.094,0.037 0.148781,0.110843 0.300781,0.08984 0.145,0.119 0.364422,0.474876 0.482422,0.421876 -0.002,-0.169001 -0.192391,-0.148329 -0.150391,-0.361329 -0.15975,-0.021 -0.30914,-0.141922 -0.46875,-0.166015 z m -0.07422,0.226562 c -0.169,0.151 -0.360609,0.279328 -0.599609,0.361328 -0.092,0.022 -0.03694,0.05219 -0.210937,0.117188 -0.285,0.236 -0.516954,0.247375 -0.751954,0.484375 0.269001,0.222 0.41761,0.562984 0.59961,0.833984 0.265,0.347 0.472359,0.549313 0.693359,0.820313 0.42,-0.34 1.078282,-0.664766 1.113281,-1.384766 0.029,-0.599 -0.346953,-0.923422 -0.751953,-1.232422 l -0.0918,0 z m 0.72461,0 c 0.204,0.668 0.407109,1.337078 0.662109,1.955078 0.294,-0.804 -0.01711,-1.726078 -0.662109,-1.955078 z m 0.238281,1.232422 c 0.024,0.866 -0.393094,1.29225 -0.871094,1.65625 0.462,0.079 1.193422,-0.433953 1.232422,-0.751953 0.04,-0.317 -0.269328,-0.594297 -0.361328,-0.904297 z m -0.300781,0.753906 c -0.277,0.254 -0.522391,0.538407 -0.900391,0.691407 0.023,0.088 0.04614,0.172937 0.119141,0.210937 0.285,-0.257 0.73025,-0.512344 0.78125,-0.902344 z m 0.662109,0.390625 c -0.26,0.416 -0.791062,0.70911 -1.414062,0.66211 0.269,0.464 0.694453,0.771765 0.814453,1.384765 0.099,-0.022 0.09998,-0.141343 0.208984,-0.152343 0.432,-0.124 0.783203,0 0.783203,0 0.244,0.211 0.284172,0.705297 0.451172,0.904297 -0.138,-0.956001 -0.47775,-1.970829 -0.84375,-2.798829 z m -3.970703,2.466797 c -1.988,1.141 -3.970437,2.289235 -5.898437,3.490235 1.025,1.897 -0.0292,5.378047 0.841797,7.373047 0.089,-0.062 0.270328,-0.03084 0.361328,-0.08984 l 0.603515,-1.292969 c 0.175,-0.417 0.350313,-0.833078 0.570313,-1.205078 0.973,-2.357 2.182703,-4.964656 3.220703,-7.222656 0.154,-0.334 0.373625,-0.651485 0.390625,-1.021485 -0.042,0.001 -0.06484,-0.01525 -0.08984,-0.03125 z m 3.791016,0.392578 c 0.01,0.233 0.149484,0.300469 0.271484,0.480469 0.245,0.362 0.4235,0.950985 0.8125,1.083985 -0.046,-0.666001 -0.472656,-0.953016 -0.722656,-1.416016 -0.154,-0.016 -0.243328,-0.09544 -0.361328,-0.148438 z m 5.68164,1.4375 c 0.156,1.349 0.138641,2.88275 0.306641,4.21875 0.081,-0.413 0.468266,-0.772672 0.572266,-1.263672 0.051,-0.237999 0.0173,-0.539499 0.0293,-0.8125 0.021,-0.459 0.07084,-0.926218 0.08984,-1.324218 0.01,-0.202 -0.08466,-0.50586 0.152344,-0.63086 0.081,0.745 -0.09355,1.649704 -0.06055,2.345704 0.329,-0.694001 0.635188,-1.410172 0.992188,-2.076172 -0.591,-0.232 -1.318032,-0.499032 -2.082032,-0.457032 z m -0.144531,0.0059 c -0.07,-0.032 -0.905437,0.07484 -1.023437,0.08984 0.23,1.403999 0.447359,2.82389 0.693359,4.21289 0.227,-0.007 0.432562,0.0085 0.601563,0.06055 -0.099,-1.427 -0.251485,-2.958281 -0.271485,-4.363281 z m -1.203125,0.121094 c -0.329,0.052 -0.610297,0.152234 -0.904297,0.240234 0.25,1.024 0.687453,2.022312 0.814453,3.070312 0.111,0.142 0.214079,0.325766 0.330078,0.509766 0.097,0.155 0.187875,0.459578 0.421876,0.392578 -0.153,-1.352 -0.43711,-2.832891 -0.66211,-4.21289 z m -1.052734,0.330078 c -0.252,0.049 -0.395516,0.206781 -0.603516,0.300781 0.387,0.816 0.877219,1.530109 1.324219,2.287109 -0.155,-0.709 -0.499703,-1.74489 -0.720703,-2.58789 z m 4.603515,0.06055 c -0.401,1.242 -1.292375,2.023172 -1.234375,3.701172 -0.001,0.032 0.0133,0.0763 0.0293,0.0293 0.742,-1.044 1.435266,-2.135203 2.197266,-3.158203 -0.324,-0.198 -0.629188,-0.413266 -0.992188,-0.572266 z m 1.082032,0.66211 c -0.444,0.753 -1.189391,1.755891 -1.775391,2.58789 -0.157,0.222001 -0.551016,0.713344 -0.541016,0.902344 0.011,0.203 0.268329,0.323172 0.361328,0.451172 0.671,-0.858 1.609954,-1.947375 2.376954,-2.859375 0.055,-0.066 0.334031,-0.380922 0.332031,-0.419922 -0.014,-0.183 -0.733906,-0.548109 -0.753906,-0.662109 z m -7.703125,0.8125 c -0.162,0.239 -0.376719,0.425406 -0.511719,0.691406 0.405,0.312 0.843375,0.660844 1.234375,0.964844 0.13,0.101 0.239875,0.283531 0.421875,0.269531 -0.233,-0.65 -0.743281,-1.280531 -1.113281,-1.894531 -0.002,-0.019 -0.0063,-0.03725 -0.03125,-0.03125 z m 8.546875,0 c -0.849,1.056 -1.735891,2.074906 -2.587891,3.128906 0.701,-0.126 1.043656,-0.41725 1.472656,-0.78125 0.615,-0.522 1.215344,-1.023156 1.777344,-1.535156 -0.231,-0.26 -0.396109,-0.5875 -0.662109,-0.8125 z m -7.072266,0.722656 c -0.009,0.04 -0.0423,0.05614 -0.0293,0.119141 0.175,0.348 0.415859,0.65514 0.63086,0.99414 0.201,0.316 0.326359,0.762641 0.693359,0.931641 -0.339,-0.744 -0.784375,-1.382625 -1.234375,-2.015625 -0.007,-0.024 -0.02555,-0.0343 -0.06055,-0.0293 z m -2.105469,0.119141 c -0.171,0.321 -0.349422,0.63514 -0.482422,0.99414 0.741,0.383 1.444016,0.801125 2.166016,1.203125 l 0,-0.873046 c -0.554,-0.449 -1.079594,-0.925219 -1.683594,-1.324219 z m 9.900391,0.152343 c -0.636,0.567001 -1.304735,1.101594 -1.927735,1.683594 0.822001,-0.252 1.609454,-0.539203 2.439454,-0.783203 -0.123,-0.348 -0.280719,-0.66039 -0.511719,-0.900391 z m -4.033203,0.480469 c -0.105,0.357 -0.299922,0.621891 -0.419922,0.962891 0.146,0.034 0.224625,0.13639 0.390625,0.15039 10e-4,-0.359999 0.0873,-0.794281 0.0293,-1.113281 z m -6.410156,0.511719 c -0.085,0.306 -0.203235,0.577641 -0.240235,0.931641 0.773,0.071 1.623656,0.223187 2.347656,0.242187 -0.715,-0.378 -1.406421,-0.781828 -2.107421,-1.173828 z m 11.013671,0.06055 c -0.436,0.136 -0.917062,0.316469 -1.414062,0.480469 -0.8,0.265 -1.641078,0.380593 -1.955078,0.933593 1.204,-0.199 2.552469,-0.256422 3.730469,-0.482421 -0.129001,-0.302001 -0.161329,-0.700641 -0.361329,-0.931641 z m -8.515625,0.0293 c -0.008,0.098 0.03709,0.14539 0.121094,0.15039 0.01,-0.069 -0.0063,-0.11539 -0.03125,-0.15039 l -0.08984,0 z m -0.0293,0.271484 c -0.055,0.235 -0.0588,0.52325 -0.0918,0.78125 0.204,0.128 0.619297,0.206344 0.904297,0.152344 -0.244,-0.338 -0.441501,-0.723594 -0.8125,-0.933594 z m 2.466796,0.269531 c 0.081,0.251 0.350078,0.313063 0.330078,0.664063 0.369,-0.045 0.03486,-0.530516 -0.11914,-0.603516 -0.075,0.162 -0.140938,-0.03655 -0.210938,-0.06055 z m 0.751954,0 c -0.127,0.052 -0.143532,0.03255 -0.269532,0.06055 -0.018,0.097 0.0193,0.140938 0.0293,0.210938 0.194,0.024 0.183234,-0.157485 0.240235,-0.271485 z M 46.652344,38.75 c -0.077,0.099 0.0091,0.237188 0.121094,0.242188 0.061,-0.084 0.02391,-0.271188 -0.121094,-0.242188 z m 2.076172,0.242188 c -0.139,0.042 -0.258782,0.102234 -0.300782,0.240234 0.18,0.109 0.247782,-0.124234 0.300782,-0.240234 z m -6.34961,0.06055 c -0.021,0.41 -0.113844,0.747125 -0.08984,1.203125 0.889001,-0.084 1.795735,-0.150234 2.677735,-0.240234 -0.037,-0.204 -0.05555,-0.426109 -0.06055,-0.662109 -0.847,-0.096 -1.713344,-0.171782 -2.527344,-0.300782 z m 6.621094,0 c -0.221,0.059 -0.245578,0.315219 -0.392578,0.449219 0.153,-0.027 0.255875,-0.10414 0.421875,-0.119141 -0.01,-0.110999 0.0267,-0.266078 -0.0293,-0.330078 z m -2.136719,0.05859 c -0.058,0.08 -0.05886,0.304188 0.119141,0.242188 0.044,-0.092 0.0087,-0.158188 -0.0293,-0.242188 l -0.08984,0 z m 3.460938,0 c -0.184,0.107 -0.449813,0.135188 -0.632813,0.242188 0.061,0.019 0.01884,0.138437 0.08984,0.148437 0.259,-0.031 0.492969,-0.249625 0.542969,-0.390625 z m 3.701172,0.06055 c -1.03,0.137 -2.185,0.239328 -3.25,0.361328 -0.311,0.036 -0.672344,0.03323 -0.902344,0.240235 0.066,0.225 0.03884,0.544203 0.08984,0.783203 1.437,-0.097 2.813187,-0.255329 4.242187,-0.361329 -0.045,-0.356 -0.0037,-0.798437 -0.179687,-1.023437 z m -5.71875,0.121094 c -0.062,0.078 -0.0322,0.256234 0.0918,0.240234 -0.015,-0.094 0.09255,-0.06769 0.06055,-0.179687 -0.058,-0.013 -0.05634,-0.08655 -0.152343,-0.06055 z m -3.25,0.08984 c 0.023,0.218 0.0378,0.445813 0.0918,0.632813 0.164,-0.046 0.393312,-0.02855 0.570312,-0.06055 0.035,-0.333 -0.315109,-0.522265 -0.662109,-0.572266 z m 4.484375,0.300782 c -0.079,-0.009 -0.128141,0.01084 -0.119141,0.08984 0.079,0.009 0.128141,-0.01084 0.119141,-0.08984 z m -25.246094,0.0293 c -0.476,-0.015 -0.919922,0.0048 -1.294922,0.0918 0.215,1.048999 0.423406,2.103609 0.691406,3.099609 0.197,-1.067 0.381516,-2.150406 0.603516,-3.191406 z m 0.08984,0.03125 c -0.118,1.046 -0.411719,2.077062 -0.511719,3.039062 0.218,-0.153 0.440406,-0.301875 0.691406,-0.421875 0.291,-0.812 0.632297,-1.57525 0.904297,-2.40625 -0.353,-0.079 -0.686984,-0.176937 -1.083984,-0.210937 z m -1.564454,0.11914 c -0.339999,0.052 -0.608593,0.176188 -0.933593,0.242188 0.392,1.142 0.834922,2.233594 1.294922,3.308593 0.028,-0.158999 0.322328,-0.222921 0.361328,-0.419921 0.031,-0.158 -0.126641,-0.530203 -0.181641,-0.783203 -0.174,-0.803001 -0.325016,-1.756657 -0.541016,-2.347657 z m 26.359376,0.03125 c -0.01,0.071 -0.0463,0.112938 -0.0293,0.210938 0.09,-0.041 0.200234,-0.06039 0.240234,-0.150391 -0.065,-0.026 -0.102937,-0.07755 -0.210937,-0.06055 z m -23.591797,0.121094 c -0.239,0.764 -0.5655,1.439312 -0.8125,2.195313 0.428,-0.143001 0.65014,-0.494657 0.99414,-0.722657 0.031,-0.48 0.190391,-0.830812 0.150391,-1.382812 -0.136,-0.004 -0.208031,-0.07384 -0.332031,-0.08984 z m 20.583984,0 c -0.29,-0.085 -0.430672,0.228219 -0.513672,0.449219 0.043,0.118 0.189328,0.132093 0.361328,0.121094 0.092,-0.149001 0.139344,-0.342313 0.152344,-0.570313 z m 3.339844,0.05859 c -0.128,0.103 0.03539,0.234484 0.15039,0.271484 -0.035,-0.106 -0.07639,-0.204484 -0.15039,-0.271484 z m -3.94336,0.06055 c -0.11,0.021 -0.217375,0.0413 -0.359375,0.0293 0.046,0.104 0.05169,0.248485 0.179688,0.271485 0.073,-0.086 0.106687,-0.213781 0.179687,-0.300781 z m -23.832031,0.06055 c -0.388,0.093 -0.673437,0.289876 -1.023437,0.421876 0.524,1.240999 1.134297,2.394624 1.654297,3.640624 0.275999,-0.176 0.503359,-0.401109 0.693359,-0.662109 -0.461,-1.114 -0.881219,-2.26839 -1.324219,-3.400391 z m 23.291016,0 c -0.919,0.074 -1.842281,0.143235 -2.738282,0.240235 -0.016,0.367 0.03355,0.67114 0.06055,0.994141 1.069,-0.145 2.194,-0.235579 3.25,-0.392579 -0.152,-0.059 -0.230031,-0.191781 -0.332031,-0.300781 0.083,0.005 0.103547,-0.04584 0.06055,-0.08984 -0.131,-0.12 -0.257781,-0.243172 -0.300781,-0.451172 z M 54.205078,40.375 c -1.33,0.104 -2.664406,0.203328 -3.941406,0.361328 1.1,0.425 2.641859,0.40736 3.880859,0.69336 0.026,-0.345 0.08155,-0.663688 0.06055,-1.054688 z m -4.93164,0.05078 c -0.116125,-0.0075 -0.197547,0.0427 -0.123047,0.220703 0.114,-0.067 0.392172,0.03216 0.451171,-0.08984 -0.061,-0.057 -0.212,-0.12336 -0.328124,-0.13086 z M 20.5625,40.707031 c -0.302,0.19 -0.600047,0.382563 -0.873047,0.601563 0.277,0.491 0.646141,0.929062 0.994141,1.414062 0.524,0.73 0.915844,1.523485 1.714844,1.896485 -0.604,-1.312 -1.189938,-2.64311 -1.835938,-3.91211 z m 28.316406,0.119141 c -0.08,0.073 0.08184,0.317781 0.08984,0.300781 -0.07,-0.06 0.03616,-0.296781 -0.08984,-0.300781 z m -0.271484,0.03125 c -0.167,-0.007 -0.295781,0.02369 -0.300781,0.179687 0.105,-0.024 0.115937,0.04625 0.210937,0.03125 0.028,-0.072 0.120844,-0.07994 0.08984,-0.210937 z m -0.720703,0.06055 c -0.118,-0.007 -0.274938,0.103687 -0.210938,0.179687 0.03,-0.099 0.120688,-0.101297 0.179688,-0.0293 -0.01,-0.07 0.0063,-0.11539 0.03125,-0.15039 z m 1.535156,0 c -0.01,0.069 0.0043,0.11539 0.0293,0.15039 0.098,0.008 0.145391,-0.03709 0.15039,-0.121093 -0.035,-0.035 -0.105687,-0.0333 -0.179687,-0.0293 z m -1.384766,0.06055 c 0.017,0.097 -0.02125,0.138984 -0.03125,0.208984 0.124,0.036 0.12125,-0.207984 0.03125,-0.208984 z m 1.835938,0 c -0.108,0.343 -0.283172,0.618343 -0.451172,0.902343 1.115,0.91 2.222297,1.829828 3.279297,2.798829 l 0,0.05859 c -0.039,0.002 -0.04184,0.04025 -0.08984,0.03125 C 51.477328,43.887531 50.375531,42.81 49.269531,42 c 0.869,1.187 1.724891,2.389031 2.587891,3.582031 0.581,-0.463 1.056312,-1.031547 1.445312,-1.685547 -0.797,-0.799 -1.660047,-1.537859 -2.498046,-2.255859 -0.281,-0.241 -0.519641,-0.606109 -0.931641,-0.662109 z m -2.767578,0.002 c -0.107297,-0.0016 -0.161703,0.290422 -0.002,0.388672 -0.03,0.121 -0.160391,0.139781 -0.150391,0.300781 0.232,0.286 0.498906,-0.09739 0.753906,-0.150391 0.054,-0.355 -0.141422,-0.461875 -0.482422,-0.421875 -0.042,-0.08375 -0.08338,-0.116656 -0.11914,-0.117187 z m 2.105469,0.02734 c -0.101,0.05 -0.07125,0.357172 -0.03125,0.451172 0.291,0.027 0.230249,-0.420171 0.03125,-0.451172 z m 1.292968,0.06055 c -0.023,0.007 -0.05955,2.97e-4 -0.06055,0.0293 1.026,0.83 1.944469,1.768891 2.980469,2.587891 0.112,-0.3 0.279375,-0.542047 0.359375,-0.873047 -1.11,-0.565 -2.153297,-1.195141 -3.279297,-1.744141 z m -1.833984,0.0293 c 0.003,0.127 0.08744,0.171235 0.148437,0.240235 -0.027,-0.104 -0.0064,-0.252235 -0.148437,-0.240235 z m 2.435547,0.08984 c 0.933,0.471 1.832281,0.976609 2.738281,1.474609 0.114,-0.338 0.208484,-0.695031 0.271484,-1.082031 -1.003,-0.111 -2.040765,-0.347578 -3.009765,-0.392578 z m -5.470703,0.03906 c -0.188719,-0.033 -0.411672,0.05878 -0.607422,0.08203 -0.883,0.105 -1.794438,0.178484 -2.648438,0.271484 0.088,0.403 0.187328,0.796281 0.361328,1.113281 0.83,-0.41 1.856985,-0.832828 2.708985,-1.173828 0.116,-0.046 0.331328,-0.04594 0.361328,-0.210937 -0.05275,-0.04575 -0.112875,-0.07103 -0.175781,-0.08203 z m 2.763672,0.05273 c -0.112,0.239 -0.300032,0.56225 -0.332032,0.78125 0,-0.03 0.02525,-0.03655 0.03125,-0.06055 0.116,-0.016 0.145532,0.05525 0.269532,0.03125 -0.013,-0.187 0.319249,-0.593953 0.03125,-0.751953 z m -28.857422,0.150391 c -0.264,0.247999 -0.537907,0.485249 -0.753907,0.78125 0.86,0.543999 1.682344,1.125546 2.527344,1.685546 -0.571,-0.843 -1.144437,-1.681796 -1.773437,-2.466796 z m 26.810546,0.08984 c -0.155,-0.015 -0.195328,0.08555 -0.361328,0.06055 -0.839,0.795 -1.759187,1.50911 -2.617187,2.28711 0.263,0.277999 0.46825,0.612796 0.78125,0.841796 0.553,-0.785 1.151797,-1.598656 1.716797,-2.347656 0.185,-0.245 0.439719,-0.47525 0.511718,-0.78125 -0.024,-0.007 -0.03525,-0.02555 -0.03125,-0.06055 z m -0.693359,0.08984 c -0.902,0.421 -1.874875,0.772828 -2.796875,1.173828 -0.095,0.035 -0.07309,-0.04755 -0.121094,-0.06055 0.132,0.359 0.333719,0.649891 0.511719,0.962891 0.717,-0.561 1.516266,-1.225688 2.197266,-1.804688 0.098,-0.084 0.246984,-0.236484 0.208984,-0.271484 z m 3.041016,0 c -0.06,0.091 -0.170797,0.257625 -0.0918,0.390625 0.383,0.018 0.346797,-0.398625 0.0918,-0.390625 z m -0.992188,0.03125 c -0.088,0.112 -0.252734,0.150781 -0.302734,0.300781 0.063,0.026 0.05239,0.127141 0.150391,0.119141 0.061,-0.11 0.204343,-0.296922 0.152343,-0.419922 z M 28.476562,41.7891 c -0.172999,0.452001 -0.855062,0.478125 -1.414062,0.453126 -0.239,0.452999 -0.610203,0.933515 -0.783203,1.353515 0.75,-0.595 1.600359,-1.089844 2.318359,-1.714844 -0.061,-0.009 -0.06009,-0.0828 -0.121094,-0.0918 z m 18.025391,0 c -0.727,1.018001 -1.472562,2.018766 -2.226562,3.009766 0.183,0.279 0.474953,0.449813 0.751953,0.632813 0.77,-1.046 1.575406,-2.054907 2.316406,-3.128907 -0.344,-0.107 -0.558797,-0.344671 -0.841797,-0.513672 z M 28.71875,42.03125 c -0.436,0.273 -0.888469,0.593641 -1.355469,0.931641 -0.691,0.501 -1.512094,0.938093 -1.746093,1.746093 1.256999,-0.579 2.481875,-1.190937 3.671874,-1.835937 -0.198,-0.273 -0.361312,-0.579797 -0.570312,-0.841797 z m -3.431641,0.08984 c -0.227,0.104 -0.398812,0.264328 -0.632812,0.361328 -0.153,0.469 -0.415766,0.987062 -0.509766,1.414062 0.243,-0.309 0.587953,-0.515343 0.751953,-0.902343 -0.022,-0.099 -0.13939,-0.100938 -0.15039,-0.210938 0.072,0.018 0.137234,0.0433 0.240234,0.0293 0.025,-0.293 0.515781,-0.348406 0.300781,-0.691406 z m 23.742188,0.0293 c -0.245,0.187 -0.593438,0.270484 -1.023438,0.271484 0.148,1.418 0.333422,2.796891 0.482422,4.212891 0.351,0.01 0.664891,-0.01755 0.962891,-0.06055 -0.124,-1.491 -0.239875,-2.990828 -0.421875,-4.423828 z m -22.839844,0.06055 c -0.503,0.559999 -0.782734,1.504265 -1.052734,2.197265 0.277,-0.204 0.551797,-0.409562 0.841797,-0.601562 0.275,-0.547 0.642296,-1.004454 0.904296,-1.564453 -0.254999,0.014 -0.429359,-0.05525 -0.693359,-0.03125 z m -7.492187,0.0918 c -0.155,0.226 -0.337172,0.424407 -0.451172,0.691407 1.238,0.507 2.451625,1.198296 3.640625,1.654297 -0.228,-0.439001 -0.616438,-0.600047 -1.023438,-0.873047 -0.714,-0.478 -1.418719,-1.01136 -2.136719,-1.44336 -0.002,-0.018 -0.0033,-0.0353 -0.0293,-0.0293 z m 28.857422,0.05859 c -0.812001,1.043 -1.592954,2.119406 -2.376954,3.191406 0.284,0.177 0.569297,0.354469 0.904297,0.480469 0.532,-1.213 1.10175,-2.386625 1.59375,-3.640625 -0.057,0.007 -0.06709,-0.03525 -0.121093,-0.03125 z m 0.271484,0.181641 c -0.182,1.302 -0.361969,2.608109 -0.542969,3.912109 0.315,0.076 0.633438,0.150391 1.023438,0.150391 -0.151,-1.363 -0.295469,-2.7335 -0.480469,-4.0625 z m 1.443359,0 c 0.11,1.344 0.250328,2.657953 0.361328,4.001953 0.383,-0.049 0.707438,-0.156484 1.023438,-0.271484 -0.449,-1.257 -0.906766,-2.503469 -1.384766,-3.730469 z m -24.855469,0.06055 c -0.187999,0.193 -0.589859,0.169765 -0.630859,0.509765 0.046,0.044 0.139688,0.0408 0.179688,0.0918 -0.1,-0.001 -0.102938,0.09684 -0.210938,0.08984 0.065,0.236 0.08964,0.513656 0.181641,0.722656 0.155,-0.477 0.359718,-0.904766 0.511718,-1.384766 0.031,-0.002 0.02275,-0.0383 -0.03125,-0.0293 z m 25.097657,0.05859 c 0.442,1.183 0.873219,2.376782 1.324219,3.550782 0.302,-0.19 0.661343,-0.319313 0.902343,-0.570313 -0.805,-0.93 -1.436562,-2.035469 -2.226562,-2.980469 z m -18.50586,0.08984 c 0.113,0.328 0.275625,0.606594 0.390625,0.933594 0.115,-0.015 0.225485,-0.03414 0.271485,-0.119141 -0.129,-0.363 -0.29211,-0.693453 -0.66211,-0.814453 z m -1.6875,0.271485 c -0.999,0.545 -2.068359,1.019453 -3.068359,1.564453 1.145,-0.24 2.455234,-0.311157 3.490234,-0.660157 -0.002,-0.149 -0.04914,-0.251031 -0.11914,-0.332031 -0.122,0.063 -0.329719,0.165234 -0.511719,0.240235 -0.161,0.067 -0.424125,0.240999 -0.453125,0 0.288,-0.144 0.575297,-0.288625 0.904297,-0.390626 -0.041,-0.179999 -0.119188,-0.323874 -0.242188,-0.421874 z m -11.132812,0.08984 c -0.258,0.364 -0.421266,0.824922 -0.572266,1.294922 0.981,0.408 2.037313,0.838672 3.070313,1.263672 0.415,0.171 0.881672,0.439328 1.263672,0.361328 -0.077,-0.42 0.06094,-0.746437 0.210937,-1.023437 -1.267,-0.689 -2.627656,-1.284485 -3.972656,-1.896485 z m 29.339844,0.06055 c -0.403,1.012 -0.867922,1.962219 -1.294922,2.949219 0.289,0.085 0.626297,0.275484 0.904297,0.271484 0.092,-1.092 0.344625,-2.182703 0.390625,-3.220703 z M 25.4375,43.205078 c -0.243,0.399 -0.543203,0.740578 -0.783203,1.142578 0.102,0.038 0.174484,0.106391 0.271484,0.150391 0.142,-0.44 0.424719,-0.898969 0.511719,-1.292969 z m -1.865234,0.179688 c 0.005,0.065 -0.106391,0.0133 -0.150391,0.0293 -0.004,0.095 0.07739,0.104094 0.150391,0.121094 -0.039,-0.075 0.088,-0.12439 0,-0.15039 z m 8.154296,0.390625 c -0.118999,0.022 -0.233531,0.04834 -0.269531,0.152343 -0.01,0.11 0.109688,0.09014 0.179688,0.119141 0.062,-0.058 0.04584,-0.194484 0.08984,-0.271484 z m -1.955078,0.300781 c -0.442,0.18 -0.861672,0.383516 -1.263672,0.603516 0.525,-0.007 1.020907,-0.0428 1.503907,-0.0918 -0.03,-0.222 -0.100235,-0.400719 -0.240235,-0.511719 z m -4.0625,0.06055 c -0.192,0.169 -0.402812,0.319172 -0.632812,0.451172 0.001,0.09 0.0798,0.10364 0.0918,0.18164 0.097,0.007 0.125281,-0.05425 0.238281,-0.03125 0.071,-0.193 0.362734,-0.476562 0.302734,-0.601562 z m 3.371094,0.0918 c -1.099,0.205 -2.22125,0.386859 -3.28125,0.630859 0.788,-0.045 1.576656,-0.08839 2.347656,-0.150391 0.281,-0.19 0.640594,-0.302468 0.933594,-0.480468 z m 2.726563,0.238281 c -0.087,0.0014 -0.189266,0.02725 -0.259766,0.03125 0.01,0.12 0.02084,0.239781 0.08984,0.300781 0.096,-0.084 0.209031,-0.153937 0.332031,-0.210937 -0.0035,-0.0995 -0.07511,-0.122469 -0.162109,-0.121094 z m -9.888672,0.03125 c 0.157,0.113 0.176922,0.364578 0.419922,0.392578 0.009,-0.062 0.08184,-0.05909 0.08984,-0.121094 -0.201,-0.039 -0.358765,-0.282484 -0.509765,-0.271484 z m -4.365235,0.06055 c -0.054,0.366 -0.168687,0.673984 -0.179687,1.083984 1.304,0.1 2.625812,0.343625 3.882812,0.390625 -1.263,-0.462 -2.427125,-1.024609 -3.703125,-1.474609 z m 11.666016,0.203125 c -0.830672,0.02255 -1.643406,0.219625 -2.066406,0.578125 0.814,-0.155 1.78489,-0.225625 2.58789,-0.390625 0.084,-0.018 0.284735,-0.02339 0.302735,-0.150391 -0.26725,-0.03175 -0.547328,-0.04463 -0.824219,-0.03711 z m -1.525391,0.128906 c -0.795,0.027 -1.572406,0.07044 -2.316406,0.148437 0.084,0.178001 0.180234,0.341969 0.240235,0.542969 0.861999,-0.061 1.506171,-0.339406 2.076171,-0.691406 z m 4.064453,0.541016 c -0.022,0.821 -0.08194,1.762953 -0.210937,2.376953 0.284,-0.248 0.747641,-0.31411 0.931641,-0.66211 -0.026,-0.115 -0.07959,-0.199328 -0.05859,-0.361328 0.086,-0.104 0.228531,-0.151781 0.269531,-0.300781 -0.092,-0.039 -0.140781,-0.119844 -0.300781,-0.08984 -0.187,-0.324 -0.277266,-0.69189 -0.572266,-0.96289 l -0.05859,0 z M 17.34375,45.761719 c -0.027,0.397 -0.036,0.751531 0,1.144531 1.18,-0.274 2.485328,-0.422953 3.611328,-0.751953 -1.231,-0.104 -2.403328,-0.266578 -3.611328,-0.392578 z m 12.757812,0 c -0.762999,0.1 -1.559562,0.166328 -2.226562,0.361328 0.757,0.116 1.479812,0.266328 2.257812,0.361328 0.016,-0.267 -0.01825,-0.484656 -0.03125,-0.722656 z m -2.917968,0.460937 c -0.330172,0.0046 -0.662141,0.04512 -0.994141,0.140625 1.304,0.412 2.526516,0.905922 3.853516,1.294922 0.031,-0.34 0.113843,-0.627437 0.08984,-1.023437 -0.97575,-0.11625 -1.958703,-0.425938 -2.949218,-0.41211 z m -5.386719,0.05078 c -1.542,0.064 -2.935828,0.533953 -4.423828,0.751953 0.048,0.384 0.131234,0.730734 0.240234,1.052734 1.413,-0.582 2.830594,-1.162687 4.183594,-1.804687 z m 0.210937,0.06055 c -1.411,0.686 -2.953281,1.239782 -4.363281,1.925782 0.151,0.34 0.276172,0.707437 0.451172,1.023437 1.275,-0.541 2.476719,-1.155547 3.761719,-1.685547 -0.055,-0.506 0.08939,-0.972672 0.15039,-1.263672 z m 3.88086,0.06055 c -0.092,-0.033 -0.198484,0.09955 -0.271484,0.06055 -0.024,0.316 -0.185782,0.495656 -0.300782,0.722656 1.357,0.559 2.689453,1.142594 4.064453,1.683594 0.378,-0.174 0.48161,-0.619734 0.59961,-1.052734 -1.267,-0.463 -2.841797,-0.957063 -4.091797,-1.414063 z M 22.007812,46.875 c -0.091,0.133 -0.147249,0.508109 -0.03125,0.662109 0.085,-0.106 0.295329,-0.08594 0.361329,-0.210937 -0.162,-0.099 -0.207079,-0.313172 -0.330079,-0.451172 z m 3.160157,0.421875 c -0.147,0.081 0.0071,0.234328 0.11914,0.361328 0.176,0.199 0.352969,0.427172 0.542969,0.451172 -0.252,-0.24 -0.383109,-0.5995 -0.662109,-0.8125 z m 0.300781,0.08984 c 0.512,1.073 1.641187,1.527719 2.617188,2.136719 0.333999,-0.228001 0.781984,-0.341563 1.083984,-0.601563 -1.25,-0.495 -2.464172,-1.027156 -3.701172,-1.535156 z m -2.798828,0.06055 c -0.288,-0.053 -0.457422,0.235875 -0.482422,0.421875 0.161,-0.09 0.273719,-0.387782 0.511719,-0.300782 -0.122,0.178 -0.219781,0.380563 -0.300781,0.601563 0.123,0.088 0.236874,0.182984 0.421874,0.208984 0.150001,-0.096 0.362313,-0.288437 0.570313,-0.148437 -0.004,-0.096 -0.06659,-0.133188 -0.05859,-0.242188 -0.394,-0.007 -0.570109,-0.232015 -0.662109,-0.541015 z m -0.572266,0.15039 c -0.05,0.031 -0.15125,0.117391 -0.03125,0.150391 0,-0.045 0.11325,-0.123391 0.03125,-0.150391 z m -0.179687,0.150391 c -1.229,0.447 -2.496422,1.115297 -3.732422,1.654297 0.171,0.361 0.392109,0.672593 0.662109,0.933594 0.796,-0.591001 1.6485,-1.241938 2.4375,-1.835938 0.249,-0.188 0.683813,-0.343953 0.632813,-0.751953 z m 0.449219,0.150391 c -0.121,0.014 -0.197594,0.141687 -0.05859,0.179687 -0.014,-0.094 0.04159,-0.116688 0.05859,-0.179687 z m 1.595703,0.15039 c -0.137,-0.007 -0.209782,0.0518 -0.300782,0.0918 0.027,0.183 0.02909,0.412609 0.121094,0.599609 0.063,-0.227 0.03369,-0.545406 0.179688,-0.691406 z m -1.925782,0.06055 c -0.805,0.99 -1.475265,2.115453 -2.197265,3.189453 0.315,0.178 0.579594,0.404016 0.933594,0.541016 0.459,-1.227 0.985312,-2.384375 1.445312,-3.609375 -0.082,-0.019 -0.07564,-0.127094 -0.181641,-0.121094 z m 1.955079,0.03125 c -0.323001,1.614 0.407265,2.926875 0.572265,4.421875 0.428,-0.043 0.742281,-0.199781 1.113281,-0.300781 -0.194,-0.558 -0.445859,-1.057 -0.630859,-1.625 l -0.421875,0 c 0.476,-0.351 0.04431,-0.853063 -0.179688,-1.414063 -0.183999,-0.458 -0.309124,-0.884031 -0.453124,-1.082031 z m 0.21289,0 c 0.148,0.554 0.450406,1.211437 0.691406,1.773437 -0.051,-0.496999 0.405141,-1.079 0.119141,-1.625 -0.135,-0.005 -0.05569,0.204938 -0.179687,0.210938 -0.205001,-0.127 -0.39286,-0.266375 -0.63086,-0.359375 z m 1.382813,0.0293 c -0.08,0.528 0.218625,0.838422 0.390625,1.232422 0.145,0.332 0.247578,0.637593 0.392578,0.933594 0.279,-0.102 0.50525,-0.256329 0.78125,-0.361329 -0.489,-0.635 -0.808453,-1.437687 -1.564453,-1.804687 z m -3.279297,0.179687 c -0.438,1.227 -0.987063,2.344032 -1.414063,3.582032 0.368,0.124 0.667032,0.314625 1.082031,0.390625 0.455001,-1.3 0.959063,-2.552563 1.414063,-3.851563 -0.372,0.148 -0.788031,0.04191 -1.082031,-0.121094 z m 1.234375,0.121094 c -0.478,1.308 -0.977313,2.594109 -1.445313,3.912109 0.351,0.091 0.707985,0.174235 1.083985,0.240235 0.087,-0.543 0.175531,-1.116844 0.269531,-1.714844 0.137,-0.869 0.396797,-1.7455 0.0918,-2.4375 z m -2.078125,0.06055 c -0.823,0.651 -1.684344,1.265484 -2.527344,1.896484 0.221,0.3 0.4775,0.564954 0.8125,0.751954 0.571,-0.874001 1.154094,-1.736844 1.746094,-2.589844 0.006,-0.038 0.04575,-0.05959 -0.03125,-0.05859 z m 4.935547,0.179688 c 0.344,0.359 0.562593,0.842828 0.933593,1.173828 0.187,-0.104 0.400313,-0.179782 0.570313,-0.300782 -0.504,-0.268 -1.007906,-0.696047 -1.503906,-0.873046 z m -0.873047,0.15039 c -0.079,0.274 0.032,0.552047 0,0.873047 0.178,0.093 0.321578,0.221875 0.392578,0.421875 -0.038,0.112 -0.150094,0.151078 -0.121094,0.330078 0.15,0.139 0.300172,-0.02459 0.451172,-0.05859 -0.227,-0.535 -0.425656,-1.101406 -0.722656,-1.566406 z m 3.822265,0.242188 c -0.352,0.199 -0.762281,0.341015 -1.113281,0.541015 0.218,0.093 0.362563,0.259078 0.601563,0.330078 0.176,-0.285 0.412968,-0.509797 0.542968,-0.841797 0.031,-0.002 0.02275,-0.0383 -0.03125,-0.0293 z m -5.566406,0.480468 c -0.135,1.029 -0.329172,1.998063 -0.451172,3.039063 0.339,0.089 0.769282,0.063 1.113281,0 -0.202999,-1.031 -0.404109,-2.064063 -0.662109,-3.039063 z m 4.273438,0.119141 c -0.21,0.111 -0.42111,0.221781 -0.66211,0.300781 0.168,0.294 0.389313,0.534453 0.570313,0.814453 0.321,-0.181 0.541906,-0.461953 0.753906,-0.751953 -0.257,-0.085 -0.406109,-0.278281 -0.662109,-0.363281 z m -0.84375,0.392578 c -0.245,0.146 -0.55025,0.230625 -0.78125,0.390625 0.185,0.356 0.327765,0.753281 0.509765,1.113281 0.359,-0.183 0.675594,-0.408406 0.933594,-0.691406 -0.237,-0.255 -0.371109,-0.6125 -0.662109,-0.8125 z m -0.933594,0.421875 c -0.255,0.206 -0.692485,0.227375 -1.021485,0.359375 0.218,0.414 0.345266,0.919219 0.572266,1.324219 0.339,-0.152 0.655188,-0.326469 0.992188,-0.480469 -0.159,-0.424 -0.330969,-0.834125 -0.542969,-1.203125 z"
           transform="matrix(1,0,0,-1,-61.492329,32.508664)"
           id="path60"
           inkscape:connector-curvature="0" />
      </g>
      <g
         transform="translate(30.057129,14.30462)"
         id="g62" />
    </g>
  </g>
</svg>
