<?xml version="1.0" encoding="UTF-8" standalone="no"?>
<svg
   xmlns:dc="http://purl.org/dc/elements/1.1/"
   xmlns:cc="http://creativecommons.org/ns#"
   xmlns:rdf="http://www.w3.org/1999/02/22-rdf-syntax-ns#"
   xmlns:svg="http://www.w3.org/2000/svg"
   xmlns="http://www.w3.org/2000/svg"
   xmlns:sodipodi="http://sodipodi.sourceforge.net/DTD/sodipodi-0.dtd"
   xmlns:inkscape="http://www.inkscape.org/namespaces/inkscape"
   height="65"
   width="65"
   id="svg6900"
   version="1.1"
   inkscape:version="0.91 r13725"
   sodipodi:docname="rock_climbing.svg">
  <metadata
     id="metadata6916">
    <rdf:RDF>
      <cc:Work
         rdf:about="">
        <dc:format>image/svg+xml</dc:format>
        <dc:type
           rdf:resource="http://purl.org/dc/dcmitype/StillImage" />
        <dc:title />
      </cc:Work>
    </rdf:RDF>
  </metadata>
  <defs
     id="defs6914" />
  <sodipodi:namedview
     pagecolor="#ffffff"
     bordercolor="#666666"
     borderopacity="1"
     objecttolerance="10"
     gridtolerance="10"
     guidetolerance="10"
     inkscape:pageopacity="0"
     inkscape:pageshadow="2"
     inkscape:window-width="928"
     inkscape:window-height="1028"
     id="namedview6912"
     showgrid="false"
     inkscape:zoom="8.2024387"
     inkscape:cx="2.069219"
     inkscape:cy="35.285229"
     inkscape:window-x="3585"
     inkscape:window-y="24"
     inkscape:window-maximized="0"
     inkscape:current-layer="g5269" />
  <g
     id="rock_climbing"
     ng-click="editCtrl.pushToArray(route, 'activities', 'rock_climbing', $event)"
     class="activity-icon"
     transform="matrix(0.97694561,0,0,-0.97694561,-284.93846,75.225358)">
    <title
       id="title6903">rock_climbing</title>
    <g
       id="g5269"
       transform="translate(-6.4,11.2)">
      <g
         transform="matrix(1.0014408,0,0,1.0000305,360.71845,32.610899)"
         id="g278">
        <path
           style="fill:#ffaa45;fill-opacity:1;fill-rule:nonzero;stroke:none"
           d="m 31.763672,2.0430361 c -16.141,0 -30.0024247,13.6870579 -30.0024247,29.8280579 0,16.141 13.8614247,30.000471 30.0024247,30.000471 16.14,0 29.74185,-13.859471 29.74185,-30.000471 0,-16.141 -13.60185,-29.8280579 -29.74185,-29.8280579 z M 28.796875,14.115234 c 0.969742,0.04488 1.546875,0.449219 1.546875,0.449219 0.243,0.252 0.751031,0.732 0.957031,0.875 0.206,0.144 0.345344,0.299016 0.277344,0.666016 -0.069,0.369 0.04297,0.113281 0.04297,0.113281 2.173,-0.877 5.65625,0.06055 5.65625,0.06055 4.977,1.407 6.662109,6.90625 6.662109,6.90625 0.065,0.31 0.119906,0.314109 0.128906,0.787109 0,0 0.991797,3.727094 -1.408203,3.246094 -0.143,-0.028 -0.24539,-0.007 -0.02539,0.25 1.713,2.005 0.701172,6.007812 0.701172,6.007812 -0.198001,0.491 -0.299063,0.240532 -0.289063,0.644532 l 0.02344,5.205078 c -0.076,0.409 -0.02998,0.162844 0.541016,0.839844 0.572,0.678 2.029094,2.619328 2.246094,3.611328 0.216,0.992 0.719141,2.37464 0.86914,2.93164 2e-6,0 0.694876,1.916235 1.671876,2.490235 0.335,0.197 0.516968,0.179906 0.667968,0.503906 0.151,0.324 0.227141,0.826547 0.119141,1.060547 -0.107,0.233 -0.332391,0.423109 -0.525391,0.662109 l -1.21289,1.451172 c -0.288,0.314 -1.317172,1.121844 -2.076172,1.339844 -0.76,0.218 -1.889453,0.494078 -1.439453,-0.669922 0.449,-1.164 0.464328,-1.013219 0.736328,-1.449219 0.271,-0.435 0.403656,-0.473703 0.347656,-0.970703 -0.055,-0.496 -0.04991,-0.855172 0.246094,-1.201172 0.297,-0.346 0.35789,-0.103703 0.08789,-0.470703 -0.27,-0.367 -0.528343,-0.456969 -0.402343,-0.792969 0.126,-0.336 0.223218,-0.402234 0.324218,-0.490234 0.101,-0.086 0.178813,-0.283859 0.0078,-0.505859 -0.169,-0.222 -2.721359,-3.78175 -2.943359,-4.09375 L 40.79296,42.136722 c -0.25,-0.131 -1.017203,-0.6745 -1.283203,-1.0625 -0.266,-0.388 -0.464422,-0.678391 -0.607422,-1.275391 -0.142,-0.598 -1.171922,-5.399031 -1.294922,-6.332031 0,0 -0.5165,-0.0227 -1.1875,-0.0957 l -0.5625,-0.06641 c -0.381,-0.053 -0.778625,-0.121032 -1.140625,-0.207032 -1.235,-0.293 -1.61736,-0.580156 -1.943359,-0.535156 -0.077,0.01 -0.341188,0.211453 -0.367188,0.189453 -0.789,3.266 -0.400391,9.333985 -0.400391,9.333985 0,-10e-7 -0.509281,2.042906 -0.738281,2.378906 0,0 -0.174953,0.3695 -0.376953,0.4375 0,0 -1.656031,-0.951313 -2.207031,-1.320313 -0.864,-0.578 -1.300188,-1.089095 -1.617188,-0.746093 -0.066,0.071 -0.107765,0.114671 -0.134765,0.138671 -0.004,0.068 0.02244,0.179563 0.148437,0.351563 0.254,0.343 0.46286,0.255125 0.38086,0.578125 -0.081,0.323 -0.249063,0.241391 -0.03906,0.775391 0.229,0.580998 0.119594,0.281312 0.308594,0.945312 0.233,0.814 3.542781,8.323578 3.925781,8.892578 0.335,0.697 0.801641,0.697406 0.806641,1.691406 0.005,0.995 0.276703,1.237297 0.345703,1.779297 0.03037,0.241588 0.357094,1.383557 0.701172,2.550781 -0.578554,0.03492 -1.158921,0.05859 -1.746094,0.05859 -15.839,0 -28.7246095,-12.887562 -28.7246095,-28.726562 0,-5.182949 1.3853122,-10.045537 3.796875,-14.248047 1.7837791,0.69294 4.9267845,1.898911 5.5742185,1.955078 0.853,0.074 1.08275,0.586328 1.96875,0.111328 0,0 0.186453,-0.557359 0.564453,-0.318359 0,0 0.211455,-0.445453 0.564453,-0.189453 10e-7,0 0.25886,-0.58636 0.88086,-0.06836 0,0 0.299844,0.202422 0.464844,0.107422 0.166,-0.096 0.278265,-0.351516 0.697265,-0.103515 0.419,0.246999 0.954532,0.770515 1.144531,1.228515 1e-6,0 0.353219,0.487781 0.574219,0.550781 0.221,0.062 0.527422,0.118766 0.607422,0.259766 0.079,0.142 0.88425,0.694547 1.15625,0.935547 0.273,0.241 0.05422,0.284906 1.449219,0.628906 1.395,0.345 1.012719,0.46325 1.511719,0.28125 0,0 1.199968,-1.083219 2.167968,-2.449219 0,0 0.0572,-0.412875 -0.216797,-0.421875 -0.272999,-0.008 -0.52864,-0.225859 -0.43164,-0.630859 0.096,-0.405 0.05603,-0.644109 0.08203,-0.787109 0.027,-0.143 0.0011,-0.338735 -0.128906,-0.552735 -0.129,-0.214 -0.131625,-0.426187 -0.140625,-0.492187 -0.009,-0.064 -0.675578,-1.748235 0.357422,-2.490235 1.023,-0.735375 1.934609,-1.006513 2.673828,-1.05664 0.154004,-0.01044 0.300918,-0.01227 0.439453,-0.0059 z m -0.208984,9.263672 c -0.13261,-0.04172 -0.213594,0.138953 -0.371094,0.220703 -0.211,0.108 -1.626375,1.008235 -1.859375,1.240235 -0.233,0.232 -1.057625,0.689281 -1.390625,1.113281 -0.108,0.138 -0.378406,0.169484 -0.691406,0.146484 l -1.421875,0.105469 c 0.65,1.377 3.65625,5.195313 3.65625,5.195313 0.235,0.214 0.414797,0.499593 0.716796,0.808593 0.302,0.31 0.310547,1.052735 0.310547,1.052735 0,0 0.636891,-1.267516 0.837891,-3.353516 0.036,-0.373 0.07433,-0.409375 0.236328,-0.484375 0,0 1.878063,-1.240016 2.664063,-2.041016 0,0 -1.097204,-2.091 -2.533203,-3.875 -0.06075,-0.07525 -0.110094,-0.114999 -0.154297,-0.128906 z"
           transform="matrix(1,0,0,-1,-60.98873,31.871314)"
           id="path280"
           inkscape:connector-curvature="0"
           sodipodi:nodetypes="ssssssccccccccccccccccsccccccccssccccsccccccccccccccccccsccsscscccccccccccccccccccssccsccccccccccc" />
      </g>
      <g
         transform="translate(326.83263,21.94902)"
         id="g286" />
      <g
         transform="translate(331.64973,61.72392)"
         id="g290" />
    </g>
  </g>
</svg>
