<?xml version="1.0" encoding="UTF-8" standalone="no"?>
<svg
   xmlns:dc="http://purl.org/dc/elements/1.1/"
   xmlns:cc="http://creativecommons.org/ns#"
   xmlns:rdf="http://www.w3.org/1999/02/22-rdf-syntax-ns#"
   xmlns:svg="http://www.w3.org/2000/svg"
   xmlns="http://www.w3.org/2000/svg"
   xmlns:sodipodi="http://sodipodi.sourceforge.net/DTD/sodipodi-0.dtd"
   xmlns:inkscape="http://www.inkscape.org/namespaces/inkscape"
   height="65"
   width="65"
   id="svg4947"
   version="1.1"
   inkscape:version="0.91 r13725"
   sodipodi:docname="paragliding.svg">
  <metadata
     id="metadata4961">
    <rdf:RDF>
      <cc:Work
         rdf:about="">
        <dc:format>image/svg+xml</dc:format>
        <dc:type
           rdf:resource="http://purl.org/dc/dcmitype/StillImage" />
        <dc:title />
      </cc:Work>
    </rdf:RDF>
  </metadata>
  <defs
     id="defs4959" />
  <sodipodi:namedview
     pagecolor="#ffffff"
     bordercolor="#666666"
     borderopacity="1"
     objecttolerance="10"
     gridtolerance="10"
     guidetolerance="10"
     inkscape:pageopacity="0"
     inkscape:pageshadow="2"
     inkscape:window-width="928"
     inkscape:window-height="1028"
     id="namedview4957"
     showgrid="false"
     inkscape:zoom="11.313708"
     inkscape:cx="17.407854"
     inkscape:cy="29.206027"
     inkscape:window-x="3585"
     inkscape:window-y="24"
     inkscape:window-maximized="0"
     inkscape:current-layer="g4242" />
  <g
     transform="matrix(1.0184316,0,0,-1.0184316,62.823663,32.622264)"
     id="g4242">
    <path
       style="fill:#f7931d;fill-opacity:1;fill-rule:nonzero;stroke:none"
       d="m -29.782269,28.808281 c -15.848627,0 -28.697518,-12.847429 -28.697518,-28.69657604 0,-15.84914596 12.848891,-28.69657596 28.697518,-28.69657596 15.847644,0 28.6956345,12.84743 28.6956345,28.69657596 0,15.84914704 -12.8479905,28.69657604 -28.6956345,28.69657604 z m 4.730194,-10.921985 c 0.413498,0.01988 0.87607,-0.129197 1.380268,-0.410516 0.08935,0.03436 0.178121,0.06207 0.265508,0.08662 0.895481,0.245481 1.697131,-0.0085 2.440419,-0.557396 0.312239,0.205221 0.644128,0.347915 1.007426,0.404865 0.459524,0.07169 0.967067,0.0064 1.536561,-0.239154 0.933773,0.177728 1.702768,-0.148628 2.286009,-1.04512 0.743287,0.137469 1.47131,0.342445 2.463014,-0.70428 1.167464,0.249407 1.815271,-0.524493 2.27283,-1.668427 1.062401,0.09721 1.8694629,-0.248456 2.1767932,-1.465053 C -8.135317,11.761525 -7.3106815,10.8241 -7.5021492,8.2956587 -7.6209572,6.8630423 -7.9110415,5.5933465 -8.5227567,4.6330303 -8.7083327,4.2657932 -8.8945593,3.897753 -9.0801363,3.5295334 -8.8503749,2.5692172 -9.1451871,2.2401352 -9.6469315,2.1586359 -9.787341,1.243488 -10.35017,1.3603032 -10.993304,1.678445 c -0.183613,0.080518 -0.398689,0.1517501 -0.640233,0.2165562 -0.902354,-0.5999514 -4.877515,-2.87867797 -8.324917,-4.8395693 -1.284307,-0.7315288 -2.495415,-1.4184503 -3.447845,-1.9565421 -0.801219,-0.4536459 -1.418771,-0.8022249 -1.74181,-0.9848614 0.07462,-0.1266679 -0.0132,-0.2752276 -0.03578,-0.3596724 -0.02161,-0.083463 -0.04748,-0.1787704 -0.03766,-0.387919 0.0099,-0.2081663 -0.0061,-0.4622849 -0.04143,-0.645903 -0.03535,-0.183619 0.03187,-0.3691249 0.08097,-0.5743467 0.04909,-0.2062022 -0.153238,-0.7324668 -0.250443,-1.0545365 -0.09721,-0.3220688 -0.263541,-0.4721846 -0.540433,-0.6440198 -0.194414,-0.1197944 -0.530017,-0.3042272 -0.783344,-0.4161657 -0.109972,-0.048114 -0.205614,-0.083354 -0.265509,-0.094155 -0.20325,-0.03731 -0.316012,-0.123946 -0.438748,-0.246686 -0.121754,-0.12274 -0.246449,-0.55176 -0.274923,-0.711812 -0.02946,-0.160053 0.24143,-0.44979 0.369075,-0.547982 0.129609,-0.09819 0.216307,-0.454886 0.222198,-0.726878 0.0059,-0.271991 -0.151005,-0.528003 -0.210899,-0.80785 -0.06088,-0.279846 -0.04313,-0.453377 -0.161942,-0.80785 -0.118808,-0.355455 -0.44399,-0.616379 -0.728736,-0.670383 -0.284747,-0.05401 -0.317937,-0.574385 -0.370959,-0.779606 -0.054,-0.204239 -0.242401,-0.77239 -0.209018,-1.039471 0.03339,-0.266101 0.17859,-0.304198 0.369076,-0.508438 0.191468,-0.20424 0.262832,-0.519489 0.305052,-0.800318 0.04223,-0.281811 -0.159163,-0.564485 -0.593157,-0.644021 -0.432029,-0.07954 -0.620983,0.08732 -0.745684,0.299414 -0.123716,0.214058 -0.435208,0.306247 -0.544198,0.231622 -0.109971,-0.07365 -0.140569,-0.386625 -0.133695,-0.555515 0.0069,-0.16889 0.141335,-0.448363 0.184537,-0.627074 0.0432,-0.178708 0.229151,-0.498074 0.357778,-0.841746 0.129609,-0.341707 0.232124,-1.13026 0.265508,-1.395377 0.03339,-0.267082 -0.226418,-0.611819 -0.444397,-0.708046 -0.21896,-0.09819 -0.693534,0.196714 -0.839835,0.427464 -0.09229,0.148269 -0.286004,0.253356 -0.474526,0.320126 -0.107025,0.03731 -0.213078,0.06165 -0.297521,0.07344 -0.235652,0.03634 -0.510355,0.314865 -0.600688,0.557398 -0.09132,0.243515 0.09044,0.542773 0.180771,0.738175 0.08935,0.195402 -0.01319,0.981095 -0.01319,0.981095 l 0.03012,0.212791 c 0,0 0.01545,0.599911 -0.01695,0.91707 -0.0324,0.318142 -0.09249,0.823208 -0.201485,1.045122 -0.109971,0.221913 -0.04561,0.617267 0.07909,0.64967 0.1247,0.03142 0.198567,0.269172 0.246679,0.500904 0.04713,0.232715 -0.07233,0.456191 -0.144995,0.719345 -0.07266,0.264137 0.107938,0.80887 0.161942,1.013109 0.05302,0.205221 0.313999,1.000448 0.2109,1.193886 -0.10408,0.195402 -0.404153,0.815311 -0.466993,1.114796 -0.06284,0.299485 -0.543228,0.14122 -0.704257,0.118635 -0.123717,-0.01669 -0.316523,0.176942 -0.472643,0.338959 -0.04615,0.04713 -0.08795,0.09172 -0.12428,0.12805 -0.164958,0.159072 -0.13017,0.587742 -0.261743,0.674151 -0.05989,0.0383 -0.22771,0.136953 -0.414268,0.241037 -0.22878,0.1276493 -0.483846,0.2617768 -0.60069,0.3069451 -0.210124,0.081499 -0.422512,0.3055162 -0.519719,0.5235023 -0.09721,0.2189676 0.03624,0.8277527 0.139346,1.1223287 0.103097,0.2945751 0.372341,0.8291922 0.499004,1.0658345 0.126664,0.2376249 0.323142,0.7387368 0.455696,0.9999273 0.0108,0.022584 0.01949,0.045288 0.02636,0.065908 0.01669,0.045169 0.02259,0.085089 0.02259,0.1224014 l -0.02259,0.037663 -2.338736,3.845292 -2.728523,4.4855469 c -0.6559,-0.185583 -1.326949,-0.2638111 -2.28036,-0.1449992 -0.682411,-0.069717 -1.366336,-0.1374248 -2.048747,-0.2071413 -0.371153,-0.05106 -0.73984,-0.1032737 -1.110993,-0.156297 -0.369189,-0.044187 -0.821585,-0.1222646 -1.540326,-0.3088291 -0.385882,-0.1080106 -0.770305,-0.2139993 -1.156187,-0.3220098 -0.891552,0.5646029 -1.516243,1.4359003 -1.918816,2.5572513 -0.36919,1.2244522 -0.597271,2.0519098 -0.772046,2.7323792 -0.264128,1.5298296 -0.312016,3.0587108 0.246678,4.5797007 0.623497,1.266676 2.242542,2.399891 3.666277,2.402838 0.87977,1.39236 2.496626,2.829259 4.266966,2.304915 0.641172,0.65003 1.331222,1.21731 2.592946,0.80785 0.629389,0.442845 1.338282,0.748907 2.634372,0.05273 0.04811,0.06382 0.09672,0.124807 0.148759,0.180777 0.560658,0.605844 1.325429,0.761855 2.338736,0.369088 l 0.0885,-0.0339 c 0.239581,0.09721 0.475155,0.168187 0.711789,0.199609 0.631352,0.08543 1.249455,-0.103062 1.843496,-0.779603 0.05204,0.09721 0.107776,0.187703 0.165707,0.271166 0.514509,0.738403 1.308303,0.898988 2.440418,0.354023 0.667684,0.282792 1.319706,0.430615 1.922584,0.216557 0.215033,-0.07659 0.423883,-0.198813 0.625169,-0.378504 0.30242,0.390313 0.665485,0.578943 1.078981,0.598827 z m 1.42546,-13.5206662 c -0.748197,-0.02062 -1.53196,-0.023242 -2.353798,-0.00753 -0.257255,-0.035349 -0.515613,-0.066742 -0.775812,-0.092272 -0.371153,-0.037314 -0.745408,-0.067562 -1.118526,-0.096038 -0.238597,-0.00589 -0.478839,-0.011959 -0.717438,-0.018831 l -2.527038,-8.3477867 -1.470653,-4.8527512 c 0.18754,0.016693 0.36551,0.054474 0.429332,0.1035707 0.111935,0.086409 0.244121,0.051073 0.352128,0.022596 0.10899,-0.027494 0.548085,-0.1182209 0.613871,0.032012 0.06481,0.1502344 -0.09241,0.3844742 -0.34083,0.5140874 -0.816929,0.4251708 -0.551987,1.9159294 0.416152,2.1938122 0.0756,0.021603 0.155605,0.03652 0.241029,0.041428 1.128187,0.07659 1.455893,-1.5183775 0.990478,-1.9847888 -0.121753,-0.1217574 -0.20817,-0.2549409 -0.160058,-0.5122035 0.04909,-0.2572625 0.237368,-0.1261134 0.418035,-0.1732448 0.180666,-0.047133 0.176642,0.1851194 0.25421,0.3314258 0.07756,0.1482695 0.07908,0.2492149 0.628935,0.2335041 0.548875,-0.014728 0.683792,0.1561736 1.112876,0.3653223 0.319114,0.1561244 0.656572,0.5149021 0.877497,0.7927849 0.07462,0.094265 0.134704,0.1809783 0.178889,0.244803 0.167902,0.2523531 0.284067,0.5950016 0.382256,0.9170703 0.09721,0.3220697 0.126094,0.4296136 0.288105,0.6063593 0.02946,0.032403 0.05732,0.069781 0.08286,0.1129856 l -0.07155,0.022596 2.489377,7.9692844 0.45193,1.4424546 -0.45193,0.094156 -0.220316,0.045194 z m 0.964117,-0.2014915 -0.743801,-2.3783567 -1.933881,-6.1897531 c 0.04909,0.016694 0.101549,0.017594 0.150643,0.00188 0.135501,-0.042222 0.06701,-0.402254 -0.0057,-0.557397 l 1.788888,3.8019806 2.34815,4.9864515 -1.60435,0.3351917 z m -6.242275,-0.024479 c -0.735433,-0.024548 -1.474111,-0.0566 -2.214454,-0.099805 -0.499781,-0.03044 -1.000841,-0.064132 -1.504549,-0.1073367 l -0.504654,-6.903448 -0.205251,-2.8265349 c 0.0864,-0.2248595 0.148343,-0.4187342 0.135578,-0.470775 -0.01571,-0.056951 -0.04546,-0.123921 -0.08474,-0.2014925 l 0.154409,-0.6797994 0.34648,-1.5045979 1.662723,5.4854732 2.214454,7.3083159 z m -4.016522,-0.233505 -0.207135,-0.01883 c -0.266091,-0.024548 -0.532237,-0.049634 -0.800291,-0.07909 -0.333842,-0.036331 -0.668756,-0.077315 -1.005543,-0.1205184 l 1.005543,-6.2914408 0.363427,-2.2710201 0.01129,-0.041429 0.425566,5.9468332 0.207135,2.8754954 z m 12.1569,-0.1544141 -2.641904,-5.6097585 -1.480069,-3.141012 1.480069,1.6910245 3.447845,3.9413308 1.990373,2.2729031 c -0.69223,0.1404136 -1.366875,0.3093631 -1.990373,0.5253842 -0.280818,0.096229 -0.548685,0.203279 -0.805941,0.3201279 z M -35.830591,3.5615459 c -0.14532,-0.021602 -0.290563,-0.046108 -0.436866,-0.069675 -0.145318,-0.023566 -0.290563,-0.047009 -0.436865,-0.071557 -0.808092,-0.2808292 -1.411798,-0.5494861 -1.996021,-0.7419425 l 2.432886,-4.0015891 2.338736,-3.845292 0.03202,-0.048962 c 0.02062,0.042223 0.04332,0.085008 0.06591,0.1242854 l -0.02824,0.1657129 -0.06967,0.2975292 -1.90187,8.1914896 z m 18.201457,-0.7212277 -2.32932,-2.66082112 -3.447845,-3.94133078 -0.450046,-0.5140864 0.450046,0.3954509 3.447845,3.03555931 3.899775,3.42724339 c -0.522364,0.075608 -1.049074,0.159793 -1.570455,0.2579847 z m 1.960244,-0.3107111 -4.289564,-3.7737349 -3.447845,-3.0336753 -0.896326,-0.7890199 0.896326,0.5065544 c 0.967158,0.5459468 2.176303,1.2301648 3.447845,1.9508932 3.325649,1.8833189 7.074873,4.0149367 8.006683,4.5834676 -0.984832,0.2228956 -2.314004,0.3630585 -3.717119,0.5555149 z m -10.437687,-9.1914168 c 0,9e-7 -0.250241,-0.3279385 -0.323883,-0.5272674 -0.05891,-0.1571079 -0.181428,-0.4104184 -0.325765,-0.6647356 -0.03829,-0.06677 -0.07837,-0.1348013 -0.118632,-0.1996084 -0.19245,-0.3132323 -0.383693,-0.2580213 -0.600689,-0.4632431 -0.217979,-0.2042383 -0.06733,-0.2550382 0.150643,-0.2579847 0.205214,-0.00196 0.362481,0.1450387 0.568678,0.2127903 l 0.0339,0.011299 c 0.22387,0.06088 0.53754,0.3043188 0.630818,0.5743457 0.09229,0.2700279 0.145412,0.8470289 0.158175,1.0620695 0.01178,0.2140582 -0.173239,0.2523349 -0.173239,0.2523349 z m -7.387162,-0.2297381 c -0.08149,-0.2042394 -0.297518,-0.8692593 -0.434982,-1.2993395 l -0.107334,-0.3427247 c -0.05891,-0.1836181 -0.02816,-0.2355201 0.107334,-0.3238929 0.03927,-0.025529 0.08903,-0.053158 0.144993,-0.088506 0.211106,-0.1296133 0.443211,-0.072298 0.655298,-0.077207 0.0432,-9.825e-4 0.08771,-0.00532 0.129929,-0.013182 l -0.129929,0.5592809 -0.365309,1.5855709 z"
       id="path4244"
       inkscape:connector-curvature="0" />
  </g>
</svg>
