<?xml version="1.0" encoding="UTF-8" standalone="no"?>
<svg
   xmlns:dc="http://purl.org/dc/elements/1.1/"
   xmlns:cc="http://creativecommons.org/ns#"
   xmlns:rdf="http://www.w3.org/1999/02/22-rdf-syntax-ns#"
   xmlns:svg="http://www.w3.org/2000/svg"
   xmlns="http://www.w3.org/2000/svg"
   xmlns:sodipodi="http://sodipodi.sourceforge.net/DTD/sodipodi-0.dtd"
   xmlns:inkscape="http://www.inkscape.org/namespaces/inkscape"
   height="65"
   width="65"
   id="svg4575"
   version="1.1"
   inkscape:version="0.91 r13725"
   sodipodi:docname="mountain_climbing.svg">
  <metadata
     id="metadata4596">
    <rdf:RDF>
      <cc:Work
         rdf:about="">
        <dc:format>image/svg+xml</dc:format>
        <dc:type
           rdf:resource="http://purl.org/dc/dcmitype/StillImage" />
        <dc:title />
      </cc:Work>
    </rdf:RDF>
  </metadata>
  <defs
     id="defs4594" />
  <sodipodi:namedview
     pagecolor="#ffffff"
     bordercolor="#666666"
     borderopacity="1"
     objecttolerance="10"
     gridtolerance="10"
     guidetolerance="10"
     inkscape:pageopacity="0"
     inkscape:pageshadow="2"
     inkscape:window-width="928"
     inkscape:window-height="1028"
     id="namedview4592"
     showgrid="false"
     inkscape:zoom="8.0392603"
     inkscape:cx="14.959481"
     inkscape:cy="40.219052"
     inkscape:window-x="3585"
     inkscape:window-y="24"
     inkscape:window-maximized="0"
     inkscape:current-layer="svg4575" />
  <g
     id="mountain_climbing"
     ng-click="editCtrl.pushToArray(route, 'activities', 'mountain_climbing', $event)"
     class="activity-icon"
     transform="matrix(0.96168157,0,0,-0.964473,-187.01722,163.15468)">
    <title
       id="title4578">mountain_climbing</title>
    <g
       id="g5143"
       transform="translate(-6.4,32.137826)">
      <g
         transform="translate(269.82013,103.34212)"
         id="g194" />
      <g
         transform="translate(264.01183,103.62892)"
         id="g198">
        <path
           style="fill:#ffaa45;fill-opacity:1;fill-rule:nonzero;stroke:none"
           d="m 32.544922,2.0614719 c -16.141,0 -30.5209559,13.8522161 -30.5209559,29.9932161 0,16.141 14.3799559,30.610865 30.5209559,30.610865 16.14,0 30.259038,-14.469866 30.259038,-30.610865 0,-16.141 -14.119038,-29.9932161 -30.259038,-29.9932161 z M 31.73639,3.2056885 C 58.626063,2.4646199 75.878652,38.429887 45.612463,58.570175 44.905783,58.038587 44.126682,56.182989 43.478516,54.685547 l -0.08789,-1.503906 c -0.058,-0.973 -1.040391,-2.685813 -1.775391,-4.132813 -0.807,0.046 -2.470047,0.177813 -2.998046,0.507813 -0.707001,0.442 -2.299563,0.620328 -2.476563,-0.263672 -0.176,-0.884 0.0013,-1.858188 -0.263672,-2.742188 -0.265,-0.884 -2.210937,-3.270328 -2.210937,-4.861328 0,0 -0.264063,-0.79625 -1.414063,-0.53125 -0.078,0.018 -0.19675,0.04045 -0.34375,0.06445 l -0.220703,0.03516 c -2.288,0.354 -9.612203,1.093391 -11.283203,-0.09961 l -1.414063,-1.148437 c 0,0 -0.551609,-0.629016 -1.099609,-1.666016 l -0.751953,-1.839844 c -0.262,-0.907 -0.404531,-1.940109 -0.269531,-3.037109 0,0 -0.08925,-2.563031 -0.53125,-4.332031 -0.442,-1.768 -0.26575,-5.835969 0.53125,-6.542969 0.795,-0.707 1.5,-1.414063 1.5,-1.414063 0,0 0.975828,-0.530656 0.798828,-0.972656 l 0,-1.15039 c 0,-10e-7 -0.343391,1.074531 -1.150391,1.769531 -0.275,0.236 -0.353516,0.177734 -0.353516,0.177734 0,0 -1.23814,-0.178266 -0.61914,-1.947265 0.619,-1.768001 0.882219,-0.439844 1.324219,-1.589844 0.443,-1.149 0.798125,-1.680422 1.328125,-1.857422 0.531,-0.176 0.884765,-0.08789 0.884765,-0.08789 0,0 1.591266,-6.1873591 3.447266,-9.1933591 0,0 -0.118995,-0.9748305 0.06311,-1.9483031 2.637296,-0.800489 4.748668,-1.1721803 7.643982,-1.1721813 z M 25.5,6.6074219 24.824219,6.9433594 c 0,0 -1.147469,7.2495776 -1.855469,9.0175786 0,0 3.004922,1.237796 0.794922,5.216796 0,0 0.08825,0.882891 0.53125,0.08789 0,0 2.722625,-5.604172 4.890625,-8.201172 -0.56,-0.498 -1.1035,-0.525328 -2.0625,-1.611328 C 26.310047,10.531125 25.797,8.4134219 25.5,6.6074219 Z m 3.605469,9.2421871 c -0.432,0.583 -1.071547,1.577047 -1.185547,2.498047 -0.177,1.415 -1.857453,5.216938 -2.564453,5.835938 0,0 -2.65286,0.618406 -3.00586,0.441406 0,0 1.147547,1.063078 1.060547,2.830078 0,0 3.092875,-5.234422 5.296875,-3.607422 l 0.226563,0.292969 c 0.35,0.622 1.330342,2.503031 1.902344,5.082031 0,0 1.503078,4.067532 2.830078,5.394532 0.659,0.658999 1.537265,0.836234 2.447265,0.740234 -0.894,-1.03 -1.62164,-3.057594 -2.18164,-4.808594 -0.707,-2.211 -1.504313,-3.713828 -1.945313,-5.923828 -0.442,-2.21 -1.061422,-3.624578 -1.857422,-5.392578 -0.376,-0.836 -0.651843,-1.7885 -0.839844,-2.5625 l -0.175781,-0.779297 c -0.003,-0.014 -0.0058,-0.02802 -0.0078,-0.04102 z m -1.804688,13.904297 c 0,0 -2.122,6.188781 -3.625,7.425782 0,-10e-7 4.033813,-0.303282 7.132813,-0.238282 l 0.232422,0.0059 c 0.332,0.009 0.651171,0.02202 0.951172,0.04102 -0.037,-0.348 -0.177157,-0.766656 -0.535157,-1.222656 -0.222,-0.282 -0.548828,-0.706172 -0.923828,-1.201172 l -0.326172,-0.435547 c -1.237,-1.652 -2.78125,-3.811 -2.90625,-4.375 z m 10.316407,6.869141 c -0.333,0.245 -1.023969,0.747406 -1.667969,1.191406 0.619,0.302 1.164062,0.848797 1.164062,1.841797 0,0 0.619282,5.746125 1.238281,6.453125 0,0 1.344672,0.447375 2.388672,0.484375 -0.277,-1.32 -1.008265,-3.143734 -1.947265,-4.552734 -1.06,-1.591 -0.794922,-2.03286 -0.794922,-3.00586 0,-0.693 0.04214,-1.698109 -0.380859,-2.412109 z"
           id="path200"
           inkscape:connector-curvature="0"
           sodipodi:nodetypes="ssssscccccccscccccccccccccccccccccccccccccccccccccccsccccccccccccccccccccccscsc"
           transform="matrix(1,0,0,-1,-61.7707,32.055384)" />
      </g>
      <g
         transform="translate(233.67663,98.48442)"
         id="g202" />
      <g
         transform="translate(234.23453,104.14102)"
         id="g206" />
      <g
         transform="translate(-54.576271,-166.00678)"
         id="g210">
        <g
           clip-path="url(#clipPath214)"
           id="g212">
          <g
             transform="translate(295.1695,255.5815)"
             id="g218" />
        </g>
      </g>
      <g
         transform="translate(234.78623,132.35422)"
         id="g230" />
    </g>
  </g>
</svg>
