<?xml version="1.0" encoding="UTF-8" standalone="no"?>
<svg
   xmlns:dc="http://purl.org/dc/elements/1.1/"
   xmlns:cc="http://creativecommons.org/ns#"
   xmlns:rdf="http://www.w3.org/1999/02/22-rdf-syntax-ns#"
   xmlns:svg="http://www.w3.org/2000/svg"
   xmlns="http://www.w3.org/2000/svg"
   xmlns:sodipodi="http://sodipodi.sourceforge.net/DTD/sodipodi-0.dtd"
   xmlns:inkscape="http://www.inkscape.org/namespaces/inkscape"
   height="65"
   width="65"
   id="svg4947"
   version="1.1"
   inkscape:version="0.91 r13725"
   sodipodi:docname="skitouring.svg">
  <metadata
     id="metadata4961">
    <rdf:RDF>
      <cc:Work
         rdf:about="">
        <dc:format>image/svg+xml</dc:format>
        <dc:type
           rdf:resource="http://purl.org/dc/dcmitype/StillImage" />
        <dc:title />
      </cc:Work>
    </rdf:RDF>
  </metadata>
  <defs
     id="defs4959" />
  <sodipodi:namedview
     pagecolor="#ffffff"
     bordercolor="#666666"
     borderopacity="1"
     objecttolerance="10"
     gridtolerance="10"
     guidetolerance="10"
     inkscape:pageopacity="0"
     inkscape:pageshadow="2"
     inkscape:window-width="928"
     inkscape:window-height="1028"
     id="namedview4957"
     showgrid="false"
     inkscape:zoom="10.269366"
     inkscape:cx="0.59011338"
     inkscape:cy="27.342089"
     inkscape:window-x="3585"
     inkscape:window-y="24"
     inkscape:window-maximized="0"
     inkscape:current-layer="svg4947" />
  <g
     id="skitouring"
     ng-click="editCtrl.pushToArray(route, 'activities', 'skitouring', $event)"
     class="activity-icon"
     transform="matrix(1,0,0,-1,-292.96631,168.47579)">
    <title
       id="title4950">skitouring</title>
    <g
       id="g5222"
       transform="translate(-6.4,32)">
      <g
         transform="translate(361.08393,103.96732)"
         id="g298">
        <path
           style="fill:#ffaa45;fill-opacity:1;fill-rule:nonzero;stroke:none"
           d="m 32.982422,2.8945312 c -16.141,0 -29.2265626,13.0855628 -29.2265626,29.2265628 0,16.141 13.0855626,29.224609 29.2265626,29.224609 16.14,0 29.224609,-13.083609 29.224609,-29.224609 0,-16.141 -13.084609,-29.2265628 -29.224609,-29.2265628 z M 34.367188,9.46875 c 0,0 0.570312,0.40875 0.570312,0.84375 0,0.434 -0.951172,0.787109 -0.951172,0.787109 l -1.576172,2.091797 c 0.653,0.027 0.870891,1.331969 1.087891,1.792969 0.218,0.462 0.869656,0.543281 1.847656,1.113281 0.978,0.571 1.140625,2.472656 1.140625,2.472656 0,10e-7 1.847141,0.217313 2.119141,1.195313 0.271,0.978 3.339843,3.722656 3.339843,3.722656 0,0 0.951204,1.818735 1.033204,2.552735 0.081,0.733 1.441406,2.582031 1.441406,2.582031 l 0.65039,0.08008 11.900391,-6.681641 c 0,0 -0.05417,-0.190203 0.298828,-0.408203 0.353,-0.217 1.248938,-0.02769 1.085938,0.570313 -0.163,0.598 -1.058594,0.435547 -1.058594,0.435547 l -12.089844,7.0625 c 0,0 0.623453,0.571859 -1.060547,1.630859 -3.043,2.038 -2.226906,-1.983281 -2.253906,-2.363281 -0.027,-0.381 -1.168828,-1.22386 -1.548828,-1.63086 -0.381,-0.408 -0.191406,-1.412109 -0.191406,-1.412109 -0.815,-0.217 -1.656328,-1.982594 -2.111328,-1.683594 -0.454,0.298 0,1.058594 0,1.058594 l -0.576172,0.515625 c 0,0 0.324359,0.734859 0.568359,2.255859 0.245,4.32 -5.921875,5.705078 -5.921875,5.705078 l 0.02734,2.824219 0.978516,0.109375 1.085937,-0.652344 2.228516,0.109376 -18.773438,15.404296 -2.988281,0 -1.330078,-2.5 9.617187,-6.003906 c -0.082,-0.978 1.492188,-2.445312 1.492188,-2.445312 0,0 0.978203,-1.166907 1.033203,-1.628907 0,-2.744 3.261312,-8.722109 3.695312,-9.537109 0.435,-0.815 0.326032,-4.103281 0.707032,-4.238281 0.38,-0.136 0.40625,-1.113281 0.40625,-1.113281 0,0 -0.787047,0.135109 -0.623047,-0.462891 0.163,-0.598 -0.136719,-1.521485 -0.136719,-1.521485 -1.549,-0.977999 -5.949219,1.658204 -5.949219,1.658204 0,0 -3.559,-0.0268 0.625,-2.716797 4.184,-2.69 3.558594,-4.13086 3.558594,-4.13086 0,0 -0.245203,-1.900937 0.841797,-2.960937 1.087,-1.06 2.853516,-0.894531 2.853516,-0.894531 l 1.982421,-2.365235 c -0.516,-1.0599998 0.923829,-1.222656 0.923829,-1.222656 z"
           transform="matrix(1,0,0,-1,-62.20748,32.12017)"
           id="path300"
           inkscape:connector-curvature="0" />
      </g>
      <g
         transform="translate(321.83253,93.03852)"
         id="g302" />
    </g>
  </g>
</svg>
