<?xml version="1.0" encoding="UTF-8" standalone="no"?>
<svg
   xmlns:dc="http://purl.org/dc/elements/1.1/"
   xmlns:cc="http://creativecommons.org/ns#"
   xmlns:rdf="http://www.w3.org/1999/02/22-rdf-syntax-ns#"
   xmlns:svg="http://www.w3.org/2000/svg"
   xmlns="http://www.w3.org/2000/svg"
   xmlns:sodipodi="http://sodipodi.sourceforge.net/DTD/sodipodi-0.dtd"
   xmlns:inkscape="http://www.inkscape.org/namespaces/inkscape"
   height="65"
   width="65"
   id="svg4470"
   version="1.1"
   inkscape:version="0.91 r13725"
   sodipodi:docname="slacklining.svg">
  <metadata
     id="metadata4485">
    <rdf:RDF>
      <cc:Work
         rdf:about="">
        <dc:format>image/svg+xml</dc:format>
        <dc:type
           rdf:resource="http://purl.org/dc/dcmitype/StillImage" />
        <dc:title />
      </cc:Work>
    </rdf:RDF>
  </metadata>
  <defs
     id="defs4483" />
  <sodipodi:namedview
     pagecolor="#ffffff"
     bordercolor="#666666"
     borderopacity="1"
     objecttolerance="10"
     gridtolerance="10"
     guidetolerance="10"
     inkscape:pageopacity="0"
     inkscape:pageshadow="2"
     inkscape:window-width="1301"
     inkscape:window-height="744"
     id="namedview4481"
     showgrid="false"
     inkscape:zoom="8"
     inkscape:cx="25.235071"
     inkscape:cy="42.856654"
     inkscape:window-x="65"
     inkscape:window-y="24"
     inkscape:window-maximized="1"
     inkscape:current-layer="svg4470"
     showguides="true"
     inkscape:guide-bbox="true">
    <sodipodi:guide
       position="32.375,55.5"
       orientation="1,0"
       id="guide3345" />
    <sodipodi:guide
       position="8.75,32.125"
       orientation="0,1"
       id="guide3347" />
  </sodipodi:namedview>
  <g
     id="slacklining"
     ng-click="editCtrl.pushToArray(route, 'activities', 'slacklining', $event)"
     class="activity-icon">
    <path
       id="path31"
       d="M 32.492188 3.2832031 C 16.351235 3.2832032 3.265625 16.366321 3.265625 32.507812 C 3.265625 48.649304 16.351235 61.734375 32.492188 61.734375 C 48.63214 61.734375 61.716797 48.649305 61.716797 32.507812 C 61.716797 16.366321 48.63214 3.2832031 32.492188 3.2832031 z M 26.394531 7.0273438 C 26.483634 7.0157813 26.553901 7.0919585 26.519531 7.203125 C 26.500091 7.265995 26.452324 7.428095 26.412109 7.5625 L 26.337891 7.8066406 L 26.458984 7.65625 C 26.524894 7.57405 26.632095 7.4099986 26.697266 7.2910156 L 26.816406 7.0742188 L 26.923828 7.1171875 C 27.076648 7.1758275 27.060467 7.2928211 26.820312 7.8925781 C 26.571295 8.5144711 26.627739 8.6964694 26.917969 8.2089844 C 27.220218 7.7013154 27.42601 7.4255055 27.486328 7.4453125 C 27.628002 7.4918325 27.596616 7.7915387 27.414062 8.1523438 L 27.226562 8.5234375 L 27.246094 8.8632812 C 27.256334 9.0503142 27.260166 9.3529592 27.253906 9.5351562 L 27.242188 9.8652344 L 26.828125 10.269531 L 26.414062 10.671875 L 26.365234 10.869141 L 26.316406 11.064453 L 26.388672 11.214844 C 26.529278 11.512393 26.61129 11.791401 26.671875 12.169922 C 26.705685 12.381129 26.834752 12.977676 26.958984 13.496094 L 27.185547 14.439453 L 27.154297 14.818359 L 27.123047 15.195312 L 27.269531 15.425781 C 27.350011 15.552303 27.455101 15.656577 27.501953 15.658203 C 27.548803 15.659803 27.658542 15.75791 27.746094 15.876953 C 27.833644 15.995997 28.02474 16.155129 28.171875 16.230469 C 28.31901 16.305809 28.586345 16.520069 28.765625 16.705078 L 29.091797 17.041016 L 29.369141 17.089844 C 29.521421 17.116954 29.724936 17.17956 29.822266 17.228516 C 29.919566 17.277466 30.203515 17.335135 30.453125 17.357422 C 30.919905 17.399102 31.187309 17.489175 31.511719 17.708984 L 31.699219 17.833984 L 31.84375 17.744141 C 31.92375 17.694181 31.990234 17.595284 31.990234 17.525391 L 31.990234 17.398438 L 32.548828 16.837891 L 33.109375 16.279297 L 32.941406 15.8125 L 32.773438 15.347656 L 32.722656 14.560547 C 32.694656 14.128191 32.643675 13.757541 32.609375 13.736328 C 32.537875 13.692138 32.580138 13.455498 32.736328 13.017578 L 32.845703 12.712891 L 32.773438 12.667969 L 32.701172 12.623047 L 32.833984 12.458984 L 32.966797 12.292969 L 33.142578 12.328125 C 33.363058 12.370275 33.439146 12.269912 33.228516 12.214844 L 33.074219 12.175781 L 33.150391 12.099609 L 33.224609 12.023438 L 33.410156 12.107422 C 33.512006 12.153822 33.595703 12.219716 33.595703 12.251953 C 33.595703 12.284193 33.672818 12.310547 33.767578 12.310547 L 33.939453 12.310547 L 33.900391 12.205078 L 33.859375 12.101562 L 33.990234 12.054688 C 34.061434 12.029328 34.171548 11.963732 34.236328 11.908203 C 34.301128 11.852673 34.389181 11.829229 34.431641 11.855469 C 34.474141 11.881709 34.810547 11.914868 35.179688 11.929688 L 35.851562 11.957031 L 36.001953 12.097656 C 36.084853 12.175556 36.198786 12.241637 36.253906 12.244141 C 36.387706 12.250241 37.131029 13.178295 37.292969 13.541016 C 37.363769 13.699485 37.455647 13.850748 37.498047 13.876953 C 37.540447 13.903153 37.574219 14.029011 37.574219 14.158203 L 37.574219 14.394531 L 37.417969 14.591797 C 37.112409 14.975676 36.994249 15.302072 36.880859 16.083984 C 36.849959 16.296776 36.778953 16.562162 36.720703 16.675781 C 36.662403 16.7894 36.573518 17.067329 36.523438 17.292969 L 36.431641 17.703125 L 36.621094 17.841797 C 36.725364 17.917757 36.860002 18.075523 36.919922 18.191406 L 37.029297 18.400391 L 36.982422 18.654297 C 36.956422 18.793637 36.906167 18.940316 36.873047 18.980469 L 36.814453 19.054688 L 37.142578 19.150391 C 37.323178 19.203561 37.592417 19.335079 37.742188 19.443359 C 37.891957 19.551639 38.059231 19.640625 38.113281 19.640625 C 38.228511 19.640625 38.658026 19.876199 39.134766 20.199219 C 39.320766 20.325242 39.665341 20.487393 39.900391 20.560547 C 40.135441 20.633697 40.380552 20.742174 40.445312 20.800781 L 40.564453 20.90625 L 40.607422 20.837891 L 40.648438 20.767578 L 41.144531 20.785156 L 41.638672 20.800781 L 41.757812 20.958984 L 41.875 21.115234 L 42.982422 21.074219 L 44.087891 21.033203 L 44.3125 21.107422 L 44.537109 21.181641 L 46.03125 21.208984 C 46.85296 21.223744 47.909296 21.257006 48.378906 21.285156 L 49.232422 21.337891 L 49.283203 21.484375 C 49.310903 21.565165 49.334038 21.658753 49.335938 21.693359 C 49.338938 21.751299 50.155297 22.144423 50.935547 22.462891 L 51.259766 22.595703 L 51.494141 22.880859 C 51.808511 23.264459 52.346764 23.830078 52.396484 23.830078 C 52.485184 23.830078 52.864915 24.264689 52.828125 24.324219 C 52.748525 24.452999 52.549094 24.380842 51.871094 23.970703 L 51.179688 23.550781 L 50.972656 23.550781 C 50.859286 23.550781 50.653485 23.504867 50.515625 23.447266 C 50.377765 23.389666 50.151039 23.341941 50.011719 23.341797 L 49.759766 23.341797 L 49.521484 23.197266 L 49.285156 23.052734 L 49.226562 23.144531 C 49.194362 23.195361 49.166616 23.259294 49.166016 23.287109 C 49.165456 23.314919 49.065789 23.389813 48.943359 23.453125 L 48.720703 23.568359 L 48.59375 23.490234 C 48.43134 23.388802 48.139162 23.38835 48.076172 23.490234 L 48.027344 23.570312 L 47.427734 23.529297 C 47.097294 23.506837 46.622657 23.518617 46.373047 23.554688 C 44.949967 23.760361 43.567996 23.808111 40.822266 23.746094 L 39.005859 23.705078 L 38.607422 23.558594 C 38.387572 23.477954 38.158076 23.412109 38.097656 23.412109 C 38.037256 23.412109 37.858189 23.348285 37.699219 23.271484 C 37.312889 23.08483 37.208959 23.095971 37.068359 23.333984 C 36.866329 23.675994 36.528214 24.712638 36.527344 24.994141 C 36.526344 25.359377 36.373074 25.892045 36.152344 26.302734 C 35.947744 26.683423 35.921576 26.948358 36.066406 27.146484 L 36.162109 27.279297 L 36.087891 27.398438 L 36.013672 27.517578 L 36.099609 27.925781 C 36.147409 28.150179 36.247816 28.593889 36.322266 28.912109 C 36.529126 29.796243 36.484289 30.209442 36.136719 30.607422 L 36.041016 30.716797 L 36.246094 30.957031 C 36.359054 31.089167 36.453518 31.249517 36.455078 31.314453 C 36.457078 31.379393 36.488944 31.452829 36.527344 31.476562 C 36.565744 31.500293 36.597656 31.56795 36.597656 31.628906 C 36.597656 31.689856 36.739309 31.891429 36.912109 32.076172 L 37.226562 32.412109 L 37.226562 32.576172 C 37.226562 32.666482 37.180953 32.801133 37.126953 32.875 L 37.029297 33.009766 L 36.699219 32.921875 C 36.281749 32.810217 36.280004 32.81207 36.490234 33.263672 L 36.666016 33.640625 L 36.666016 33.90625 L 36.667969 34.169922 L 36.423828 34.273438 C 36.289428 34.329597 36.177734 34.404155 36.177734 34.439453 C 36.177734 34.474753 36.123831 34.52124 36.056641 34.542969 C 35.989441 34.564699 35.897423 34.664486 35.851562 34.763672 L 35.767578 34.943359 L 35.839844 35.128906 L 35.910156 35.316406 L 35.830078 36.642578 C 35.696288 38.867156 35.561085 39.85194 35.203125 41.181641 C 35.130725 41.45045 35.034834 41.853759 34.990234 42.078125 L 34.910156 42.484375 L 34.992188 43.068359 C 35.037788 43.389388 35.076125 43.819591 35.078125 44.023438 L 35.082031 44.394531 L 34.955078 44.636719 L 34.826172 44.880859 L 34.800781 45.335938 C 34.761581 46.065129 34.771093 46.173604 34.914062 46.65625 C 35.094563 47.265526 35.229864 48.384243 35.183594 48.894531 L 35.146484 49.306641 L 35.277344 49.425781 C 35.450364 49.58236 35.446351 49.698625 35.238281 50.275391 L 35.064453 50.755859 L 35.193359 51.099609 L 35.320312 51.443359 L 35.669922 51.796875 C 35.861442 51.991177 36.045288 52.197239 36.080078 52.253906 C 36.114878 52.310576 36.286184 52.467711 36.458984 52.603516 L 36.771484 52.851562 L 36.890625 52.824219 C 36.955425 52.809499 37.071438 52.860498 37.148438 52.9375 L 37.289062 53.078125 L 38.460938 52.835938 C 39.106327 52.703159 40.089664 52.502255 40.646484 52.388672 C 41.203304 52.275088 42.508092 52.005747 43.544922 51.791016 C 44.581762 51.576284 46.40331 51.200941 47.59375 50.957031 C 48.78419 50.713121 54.996066 49.411297 56.128906 49.175781 C 55.939059 49.497093 55.872934 49.597076 55.707031 49.824219 C 54.248441 50.101036 52.803459 50.366784 50.544922 50.818359 C 48.759932 51.200978 41.916023 52.58337 40.158203 52.916016 C 39.447783 53.050456 38.316551 53.266602 37.644531 53.396484 C 36.972511 53.526367 36.258251 53.653659 36.056641 53.679688 L 35.689453 53.726562 L 35.689453 53.859375 L 35.689453 53.992188 L 35.554688 53.992188 C 35.480187 53.992188 35.39874 54.0241 35.375 54.0625 C 35.3059 54.174279 35.077766 54.142423 34.978516 54.007812 C 34.928316 53.939752 34.761022 53.833164 34.607422 53.769531 L 34.328125 53.654297 L 33.683594 53.611328 L 33.037109 53.568359 L 33.037109 53.634766 L 33.037109 53.699219 L 32.802734 53.646484 L 32.566406 53.59375 L 32.443359 53.662109 L 32.318359 53.732422 L 32.197266 53.572266 L 32.078125 53.412109 L 31.660156 53.457031 C 31.213686 53.503701 31.081519 53.548779 30.599609 53.820312 L 30.291016 53.992188 L 30.064453 53.992188 C 29.850233 53.992188 29.619519 53.954246 28.724609 53.767578 L 28.355469 53.691406 L 28.060547 53.757812 L 27.765625 53.824219 L 27.416016 53.763672 C 27.224331 53.730952 27.016106 53.65642 26.951172 53.597656 L 26.832031 53.490234 C 26.492099 53.117147 26.577633 52.671797 26.710938 52.207031 L 26.761719 52.064453 L 26.460938 51.990234 C 26.118471 51.907544 22.74479 50.986897 21.271484 50.574219 C 20.733866 50.42363 19.399124 50.061369 18.304688 49.767578 C 17.210251 49.473789 15.292964 48.958099 14.044922 48.621094 C 12.796879 48.284089 11.384314 47.905815 10.904297 47.78125 C 10.424281 47.656686 9.5444387 47.419224 8.9492188 47.253906 C 8.420431 47.109194 7.8938503 46.956952 7.3671875 46.804688 L 7.109375 46.345703 C 15.654893 48.692158 13.19666 47.92746 20.888672 50.044922 C 21.423721 50.190152 24.810017 51.129664 26.462891 51.591797 L 27.115234 51.773438 L 27.373047 51.732422 C 27.514784 51.709762 27.746643 51.723009 27.886719 51.761719 L 28.140625 51.832031 L 28.320312 52.044922 C 28.418792 52.161962 28.519372 52.342669 28.544922 52.445312 C 28.570422 52.547956 28.638243 52.664901 28.695312 52.707031 L 28.798828 52.785156 L 28.71875 53.015625 C 28.67455 53.142431 28.638672 53.252807 28.638672 53.261719 C 28.638672 53.307569 29.295699 53.431429 29.755859 53.472656 L 30.279297 53.519531 L 30.541016 53.410156 C 30.684826 53.350066 30.802734 53.275735 30.802734 53.244141 C 30.802734 53.189861 28.974971 52.660243 28.800781 52.664062 C 28.755781 52.665047 28.696982 52.564607 28.669922 52.441406 L 28.621094 52.21875 L 28.699219 52.191406 L 28.777344 52.166016 L 28.736328 52.001953 L 28.695312 51.837891 L 28.808594 51.447266 C 28.871194 51.231866 28.985267 50.944582 29.060547 50.810547 C 29.135847 50.676512 29.196456 50.5133 29.197266 50.447266 C 29.198076 50.381236 29.27899 50.1067 29.375 49.837891 C 29.52493 49.418284 29.603843 49.139153 29.720703 48.617188 C 29.733603 48.559587 29.792796 48.394835 29.853516 48.251953 L 29.964844 47.992188 L 29.810547 47.675781 C 29.726047 47.501853 29.632313 47.359375 29.601562 47.359375 C 29.474992 47.359375 29.55911 47.130735 29.75 46.955078 C 29.86242 46.851639 30.021376 46.59402 30.103516 46.382812 C 30.185616 46.171605 30.379663 45.767466 30.533203 45.486328 L 30.810547 44.976562 L 30.945312 44.195312 C 31.018812 43.766027 31.154234 42.999052 31.246094 42.490234 L 31.412109 41.564453 L 31.316406 41.564453 L 31.21875 41.564453 L 31.236328 41.019531 L 31.255859 40.474609 L 30.824219 39.814453 C 30.586249 39.452034 30.245489 38.841044 30.068359 38.457031 C 29.891219 38.073018 29.670785 37.601952 29.578125 37.408203 L 29.410156 37.054688 L 29.132812 36.931641 C 28.827503 36.796943 28.801927 36.749873 28.742188 36.189453 C 28.682488 35.629217 28.592514 35.341873 28.396484 35.076172 C 28.16928 34.768215 28.032718 34.334492 27.9375 33.615234 L 27.861328 33.03125 L 28.039062 32.666016 L 28.21875 32.298828 L 28.21875 32.033203 L 28.21875 31.765625 L 28.332031 31.640625 L 28.447266 31.513672 L 28.246094 31.441406 C 28.135422 31.400886 28.005033 31.352792 27.957031 31.335938 C 27.799067 31.280468 27.9172 30.859735 28.181641 30.533203 C 28.228291 30.475603 28.33684 30.130438 28.423828 29.765625 C 28.510828 29.400813 28.652744 28.94396 28.740234 28.751953 L 28.900391 28.404297 L 28.871094 27.740234 C 28.854694 27.375422 28.827447 26.070639 28.810547 24.841797 C 28.793647 23.612955 28.7662 22.262259 28.75 21.839844 L 28.720703 21.072266 L 28.630859 20.863281 C 28.581639 20.748077 28.397714 20.51265 28.222656 20.339844 C 27.782132 19.904978 27.432122 19.492987 27.056641 18.966797 C 26.880735 18.720287 26.661795 18.464016 26.570312 18.398438 C 26.355528 18.244474 24.873401 16.538553 24.615234 16.148438 L 24.416016 15.849609 L 24.412109 13.642578 L 24.40625 11.4375 L 24.585938 11.255859 C 24.684358 11.156529 24.802319 11.062753 24.849609 11.046875 L 24.935547 11.017578 L 25.007812 10.214844 C 25.046823 9.7732287 25.10807 9.2704623 25.144531 9.0976562 C 25.180991 8.9248503 25.2149 8.5956424 25.21875 8.3652344 C 25.22255 8.1348264 25.262754 7.8355759 25.308594 7.7011719 L 25.390625 7.4570312 L 25.496094 7.4570312 L 25.601562 7.4570312 L 25.578125 7.8203125 C 25.537575 8.4457345 25.707434 8.6827349 25.806641 8.1386719 C 25.862061 7.8347319 26.163858 7.1855685 26.302734 7.0703125 C 26.333294 7.0449503 26.36483 7.0311979 26.394531 7.0273438 z M 36.492188 31.84375 L 36.222656 32.003906 L 35.953125 32.162109 L 36.150391 32.265625 C 36.258991 32.322525 36.391349 32.410884 36.443359 32.462891 C 36.541959 32.561481 37.015955 32.597222 37.015625 32.505859 C 37.015555 32.477059 36.898206 32.315776 36.753906 32.148438 L 36.492188 31.84375 z M 31.556641 42.822266 C 31.525941 42.822266 31.5005 42.876153 31.5 42.943359 C 31.49944 43.010559 31.477825 43.141968 31.453125 43.234375 L 31.408203 43.402344 L 31.482422 43.357422 C 31.522622 43.332572 31.568284 43.201167 31.583984 43.066406 C 31.599684 42.931646 31.586841 42.822266 31.556641 42.822266 z M 31.404297 43.589844 C 31.389597 43.589844 31.36205 43.66767 31.34375 43.763672 C 31.32545 43.859672 31.338294 43.939453 31.371094 43.939453 C 31.404194 43.939453 31.431641 43.859673 31.431641 43.763672 C 31.431641 43.667672 31.418997 43.589844 31.404297 43.589844 z M 31.640625 49.140625 L 31.640625 49.222656 C 31.640625 49.267626 31.708509 49.580879 31.792969 49.919922 L 31.947266 50.537109 L 31.951172 51.431641 L 31.955078 52.328125 L 32.105469 52.410156 C 32.261559 52.494366 32.6875 52.991667 32.6875 53.089844 C 32.6875 53.152864 32.896546 53.200934 33.228516 53.214844 L 33.457031 53.224609 L 33.455078 52.683594 C 33.454078 51.453641 33.300599 50.689098 33.037109 50.605469 L 32.896484 50.5625 L 32.75 50.242188 L 32.605469 49.921875 L 32.644531 49.722656 C 32.666431 49.61331 32.667984 49.437634 32.646484 49.332031 L 32.607422 49.140625 L 32.123047 49.140625 L 31.640625 49.140625 z M 31.332031 49.693359 C 31.180378 49.729192 30.873047 50.377236 30.873047 50.726562 L 30.873047 50.947266 L 31.060547 51.230469 C 31.336637 51.644599 31.441795 51.757813 31.546875 51.757812 L 31.640625 51.757812 L 31.640625 51.302734 C 31.640625 50.89962 31.474159 49.858284 31.386719 49.716797 C 31.372786 49.694254 31.353696 49.68824 31.332031 49.693359 z M 27.744141 51.90625 L 27.556641 51.914062 L 27.765625 51.96875 C 27.880829 51.99806 27.984227 52.024757 27.996094 52.029297 C 28.007964 52.033797 27.998389 52.00715 27.974609 51.96875 C 27.950879 51.93035 27.847479 51.90171 27.744141 51.90625 z M 27.087891 52.177734 C 26.996231 52.177734 26.822266 52.582707 26.822266 52.796875 C 26.822266 53.237811 27.143016 53.554685 27.601562 53.568359 L 27.785156 53.574219 L 27.775391 53.347656 L 27.765625 53.119141 L 28.097656 53.140625 L 28.429688 53.162109 L 28.429688 52.849609 L 28.429688 52.535156 L 28.306641 52.5 C 27.969571 52.398941 27.133441 52.177734 27.087891 52.177734 z "
       style="fill:#ffaa45;fill-opacity:1;fill-rule:nonzero;stroke:none" />
    <g
       transform="matrix(0.99999706,0,0,-1.0000305,42.88166,22.725396)"
       id="g4899">
      <g
         id="g4903" />
    </g>
  </g>
</svg>
