<?xml version="1.0" encoding="UTF-8" standalone="no"?>
<svg
   xmlns:dc="http://purl.org/dc/elements/1.1/"
   xmlns:cc="http://creativecommons.org/ns#"
   xmlns:rdf="http://www.w3.org/1999/02/22-rdf-syntax-ns#"
   xmlns:svg="http://www.w3.org/2000/svg"
   xmlns="http://www.w3.org/2000/svg"
   xmlns:sodipodi="http://sodipodi.sourceforge.net/DTD/sodipodi-0.dtd"
   xmlns:inkscape="http://www.inkscape.org/namespaces/inkscape"
   height="65"
   width="65"
   id="svg7142"
   version="1.1"
   inkscape:version="0.91 r13725"
   sodipodi:docname="snow_ice_mixed.svg">
  <metadata
     id="metadata7168">
    <rdf:RDF>
      <cc:Work
         rdf:about="">
        <dc:format>image/svg+xml</dc:format>
        <dc:type
           rdf:resource="http://purl.org/dc/dcmitype/StillImage" />
        <dc:title />
      </cc:Work>
    </rdf:RDF>
  </metadata>
  <defs
     id="defs7166" />
  <sodipodi:namedview
     pagecolor="#ffffff"
     bordercolor="#666666"
     borderopacity="1"
     objecttolerance="10"
     gridtolerance="10"
     guidetolerance="10"
     inkscape:pageopacity="0"
     inkscape:pageshadow="2"
     inkscape:window-width="928"
     inkscape:window-height="1028"
     id="namedview7164"
     showgrid="false"
     inkscape:zoom="8.2024387"
     inkscape:cx="26.771347"
     inkscape:cy="31.452942"
     inkscape:window-x="3585"
     inkscape:window-y="24"
     inkscape:window-maximized="0"
     inkscape:current-layer="svg7142" />
  <g
     id="snow_ice_mixed"
     ng-click="editCtrl.pushToArray(route, 'activities', 'snow_ice_mixed', $event)"
     class="activity-icon"
     transform="matrix(1,0,0,-1,-393.96021,76.581278)">
    <title
       id="title7145">snow_ice_mixed</title>
    <g
       id="g5257"
       transform="translate(-6.4,12.8)">
      <g
         id="g5300">
        <g
           id="g238"
           transform="translate(462.07693,31.27282)">
          <path
             style="fill:#ffaa45;fill-opacity:1;fill-rule:nonzero;stroke:none"
             d="m 32.021484,2.7714844 c -16.141,0 -29.2265621,13.0855626 -29.2265621,29.2265626 0,16.141 13.0855621,29.224609 29.2265621,29.224609 16.14,0 29.22461,-13.083609 29.22461,-29.224609 0,-16.141 -13.08461,-29.2265626 -29.22461,-29.2265626 z M 48.514952,9.3904229 C 61.97611,20.101364 63.919947,38.809874 52.052734,51.431641 45.258453,57.838215 35.830443,61.567162 25.528422,59.255994 l 2.241109,-5.076306 c -0.37722,0.05358 -0.709261,0.08314 -0.859375,0.08398 -0.531,0.002 -0.970501,-0.003 -2.1875,-0.08203 -1.216001,-0.08 -2.158203,-0.513672 -2.158203,-0.513672 0,2e-6 -0.09417,-0.377248 -0.07617,-0.65625 0.044,-0.673985 0.363281,-2.080078 0.363281,-2.080078 0.128001,-0.471 0.44486,-1.423469 0.63086,-1.855469 0.344,-0.799 0.40625,-2.146484 0.40625,-2.146484 -0.054,-1.385 1.371703,-4.293141 1.595703,-5.119141 0.223997,-0.826 0.309687,-0.953656 0.179687,-1.597656 -0.129,-0.644 -1.076171,-4.525391 -1.076171,-4.525391 -0.870002,-2.113 -0.419922,-4.044922 -0.419922,-4.044922 0.081,-0.497999 0.429687,-1.480469 0.429687,-1.480469 -0.095,0.006 -1.359546,0.192219 -1.810547,0.07422 -0.451999,-0.117998 -0.986328,-0.595703 -0.986328,-0.595703 l -0.61914,-0.386719 c 0,0 -0.146688,-0.147718 -0.304688,-0.261718 0,0 -1.01264,-0.581438 -0.931641,-0.898438 0,0 -1.002406,-3.289048 0.558594,-5.748047 0.193,-0.305 0.362657,-0.686892 0.847656,-1.337891 0.485001,-0.650004 0.888626,-0.564781 1.640626,-1.550781 0.751999,-0.986 0.599453,-0.911843 1.064453,-1.714843 0.463999,-0.802999 0.886718,-1.009766 0.886718,-1.009766 0,0 0.593766,-0.457719 0.759766,-0.511719 0.167,-0.055 0.47575,-0.230797 0.71875,-0.216797 0.242,0.014 0.498718,0.09406 0.636719,0.164063 0.231999,0.11 1.316125,0.726547 1.203125,0.06055 -0.111999,-0.666 0.04847,-1.67775 0.355469,-1.96875 0.306999,-0.291 1.470734,-0.682188 1.927734,-0.742188 C 31.001922,13.456579 31.482,13.601 32.25,14 c 0.768,0.399 0.483578,1.895078 1.017578,1.955078 0.533999,0.06 0.44336,0.59961 0.44336,0.59961 0.093,0.409 -0.240235,0.623046 -0.240235,0.623046 0.07601,0.11 -0.04503,0.44561 -0.08203,0.72461 -0.038,0.278999 0.01592,0.812876 0.04492,1.171875 0.031,0.358003 -0.47461,0.439453 -0.47461,0.439453 0,0 -0.655687,0.09797 0.570313,0.917969 0.092,0.062 0.293578,0.160234 0.517578,0.240234 0.225,0.08 0.334891,-0.108219 0.837891,-0.199219 0.505002,-0.091 1.201047,-0.0525 1.873046,-0.1875 0.672,-0.135 1.657781,-0.574095 2.050782,-0.746094 0.393999,-0.172999 0.740578,-0.419827 1.017578,-0.548828 0.276,-0.128 0.320016,-0.06545 0.416016,-0.314453 0.075,-0.196 0.283967,-0.314125 0.542968,-0.453125 0.225,-1.37 0.908063,-5.436062 1.164063,-5.914062 0,0 0.06439,-0.588157 -0.34961,-0.535156 -0.414,0.053 -0.925781,0.216796 -0.925781,0.216796 0,0 -1.081156,-0.186173 -0.535156,-0.326172 l 1.49414,-0.248046 c 0,0 6.72e-4,0.07739 0.263672,0.02539 0,0 1.747766,0.08007 1.759766,0.289063 0,3e-6 0.975938,1.659922 1.460938,2.294922 -1e-6,0 -0.822456,-0.417439 -1.939454,-1.023438 0,-2e-5 -0.03586,-0.517984 -0.255859,0.04102 -0.209,0.528001 -1.085781,3.108983 -1.175781,5.458984 0.026,0.058 0.232906,0.290828 0.253906,0.298828 -0.0034,-0.0012 -0.01172,-0.0039 -0.01172,-0.0039 0.541,0.193 -0.3155,0.502266 0.0625,0.822266 0.377003,0.322 -0.126953,0.77539 -0.126953,0.77539 -0.163,0.492002 -0.675765,0.638032 -0.759766,0.582031 -0.084,-0.057 -0.672765,-0.126578 -1.009765,-0.142578 -0.337,-0.016 -0.947172,0.272625 -1.326172,0.515625 -0.38,0.243 -1.604141,1.064203 -2.119141,1.408203 -0.515001,0.342999 -2.044922,0.722657 -2.044922,0.722657 0.128001,0.121003 0.311625,1.292065 0.390626,1.539062 0.100999,0.314001 0.124467,0.526594 0.230468,0.808594 0.101999,0.273 0.352219,0.505859 0.449219,0.755859 0.087,0.224 0.34675,0.629469 0.46875,0.980469 0.123,0.350999 0.420406,1.104672 0.566406,1.513672 0.143003,0.41 0.288689,0.56778 0.429688,0.800781 0.141,0.231999 0.914156,1.120828 0.910156,1.048828 -0.003,-0.072 -0.04619,-0.03476 0.257813,-0.384765 0.124359,-0.143397 0.304079,-0.243793 0.476562,-0.320313 z M 32.714844,26.935547 c -0.06588,0.03113 -0.132813,0.166015 -0.132813,0.166015 0.029,0.349001 -0.449219,1.238282 -0.449219,1.238282 l -0.355468,0.466797 c -0.485001,0.338 -0.603953,1.455156 -0.626953,1.660156 -0.186,1.608 0.322265,2.439453 0.322265,2.439453 0.102,0.147 0.285376,0.433532 0.484375,1.269531 0.199001,0.837 0.629547,1.88811 0.935547,2.78711 0.306047,0.898 0.293547,1.620671 0.310547,2.013671 0.016,0.393001 -0.708375,1.718469 -1.234375,2.480469 l -0.814453,1.613281 c -0.36,0.941001 0.01673,1.176047 0.177734,1.248047 0.161001,0.072 0.229485,0.152282 0.271485,0.363282 0.043,0.211 -0.332703,0.371187 -0.470704,0.617187 -0.138999,0.248002 0.01981,0.830469 0.257813,0.980469 0.0033,0.0021 0.01974,0.01518 0.02344,0.01758 L 37.810547,32.457031 C 37.55345,32.455031 37.428765,32.330696 37.322266,32.253906 37.175268,32.147905 36.917018,31.961 36.666016,31.75 36.415017,31.54 36.256797,31.206469 35.716797,30.855469 35.176797,30.50447 33.508,28.334016 33.25,28.041016 c -0.257,-0.292 -0.367063,-0.384 -0.414062,-0.875 -0.01175,-0.123 -0.03267,-0.18969 -0.05859,-0.21875 -0.01944,-0.0218 -0.04054,-0.0221 -0.0625,-0.01172 z m -4.75586,21.755859 c -0.446417,-0.01142 -0.873109,0.04975 -1.146484,0.25 -0.123,0.170999 -0.248391,0.279641 -0.275391,0.556641 -0.028,0.276996 0.04542,0.113404 0.232422,0.316406 0.187018,0.202998 0.02941,0.307453 -0.05859,0.439453 -0.088,0.134 -0.115438,0.149094 -0.02344,0.246094 0.093,0.096 0.15539,0.104062 0.275391,0.289062 0.120999,0.183999 0.336672,0.526813 0.638671,0.632813 0.304001,0.106 0.62111,0.230219 1.03711,0.324219 0.101647,0.02332 0.170412,0.03826 0.226562,0.06445 l 1.234375,-2.667969 c -0.115578,-0.03598 -0.232899,-0.06674 -0.347656,-0.113281 -0.248125,-0.1 -1.048946,-0.318851 -1.79297,-0.337888 z"
             transform="matrix(1,0,0,-1,-61.24564,31.997114)"
             id="path240"
             inkscape:connector-curvature="0"
             sodipodi:nodetypes="ssssscccccccccccscccccccccccsccccccscssccccccccscccccsccccccccccccccsccccccccccccccccccccccccscccccccsccccscccccccccccs" />
        </g>
      </g>
    </g>
    <text
       xml:space="preserve"
       style="font-style:normal;font-weight:normal;font-size:12px;line-height:125%;font-family:sans-serif;letter-spacing:0px;word-spacing:0px;fill:#000000;fill-opacity:1;stroke:none;stroke-width:1px;stroke-linecap:butt;stroke-linejoin:miter;stroke-opacity:1"
       x="396.96906"
       y="-5.8529134"
       id="text4346"
       transform="scale(1,-1)"
       sodipodi:linespacing="125%"><tspan
         x="0"
         y="0"
         id="tspan4348"><tspan
           x="396.96906"
           y="-5.8529134"
           style="font-size:8px;line-height:122.00000286%"
           id="tspan4350" /></tspan></text>
  </g>
</svg>
