<?xml version="1.0" encoding="UTF-8" standalone="no"?>
<svg
   xmlns:dc="http://purl.org/dc/elements/1.1/"
   xmlns:cc="http://creativecommons.org/ns#"
   xmlns:rdf="http://www.w3.org/1999/02/22-rdf-syntax-ns#"
   xmlns:svg="http://www.w3.org/2000/svg"
   xmlns="http://www.w3.org/2000/svg"
   xmlns:sodipodi="http://sodipodi.sourceforge.net/DTD/sodipodi-0.dtd"
   xmlns:inkscape="http://www.inkscape.org/namespaces/inkscape"
   height="65"
   width="65"
   id="svg5707"
   version="1.1"
   inkscape:version="0.91 r13725"
   sodipodi:docname="snowshoeing.svg">
  <metadata
     id="metadata5721">
    <rdf:RDF>
      <cc:Work
         rdf:about="">
        <dc:format>image/svg+xml</dc:format>
        <dc:type
           rdf:resource="http://purl.org/dc/dcmitype/StillImage" />
        <dc:title />
      </cc:Work>
    </rdf:RDF>
  </metadata>
  <defs
     id="defs5719" />
  <sodipodi:namedview
     pagecolor="#ffffff"
     bordercolor="#666666"
     borderopacity="1"
     objecttolerance="10"
     gridtolerance="10"
     guidetolerance="10"
     inkscape:pageopacity="0"
     inkscape:pageshadow="2"
     inkscape:window-width="928"
     inkscape:window-height="1028"
     id="namedview5717"
     showgrid="false"
     inkscape:zoom="10.269366"
     inkscape:cx="22.453828"
     inkscape:cy="23.573544"
     inkscape:window-x="3585"
     inkscape:window-y="24"
     inkscape:window-maximized="0"
     inkscape:current-layer="svg5707" />
  <g
     id="snowshoeing"
     ng-click="editCtrl.pushToArray(route, 'activities', 'snowshoeing', $event)"
     class="activity-icon"
     transform="matrix(1,0,0,-1,-96.80275,76.732543)">
    <title
       id="title5710">snowshoeing</title>
    <g
       id="g5283"
       transform="translate(-6.4,11.2)">
      <g
         transform="translate(164.91963,33.02392)"
         id="g24">
        <path
           style="fill:#ffaa45;fill-opacity:1;fill-rule:nonzero;stroke:none"
           d="m 31.695312,3.4121094 c -16.140999,0 -29.226562,13.0855626 -29.226562,29.2265626 0,16.141 13.085563,29.224609 29.226562,29.224609 16.140001,0 29.22461,-13.083609 29.22461,-29.224609 0,-16.141 -13.084609,-29.2265626 -29.22461,-29.2265626 z m 4.384766,6.9472656 c 1.224121,0.07647 2.06836,1.046875 2.06836,1.046875 0.149999,0.522 0.360484,1.044906 0.646484,1.503906 0.467,0.749 0.337375,1.445063 -0.01563,2.164063 -0.11,0.223 -0.323828,0.462875 -0.298828,0.671875 0.06,0.499 -0.109766,0.908218 -0.509766,1.074218 -0.514,0.213 -0.242047,1.11525 -0.998047,1.03125 -0.01,0.399 -0.07691,0.845594 -0.0039,1.183594 0.566,2.629 0.294922,5.330078 0.294922,5.330078 -0.082,0.087 -0.07764,0.286782 -0.05664,0.425782 0.008,0.057 0.164906,0.132859 0.253907,0.130859 0.41,-0.007 0.832968,0.110453 1.167968,-0.310547 0.536,-0.672 1.294172,-0.253015 1.951172,-0.291016 0.228,-0.013 0.413047,1.097501 0.248047,1.3125 -0.311,0.407001 -0.536547,1.044641 -0.935547,1.181641 -0.575,0.197 -0.802844,0.665703 -1.214844,0.970703 -0.345,0.255 -0.266375,0.503203 0.01563,0.783203 0.279,0.279 0.54025,0.375532 0.78125,0.01953 0.284,-0.422 0.672141,-0.4455 1.119141,-0.4375 0.343,0.006 0.462891,0.116937 0.462891,0.460937 -0.001,0.187 0.102265,0.385594 0.197265,0.558594 0.239,0.44 0.170391,0.801469 -0.224609,1.105469 -0.204,0.156 -0.390188,0.351937 -0.617188,0.460937 -0.543,0.261 -0.85375,0.670563 -1.09375,1.226563 -0.493,1.142 -0.841593,2.340218 -1.433593,3.449218 -0.212,0.398 -0.117204,0.974672 0.0918,1.513672 0.527,1.357 0.783954,2.80275 1.126954,4.21875 0.199,0.823 0.155828,1.459953 0.04883,2.501953 -0.813,7.865 1.091797,7.392578 1.091797,7.392578 0.501,-0.402999 0.731156,-0.221328 1.035156,0.138672 0.334,0.395 1.177797,0.09653 1.216797,0.894532 0.253,-0.037 0.520812,-0.03323 0.757812,-0.115235 0.704,-0.246 1.404797,-0.509781 2.091797,-0.800781 0.417,-0.177 0.581344,0.136516 0.777344,0.353516 0.242,0.267 0.310375,0.539515 0.109375,0.728515 -1.152,1.081 -2.687469,1.951453 -4.355469,1.939453 -3.715,-0.028 -7.432484,-0.04552 -11.146484,0.02148 -0.715,0.013 -1.294797,-0.345516 -1.966797,-0.353516 -0.445,-0.005 -0.336688,-0.355125 -0.304688,-0.578125 0.02,-0.143 0.200844,-0.438109 0.339844,-0.537109 0.071,-0.051 0.209406,-0.0038 0.316406,-0.0098 1.733,-0.107 3.464266,-0.215266 5.197266,-0.322265 0.053,-0.003 0.112109,0.01205 0.162109,-0.002 0.433,-0.124 0.956391,-0.14225 1.275391,-0.40625 0,0 0.372703,0.01458 -0.529297,-2.732422 -0.257,-0.783 -0.249687,-1.632125 -0.304687,-2.453124 -0.054,-0.804 -0.0035,-1.614876 -0.01953,-2.421876 -0.002,-0.122999 -0.114781,-0.245187 -0.175781,-0.367187 -0.114,0.114 -0.283984,0.208703 -0.333984,0.345703 -0.42,1.173 -0.842578,2.340844 -1.392578,3.464844 -0.127,0.259 0.01683,0.72925 0.173828,1.03125 0.291,0.557 0.04717,0.686094 -0.423828,0.621094 -0.615,-0.084 -0.284438,0.614656 -0.648438,0.722656 -0.122,0.036 -0.22975,0.116781 -0.34375,0.175781 -0.027,-0.096 -0.106312,-0.245203 -0.07031,-0.283203 0.383,-0.408 0.351484,-0.752844 0.02148,-1.214844 -0.149,-0.208 -0.206281,-0.915875 0.511719,-0.421875 0.025,0.017 0.294312,-0.196125 0.320312,-0.328125 0.19,-0.997 0.771313,-1.838062 1.070313,-2.789062 0.025,-0.081 -0.03308,-0.199157 -0.08008,-0.285156 -0.009,-0.017 -0.162844,0.01064 -0.214844,0.05664 0,0 -5.379844,3.090094 -5.839844,3.496094 0.169,0.078 0.364953,0.253797 0.501953,0.216797 0.38,-0.104 0.737563,-0.294078 1.101563,-0.455078 0.364,-0.162 0.716843,-0.349375 1.089843,-0.484375 0.127,-0.045 0.299172,0.03655 0.451172,0.06055 -0.056,0.115001 -0.08088,0.501454 -0.171875,0.564454 -0.625,0.432 -1.280625,0.821437 -1.890625,1.273437 -0.364,0.27 -0.938343,0.402375 -0.777343,1.109375 0.072,0.317 -0.442719,0.576406 -0.761719,0.441406 -1.012,-0.428 -1.323719,-0.340218 -2.761719,-0.199218 l -8.228515,0.851562 c -0.298001,0.023 -0.633094,0.0647 -0.871094,0.220703 -0.418,0.273 -0.632344,-0.242328 -0.777344,-0.486328 -0.237,-0.403 0.220875,-0.55375 0.421875,-0.59375 l 10.154297,-1.617187 c 0.61,-0.083 0.666203,-0.108 0.408203,-0.75 -0.268,-0.665 -0.316406,-1.372578 -0.941406,-1.892578 -0.205,-0.171 -0.196391,-0.691204 -0.150391,-1.033204 0.024,-0.18 0.340391,-0.320515 0.525391,-0.478515 0,0 5.075172,-2.515703 6.201172,-4.720703 0.455,-0.889 0.864625,-1.807344 1.390625,-2.652344 0.257,-0.411 0.262422,-0.663 0.107422,-1.125 -0.496001,-1.481 -1.251235,-2.831594 -1.990235,-4.183594 -0.298,-0.545 -0.451656,-1.327375 -0.472656,-2.109375 -0.049,0.028 -0.08594,0.05078 -0.08594,0.05078 -0.094,0.008 -1.349687,0.236766 -1.804687,0.134766 -0.456,-0.103 -1.00586,-0.560547 -1.00586,-0.560547 L 26.5,29.822266 c 0,0 -0.1505,-0.142954 -0.3125,-0.251954 0,0 -1.032891,-0.544281 -0.962891,-0.863281 0,0 -1.112718,-3.253625 0.363282,-5.765625 0.183,-0.311 0.337781,-0.700187 0.800781,-1.367187 0.462,-0.666 0.867937,-0.592516 1.585937,-1.603516 0.717,-1.011 0.56886,-0.933953 1.00586,-1.751953 0.437,-0.819 0.851562,-1.037109 0.851562,-1.037109 0,0 0.576235,-0.47811 0.740235,-0.53711 0.165,-0.061 0.46989,-0.248187 0.71289,-0.242187 0.243,0.005 0.501578,0.07758 0.642578,0.142578 0.144,0.063 0.615735,0.304125 0.927735,0.328125 0.695,-0.704 0.935812,-1.575813 0.757812,-2.632813 -0.101,-0.603 0.190125,-1.252125 -0.296875,-1.828125 -0.104,-0.124 0.06995,-0.620265 0.251953,-0.822265 0.906,-1.00125 1.777246,-1.276348 2.511719,-1.230469 z m 1.626953,17.214844 c -0.076,0.017 -0.14675,0.06556 -0.21875,0.101562 l 0.115235,0.115235 c 0.068,-0.038 0.137984,-0.07624 0.208984,-0.115235 -0.036,-0.036 -0.07847,-0.107562 -0.105469,-0.101562 z m 0.13086,2.519531 c -0.08283,-0.0049 -0.1685,0.01586 -0.25,0.06836 -0.62,0.398 -0.891266,1.053907 -0.697266,1.753907 0.052,0.187 0.284766,0.487812 0.259766,0.507812 -0.753,0.575 0.180734,1.105641 0.05273,1.681641 -0.048,0.216 0.320047,0.525015 0.498047,0.791015 0.037,-0.252 0.03309,-0.519953 0.121094,-0.751953 0.105,-0.275 0.319593,-0.50825 0.433593,-0.78125 0.324,-0.775 0.621735,-1.558984 0.927735,-2.333984 -0.097,-0.241 -0.169188,-0.423469 -0.242188,-0.605469 -0.074,0.183 -0.114328,0.396109 -0.236328,0.53711 -0.076,0.087 -0.276875,0.0648 -0.421875,0.0918 0.016,-0.113 0.04797,-0.226843 0.04297,-0.339843 -0.01575,-0.35475 -0.239797,-0.604563 -0.488281,-0.619141 z m -4.970703,8.146484 c -0.075,0.033 -0.203797,0.05156 -0.216797,0.101563 -0.285,1.082 -1.144547,1.847515 -1.560547,2.853515 -0.051,0.123001 -0.0088,0.285688 -0.0098,0.429688 0.112,-0.04 0.222938,-0.08114 0.335938,-0.119141 0.33,-0.113 0.58514,-0.186593 0.61914,-0.683593 0.031,-0.453 0.399516,-0.878219 0.603516,-1.324219 0.142,-0.312 0.258375,-0.637625 0.359375,-0.890625 -0.064,-0.182 -0.09786,-0.274188 -0.130859,-0.367188 z"
           transform="matrix(1,0,0,-1,-60.91963,32.637904)"
           id="path26"
           inkscape:connector-curvature="0" />
      </g>
      <g
         transform="translate(141.20323,31.55672)"
         id="g28" />
    </g>
  </g>
</svg>
