<?xml version="1.0" encoding="UTF-8" standalone="no"?>
<svg
   xmlns:dc="http://purl.org/dc/elements/1.1/"
   xmlns:cc="http://creativecommons.org/ns#"
   xmlns:rdf="http://www.w3.org/1999/02/22-rdf-syntax-ns#"
   xmlns:svg="http://www.w3.org/2000/svg"
   xmlns="http://www.w3.org/2000/svg"
   xmlns:sodipodi="http://sodipodi.sourceforge.net/DTD/sodipodi-0.dtd"
   xmlns:inkscape="http://www.inkscape.org/namespaces/inkscape"
   height="65"
   width="65"
   id="svg6657"
   version="1.1"
   inkscape:version="0.91 r13725"
   sodipodi:docname="via_ferrata.svg">
  <metadata
     id="metadata6684">
    <rdf:RDF>
      <cc:Work
         rdf:about="">
        <dc:format>image/svg+xml</dc:format>
        <dc:type
           rdf:resource="http://purl.org/dc/dcmitype/StillImage" />
        <dc:title />
      </cc:Work>
    </rdf:RDF>
  </metadata>
  <defs
     id="defs6682" />
  <sodipodi:namedview
     pagecolor="#ffffff"
     bordercolor="#666666"
     borderopacity="1"
     objecttolerance="10"
     gridtolerance="10"
     guidetolerance="10"
     inkscape:pageopacity="0"
     inkscape:pageshadow="2"
     inkscape:window-width="928"
     inkscape:window-height="1028"
     id="namedview6680"
     showgrid="false"
     inkscape:zoom="11.6"
     inkscape:cx="19.635264"
     inkscape:cy="36.597124"
     inkscape:window-x="3585"
     inkscape:window-y="24"
     inkscape:window-maximized="0"
     inkscape:current-layer="svg6657" />
  <g
     id="via_ferrata"
     ng-click="editCtrl.pushToArray(route, 'activities', 'via_ferrata', $event)"
     class="activity-icon"
     transform="matrix(0.99999706,0,0,-1.0000305,-394.45415,166.54537)">
    <title
       id="title6660">via_ferrata</title>
    <g
       id="g4319"
       transform="translate(-6.4,27.2)">
      <g
         id="g5228">
        <g
           id="g86"
           transform="translate(461.45203,107.52282)">
          <path
             style="fill:#ffaa45;fill-opacity:1;fill-rule:nonzero;stroke:none"
             d="m -28.104152,28.534576 c -16.141,0 -29.226563,-13.083609 -29.226563,-29.22460919 0,-16.14099981 13.085563,-29.22460981 29.226563,-29.22460981 16.14,1e-6 29.2246087,13.08361 29.2246087,29.22460981 0,16.14100019 -13.0846087,29.22460919 -29.2246087,29.22460919 z m 11.854437,-3.461619 C 8.5310197,10.340126 3.3164317,-21.37836 -23.439468,-28.895422 c 0.634554,1.437577 1.642399,3.258066 2.532581,4.617498 0.123381,0.185072 0.355078,0.4177 0.630859,0.712891 l -8.115234,0 c -0.642,0 -1.167969,0.524014 -1.167969,1.166016 0,0.411683 0.229663,0.759163 0.554688,0.966796 -0.323816,0.0081 -0.64696,0.01771 -0.970703,0.01953 -0.359,0.002 -0.574828,0.08695 -0.548828,0.501953 0.046,0.752 -0.295625,1.446297 -0.01563,2.279297 0.262,0.781 -0.219563,1.697359 -0.601563,2.443359 -0.642,1.252 -1.163828,2.501594 -1.173828,3.933594 -0.002,0.218 -0.112813,0.479484 -0.257812,0.646484 -0.433,0.499 -0.893001,0.975781 -1.375,1.425781 -2e-6,0 -2.92325,2.4888278 -3.78125,3.1738278 -0.702,0.560001 -1.463016,1.145782 -1.916016,1.925782 -1.218,2.095 0.152344,4.29101501 0.152344,4.29101501 0.44,0.803 0.35625,1.639907 0.03125,2.50390699 -1.553,4.14 -0.210938,6.632812 -0.210938,6.632812 0.236,0.489 0.5495,0.865485 0.0625,1.5214839 -0.362,0.4880003 -0.553672,1.1718603 -0.888672,1.7558603 -0.465,0.813 -0.586797,1.832891 -0.341797,2.71289 0.38,1.358002 3.10536,2.210547 4.31836,1.435547 0.268,-0.171 0.423234,-0.52464 0.615234,-0.80664 0.133,-0.195 0.193234,-0.465469 0.365235,-0.605469 0.554999,-0.453 0.778406,-0.982937 0.691406,-1.710938 -0.063,-0.515999 0.136406,-0.611718 0.566406,-0.386718 1.304,0.681 2.859875,2.181092 3.796875,3.621094 0.162,0.247999 0.425859,0.426437 0.630859,0.648437 1.617,1.76 3.599625,3.068031 5.515625,4.457031 0.482029,0.349114 1.29077,1.483556 1.866877,1.41909 0.04628,0.0056 0.08703,0.02734 0.134766,0.02734 l 5.552734,0 c 0.175491,1.075601 0.536389,2.638822 0.536394,2.638824 z m -7.36225,-5.360646 c -0.08748,-0.12605 -0.170168,-0.256462 -0.275391,-0.365235 -0.307,-0.316 -0.817375,0.05192 -1.234375,-0.330078 -0.846,-0.776 -1.353843,-1.801297 -2.089843,-2.654297 -0.187,-0.217 -0.350985,-0.564781 -0.583985,-0.800781 -0.572,-0.579 -1.206281,-1.097984 -1.738281,-1.708984 l -2.773438,-3.166016 c -1.129,-1.0940003 -1.113593,-2.4559222 -1.558593,-3.5449222 -0.039,-0.095 0.04281,-0.324047 0.132812,-0.373047 0.618,-0.34 1.253813,-0.648797 1.882813,-0.966797 0.803,0.436 1.67514,0.03308 2.49414,0.205079 1.348,0.282999 2.68325,0.622343 4.03125,0.902343 0.615,0.128 1.248047,0.216563 1.873047,0.226563 0.245,0.004 0.518469,-0.225297 0.730469,-0.404297 0.08503,-0.07239 0.128535,-0.199256 0.158203,-0.328125 l 6.058594,0 c -0.04078,0.159005 -0.07915,0.36531 -0.117188,0.503906 -0.464,1.687 -0.535593,4.5635472 -0.933593,6.6855472 -0.397,2.122 -0.079,4.590297 0,4.779297 0.01036,0.02461 0.08987,0.528123 0.121093,0.693359 l -5.148437,0 c -0.452742,0 -0.836016,0.267394 -1.029297,0.646485 z m -0.04883,-14.0429692 c -0.01558,-0.02837 -0.03096,-0.04637 -0.04687,-0.07813 -0.151,-0.302 -0.858281,-0.127031 -1.238281,-0.08203 -0.888,0.107 -1.589766,-0.214703 -2.384766,-0.470703 -1.028,-0.331002 -1.966797,-0.922344 -3.091797,-1.027344 -0.426,-0.039 -0.751937,-0.125469 -1.210937,0.01953 -0.597,0.188 -1.29075,0.06798 -2.09375,0.08398 0.028,-0.674 0.04827,-1.175343 0.07227,-1.777343 0.228,0.083 0.556828,0.132687 0.798828,0.304687 0.873,0.622 1.844766,0.829047 2.884766,0.748047 0.986,-0.077 1.70925,-0.628312 1.78125,-1.570312 0.1,-1.31800099 0.427453,-2.59835999 0.439453,-3.94336 0.012,-1.382 -0.0076,-2.824109 0.523438,-4.162109 0.102,-0.26 0.288734,-0.695406 0.427734,-0.691407 0.51,0.012 0.716891,-0.345765 0.962891,-0.634765 0.23,-0.27 0.492828,-0.276641 0.798828,-0.306641 0.648,-0.064 1.224281,-0.311234 1.613281,-0.865234 0.08204,-0.116021 0.119076,-0.264139 0.164063,-0.40625 l 2.433593,0 c -0.05086,0.789747 -0.08008,1.489528 -0.08008,1.912109 0,1.5 0.74925,3.249328 3.15625,6.236328 1.394645,1.73142401 1.694496,3.551461 1.621094,5.111329 l -6.453125,0 c -0.642,-1e-6 -1.167969,0.525968 -1.167969,1.167968 0,0.15269 0.03578,0.297643 0.08984,0.43165 z m -7.412109,-6.13671899 c -0.125002,-0.121 -0.254094,-0.235281 -0.371094,-0.363281 -0.025,-0.029 1.87e-4,-0.101391 -0.0078,-0.150391 -0.139,-0.83900001 -0.145031,-0.81046801 -0.957031,-0.98046801 -0.642,-0.135 -1.267437,-0.350297 -1.898438,-0.529297 0.371,-1.272 2.032735,-3.908891 2.552735,-4.962891 0.499,-0.968 0.983594,-2.320594 1.933594,-3.0585938 0.114,-0.089 0.127093,-0.359922 0.121093,-0.544922 -0.032,-0.933 0.07666,-1.821281 0.347657,-2.738281 0.297,-1.01 0.263875,-2.113922 0.421875,-3.169922 0.077,-0.511 0.309859,-0.998765 0.380859,-1.509765 0.095,-0.681 0.539797,-1.000954 1.091797,-1.251954 0.342,-0.154999 0.736531,-0.239796 1.019531,-0.466796 0.34,-0.271 0.865406,-0.710235 0.816406,-0.990235 -0.0035,-0.02025 -0.01292,-0.03064 -0.01758,-0.04883 l 6.923828,0 c 0.309018,0.73934 0.530333,1.616264 0.517579,2.705078 -0.042,3.5 -0.458985,1.999625 -1.458985,3.515625 -0.458402,0.695397 -0.753946,2.066155 -0.945312,3.488282 l -5.789063,0 c -0.642,0 -1.167969,0.525968 -1.167969,1.167968 0,0.4174628 0.235707,0.7685298 0.56836,0.9746098 -0.573784,0.01078 -1.171022,0.01916 -1.728516,0.0293 -0.644,1.228001 -0.10125,2.614891 -0.65625,3.837891 -0.296,0.872 -0.318922,0.837656 -0.544922,1.472656 -0.459,1.023 -0.941578,2.060578 -0.892578,3.26757901 0.004,0.099 -0.168766,0.20364 -0.259765,0.30664 z"
             id="path88"
             inkscape:connector-curvature="0"
             sodipodi:nodetypes="sssssccccsscccccccccccccccccccccccccsccccccccccccccccccccccsccccccccccccccccccccsccssccccccccccccccccccccssccccccc" />
        </g>
        <g
           id="g90"
           transform="translate(-54.576271,-166.00678)">
          <g
             id="g92"
             clip-path="url(#clipPath94)">
            <g
               id="g98"
               transform="translate(499.4168,304.5395)" />
          </g>
        </g>
        <g
           id="g110"
           transform="translate(428.57673,100.75792)" />
      </g>
      <g
         transform="translate(444.13683,84.64732)"
         id="g114" />
      <g
         transform="translate(446.13683,96.68892)"
         id="g118" />
      <g
         transform="translate(449.94543,112.28272)"
         id="g122" />
      <g
         transform="translate(447.94543,127.27792)"
         id="g126" />
    </g>
  </g>
</svg>
