<?xml version="1.0" encoding="UTF-8" standalone="no"?>
<!-- Created with Inkscape (http://www.inkscape.org/) -->

<svg
   xmlns:dc="http://purl.org/dc/elements/1.1/"
   xmlns:cc="http://creativecommons.org/ns#"
   xmlns:rdf="http://www.w3.org/1999/02/22-rdf-syntax-ns#"
   xmlns:svg="http://www.w3.org/2000/svg"
   xmlns="http://www.w3.org/2000/svg"
   xmlns:sodipodi="http://sodipodi.sourceforge.net/DTD/sodipodi-0.dtd"
   xmlns:inkscape="http://www.inkscape.org/namespaces/inkscape"
   width="65"
   height="65"
   viewBox="0 0 65.000001 65.000001"
   id="svg4604"
   version="1.1"
   inkscape:version="0.91 r13725"
   sodipodi:docname="access.svg">
  <defs
     id="defs4606">
    <clipPath
       clipPathUnits="userSpaceOnUse"
       id="clipPath286">
      <path
         d="m 513.739,235.444 21.56,0 0,25.556 -21.56,0 0,-25.556 z"
         id="path288"
         inkscape:connector-curvature="0" />
    </clipPath>
    <clipPath
       clipPathUnits="userSpaceOnUse"
       id="clipPath406">
      <path
         d="m 57.255,313.364 43.245,0 0,29.167 -43.245,0 0,-29.167 z"
         id="path408"
         inkscape:connector-curvature="0" />
    </clipPath>
  </defs>
  <sodipodi:namedview
     id="base"
     pagecolor="#ffffff"
     bordercolor="#666666"
     borderopacity="1.0"
     inkscape:pageopacity="0.0"
     inkscape:pageshadow="2"
     inkscape:zoom="2.8"
     inkscape:cx="27.271625"
     inkscape:cy="5.826634"
     inkscape:document-units="px"
     inkscape:current-layer="g366"
     showgrid="false"
     units="px"
     inkscape:window-width="768"
     inkscape:window-height="848"
     inkscape:window-x="75"
     inkscape:window-y="24"
     inkscape:window-maximized="0" />
  <metadata
     id="metadata4609">
    <rdf:RDF>
      <cc:Work
         rdf:about="">
        <dc:format>image/svg+xml</dc:format>
        <dc:type
           rdf:resource="http://purl.org/dc/dcmitype/StillImage" />
        <dc:title />
      </cc:Work>
    </rdf:RDF>
  </metadata>
  <g
     inkscape:label="Layer 1"
     inkscape:groupmode="layer"
     id="layer1"
     transform="translate(0,-987.36216)">
    <g
       id="g366"
       transform="matrix(2.4020272,0,0,-2.4020272,56.871411,1023.9494)">
      <path
         d="m 0,0 0,12.855 c 0,0 0,0.801 -0.796,0.801 -0.575,0 -0.735,-0.406 -0.782,-0.641 -2.566,0.368 -3.429,-0.961 -5.621,-0.961 -2.398,0 -4,0.813 -4,0.813 l 0,-6.258 c 0,0 1.602,-0.953 4,-0.953 2.184,0 3.051,1.32 5.602,0.957 L -1.597,0 C -2.976,-0.18 -4,-0.797 -4,-1.543 c 0,-0.133 0.043,-0.254 0.102,-0.379 l -9.141,-3.656 c -0.992,0.515 -2.308,0.836 -3.757,0.836 -3.094,0 -5.602,-1.434 -5.602,-3.204 0,-1.765 2.508,-3.199 5.602,-3.199 3.093,0 5.597,1.434 5.597,3.199 0,0.43 -0.148,0.84 -0.418,1.211 l 9.403,3.762 c 0.429,-0.105 0.906,-0.172 1.418,-0.172 1.765,0 3.199,0.719 3.199,1.602 C 2.403,-0.797 1.379,-0.18 0,0"
         style="fill:#ffaa45;fill-opacity:1;fill-rule:nonzero;stroke:none"
         id="path368"
         inkscape:connector-curvature="0" />
    </g>
  </g>
</svg>
