<?xml version="1.0" encoding="UTF-8" standalone="no"?>
<!-- Created with Inkscape (http://www.inkscape.org/) -->

<svg
   xmlns:dc="http://purl.org/dc/elements/1.1/"
   xmlns:cc="http://creativecommons.org/ns#"
   xmlns:rdf="http://www.w3.org/1999/02/22-rdf-syntax-ns#"
   xmlns:svg="http://www.w3.org/2000/svg"
   xmlns="http://www.w3.org/2000/svg"
   xmlns:sodipodi="http://sodipodi.sourceforge.net/DTD/sodipodi-0.dtd"
   xmlns:inkscape="http://www.inkscape.org/namespaces/inkscape"
   width="65"
   height="65"
   viewBox="0 0 65.000001 65.000001"
   id="svg2"
   version="1.1"
   inkscape:version="0.91 r13725"
   sodipodi:docname="base_camp.svg">
  <defs
     id="defs4">
    <clipPath
       clipPathUnits="userSpaceOnUse"
       id="clipPath304">
      <path
         d="m 0,368 595.28,0 0,-368 L 0,0 0,368 Z"
         id="path306"
         inkscape:connector-curvature="0" />
    </clipPath>
  </defs>
  <sodipodi:namedview
     id="base"
     pagecolor="#ffffff"
     bordercolor="#666666"
     borderopacity="1.0"
     inkscape:pageopacity="0.0"
     inkscape:pageshadow="2"
     inkscape:zoom="5.6"
     inkscape:cx="1.4591576"
     inkscape:cy="15.245742"
     inkscape:document-units="px"
     inkscape:current-layer="layer1"
     showgrid="false"
     units="px"
     inkscape:window-width="1855"
     inkscape:window-height="1056"
     inkscape:window-x="1665"
     inkscape:window-y="24"
     inkscape:window-maximized="1" />
  <metadata
     id="metadata7">
    <rdf:RDF>
      <cc:Work
         rdf:about="">
        <dc:format>image/svg+xml</dc:format>
        <dc:type
           rdf:resource="http://purl.org/dc/dcmitype/StillImage" />
        <dc:title />
      </cc:Work>
    </rdf:RDF>
  </metadata>
  <g
     inkscape:label="Layer 1"
     inkscape:groupmode="layer"
     id="layer1"
     transform="translate(0,-987.36216)">
    <g
       id="g194"
       transform="matrix(1.2801451,0,0,-1.6281304,18.483183,1032.6124)">
      <path
         d="m 0,0 2.719,-8.728 -5.438,0 L 0,0 Z m -0.466,8.72 -9.764,-17.448 -2.13,0 c -0.29,0 -0.525,-0.299 -0.525,-0.667 0,-0.369 0.235,-0.667 0.525,-0.667 l 24.721,0 c 0.289,0 0.524,0.298 0.524,0.667 0,0.368 -0.235,0.667 -0.525,0.667 l -2.13,0 L 0.466,8.72 0,9.438 -0.466,8.72 Z"
         style="fill:#FFAA45;fill-opacity:1;fill-rule:nonzero;stroke:none"
         id="path196"
         inkscape:connector-curvature="0" />
    </g>
    <path
       d="m 46.159678,1032.6124 3.480714,14.2103 -6.961429,0 3.480715,-14.2103 z m -0.596548,-14.1974 -12.499337,28.4077 -2.726709,0 c -0.371242,0 -0.672076,0.4867 -0.672076,1.0859 0,0.6008 0.300834,1.086 0.672076,1.086 l 31.646467,0 c 0.369962,0 0.670796,-0.4852 0.670796,-1.086 0,-0.5992 -0.300834,-1.0859 -0.672076,-1.0859 l -2.726709,0 -12.499337,-28.4077 -0.596547,-1.1689 -0.596548,1.1689 z"
       style="fill:#FFAA45;fill-opacity:1;fill-rule:nonzero;stroke:none"
       id="path200"
       inkscape:connector-curvature="0" />
  </g>
</svg>
