<?xml version="1.0" encoding="UTF-8" standalone="no"?>
<!-- Created with Inkscape (http://www.inkscape.org/) -->

<svg
   xmlns:dc="http://purl.org/dc/elements/1.1/"
   xmlns:cc="http://creativecommons.org/ns#"
   xmlns:rdf="http://www.w3.org/1999/02/22-rdf-syntax-ns#"
   xmlns:svg="http://www.w3.org/2000/svg"
   xmlns="http://www.w3.org/2000/svg"
   xmlns:sodipodi="http://sodipodi.sourceforge.net/DTD/sodipodi-0.dtd"
   xmlns:inkscape="http://www.inkscape.org/namespaces/inkscape"
   width="65"
   height="65"
   viewBox="0 0 65.000001 65.000001"
   id="svg4604"
   version="1.1"
   inkscape:version="0.91 r13725"
   sodipodi:docname="bisse.svg">
  <defs
     id="defs4606">
    <clipPath
       clipPathUnits="userSpaceOnUse"
       id="clipPath286">
      <path
         d="m 513.739,235.444 21.56,0 0,25.556 -21.56,0 0,-25.556 z"
         id="path288"
         inkscape:connector-curvature="0" />
    </clipPath>
    <clipPath
       clipPathUnits="userSpaceOnUse"
       id="clipPath406">
      <path
         d="m 57.255,313.364 43.245,0 0,29.167 -43.245,0 0,-29.167 z"
         id="path408"
         inkscape:connector-curvature="0" />
    </clipPath>
  </defs>
  <sodipodi:namedview
     id="base"
     pagecolor="#ffffff"
     bordercolor="#666666"
     borderopacity="1.0"
     inkscape:pageopacity="0.0"
     inkscape:pageshadow="2"
     inkscape:zoom="2.8"
     inkscape:cx="-1.2998033"
     inkscape:cy="-8.4590803"
     inkscape:document-units="px"
     inkscape:current-layer="layer1"
     showgrid="false"
     units="px"
     inkscape:window-width="768"
     inkscape:window-height="848"
     inkscape:window-x="75"
     inkscape:window-y="24"
     inkscape:window-maximized="0" />
  <metadata
     id="metadata4609">
    <rdf:RDF>
      <cc:Work
         rdf:about="">
        <dc:format>image/svg+xml</dc:format>
        <dc:type
           rdf:resource="http://purl.org/dc/dcmitype/StillImage" />
        <dc:title />
      </cc:Work>
    </rdf:RDF>
  </metadata>
  <g
     inkscape:label="Layer 1"
     inkscape:groupmode="layer"
     id="layer1"
     transform="translate(0,-987.36216)">
    <g
       id="g224"
       transform="matrix(1.7580745,0,0,-1.7580745,27.437885,1012.2508)"
       style="fill:#ffaa45;fill-opacity:1">
      <path
         d="m 0,0 0,4.313 -14.694,-5.031 0,-18.136 3.177,0 0,18.136 10.921,3.905 0,-3.333 L 0,0 Z"
         style="fill:#ffaa45;fill-opacity:1;fill-rule:nonzero;stroke:none"
         id="path226"
         inkscape:connector-curvature="0" />
    </g>
    <g
       id="g228"
       transform="matrix(1.7580745,0,0,-1.7580745,37.678149,1004.6691)"
       style="fill:#ffaa45;fill-opacity:1">
      <path
         d="m 0,0 0,-4.419 0.53,-0.331 0,3.625 10.921,-3.905 0,-18.137 3.177,0 0,18.137 L 0,0 Z"
         style="fill:#ffaa45;fill-opacity:1;fill-rule:nonzero;stroke:none"
         id="path230"
         inkscape:connector-curvature="0" />
    </g>
    <g
       id="g232"
       transform="matrix(1.7580745,0,0,-1.7580745,21.056258,1014.5535)"
       style="fill:#ffaa45;fill-opacity:1">
      <path
         d="M 0,0 C 0.795,0 1.554,0.264 2.17,0.742 2.786,0.264 3.546,0 4.339,0 5.133,0 5.893,0.264 6.509,0.742 7.125,0.264 7.884,0 8.678,0 9.472,0 10.232,0.264 10.848,0.742 11.464,0.264 12.223,0 13.018,0 c 0.394,0 0.714,0.32 0.714,0.714 0,0.395 -0.32,0.715 -0.714,0.715 -0.627,0 -1.218,0.275 -1.623,0.757 -0.136,0.162 -0.335,0.255 -0.547,0.255 -0.211,0 -0.411,-0.093 -0.546,-0.255 C 9.896,1.704 9.305,1.429 8.678,1.429 8.052,1.429 7.461,1.704 7.057,2.186 6.921,2.348 6.721,2.441 6.51,2.441 l -10e-4,0 C 6.299,2.441 6.099,2.348 5.963,2.186 5.557,1.704 4.967,1.429 4.339,1.429 3.714,1.429 3.122,1.704 2.716,2.186 2.58,2.348 2.38,2.441 2.17,2.441 1.95,2.444 1.758,2.347 1.623,2.185 1.218,1.704 0.628,1.429 0,1.429 -0.394,1.429 -0.714,1.109 -0.714,0.714 -0.714,0.32 -0.394,0 0,0"
         style="fill:#ffaa45;fill-opacity:1;fill-rule:nonzero;stroke:none"
         id="path234"
         inkscape:connector-curvature="0" />
    </g>
    <g
       id="g236"
       transform="matrix(1.7580745,0,0,-1.7580745,47.898539,1022.9568)"
       style="fill:#ffaa45;fill-opacity:1">
      <path
         d="M 0,0 C -0.628,0 -1.218,0.276 -1.623,0.758 -1.759,0.919 -1.958,1.012 -2.17,1.012 -2.381,1.012 -2.581,0.919 -2.716,0.758 -3.122,0.276 -3.714,0 -4.34,0 -4.966,0 -5.557,0.276 -5.961,0.758 -6.097,0.919 -6.297,1.012 -6.508,1.012 l -0.001,0 c -0.028,0 -0.053,-0.014 -0.08,-0.017 -0.028,0.003 -0.053,0.017 -0.081,0.017 -0.211,0 -0.411,-0.093 -0.546,-0.254 -0.388,-0.461 -0.947,-0.726 -1.544,-0.749 -0.594,0.023 -1.154,0.288 -1.542,0.749 -0.136,0.161 -0.336,0.254 -0.546,0.254 -0.029,10e-4 -0.053,-0.014 -0.081,-0.017 -0.027,0.003 -0.051,0.017 -0.079,0.017 l -0.001,0 c -0.21,0 -0.41,-0.093 -0.546,-0.254 C -11.961,0.276 -12.551,0 -13.179,0 c -0.625,0 -1.217,0.276 -1.623,0.758 -0.136,0.161 -0.336,0.254 -0.546,0.254 -0.22,0.004 -0.412,-0.094 -0.547,-0.255 C -16.3,0.276 -16.89,0 -17.518,0 c -0.394,0 -0.714,-0.32 -0.714,-0.715 0,-0.394 0.32,-0.714 0.714,-0.714 0.795,0 1.554,0.264 2.17,0.742 0.616,-0.478 1.376,-0.742 2.169,-0.742 0.038,0 0.076,0.009 0.114,0.01 0.016,-10e-4 0.03,-0.01 0.047,-0.01 0.762,0 1.488,0.249 2.09,0.69 0.602,-0.441 1.327,-0.69 2.088,-0.69 0.027,0 0.053,0.007 0.08,0.007 0.028,0 0.054,-0.007 0.081,-0.007 0.761,0 1.488,0.249 2.089,0.69 0.602,-0.441 1.328,-0.69 2.09,-0.69 0.017,0 0.03,0.009 0.047,0.01 0.038,-10e-4 0.075,-0.01 0.113,-0.01 0.794,0 1.554,0.264 2.17,0.742 0.616,-0.478 1.375,-0.742 2.17,-0.742 0.394,0 0.714,0.32 0.714,0.714 C 0.714,-0.32 0.394,0 0,0"
         style="fill:#ffaa45;fill-opacity:1;fill-rule:nonzero;stroke:none"
         id="path238"
         inkscape:connector-curvature="0" />
    </g>
    <g
       id="g240"
       transform="matrix(1.7580745,0,0,-1.7580745,51.121792,1035.6294)"
       style="fill:#ffaa45;fill-opacity:1">
      <path
         d="M 0,0 C -0.628,0 -1.218,0.276 -1.623,0.758 -1.759,0.919 -1.958,1.012 -2.17,1.012 -2.381,1.012 -2.581,0.919 -2.716,0.758 -3.122,0.276 -3.714,0 -4.34,0 -4.966,0 -5.557,0.276 -5.961,0.758 -6.097,0.919 -6.297,1.012 -6.508,1.012 l -0.001,0 c -0.21,0 -0.41,-0.093 -0.546,-0.254 C -7.461,0.276 -8.051,0 -8.679,0 c -0.625,0 -1.217,0.276 -1.623,0.758 -0.136,0.161 -0.336,0.254 -0.546,0.254 -0.013,10e-4 -0.024,-0.007 -0.036,-0.008 -0.013,10e-4 -0.024,0.008 -0.036,0.008 -0.211,0 -0.411,-0.093 -0.546,-0.254 C -11.872,0.276 -12.464,0 -13.09,0 c -0.626,0 -1.217,0.276 -1.621,0.758 -0.136,0.161 -0.336,0.254 -0.547,0.254 l -0.001,0 c -0.21,0 -0.41,-0.093 -0.546,-0.254 C -16.211,0.276 -16.801,0 -17.429,0 c -0.625,0 -1.217,0.276 -1.623,0.758 -0.136,0.161 -0.336,0.254 -0.546,0.254 -0.22,0.004 -0.412,-0.094 -0.547,-0.255 C -20.55,0.276 -21.14,0 -21.768,0 c -0.394,0 -0.714,-0.32 -0.714,-0.715 0,-0.394 0.32,-0.714 0.714,-0.714 0.795,0 1.554,0.264 2.17,0.742 0.616,-0.478 1.376,-0.742 2.169,-0.742 0.794,0 1.554,0.264 2.17,0.742 0.616,-0.478 1.375,-0.742 2.169,-0.742 0.017,0 0.034,0.004 0.051,0.005 0.007,-0.001 0.014,-0.005 0.021,-0.005 0.78,0 1.524,0.257 2.134,0.718 0.61,-0.461 1.354,-0.718 2.134,-0.718 0.007,0 0.013,0.004 0.021,0.005 0.017,-0.001 0.033,-0.005 0.05,-0.005 0.794,0 1.554,0.264 2.17,0.742 0.616,-0.478 1.375,-0.742 2.169,-0.742 0.794,0 1.554,0.264 2.17,0.742 0.616,-0.478 1.375,-0.742 2.17,-0.742 0.394,0 0.714,0.32 0.714,0.714 C 0.714,-0.32 0.394,0 0,0"
         style="fill:#ffaa45;fill-opacity:1;fill-rule:nonzero;stroke:none"
         id="path242"
         inkscape:connector-curvature="0" />
    </g>
  </g>
</svg>
