<?xml version="1.0" encoding="UTF-8" standalone="no"?>
<!-- Created with Inkscape (http://www.inkscape.org/) -->

<svg
   xmlns:dc="http://purl.org/dc/elements/1.1/"
   xmlns:cc="http://creativecommons.org/ns#"
   xmlns:rdf="http://www.w3.org/1999/02/22-rdf-syntax-ns#"
   xmlns:svg="http://www.w3.org/2000/svg"
   xmlns="http://www.w3.org/2000/svg"
   xmlns:sodipodi="http://sodipodi.sourceforge.net/DTD/sodipodi-0.dtd"
   xmlns:inkscape="http://www.inkscape.org/namespaces/inkscape"
   width="65"
   height="65"
   viewBox="0 0 65.000001 65.000001"
   id="svg2"
   version="1.1"
   inkscape:version="0.91 r13725"
   sodipodi:docname="bivouac.svg">
  <defs
     id="defs4" />
  <sodipodi:namedview
     id="base"
     pagecolor="#ffffff"
     bordercolor="#666666"
     borderopacity="1.0"
     inkscape:pageopacity="0.0"
     inkscape:pageshadow="2"
     inkscape:zoom="5.6"
     inkscape:cx="31.637729"
     inkscape:cy="15.245742"
     inkscape:document-units="px"
     inkscape:current-layer="layer1"
     showgrid="false"
     units="px"
     inkscape:window-width="1855"
     inkscape:window-height="1056"
     inkscape:window-x="1665"
     inkscape:window-y="24"
     inkscape:window-maximized="1" />
  <metadata
     id="metadata7">
    <rdf:RDF>
      <cc:Work
         rdf:about="">
        <dc:format>image/svg+xml</dc:format>
        <dc:type
           rdf:resource="http://purl.org/dc/dcmitype/StillImage" />
        <dc:title></dc:title>
      </cc:Work>
    </rdf:RDF>
  </metadata>
  <g
     inkscape:label="Layer 1"
     inkscape:groupmode="layer"
     id="layer1"
     transform="translate(0,-987.36216)">
    <g
       id="g186"
       transform="matrix(2.5972158,0,0,-2.5972158,55.615649,1042.0684)">
      <path
         d="M 0,0 -4.896,2.036 0.005,4.059 C 0.758,4.371 1.119,5.235 0.809,5.99 0.496,6.744 -0.37,7.105 -1.123,6.792 L -8.757,3.64 -16.386,6.811 c -0.754,0.313 -1.62,-0.043 -1.933,-0.798 -0.313,-0.754 0.044,-1.62 0.797,-1.933 l 4.898,-2.035 -4.903,-2.023 c -0.753,-0.311 -1.114,-1.177 -0.801,-1.93 0.235,-0.57 0.787,-0.917 1.366,-0.917 0.188,0 0.381,0.036 0.563,0.113 l 7.637,3.152 7.627,-3.171 c 0.185,-0.077 0.377,-0.113 0.568,-0.113 0.579,0 1.13,0.344 1.366,0.912 C 1.112,-1.179 0.753,-0.313 0,0"
         style="fill:#FFAA45;fill-opacity:1;fill-rule:nonzero;stroke:none"
         id="path188"
         inkscape:connector-curvature="0" />
    </g>
    <g
       id="g190"
       transform="matrix(2.5972158,0,0,-2.5972158,32.858594,1027.721)">
      <path
         d="M 0,0 C 3.457,0 6.258,2.802 6.258,6.255 6.258,7.124 5.863,8.269 5.273,9.496 5.197,9.655 5.016,9.744 4.841,9.705 4.667,9.667 4.54,9.513 4.538,9.335 4.513,8.035 4.162,7.153 3.731,6.556 3.681,6.486 3.587,6.465 3.51,6.505 3.436,6.546 3.402,6.638 3.433,6.717 3.736,7.516 3.59,8.702 2.045,10.371 0.597,11.933 0.24,13.163 0.308,14.06 0.322,14.236 0.224,14.404 0.06,14.476 -0.103,14.551 -0.296,14.512 -0.419,14.385 -1.896,12.85 -3.715,10.341 -3.188,7.8 -3.166,7.692 -3.222,7.583 -3.325,7.543 -3.426,7.501 -3.542,7.54 -3.602,7.634 c -0.375,0.606 -0.719,1.513 -0.592,2.709 0.02,0.192 -0.098,0.375 -0.286,0.436 -0.185,0.057 -0.389,-0.023 -0.484,-0.196 C -5.642,9.359 -6.253,7.822 -6.253,6.255 -6.255,2.802 -3.455,0 0,0"
         style="fill:#FFAA45;fill-opacity:1;fill-rule:nonzero;stroke:none"
         id="path192"
         inkscape:connector-curvature="0" />
    </g>
  </g>
</svg>
