<?xml version="1.0" encoding="UTF-8" standalone="no"?>
<!-- Created with Inkscape (http://www.inkscape.org/) -->

<svg
   xmlns:dc="http://purl.org/dc/elements/1.1/"
   xmlns:cc="http://creativecommons.org/ns#"
   xmlns:rdf="http://www.w3.org/1999/02/22-rdf-syntax-ns#"
   xmlns:svg="http://www.w3.org/2000/svg"
   xmlns="http://www.w3.org/2000/svg"
   xmlns:sodipodi="http://sodipodi.sourceforge.net/DTD/sodipodi-0.dtd"
   xmlns:inkscape="http://www.inkscape.org/namespaces/inkscape"
   width="65"
   height="65"
   viewBox="0 0 65.000001 65.000001"
   id="svg4604"
   version="1.1"
   inkscape:version="0.91 r13725"
   sodipodi:docname="cliff.svg">
  <defs
     id="defs4606">
    <clipPath
       clipPathUnits="userSpaceOnUse"
       id="clipPath286">
      <path
         d="m 513.739,235.444 21.56,0 0,25.556 -21.56,0 0,-25.556 z"
         id="path288"
         inkscape:connector-curvature="0" />
    </clipPath>
    <clipPath
       clipPathUnits="userSpaceOnUse"
       id="clipPath406">
      <path
         d="m 57.255,313.364 43.245,0 0,29.167 -43.245,0 0,-29.167 z"
         id="path408"
         inkscape:connector-curvature="0" />
    </clipPath>
    <clipPath
       clipPathUnits="userSpaceOnUse"
       id="clipPath162">
      <path
         d="m 0,368 595.28,0 0,-368 L 0,0 0,368 Z"
         id="path164"
         inkscape:connector-curvature="0" />
    </clipPath>
    <clipPath
       clipPathUnits="userSpaceOnUse"
       id="clipPath434">
      <path
         d="m 0,368 595.28,0 0,-368 L 0,0 0,368 Z"
         id="path436"
         inkscape:connector-curvature="0" />
    </clipPath>
  </defs>
  <sodipodi:namedview
     id="base"
     pagecolor="#ffffff"
     bordercolor="#666666"
     borderopacity="1.0"
     inkscape:pageopacity="0.0"
     inkscape:pageshadow="2"
     inkscape:zoom="2.8"
     inkscape:cx="30.485911"
     inkscape:cy="5.826634"
     inkscape:document-units="px"
     inkscape:current-layer="layer1"
     showgrid="false"
     units="px"
     inkscape:window-width="768"
     inkscape:window-height="848"
     inkscape:window-x="65"
     inkscape:window-y="24"
     inkscape:window-maximized="0" />
  <metadata
     id="metadata4609">
    <rdf:RDF>
      <cc:Work
         rdf:about="">
        <dc:format>image/svg+xml</dc:format>
        <dc:type
           rdf:resource="http://purl.org/dc/dcmitype/StillImage" />
        <dc:title></dc:title>
      </cc:Work>
    </rdf:RDF>
  </metadata>
  <g
     inkscape:label="Layer 1"
     inkscape:groupmode="layer"
     id="layer1"
     transform="translate(0,-987.36216)">
    <g
       transform="matrix(1.3965743,0,0,-1.7099512,-286.96203,1449.6023)"
       id="g432"
       clip-path="url(#clipPath434)">
      <g
         id="g438"
         transform="translate(205.2809,235.3333)"
         style="fill:#ffaa45;fill-opacity:1">
        <path
           d="M 0,0 -0.062,0 C -0.524,0 -0.9,-0.375 -0.9,-0.838 c 0,-0.463 0.376,-0.838 0.838,-0.838 l 47.056,0 c 0.463,0 0.838,0.375 0.838,0.838 0,0.463 -0.375,0.838 -0.838,0.838 l -2.286,0 -4.98,5.799 -3.533,17.661 c -0.05,0.254 -0.215,0.47 -0.446,0.586 l -5.364,2.681 c -0.214,0.107 -0.464,0.117 -0.686,0.029 l -4.06,-1.625 -2.315,1.544 c -0.214,0.143 -0.484,0.179 -0.729,0.098 L 14.55,24.091 C 14.272,23.998 14.063,23.767 13.998,23.482 L 10.191,6.732 9.362,3.906 4.633,0 1.873,0"
           style="fill:#ffaa45;fill-opacity:1;fill-rule:nonzero;stroke:none"
           id="path440"
           inkscape:connector-curvature="0" />
      </g>
    </g>
  </g>
</svg>
