<?xml version="1.0" encoding="UTF-8" standalone="no"?>
<!-- Created with Inkscape (http://www.inkscape.org/) -->

<svg
   xmlns:dc="http://purl.org/dc/elements/1.1/"
   xmlns:cc="http://creativecommons.org/ns#"
   xmlns:rdf="http://www.w3.org/1999/02/22-rdf-syntax-ns#"
   xmlns:svg="http://www.w3.org/2000/svg"
   xmlns="http://www.w3.org/2000/svg"
   xmlns:sodipodi="http://sodipodi.sourceforge.net/DTD/sodipodi-0.dtd"
   xmlns:inkscape="http://www.inkscape.org/namespaces/inkscape"
   width="65"
   height="65"
   viewBox="0 0 65.000001 65.000001"
   id="svg4604"
   version="1.1"
   inkscape:version="0.91 r13725"
   sodipodi:docname="climbing_indoor.svg">
  <defs
     id="defs4606" />
  <sodipodi:namedview
     id="base"
     pagecolor="#ffffff"
     bordercolor="#666666"
     borderopacity="1.0"
     inkscape:pageopacity="0.0"
     inkscape:pageshadow="2"
     inkscape:zoom="3.959798"
     inkscape:cx="30.725477"
     inkscape:cy="14.94266"
     inkscape:document-units="px"
     inkscape:current-layer="svg4604"
     showgrid="false"
     units="px"
     inkscape:window-width="768"
     inkscape:window-height="848"
     inkscape:window-x="75"
     inkscape:window-y="24"
     inkscape:window-maximized="0" />
  <metadata
     id="metadata4609">
    <rdf:RDF>
      <cc:Work
         rdf:about="">
        <dc:format>image/svg+xml</dc:format>
        <dc:type
           rdf:resource="http://purl.org/dc/dcmitype/StillImage" />
        <dc:title />
      </cc:Work>
    </rdf:RDF>
  </metadata>
  <path
     style="fill:#ffaa45;fill-opacity:1;fill-rule:nonzero;stroke:none"
     d="m 22.523993,2.732945 c 1.646163,-0.046044 1.931928,1.5132008 1.409189,3.0504792 -0.07331,0.21709 -0.156185,0.4189095 -0.249214,0.6111475 C 21.376858,3.8878794 17.119584,4.814858 16.136214,8.0812472 L 15.86426,8.9789129 C 15.085603,8.6361933 14.518811,8.0288981 14.416742,7.0480008 14.07774,3.8081979 17.426774,5.1443889 19.384951,3.9430053 20.747238,3.1065802 21.775738,2.7538734 22.523993,2.732945 Z m 8.755428,3.7394032 c 2.590388,-0.10229 4.77403,1.8723257 4.878471,4.4092408 0.10482,2.546054 -1.920994,4.677726 -4.500181,4.779568 -2.590386,0.102291 -4.777787,-1.870344 -4.882303,-4.409086 -0.104447,-2.5369152 1.913626,-4.6774367 4.504013,-4.7797228 z M 42.606876,6.1810267 c 0.881281,0.028862 1.7043,0.5635866 2.042415,1.4207442 l 4.053162,10.3214751 c 0.555574,1.417062 -0.473882,2.953839 -2.02289,3.015005 l -8.761838,0.345974 0.47352,11.501957 9.367397,2.012791 c 1.540919,0.332648 2.511691,1.911734 1.996942,3.438789 -1.086716,3.208092 -0.773131,2.282118 -3.293047,9.726506 -0.471574,1.395274 -2.007297,2.153177 -3.433968,1.689598 -1.424727,-0.461733 -2.200487,-1.965834 -1.727126,-3.363008 0.753262,-2.226579 1.475406,-4.355058 2.343593,-6.923004 l -5.635166,-1.211227 -6.160488,0.243255 c -2.015254,6.58042 -1.664104,5.43555 -2.428699,7.931677 0.667393,2.543966 2.664939,10.14253 3.380614,12.860365 0.372678,1.424284 -0.503617,2.876681 -1.956001,3.241609 -1.452303,0.366853 -2.93524,-0.487807 -3.309857,-1.913746 -0.793336,-3.015037 -2.778032,-10.565144 -3.56942,-13.578236 -0.124002,-0.469319 -0.114047,-0.964055 0.02951,-1.427389 0.919329,-3.005794 2.105817,-6.881398 2.565559,-8.382421 l -0.631387,-15.336569 -8.63541,0.340982 c -1.547141,0.0611 -2.701326,-1.387678 -2.262174,-2.84392 0.308873,-1.033744 2.877246,-9.5681716 3.189628,-10.6074705 0.333778,-1.1098571 1.476314,-1.7687854 2.603102,-1.5515598 1.32269,0.2535811 2.117513,1.5610197 1.742498,2.8043114 -0.535951,1.7840399 -1.752679,5.8288589 -2.298766,7.6390459 L 43.340131,16.62796 40.42087,9.1949565 C 39.971837,8.0501067 40.555575,6.7664254 41.722622,6.3268095 42.013466,6.2173843 42.313131,6.171398 42.606891,6.1810197 Z m 6.170462,17.7091023 c 1.676184,-0.150399 4.897896,1.039775 3.749719,4.162552 -0.56976,1.55298 -1.670218,0.806793 -3.976179,0.916156 -5.141643,0.246964 -4.830676,-2.196322 -3.049179,-3.784335 0.890788,-0.793092 1.817357,-1.16356 3.275639,-1.294373 z M 16.455493,45.058381 c 1.19753,-0.107705 4.256581,0.812295 5.417729,2.454369 0.34154,0.486299 0.515594,1.036515 0.430165,1.640365 -0.03046,0.213567 -0.09072,0.430442 -0.191577,0.659607 -1.323877,2.986919 -3.576739,0.216877 -5.8827,0.326238 -5.141717,0.245135 -4.830676,-2.196318 -3.049177,-3.784333 0.890711,-0.794918 1.817278,-1.16544 3.27556,-1.296248 z m 23.958483,5.448478 c 0.533857,0.526306 1.189535,0.927915 1.930385,1.169608 1.739273,0.564751 3.633499,0.132766 4.953681,-1.127629 2.759675,0.05945 2.609178,1.985838 1.383663,3.502468 -0.747039,0.924721 -1.598078,1.437272 -3.016944,1.799029 -1.627872,0.415777 -7.195201,-0.570462 -6.3706,-3.788475 0.233364,-0.915421 0.626728,-1.363442 1.119815,-1.555001 z"
     id="path308"
     inkscape:connector-curvature="0" />
</svg>
