<?xml version="1.0" encoding="UTF-8" standalone="no"?>
<!-- Created with Inkscape (http://www.inkscape.org/) -->

<svg
   xmlns:dc="http://purl.org/dc/elements/1.1/"
   xmlns:cc="http://creativecommons.org/ns#"
   xmlns:rdf="http://www.w3.org/1999/02/22-rdf-syntax-ns#"
   xmlns:svg="http://www.w3.org/2000/svg"
   xmlns="http://www.w3.org/2000/svg"
   xmlns:sodipodi="http://sodipodi.sourceforge.net/DTD/sodipodi-0.dtd"
   xmlns:inkscape="http://www.inkscape.org/namespaces/inkscape"
   width="65"
   height="65"
   viewBox="0 0 65.000001 65.000001"
   id="svg4604"
   version="1.1"
   inkscape:version="0.91 r13725"
   sodipodi:docname="climbing_outdoor.svg">
  <defs
     id="defs4606" />
  <sodipodi:namedview
     id="base"
     pagecolor="#ffffff"
     bordercolor="#666666"
     borderopacity="1.0"
     inkscape:pageopacity="0.0"
     inkscape:pageshadow="2"
     inkscape:zoom="2.8"
     inkscape:cx="27.271625"
     inkscape:cy="77.255205"
     inkscape:document-units="px"
     inkscape:current-layer="layer1"
     showgrid="false"
     units="px"
     inkscape:window-width="768"
     inkscape:window-height="848"
     inkscape:window-x="75"
     inkscape:window-y="24"
     inkscape:window-maximized="0" />
  <metadata
     id="metadata4609">
    <rdf:RDF>
      <cc:Work
         rdf:about="">
        <dc:format>image/svg+xml</dc:format>
        <dc:type
           rdf:resource="http://purl.org/dc/dcmitype/StillImage" />
        <dc:title />
      </cc:Work>
    </rdf:RDF>
  </metadata>
  <g
     inkscape:label="Layer 1"
     inkscape:groupmode="layer"
     id="layer1"
     transform="translate(0,-987.36216)">
    <g
       id="g330"
       transform="matrix(2.0431607,0,0,-2.0431607,42.788506,1026.7092)"
       style="fill:#ffaa45;fill-opacity:1">
      <path
         d="M 0,0 0.559,1.776 1.477,1.587 1.13,1.377 C 0.571,1.04 0.295,0.382 0.445,-0.253 L 0.747,-1.533 0,0 Z m -3.915,8.024 0.458,-0.44 c 0.187,-0.181 0.438,-0.279 0.694,-0.279 0.058,0 0.117,0.005 0.175,0.016 l 3.3,0.59 L 1.971,4.55 -0.162,4.99 C -0.917,5.146 -1.665,4.706 -1.897,3.971 L -1.913,3.92 -3.915,8.024 Z M 6.808,3.048 C 6.222,4.615 4.46,9.315 4.46,9.315 4.073,10.346 2.924,10.87 1.892,10.483 L 0.219,9.856 -2.439,9.38 l -2.76,2.649 c -0.22,0.214 -0.513,0.291 -0.797,0.261 l -2.74,5.616 c -0.119,0.248 -0.418,0.351 -0.669,0.23 -0.248,-0.121 -0.351,-0.42 -0.23,-0.669 l 2.822,-5.783 c -0.15,-0.368 -0.076,-0.806 0.229,-1.098 l 0.576,-0.553 3.659,-7.499 -0.887,-2.815 -1.259,0.861 c -0.44,0.301 -0.739,0.767 -0.829,1.292 l -0.971,5.635 c -0.036,0.212 -0.107,0.416 -0.209,0.604 l -1.888,3.488 -1.675,6.09 c -0.095,0.343 -0.407,0.582 -0.764,0.582 l -3.483,0 c -0.437,0 -0.792,-0.355 -0.792,-0.793 l 0,-28.435 c 0,-0.437 0.355,-0.792 0.792,-0.792 l 16.583,0 c 0.284,0 0.547,0.153 0.688,0.4 0.141,0.246 0.139,0.55 -0.006,0.795 l -2.846,4.817 c -0.062,0.105 -0.114,0.217 -0.156,0.332 l -1.109,3.067 c 0.318,0.181 0.572,0.474 0.691,0.85 l 0.031,0.101 4.98,-10.206 c 0.086,-0.178 0.264,-0.281 0.45,-0.281 0.073,0 0.148,0.016 0.219,0.051 0.248,0.121 0.351,0.42 0.23,0.669 L 2.94,-6.027 c 0.019,-0.002 0.038,-0.01 0.058,-0.01 0.114,0 0.231,0.013 0.346,0.04 0.807,0.191 1.307,0.999 1.116,1.806 l -0.842,3.565 2.689,1.625 c 0.528,0.319 0.859,1.094 0.501,2.049"
         style="fill:#ffaa45;fill-opacity:1;fill-rule:nonzero;stroke:none"
         id="path332"
         inkscape:connector-curvature="0" />
    </g>
    <g
       id="g334"
       transform="matrix(2.0431607,0,0,-2.0431607,44.131892,1004.6711)"
       style="fill:#ffaa45;fill-opacity:1">
      <path
         d="M 0,0 C 1.24,0 2.246,1.005 2.246,2.246 2.246,3.486 1.24,4.492 0,4.492 -1.24,4.492 -2.246,3.486 -2.246,2.246 -2.246,1.005 -1.24,0 0,0"
         style="fill:#ffaa45;fill-opacity:1;fill-rule:nonzero;stroke:none"
         id="path336"
         inkscape:connector-curvature="0" />
    </g>
  </g>
</svg>
