<?xml version="1.0" encoding="UTF-8" standalone="no"?>
<!-- Created with Inkscape (http://www.inkscape.org/) -->

<svg
   xmlns:dc="http://purl.org/dc/elements/1.1/"
   xmlns:cc="http://creativecommons.org/ns#"
   xmlns:rdf="http://www.w3.org/1999/02/22-rdf-syntax-ns#"
   xmlns:svg="http://www.w3.org/2000/svg"
   xmlns="http://www.w3.org/2000/svg"
   xmlns:sodipodi="http://sodipodi.sourceforge.net/DTD/sodipodi-0.dtd"
   xmlns:inkscape="http://www.inkscape.org/namespaces/inkscape"
   width="65"
   height="65"
   viewBox="0 0 65.000001 65.000001"
   id="svg2"
   version="1.1"
   inkscape:version="0.91 r13725"
   sodipodi:docname="confluence.svg">
  <defs
     id="defs4" />
  <sodipodi:namedview
     id="base"
     pagecolor="#ffffff"
     bordercolor="#666666"
     borderopacity="1.0"
     inkscape:pageopacity="0.0"
     inkscape:pageshadow="2"
     inkscape:zoom="7.9195959"
     inkscape:cx="18.760519"
     inkscape:cy="33.177758"
     inkscape:document-units="px"
     inkscape:current-layer="svg2"
     showgrid="false"
     units="px"
     inkscape:window-width="1535"
     inkscape:window-height="876"
     inkscape:window-x="65"
     inkscape:window-y="24"
     inkscape:window-maximized="1" />
  <metadata
     id="metadata7">
    <rdf:RDF>
      <cc:Work
         rdf:about="">
        <dc:format>image/svg+xml</dc:format>
        <dc:type
           rdf:resource="http://purl.org/dc/dcmitype/StillImage" />
        <dc:title />
      </cc:Work>
    </rdf:RDF>
  </metadata>
  <path
     style="fill:#ffaa45;fill-opacity:1;fill-rule:nonzero;stroke:none"
     d="M 27.103514,9.9823989 15.517699,23.138894 14.192884,21.691202 11.476882,28.167055 7.3726207,28.86718 6.5872674,34.340525 4.3684184,33.615796 2.7509716,40.132711 c 0,0 -8.7389925,12.073607 20.3936734,15.232906 29.132821,3.158055 2.102927,-4.768366 2.102927,-4.768366 0,0 -23.0400359,-6.114641 3.56351,-10.044935 26.602362,-3.930456 11.117093,-4.582238 11.117093,-4.582238 l -1.001769,-2.033305 c 2.284275,0.208812 18.526495,2.439104 11.647722,4.443299 -6.878775,2.004197 -10.107179,2.931179 -10.107179,2.931179 0,0 10.970516,3.834519 15.642596,1.000161 0,0 4.969891,-2.949838 7.241217,-2.492528 l 1.560836,-5.262805 -4.551163,1.060665 -0.02225,-7.059997 -2.671247,2.898623 -4.499116,-13.047992 -3.906829,9.575869 -2.013902,-6.38567 -5.468524,5.98993 -2.068099,-3.549532 -2.190857,3.070558 L 33.995803,16.72212 32.00348,19.819946 27.103521,9.9823989 Z m -0.559946,4.0844361 3.684237,8.300806 3.090366,-1.419269 2.694366,13.010118 -5.408154,-2.532527 -1.740172,-8.193707 -2.440305,4.668083 -1.239094,-3.751627 -2.78454,6.624416 1.13533,-8.6927 -6.209355,7.88794 -1.525599,-1.841316 -3.725887,4.491523 2.449335,-7.142458 0.752762,1.209223 11.266716,-12.618504 z m 36.08081,28.975577 c -1.003627,-0.154551 -3.428821,-0.169353 -6.759424,2.188803 -2.851498,2.017574 -13.368598,-0.537075 -18.851083,-2.814447 0,0 -21.857645,1.318202 -10.27532,4.277862 11.581139,2.959497 43.198954,10.356462 36.396898,-3.533861 0,0 -0.176529,-0.06684 -0.51107,-0.118367 z"
     id="path74"
     inkscape:connector-curvature="0" />
</svg>
