<?xml version="1.0" encoding="UTF-8" standalone="no"?>
<!-- Created with Inkscape (http://www.inkscape.org/) -->

<svg
   xmlns:dc="http://purl.org/dc/elements/1.1/"
   xmlns:cc="http://creativecommons.org/ns#"
   xmlns:rdf="http://www.w3.org/1999/02/22-rdf-syntax-ns#"
   xmlns:svg="http://www.w3.org/2000/svg"
   xmlns="http://www.w3.org/2000/svg"
   xmlns:sodipodi="http://sodipodi.sourceforge.net/DTD/sodipodi-0.dtd"
   xmlns:inkscape="http://www.inkscape.org/namespaces/inkscape"
   width="65"
   height="65"
   viewBox="0 0 65.000001 65.000001"
   id="svg2"
   version="1.1"
   inkscape:version="0.91 r13725"
   sodipodi:docname="glacier.svg">
  <defs
     id="defs4" />
  <sodipodi:namedview
     id="base"
     pagecolor="#ffffff"
     bordercolor="#666666"
     borderopacity="1.0"
     inkscape:pageopacity="0.0"
     inkscape:pageshadow="2"
     inkscape:zoom="5.6"
     inkscape:cx="-42.88412"
     inkscape:cy="19.844378"
     inkscape:document-units="px"
     inkscape:current-layer="svg2"
     showgrid="false"
     units="px"
     inkscape:window-width="1855"
     inkscape:window-height="1056"
     inkscape:window-x="1665"
     inkscape:window-y="24"
     inkscape:window-maximized="1" />
  <metadata
     id="metadata7">
    <rdf:RDF>
      <cc:Work
         rdf:about="">
        <dc:format>image/svg+xml</dc:format>
        <dc:type
           rdf:resource="http://purl.org/dc/dcmitype/StillImage" />
        <dc:title />
      </cc:Work>
    </rdf:RDF>
  </metadata>
  <g
     inkscape:label="Layer 1"
     inkscape:groupmode="layer"
     id="layer1"
     transform="translate(0,-987.36216)">
    <g
       id="g80"
       transform="matrix(1.4932136,0,0,-1.9533854,21.641249,1025.4797)">
      <path
         d="M 0,0 4.87,6.012 9.738,0 5.9,1.4 4.87,-2.639 3.839,1.4 0,0 Z"
         style="fill:#FFAA45;fill-opacity:1;fill-rule:nonzero"
         id="path82"
         inkscape:connector-curvature="0" />
    </g>
    <g
       id="g84"
       transform="matrix(1.4932136,0,0,-1.9533854,62.123609,1049.5065)">
      <path
         style="fill:#FFAA45;fill-opacity:1"
         d="m 28.90625,14.984375 -26.7441406,35.160156 28.7675786,0 31.193359,0 -15.708985,-20.652343 -3.234374,4.255859 z m -0.513672,3.408203 14.873731,18.518847 3.341113,-4.321581 12.410156,15.802734 -53.1252789,8.37e-4 z"
         transform="matrix(0.66969655,0,0,-0.62893173,-41.603967,31.537366)"
         id="path86"
         inkscape:connector-curvature="0"
         sodipodi:nodetypes="ccccccccccccc" />
    </g>
    <g
       id="g88"
       transform="matrix(1.4932136,0,0,-1.9533854,42.267308,1036.3189)">
      <path
         d="m 0.33824784,-0.91326817 2.78599996,3.43899997 2.784,-3.43899997 -2.195,0.801 -0.589,-2.31100003 -0.59,2.31100003 -2.19599996,-0.801 z"
         style="fill:#FFAA45;fill-opacity:1;fill-rule:nonzero"
         id="path90"
         inkscape:connector-curvature="0" />
    </g>
  </g>
</svg>
