<?xml version="1.0" encoding="UTF-8" standalone="no"?>
<!-- Created with Inkscape (http://www.inkscape.org/) -->

<svg
   xmlns:dc="http://purl.org/dc/elements/1.1/"
   xmlns:cc="http://creativecommons.org/ns#"
   xmlns:rdf="http://www.w3.org/1999/02/22-rdf-syntax-ns#"
   xmlns:svg="http://www.w3.org/2000/svg"
   xmlns="http://www.w3.org/2000/svg"
   xmlns:sodipodi="http://sodipodi.sourceforge.net/DTD/sodipodi-0.dtd"
   xmlns:inkscape="http://www.inkscape.org/namespaces/inkscape"
   width="65"
   height="65"
   viewBox="0 0 65.000001 65.000001"
   id="svg4604"
   version="1.1"
   inkscape:version="0.91 r13725"
   sodipodi:docname="hut.svg">
  <defs
     id="defs4606">
    <clipPath
       clipPathUnits="userSpaceOnUse"
       id="clipPath286">
      <path
         d="m 513.739,235.444 21.56,0 0,25.556 -21.56,0 0,-25.556 z"
         id="path288"
         inkscape:connector-curvature="0" />
    </clipPath>
    <clipPath
       clipPathUnits="userSpaceOnUse"
       id="clipPath406">
      <path
         d="m 57.255,313.364 43.245,0 0,29.167 -43.245,0 0,-29.167 z"
         id="path408"
         inkscape:connector-curvature="0" />
    </clipPath>
  </defs>
  <sodipodi:namedview
     id="base"
     pagecolor="#ffffff"
     bordercolor="#666666"
     borderopacity="1.0"
     inkscape:pageopacity="0.0"
     inkscape:pageshadow="2"
     inkscape:zoom="2.8"
     inkscape:cx="-29.871232"
     inkscape:cy="5.826634"
     inkscape:document-units="px"
     inkscape:current-layer="layer1"
     showgrid="false"
     units="px"
     inkscape:window-width="768"
     inkscape:window-height="848"
     inkscape:window-x="75"
     inkscape:window-y="24"
     inkscape:window-maximized="0" />
  <metadata
     id="metadata4609">
    <rdf:RDF>
      <cc:Work
         rdf:about="">
        <dc:format>image/svg+xml</dc:format>
        <dc:type
           rdf:resource="http://purl.org/dc/dcmitype/StillImage" />
        <dc:title />
      </cc:Work>
    </rdf:RDF>
  </metadata>
  <g
     inkscape:label="Layer 1"
     inkscape:groupmode="layer"
     id="layer1"
     transform="translate(0,-987.36216)">
    <g
       id="g338"
       transform="matrix(2.5246631,0,0,-2.5246631,54.58596,1013.9254)"
       style="fill-opacity:1;fill:#ffaa45">
      <path
         d="m 0,0 -17.355,0 c -0.747,0 -1.352,-0.605 -1.352,-1.352 0,-0.747 0.605,-1.352 1.352,-1.352 l 17.355,0 c 0.747,0 1.352,0.605 1.352,1.352 C 1.352,-0.605 0.747,0 0,0"
         style="fill:#ffaa45;fill-opacity:1;fill-rule:nonzero;stroke:none"
         id="path340"
         inkscape:connector-curvature="0" />
    </g>
    <g
       id="g342"
       transform="matrix(2.5246631,0,0,-2.5246631,54.58596,1023.4153)"
       style="fill-opacity:1;fill:#ffaa45">
      <path
         d="m 0,0 -17.355,0 c -0.747,0 -1.352,-0.605 -1.352,-1.352 0,-0.747 0.605,-1.352 1.352,-1.352 l 17.355,0 c 0.747,0 1.352,0.605 1.352,1.352 C 1.352,-0.605 0.747,0 0,0"
         style="fill:#ffaa45;fill-opacity:1;fill-rule:nonzero;stroke:none"
         id="path344"
         inkscape:connector-curvature="0" />
    </g>
    <g
       id="g346"
       transform="matrix(2.5246631,0,0,-2.5246631,54.58596,1032.9052)"
       style="fill-opacity:1;fill:#ffaa45">
      <path
         d="m 0,0 -6.001,0 0,-2.704 6.001,0 c 0.747,0 1.352,0.605 1.352,1.352 C 1.352,-0.605 0.747,0 0,0"
         style="fill:#ffaa45;fill-opacity:1;fill-rule:nonzero;stroke:none"
         id="path348"
         inkscape:connector-curvature="0" />
    </g>
    <g
       id="g350"
       transform="matrix(2.5246631,0,0,-2.5246631,7.3558145,1036.3185)"
       style="fill-opacity:1;fill:#ffaa45">
      <path
         d="m 0,0 c 0,-0.747 0.605,-1.352 1.352,-1.352 l 6.001,0 0,2.704 -6.001,0 C 0.605,1.352 0,0.747 0,0"
         style="fill:#ffaa45;fill-opacity:1;fill-rule:nonzero;stroke:none"
         id="path352"
         inkscape:connector-curvature="0" />
    </g>
    <g
       id="g354"
       transform="matrix(2.5246631,0,0,-2.5246631,10.769159,1042.3951)"
       style="fill-opacity:1;fill:#ffaa45">
      <path
         d="m 0,0 c -0.747,0 -1.352,-0.605 -1.352,-1.352 0,-0.747 0.605,-1.352 1.352,-1.352 l 6.001,0 L 6.001,0 0,0 Z"
         style="fill:#ffaa45;fill-opacity:1;fill-rule:nonzero;stroke:none"
         id="path356"
         inkscape:connector-curvature="0" />
    </g>
    <g
       id="g358"
       transform="matrix(2.5246631,0,0,-2.5246631,54.58596,1042.3951)"
       style="fill-opacity:1;fill:#ffaa45">
      <path
         d="m 0,0 -6.001,0 0,-2.704 6.001,0 c 0.747,0 1.352,0.605 1.352,1.352 C 1.352,-0.605 0.747,0 0,0"
         style="fill:#ffaa45;fill-opacity:1;fill-rule:nonzero;stroke:none"
         id="path360"
         inkscape:connector-curvature="0" />
    </g>
    <g
       id="g362"
       transform="matrix(2.5246631,0,0,-2.5246631,59.779697,1008.365)"
       style="fill-opacity:1;fill:#ffaa45">
      <path
         d="m 0,0 -10.375,6.315 c -0.221,0.135 -0.499,0.135 -0.72,0 L -21.469,0 c -0.266,-0.162 -0.391,-0.48 -0.307,-0.779 0.084,-0.299 0.356,-0.505 0.667,-0.505 l 20.749,0 c 0.31,0 0.583,0.206 0.667,0.505 C 0.391,-0.48 0.265,-0.162 0,0"
         style="fill:#ffaa45;fill-opacity:1;fill-rule:nonzero;stroke:none"
         id="path364"
         inkscape:connector-curvature="0" />
    </g>
  </g>
</svg>
