<?xml version="1.0" encoding="UTF-8" standalone="no"?>
<!-- Created with Inkscape (http://www.inkscape.org/) -->

<svg
   xmlns:dc="http://purl.org/dc/elements/1.1/"
   xmlns:cc="http://creativecommons.org/ns#"
   xmlns:rdf="http://www.w3.org/1999/02/22-rdf-syntax-ns#"
   xmlns:svg="http://www.w3.org/2000/svg"
   xmlns="http://www.w3.org/2000/svg"
   xmlns:sodipodi="http://sodipodi.sourceforge.net/DTD/sodipodi-0.dtd"
   xmlns:inkscape="http://www.inkscape.org/namespaces/inkscape"
   width="65"
   height="65"
   viewBox="0 0 65.000001 65.000001"
   id="svg4604"
   version="1.1"
   inkscape:version="0.91 r13725"
   sodipodi:docname="lake.svg">
  <defs
     id="defs4606">
    <clipPath
       clipPathUnits="userSpaceOnUse"
       id="clipPath286">
      <path
         d="m 513.739,235.444 21.56,0 0,25.556 -21.56,0 0,-25.556 z"
         id="path288"
         inkscape:connector-curvature="0" />
    </clipPath>
  </defs>
  <sodipodi:namedview
     id="base"
     pagecolor="#ffffff"
     bordercolor="#666666"
     borderopacity="1.0"
     inkscape:pageopacity="0.0"
     inkscape:pageshadow="2"
     inkscape:zoom="3.959798"
     inkscape:cx="37.855935"
     inkscape:cy="-7.6802461"
     inkscape:document-units="px"
     inkscape:current-layer="svg4604"
     showgrid="false"
     units="px"
     inkscape:window-width="768"
     inkscape:window-height="848"
     inkscape:window-x="75"
     inkscape:window-y="24"
     inkscape:window-maximized="0" />
  <metadata
     id="metadata4609">
    <rdf:RDF>
      <cc:Work
         rdf:about="">
        <dc:format>image/svg+xml</dc:format>
        <dc:type
           rdf:resource="http://purl.org/dc/dcmitype/StillImage" />
        <dc:title />
      </cc:Work>
    </rdf:RDF>
  </metadata>
  <path
     d="m 13.377458,32.959755 c 1.10925,-0.0104 2.165466,-0.476417 3.019886,-1.310144 0.864567,0.817539 1.927783,1.263551 3.035637,1.253119 1.107853,-0.0104 2.16407,-0.476404 3.01849,-1.310131 0.864567,0.81754 1.927784,1.26355 3.035638,1.253121 1.106458,-0.0104 2.16407,-0.476405 3.01849,-1.310133 0.864567,0.817539 1.926388,1.263565 3.035637,1.25312 0.549741,-0.0052 0.992834,-0.562106 0.988653,-1.242651 -0.0042,-0.68227 -0.454079,-1.230789 -1.003821,-1.225612 -0.876237,0.0083 -1.702373,-0.458997 -2.272566,-1.284489 -0.190082,-0.278045 -0.459007,-0.443065 -0.765936,-0.434994 -0.293009,0.0027 -0.571078,0.166029 -0.759118,0.447627 -0.561368,0.837877 -1.384457,1.320655 -2.256508,1.328866 -0.876236,0.0083 -1.702371,-0.458994 -2.273972,-1.286203 -0.191477,-0.278029 -0.471521,-0.436038 -0.76453,-0.433277 l -0.0014,1.4e-5 c -0.294405,0.0027 -0.571078,0.166029 -0.759117,0.447625 -0.559973,0.837864 -1.381666,1.320628 -2.255113,1.328854 -0.873446,0.0083 -1.702372,-0.458996 -2.273971,-1.286203 -0.190083,-0.278043 -0.470126,-0.436051 -0.764531,-0.43328 -0.2958,0.0027 -0.572474,0.16603 -0.760513,0.447642 -0.559973,0.837862 -1.380271,1.320615 -2.256507,1.328865 -0.549741,0.0052 -0.992835,0.562108 -0.988642,1.244377 0.0042,0.680544 0.454068,1.229064 1.003809,1.223887 m 11.418476,13.206962 c 1.10925,-0.0104 2.165467,-0.476419 3.019896,-1.308417 0.864558,0.815812 1.927773,1.261825 3.035627,1.25139 1.107854,-0.0104 2.16407,-0.476403 3.018501,-1.308403 0.864556,0.815813 1.927774,1.261826 3.035627,1.251392 1.106458,-0.0104 2.164071,-0.476404 3.0185,-1.308404 0.864558,0.815813 1.926379,1.26184 3.035627,1.251393 0.549742,-0.0052 0.992846,-0.56038 0.988664,-1.240921 -0.0042,-0.684 -0.45408,-1.230793 -1.00382,-1.225616 -0.876237,0.0083 -1.702384,-0.46072 -2.272578,-1.286215 -0.190072,-0.276316 -0.459005,-0.443067 -0.765926,-0.433265 -0.293009,0.0027 -0.571088,0.164302 -0.759127,0.445899 -0.561367,0.837877 -1.384446,1.322381 -2.256498,1.330594 -0.876237,0.0083 -1.702382,-0.460721 -2.273982,-1.28793 -0.191477,-0.27803 -0.47151,-0.434312 -0.764519,-0.431552 l -0.0014,1.3e-5 c -0.294406,0.0027 -0.571089,0.164301 -0.759129,0.445899 -0.559973,0.837865 -1.381654,1.322356 -2.2551,1.330581 -0.873447,0.0083 -1.702384,-0.460722 -2.273984,-1.28793 -0.190083,-0.278043 -0.470116,-0.434322 -0.764521,-0.43155 -0.295798,0.0027 -0.572484,0.164301 -0.760523,0.445911 -0.559971,0.837865 -1.380259,1.322342 -2.256497,1.330593 -0.54974,0.0052 -0.992844,0.560381 -0.988641,1.244379 0.0042,0.680542 0.454058,1.227336 1.003798,1.222159 M 47.23643,23.731148 c 0.864556,0.815812 1.926376,1.261837 3.035625,1.251393 0.549742,-0.0052 0.992846,-0.560381 0.988664,-1.240924 -0.0042,-0.683997 -0.45408,-1.230791 -1.00382,-1.225614 -0.874842,0.0083 -1.702383,-0.460722 -2.271183,-1.286229 -0.19007,-0.276316 -0.4604,-0.443052 -0.767319,-0.433252 -0.29301,0.0027 -0.57109,0.164302 -0.759129,0.4459 -0.561367,0.837878 -1.38305,1.322368 -2.256497,1.330593 -0.87484,0.0083 -1.702383,-0.460722 -2.273983,-1.287929 -0.191477,-0.27803 -0.470115,-0.434324 -0.764519,-0.431552 l -0.0014,1.3e-5 c -0.29301,0.0027 -0.571089,0.164304 -0.759129,0.4459 -0.559973,0.837865 -1.380259,1.322343 -2.253706,1.330567 -0.874841,0.0083 -1.703777,-0.460709 -2.275378,-1.287915 -0.188687,-0.278057 -0.468721,-0.434338 -0.764519,-0.431554 -0.294405,0.0027 -0.572486,0.164303 -0.760523,0.445914 -0.559973,0.837865 -1.380261,1.322341 -2.256497,1.330593 -0.549742,0.0052 -0.99145,0.560366 -0.987248,1.244364 0.0042,0.680542 0.452663,1.22735 1.002404,1.222173 1.109249,-0.0104 2.165466,-0.476417 3.019897,-1.308417 0.864556,0.815812 1.929167,1.261811 3.037021,1.251379 1.106459,-0.0104 2.162674,-0.476391 3.017106,-1.308391 0.864557,0.815811 1.929168,1.261811 3.035626,1.251393 1.106458,-0.0104 2.164071,-0.476406 3.018503,-1.308405 M 1.5068237,28.601117 c -0.00797,-1.29545 0.9849206,-2.531231 2.7403468,-3.656731 0,0 31.7743745,-21.9327567 57.3179855,-0.116563 1.372094,0.982041 2.141947,2.054395 2.148909,3.187482 0.01789,2.912172 -4.925057,5.542861 -12.562695,7.226417 -2.222213,1.459771 -7.744897,1.940166 -4.7484,4.544454 1.349554,1.173993 2.317945,2.083832 3.024175,2.794038 0.821256,0.581298 1.38894,1.225442 1.652761,1.922543 0.217039,0.350337 0.182772,0.450848 0.182772,0.450848 l 0.0024,0.395543 c 0.09153,3.768252 -8.326056,7.278071 -18.798987,7.839629 -10.474316,0.563298 -19.038284,-2.036928 -19.128418,-5.805191 -0.03904,-1.583629 1.438986,-3.119358 3.927355,-4.410678 l -0.01676,-0.0016 c 0,0 0.02506,-0.0088 0.06125,-0.02303 0.333828,-0.172419 0.688616,-0.339865 1.058784,-0.502271 0.96642,-0.54631 2.194023,-1.506195 2.104861,-2.845791 -0.180008,-2.725816 -3.36184,-3.473117 -4.215345,-3.625723 -0.02512,2.36e-4 -0.05023,4.72e-4 -0.07685,-0.01658 -0.08102,-0.01658 -0.135485,-0.02118 -0.135485,-0.02118 l 0.0028,-0.0017 C 7.3293496,34.450424 1.5261444,31.743014 1.5068164,28.597662"
     style="fill:#ffaa45;fill-opacity:1;fill-rule:nonzero;stroke:none"
     id="path400"
     inkscape:connector-curvature="0" />
</svg>
