<?xml version="1.0" encoding="UTF-8" standalone="no"?>
<!-- Created with Inkscape (http://www.inkscape.org/) -->

<svg
   xmlns:dc="http://purl.org/dc/elements/1.1/"
   xmlns:cc="http://creativecommons.org/ns#"
   xmlns:rdf="http://www.w3.org/1999/02/22-rdf-syntax-ns#"
   xmlns:svg="http://www.w3.org/2000/svg"
   xmlns="http://www.w3.org/2000/svg"
   xmlns:sodipodi="http://sodipodi.sourceforge.net/DTD/sodipodi-0.dtd"
   xmlns:inkscape="http://www.inkscape.org/namespaces/inkscape"
   width="65"
   height="65"
   viewBox="0 0 65.000001 65.000001"
   id="svg2"
   version="1.1"
   inkscape:version="0.91 r13725"
   sodipodi:docname="locality.svg">
  <defs
     id="defs4" />
  <sodipodi:namedview
     id="base"
     pagecolor="#ffffff"
     bordercolor="#666666"
     borderopacity="1.0"
     inkscape:pageopacity="0.0"
     inkscape:pageshadow="2"
     inkscape:zoom="5.6"
     inkscape:cx="-16.590877"
     inkscape:cy="0.5057793"
     inkscape:document-units="px"
     inkscape:current-layer="layer1"
     showgrid="false"
     units="px"
     inkscape:window-width="1855"
     inkscape:window-height="1056"
     inkscape:window-x="1665"
     inkscape:window-y="24"
     inkscape:window-maximized="1" />
  <metadata
     id="metadata7">
    <rdf:RDF>
      <cc:Work
         rdf:about="">
        <dc:format>image/svg+xml</dc:format>
        <dc:type
           rdf:resource="http://purl.org/dc/dcmitype/StillImage" />
        <dc:title />
      </cc:Work>
    </rdf:RDF>
  </metadata>
  <g
     inkscape:label="Layer 1"
     inkscape:groupmode="layer"
     id="layer1"
     transform="translate(0,-987.36216)">
    <g
       id="g60"
       transform="matrix(2.2533154,0,0,-2.2533154,50.044217,1002.4233)">
      <path
         style="fill:#FFAA45;fill-opacity:1;fill-rule:nonzero;stroke:none"
         d="m 33.173828,4.7910156 c -6.633992,0 -12.576614,3.4290727 -15.892578,9.1757814 -3.318028,5.746708 -3.318028,12.604854 0,18.351562 l 15.273438,26.457032 c 0.127933,0.220789 0.363162,0.355468 0.621093,0.355468 0.253805,0 0.491207,-0.134679 0.619141,-0.355468 L 49.068359,32.318359 c 3.318028,-5.746708 3.318028,-12.604854 0,-18.351562 C 45.750332,8.2200883 39.809884,4.7910156 33.173828,4.7910156 Z m 0,4.2304688 c 7.688415,0 13.945313,6.2568976 13.945313,13.9453126 0,7.688415 -6.256898,13.943359 -13.945313,13.943359 -7.688415,0 -13.943359,-6.254944 -13.943359,-13.943359 0,-7.690479 6.254944,-13.9453126 13.943359,-13.9453126 z m 0,1.4335936 c -6.898114,0 -12.509766,5.613605 -12.509766,12.511719 10e-7,1.021408 0.124363,2.013703 0.355469,2.962891 l 6.988281,-9.869141 c 0.132061,-0.189838 0.583985,-0.791016 0.583985,-0.791016 0,0 0.44986,0.601178 0.583984,0.791016 l 3.998047,5.648437 4,-5.648437 c 0.134124,-0.189838 0.583984,-0.304688 0.583984,-0.304688 0,0 0.451814,0.11485 0.585938,0.304688 l 6.986328,9.869141 c 0.231107,-0.951251 0.355469,-1.943547 0.355469,-2.962891 0,-6.898114 -5.613605,-12.511719 -12.511719,-12.511719 z m -1.40625,11.746094 -0.980469,1.166016 c -0.13206,0.154758 -0.321219,0.247605 -0.523437,0.255859 l -0.02539,0 c -0.193964,0 -0.377484,-0.07855 -0.513672,-0.216797 l -1.146484,-1.181641 -1.070313,1.041016 c -0.274438,0.266185 -0.709715,0.26976 -0.988281,0.0098 l -1.123047,-1.048829 -3.828125,5.40625 c 1.852979,4.59324 6.356052,7.84375 11.605469,7.84375 5.249417,0 9.754444,-3.25051 11.607422,-7.84375 l -3.845703,-5.43164 -0.982422,1.166016 c -0.129997,0.154758 -0.319266,0.247605 -0.521484,0.255859 l -0.02539,0 c -0.193964,0 -0.377484,-0.07855 -0.513672,-0.216797 l -1.146484,-1.181641 -1.070313,1.041016 c -0.274439,0.266185 -0.709715,0.26976 -0.988281,0.0098 l -1.123047,-1.048829 -0.513672,0.720704 2.835938,4.003906 c 0.229043,0.323962 0.150023,0.769004 -0.171875,0.998047 -0.125871,0.08873 -0.269732,0.132812 -0.41211,0.132812 -0.224916,0 -0.445623,-0.106596 -0.585937,-0.304687 L 31.76758,22.20124 Z"
         transform="matrix(0.48462524,0,0,-0.48462524,-23.780035,6.7686832)"
         id="path62"
         inkscape:connector-curvature="0" />
    </g>
    <g
       id="g64"
       transform="matrix(2.0634501,0,0,-2.0634501,45.330571,1013.2915)" />
  </g>
</svg>
