<?xml version="1.0" encoding="UTF-8" standalone="no"?>
<!-- Created with Inkscape (http://www.inkscape.org/) -->

<svg
   xmlns:dc="http://purl.org/dc/elements/1.1/"
   xmlns:cc="http://creativecommons.org/ns#"
   xmlns:rdf="http://www.w3.org/1999/02/22-rdf-syntax-ns#"
   xmlns:svg="http://www.w3.org/2000/svg"
   xmlns="http://www.w3.org/2000/svg"
   xmlns:sodipodi="http://sodipodi.sourceforge.net/DTD/sodipodi-0.dtd"
   xmlns:inkscape="http://www.inkscape.org/namespaces/inkscape"
   width="65"
   height="65"
   viewBox="0 0 65.000001 65.000001"
   id="svg4604"
   version="1.1"
   inkscape:version="0.91 r13725"
   sodipodi:docname="shelter.svg">
  <defs
     id="defs4606">
    <clipPath
       clipPathUnits="userSpaceOnUse"
       id="clipPath286">
      <path
         d="m 513.739,235.444 21.56,0 0,25.556 -21.56,0 0,-25.556 z"
         id="path288"
         inkscape:connector-curvature="0" />
    </clipPath>
    <clipPath
       clipPathUnits="userSpaceOnUse"
       id="clipPath406">
      <path
         d="m 57.255,313.364 43.245,0 0,29.167 -43.245,0 0,-29.167 z"
         id="path408"
         inkscape:connector-curvature="0" />
    </clipPath>
  </defs>
  <sodipodi:namedview
     id="base"
     pagecolor="#ffffff"
     bordercolor="#666666"
     borderopacity="1.0"
     inkscape:pageopacity="0.0"
     inkscape:pageshadow="2"
     inkscape:zoom="2.8"
     inkscape:cx="12.985911"
     inkscape:cy="5.826634"
     inkscape:document-units="px"
     inkscape:current-layer="layer1"
     showgrid="false"
     units="px"
     inkscape:window-width="768"
     inkscape:window-height="848"
     inkscape:window-x="75"
     inkscape:window-y="24"
     inkscape:window-maximized="0" />
  <metadata
     id="metadata4609">
    <rdf:RDF>
      <cc:Work
         rdf:about="">
        <dc:format>image/svg+xml</dc:format>
        <dc:type
           rdf:resource="http://purl.org/dc/dcmitype/StillImage" />
        <dc:title />
      </cc:Work>
    </rdf:RDF>
  </metadata>
  <g
     inkscape:label="Layer 1"
     inkscape:groupmode="layer"
     id="layer1"
     transform="translate(0,-987.36216)">
    <g
       id="g88"
       transform="matrix(2.6369645,0,0,-2.6369645,33.683957,992.77207)">
      <path
         d="m 0,0 5.45,-5.072 5.452,-5.074 c 0.221,-0.211 0.235,-0.557 0.032,-0.788 -0.112,-0.116 -0.262,-0.172 -0.41,-0.172 l 0,-0.007 -2.758,0 0,-9.957 c 0,-0.308 -0.252,-0.56 -0.559,-0.56 l -2.116,0 c -0.308,0 -0.551,0.252 -0.551,0.56 l 0,8.767 -9.837,0 0,-8.767 c 0,-0.308 -0.251,-0.56 -0.56,-0.56 l -2.116,0 c -0.307,0 -0.552,0.252 -0.552,0.56 l 0,9.957 -2.762,0 c -0.308,0 -0.553,0.25 -0.553,0.557 0,0.175 0.08,0.332 0.206,0.434 l 5.426,5.05 5.452,5.081 C -0.545,0.206 -0.213,0.206 0,0"
         style="fill:#ffaa45;fill-opacity:1;fill-rule:nonzero;stroke:none"
         id="path90"
         inkscape:connector-curvature="0" />
    </g>
  </g>
</svg>
