<?xml version="1.0" encoding="UTF-8" standalone="no"?>
<!-- Created with Inkscape (http://www.inkscape.org/) -->

<svg
   xmlns:dc="http://purl.org/dc/elements/1.1/"
   xmlns:cc="http://creativecommons.org/ns#"
   xmlns:rdf="http://www.w3.org/1999/02/22-rdf-syntax-ns#"
   xmlns:svg="http://www.w3.org/2000/svg"
   xmlns="http://www.w3.org/2000/svg"
   xmlns:sodipodi="http://sodipodi.sourceforge.net/DTD/sodipodi-0.dtd"
   xmlns:inkscape="http://www.inkscape.org/namespaces/inkscape"
   width="65"
   height="65"
   viewBox="0 0 65.000001 65.000001"
   id="svg4604"
   version="1.1"
   inkscape:version="0.91 r13725"
   sodipodi:docname="waterpoint.svg">
  <defs
     id="defs4606">
    <clipPath
       clipPathUnits="userSpaceOnUse"
       id="clipPath286">
      <path
         d="m 513.739,235.444 21.56,0 0,25.556 -21.56,0 0,-25.556 z"
         id="path288"
         inkscape:connector-curvature="0" />
    </clipPath>
  </defs>
  <sodipodi:namedview
     id="base"
     pagecolor="#ffffff"
     bordercolor="#666666"
     borderopacity="1.0"
     inkscape:pageopacity="0.0"
     inkscape:pageshadow="2"
     inkscape:zoom="2.8"
     inkscape:cx="41.55734"
     inkscape:cy="5.826634"
     inkscape:document-units="px"
     inkscape:current-layer="layer1"
     showgrid="false"
     units="px"
     inkscape:window-width="768"
     inkscape:window-height="848"
     inkscape:window-x="75"
     inkscape:window-y="24"
     inkscape:window-maximized="0" />
  <metadata
     id="metadata4609">
    <rdf:RDF>
      <cc:Work
         rdf:about="">
        <dc:format>image/svg+xml</dc:format>
        <dc:type
           rdf:resource="http://purl.org/dc/dcmitype/StillImage" />
        <dc:title />
      </cc:Work>
    </rdf:RDF>
  </metadata>
  <g
     inkscape:label="Layer 1"
     inkscape:groupmode="layer"
     id="layer1"
     transform="translate(0,-987.36216)">
    <g
       transform="matrix(2.3871951,0,0,-2.3871951,-1219.5131,1613.4042)"
       id="g282"
       style="fill:#ffaa45;fill-opacity:1">
      <g
         id="g284"
         clip-path="url(#clipPath286)"
         style="fill:#ffaa45;fill-opacity:1">
        <g
           id="g290"
           transform="translate(534.803,248.6089)"
           style="fill:#ffaa45;fill-opacity:1">
          <path
             d="m 0,0 0,4.338 c 0,0.339 -0.278,0.618 -0.62,0.618 l -5.999,0 c -0.562,0.943 -1.461,1.66 -2.532,1.981 0.284,0.157 0.478,0.46 0.478,0.807 0,0.515 -0.417,0.929 -0.929,0.929 l -0.312,0 0,1.241 2.79,0 c 0.514,0 0.928,0.414 0.928,0.928 0,0.514 -0.414,0.929 -0.928,0.929 l -2.79,0 c 0,0.342 -0.205,0.62 -0.616,0.62 -0.415,0 -0.62,-0.278 -0.62,-0.62 l -2.79,0 c -0.511,0 -0.929,-0.415 -0.929,-0.929 0,-0.514 0.418,-0.928 0.929,-0.928 l 2.79,0 0,-1.241 -0.313,0 c -0.511,0 -0.928,-0.414 -0.928,-0.929 0,-0.381 0.23,-0.704 0.557,-0.849 -0.769,-0.257 -1.443,-0.717 -1.96,-1.32 l -4.793,0 0,1.861 c 0,0.684 -0.553,1.237 -1.236,1.237 -0.687,0 -1.241,-0.553 -1.241,-1.237 l 0,-9.293 c 0,-0.687 0.554,-1.241 1.241,-1.241 0.683,0 1.236,0.554 1.236,1.241 l 0,2.477 4.23,0 c 0.744,-1.412 2.223,-2.374 3.929,-2.374 2.169,0 3.972,1.554 4.359,3.612 l 1.734,0 c 0.339,0 0.617,-0.279 0.617,-0.617 l 0,-1.241 c -0.339,0 -0.617,-0.278 -0.617,-0.62 l 0,-1.237 c 0,-0.342 0.278,-0.62 0.617,-0.62 l 3.718,0 c 0.342,0 0.62,0.278 0.62,0.62 l 0,1.237 C 0.62,-0.278 0.342,0 0,0"
             style="fill:#ffaa45;fill-opacity:1;fill-rule:nonzero;stroke:none"
             id="path292"
             inkscape:connector-curvature="0" />
        </g>
        <g
           id="g294"
           transform="translate(530.2353,238.6565)"
           style="fill:#ffaa45;fill-opacity:1">
          <path
             d="m 0,0 c 0,-1.434 1.162,-2.596 2.595,-2.596 1.431,0 2.593,1.162 2.593,2.596 0,1.43 -2.596,5.152 -2.596,5.152 C 2.592,5.152 0,1.43 0,0"
             style="fill:#ffaa45;fill-opacity:1;fill-rule:nonzero;stroke:none"
             id="path296"
             inkscape:connector-curvature="0" />
        </g>
      </g>
    </g>
  </g>
</svg>
