<?xml version="1.0" encoding="UTF-8" standalone="no"?>
<!-- Created with Inkscape (http://www.inkscape.org/) -->

<svg
   xmlns:dc="http://purl.org/dc/elements/1.1/"
   xmlns:cc="http://creativecommons.org/ns#"
   xmlns:rdf="http://www.w3.org/1999/02/22-rdf-syntax-ns#"
   xmlns:svg="http://www.w3.org/2000/svg"
   xmlns="http://www.w3.org/2000/svg"
   xmlns:sodipodi="http://sodipodi.sourceforge.net/DTD/sodipodi-0.dtd"
   xmlns:inkscape="http://www.inkscape.org/namespaces/inkscape"
   width="65"
   height="65"
   viewBox="0 0 65.000001 65.000001"
   id="svg4604"
   version="1.1"
   inkscape:version="0.91 r13725"
   sodipodi:docname="waterfall.svg">
  <defs
     id="defs4606">
    <clipPath
       clipPathUnits="userSpaceOnUse"
       id="clipPath286">
      <path
         d="m 513.739,235.444 21.56,0 0,25.556 -21.56,0 0,-25.556 z"
         id="path288"
         inkscape:connector-curvature="0" />
    </clipPath>
    <clipPath
       clipPathUnits="userSpaceOnUse"
       id="clipPath406">
      <path
         d="m 57.255,313.364 43.245,0 0,29.167 -43.245,0 0,-29.167 z"
         id="path408"
         inkscape:connector-curvature="0" />
    </clipPath>
  </defs>
  <sodipodi:namedview
     id="base"
     pagecolor="#ffffff"
     bordercolor="#666666"
     borderopacity="1.0"
     inkscape:pageopacity="0.0"
     inkscape:pageshadow="2"
     inkscape:zoom="2.8"
     inkscape:cx="32.1072"
     inkscape:cy="15.13804"
     inkscape:document-units="px"
     inkscape:current-layer="svg4604"
     showgrid="false"
     units="px"
     inkscape:window-width="768"
     inkscape:window-height="848"
     inkscape:window-x="75"
     inkscape:window-y="24"
     inkscape:window-maximized="0" />
  <metadata
     id="metadata4609">
    <rdf:RDF>
      <cc:Work
         rdf:about="">
        <dc:format>image/svg+xml</dc:format>
        <dc:type
           rdf:resource="http://purl.org/dc/dcmitype/StillImage" />
        <dc:title />
      </cc:Work>
    </rdf:RDF>
  </metadata>
  <path
     d="m 21.716212,57.648324 c 1.371723,0.612129 2.556289,1.138932 5.10166,1.172014 2.542562,0.03305 3.741823,-0.462777 5.128991,-1.03905 1.498745,-0.621185 3.196669,-1.325486 6.40367,-1.283806 3.206997,0.04168 4.886045,0.789871 6.368139,1.449797 1.371722,0.612129 2.556269,1.140338 5.100236,1.173402 0.979098,0.01273 1.759728,-0.05441 2.427212,-0.172176 0.0074,-0.02378 0.01325,-0.04619 0.02198,-0.06996 0.734363,-1.912451 0.214372,-3.305913 -0.350832,-4.139379 -0.800919,-1.182155 -2.176165,-1.955898 -3.503635,-1.97315 -1.098499,-0.01428 -2.167029,0.368035 -3.007994,1.077855 -0.326739,0.276747 -0.752775,0.410302 -1.179394,0.372443 -0.426617,-0.03786 -0.820122,-0.245289 -1.094025,-0.574802 -0.998751,-1.202988 -2.46625,-1.904874 -4.025499,-1.92514 -0.896218,-0.01165 -1.786984,0.205786 -2.573619,0.626886 -0.602704,0.322337 -1.343308,0.228411 -1.847309,-0.233348 -1.334246,-1.225613 -3.067476,-1.912689 -4.878173,-1.936223 -1.765745,-0.02295 -3.482168,0.591194 -4.834496,1.729907 -0.514245,0.434476 -1.244305,0.502261 -1.830056,0.168696 -0.810324,-0.458716 -1.734361,-0.708164 -2.671315,-0.720342 -2.850199,-0.03704 -5.232514,2.08581 -5.591514,4.844715 0.153154,-8.05e-4 0.307711,-0.0017 0.46785,3.8e-4 3.206999,0.04168 4.886028,0.791276 6.368122,1.451203 m 15.349942,-33.238685 0.960401,24.152634 c 0.371487,-0.04435 0.746898,-0.06616 1.121962,-0.06129 1.054951,0.01371 2.082081,0.222351 3.038133,0.602878 l -2.089088,-24.654827 -3.031408,-0.0394 z m -3.219642,-0.04184 -2.508849,-0.03261 -1.38853,22.625817 c 1.71076,0.03773 3.369779,0.489204 4.847109,1.299402 L 33.84651,24.367749 Z M 22.453439,48.380905 c 0.4426,0.105501 0.876331,0.244614 1.296982,0.417274 0.908649,-0.620425 1.903859,-1.090802 2.948981,-1.401766 l 1.418616,-23.103114 -3.037026,-0.03947 -2.627553,24.127078 z m 40.485676,10.043428 c -0.01156,0.889195 -0.74153,1.599052 -1.62932,1.587514 -2.543966,-0.03306 -3.741842,0.464181 -5.128991,1.039049 -1.498763,0.622591 -3.196686,1.326892 -6.403686,1.285212 -3.205593,-0.04166 -4.886046,-0.789872 -6.368121,-1.451203 -1.371742,-0.610724 -2.556289,-1.138932 -5.100255,-1.171995 -2.543967,-0.03306 -3.741842,0.464182 -5.128992,1.03905 -1.498763,0.62259 -3.198092,1.326873 -6.403685,1.285211 -3.207,-0.04168 -4.886046,-0.789872 -6.369528,-1.451221 -1.37174,-0.610724 -2.556287,-1.138933 -5.100254,-1.171996 -2.543966,-0.03306 -3.741842,0.464182 -5.128991,1.03905 -1.4987611,0.62259 -3.1980921,1.326874 -6.4050915,1.285194 -0.8877882,-0.01154 -1.597645,-0.741513 -1.5861071,-1.629302 L 2.7013246,25.654548 c 0.011557,-0.889195 0.7415325,-1.599052 1.6293207,-1.587513 l 17.5113687,0.227589 0.200966,-1.84211 c 0.08939,-0.823554 0.790094,-1.443872 1.618885,-1.433102 l 17.935597,0.233104 c 0.827385,0.01075 1.511756,0.647667 1.582532,1.471899 l 0.155797,1.849557 17.316111,0.225052 c 0.889194,0.01156 1.599068,0.740126 1.587511,1.62932 l 0.699702,31.995989"
     style="fill:#ffaa45;fill-opacity:1;fill-rule:nonzero;stroke:none"
     id="path412"
     inkscape:connector-curvature="0" />
</svg>
