<?xml version="1.0" encoding="UTF-8" standalone="no"?>
<!-- Created with Inkscape (http://www.inkscape.org/) -->

<svg
   xmlns:dc="http://purl.org/dc/elements/1.1/"
   xmlns:cc="http://creativecommons.org/ns#"
   xmlns:rdf="http://www.w3.org/1999/02/22-rdf-syntax-ns#"
   xmlns:svg="http://www.w3.org/2000/svg"
   xmlns="http://www.w3.org/2000/svg"
   xmlns:sodipodi="http://sodipodi.sourceforge.net/DTD/sodipodi-0.dtd"
   xmlns:inkscape="http://www.inkscape.org/namespaces/inkscape"
   width="65"
   height="65"
   viewBox="0 0 65.000001 65.000001"
   id="svg2"
   version="1.1"
   inkscape:version="0.91 r13725"
   sodipodi:docname="webcam.svg">
  <defs
     id="defs4" />
  <sodipodi:namedview
     id="base"
     pagecolor="#ffffff"
     bordercolor="#666666"
     borderopacity="1.0"
     inkscape:pageopacity="0.0"
     inkscape:pageshadow="2"
     inkscape:zoom="5.6"
     inkscape:cx="31.637729"
     inkscape:cy="15.245742"
     inkscape:document-units="px"
     inkscape:current-layer="layer1"
     showgrid="false"
     units="px"
     inkscape:window-width="1855"
     inkscape:window-height="1056"
     inkscape:window-x="1665"
     inkscape:window-y="24"
     inkscape:window-maximized="1" />
  <metadata
     id="metadata7">
    <rdf:RDF>
      <cc:Work
         rdf:about="">
        <dc:format>image/svg+xml</dc:format>
        <dc:type
           rdf:resource="http://purl.org/dc/dcmitype/StillImage" />
        <dc:title></dc:title>
      </cc:Work>
    </rdf:RDF>
  </metadata>
  <g
     inkscape:label="Layer 1"
     inkscape:groupmode="layer"
     id="layer1"
     transform="translate(0,-987.36216)">
    <g
       id="g226"
       transform="matrix(2.4929478,0,0,-2.4929478,32.883576,1031.4656)">
      <path
         d="m 0,0 c -3.562,0 -6.459,2.898 -6.459,6.459 0,3.562 2.897,6.46 6.459,6.46 3.562,0 6.46,-2.898 6.46,-6.46 C 6.46,2.898 3.562,0 0,0 m 9.647,6.459 c 0,5.328 -4.319,9.648 -9.647,9.648 -5.328,0 -9.647,-4.32 -9.647,-9.648 0,-3.776 2.171,-7.046 5.332,-8.63 -0.884,-0.892 -1.495,-2.057 -1.691,-3.359 -0.034,-0.226 0.032,-0.455 0.181,-0.629 0.149,-0.172 0.366,-0.272 0.595,-0.272 l 10.461,0 c 0.228,0 0.445,0.1 0.593,0.273 0.149,0.173 0.216,0.402 0.182,0.628 -0.196,1.302 -0.806,2.467 -1.691,3.359 3.162,1.584 5.332,4.854 5.332,8.63"
         style="fill:#FFAA45;fill-opacity:1;fill-rule:nonzero;stroke:none"
         id="path228"
         inkscape:connector-curvature="0" />
    </g>
    <g
       id="g230"
       transform="matrix(2.4929478,0,0,-2.4929478,32.883576,1006.8229)">
      <path
         d="m 0,0 c -1.889,0 -3.426,-1.537 -3.426,-3.426 0,-1.888 1.537,-3.425 3.426,-3.425 1.889,0 3.426,1.537 3.426,3.425 C 3.426,-1.537 1.889,0 0,0"
         style="fill:#FFAA45;fill-opacity:1;fill-rule:nonzero;stroke:none"
         id="path232"
         inkscape:connector-curvature="0" />
    </g>
  </g>
</svg>
