<?xml version="1.0" encoding="utf-8"?>
<!-- Generator: Adobe Illustrator 19.0.1, SVG Export Plug-In . SVG Version: 6.00 Build 0)  -->
<svg version="1.1" xmlns="http://www.w3.org/2000/svg" xmlns:xlink="http://www.w3.org/1999/xlink" x="0px" y="0px"
	 width="100px" height="100px" viewBox="0 0 100 100" style="enable-background:new 0 0 100 100;" xml:space="preserve">
<style type="text/css">
	.st0{fill:#FFFFFF;}
	.st1{fill:none;stroke:#13110C;stroke-width:2;stroke-miterlimit:10;}
	.st2{fill:none;stroke:#BD1622;stroke-width:2;stroke-miterlimit:10;}
	.st3{fill:#1D1D1B;}
	.st4{fill:none;stroke:#FFFFFF;stroke-width:0.25;stroke-miterlimit:10;}
	.st5{fill:none;stroke:#FFFFFF;stroke-width:0.5;stroke-miterlimit:10;}
	.st6{fill:none;stroke:#1D1D1B;stroke-width:2;stroke-miterlimit:10;}
	g {
      display: none;
    }
    g:target {
      display: inline;
    }
</style>
<g id="level4">
	<path class="st0" d="M13.8,76.4l34.5-59.8c0.7-1.3,2.1-2.1,3.6-2.1c1.5,0,2.9,0.8,3.6,2.1L90,76.4c0.7,1.3,0.7,2.9,0,4.2
		c-0.7,1.3-2.1,2.1-3.6,2.1h-69c-1.5,0-2.9-0.8-3.6-2.1C13,79.2,13,77.6,13.8,76.4"/>
	<path class="st1" d="M86.4,82.7h-69c-1.5,0-3-0.8-3.7-2.2c-0.8-1.3-0.8-3,0-4.3l34.5-59.7c0.8-1.3,2.2-2.2,3.7-2.2
		c1.5,0,3,0.8,3.7,2.2l34.5,59.7c0.8,1.3,0.8,3,0,4.3C89.4,81.9,87.9,82.7,86.4,82.7z M51.9,14.6c-1.4,0-2.8,0.8-3.5,2L13.9,76.4
		c-0.7,1.2-0.7,2.8,0,4c0.7,1.2,2.1,2,3.5,2h69c1.4,0,2.8-0.8,3.5-2c0.7-1.2,0.7-2.8,0-4L55.4,16.7C54.7,15.4,53.3,14.6,51.9,14.6z"
		/>
	<polygon class="st2" points="51.9,23.7 82.1,75.9 21.7,75.9 	"/>
	<path class="st3" d="M55.4,68.1c0,1.9-1.5,3.5-3.5,3.5c-1.9,0-3.5-1.5-3.5-3.5c0-1.9,1.5-3.5,3.5-3.5
		C53.8,64.7,55.4,66.2,55.4,68.1"/>
	<path class="st4" d="M55.4,68.1c0,1.9-1.5,3.5-3.5,3.5c-1.9,0-3.5-1.5-3.5-3.5c0-1.9,1.5-3.5,3.5-3.5
		C53.8,64.7,55.4,66.2,55.4,68.1"/>
	<path class="st0" d="M54,60.8l2.5-22.6c0.2-1.8-0.7-3.6-2.3-4.5c-1.6-0.9-3.6-0.8-5.1,0.4c-1.5,1.1-2.1,3-1.7,4.8L50,61.3
		c0.1,0.7,0.5,1.3,1.2,1.6c0.7,0.3,1.4,0.2,2-0.2C53.8,62.2,54.1,61.5,54,60.8"/>
	<path class="st3" d="M54,60.8l2.5-22.6c0.2-1.8-0.7-3.6-2.3-4.5c-1.6-0.9-3.6-0.8-5.1,0.4c-1.5,1.1-2.1,3-1.7,4.8L50,61.3
		c0.1,0.7,0.5,1.3,1.2,1.6c0.7,0.3,1.4,0.2,2-0.2C53.8,62.2,54.1,61.5,54,60.8"/>
	<path class="st5" d="M54,60.8l2.5-22.6c0.2-1.8-0.7-3.6-2.3-4.5c-1.6-0.9-3.6-0.8-5.1,0.4c-1.5,1.1-2.1,3-1.7,4.8L50,61.3
		c0.1,0.7,0.5,1.3,1.2,1.6c0.7,0.3,1.4,0.2,2-0.2C53.8,62.2,54.1,61.5,54,60.8"/>
</g>
<g id="level1">
	<polygon class="st6" points="4.2,89.1 93.2,10.8 93.2,89.1 	"/>
	<polygon class="st0" points="4.2,89.1 93.2,10.8 93.2,89.1 	"/>
</g>
<g id="level2">
	<polygon class="st6" points="93.2,34.8 3.7,89.2 93.2,89.2 	"/>
	<polygon class="st0" points="93.2,34.8 3.7,89.2 93.2,89.2 	"/>
</g>
<g id="level3">
	<polygon class="st6" points="93.2,44.1 4.8,89 93.2,89 	"/>
	<polygon class="st0" points="93.2,44.1 4.8,89 93.2,89 	"/>
</g>
</svg>
