<svg xmlns="http://www.w3.org/2000/svg" xmlns:svg="http://www.w3.org/2000/svg" id="svg6" width="414.449" height="244.488" version="1.1" viewBox="0 0 414.449 244.488" xml:space="preserve"><g id="g300"><path id="path2-2" fill="#262323" d="m 249.74917,50 c -6.3,0 -9.5,2 -9.7,2 l 1,4 c 0.1,0 21.3,0 35.9,22.4 19.7,30.2 55.6,44 137,52.3 l 0.5,-4.2 c 0,0 -10,-1.7 -48.8,-14 -8.4,-2.8 -26.7,-12 -34.1,-15.899994 -10.4,-5.3 -19.4,-12.900006 -28.4,-20.200006 -6.4,-5.4 -12.5,-10.4 -18.5,-14.2 -16.3,-10 -27.7,-12.4 -35,-12.3 z m -19.4,14 c -0.6,0 -1.1,0.3 -1.5,0.9 -13.3,22.100002 -56.2,37.2 -58.9,37.7 l -2.2,1.2 c -1,1.2 -1.2,3 -1.2,4 l -1.7,3 c -0.2,0.3 -0.2,0.7 -0.3,1 v 0.6 c 0.2,0.6 0.5,1 1,1.3 7.6,5.3 55.3,-16.599994 71.2,-43 0.3,-0.5 0.4,-1.1 0.3,-1.7 -0.1,-0.5 -0.4,-1 -0.8,-1.3 l -3.2,-2.4 -1.6,-1 c -0.4,-0.3 -0.7,-0.4 -1,-0.4 z"/><path style="fill:#262323;fill-opacity:1;stroke:none;stroke-width:.620874" id="path869-1-0-91" d="m 55.23137,104.3 v 45.70195 c 0,7.55197 -1.0603,15.9731 3.5365,22.53794 6.894,9.84533 19.2855,11.26897 30.2704,11.26897 v 33.8069 h 29.4246 v -33.8069 c 10.805,0 23.2935,-1.14193 30.2928,-10.6429 4.952,-6.72198 4.1401,-15.2722 4.1401,-23.16401 V 104.3 h -29.4246 v 55.71883 H 84.65587 V 104.3 h -29.4245 m 11.895,75.12643 0.6261,0.62632 -0.6261,-0.62632 m 8.7647,3.13035 0.6262,0.62629 -0.6262,-0.62629 m 52.5886,0.62629 0.6261,0.62629 -0.6261,-0.62629"/><path style="fill:#262323;fill-opacity:1;stroke:none;stroke-width:.342525" id="path869-8-6-8-27" d="m 284.58737,171.36882 h 13.6015 v -13.27771 h -9.7154 l -3.733,0.0697 -0.1529,4.14027 v 9.06771 m -0.9718,5.18153 v 41.12852 h 11.0109 l 4.5541,-0.0631 -0.021,-3.17526 v -7.44846 -30.44158 z"/><path id="path2-8-9-1-0-09" fill="#262323" d="m 227.47647,204.72186 v -19 h -40.2 c -2.7,0 -4.3,-0.6 -5,-1.8 -0.4,-0.7 -0.5,-2.5 -0.4,-5.3 1.6,0 4.6,0 9,0.3 4.3,0.3 7.6,0.4 10,0.4 8,0 14.1,-1.2 18.3,-3.5 5.4,-3 8.2,-8.4 8.2,-16 v -16.1 c 0,-6 -2,-10.4 -6,-13.5 -3.4,-2.9 -8.2,-4.3 -14.2,-4.3 h -27.2 c -4.8945,-0.1886 -9.6326,1.743 -13,5.3 -3.3,3.6 -5,8 -5,13.2 v 41.8 c 0,12.3 6.7,18.5 20.1,18.5 z m -23.8,-44.8 h -16.4 c -3.5,0 -5.2,-1.4 -5.2,-4.2 v -5.8 c 0,-3 1.6,-4.6 4.8,-4.6 h 15.7 c 1.4,0 2.6,0.4 3.6,1.4 1,0.9 1.5,2 1.5,3.2 v 6 c 0,2.7 -1.3,4 -3.9,4 z"/></g><g id="g308" style="fill:#f93;fill-opacity:1"><path id="path4-5-36-3" fill="#f93" d="m 256.98227,132.88121 c -2.8837,0.15588 -9.8201,2.33814 -11.1451,19.71826 -2.6368,0.33753 -5.2913,0.5197 -7.9496,0.54557 l -1.9485,0.38969 c -0.9352,0.70143 -1.5587,1.94844 -1.7925,2.72782 l -1.8706,1.8705 c -0.2338,0.23382 -0.3117,0.46763 -0.4676,0.77939 v 0.38968 c -0.078,0.38969 0,0.85732 0.3118,1.16907 1.4808,1.8705 6.7806,2.41607 13.795,1.79257 0.1558,2.57195 0.4676,5.29977 0.7793,8.10553 0.7794,8.10553 1.5588,16.44488 0.5456,23.53721 -0.7794,5.14389 -2.7278,17.61395 -4.5983,22.13433 -8.5732,21.12114 -11.6907,25.48566 -11.6907,25.48566 l 2.7278,2.96164 c 28.6811,-31.48687 35.3059,-52.60801 25.096,-80.89943 -0.3644,-1.03034 -0.7021,-2.06985 -1.0132,-3.11751 13.0936,-2.80577 28.0576,-8.49522 37.0984,-16.83457 0.2338,-0.31174 0.4676,-0.70143 0.5456,-1.09113 0,-0.46762 -0.078,-0.85731 -0.3118,-1.247 l -1.8705,-2.41607 -1.0132,-1.16907 c -0.5456,-0.6235 -1.4029,-0.70144 -2.0264,-0.0779 -8.1835,7.55997 -22.6019,11.5348 -34.2926,13.56118 -0.9353,-11.1451 4.2086,-15.042 4.2866,-15.042 l -2.0264,-3.19545 z" style="fill:#f93;fill-opacity:1;stroke:none;stroke-width:.779377;stroke-opacity:1"/><path id="path1509-60" d="m 375.55487,53.248934 c -9.2162,0.08888 -12.1919,9.732272 -12.1919,9.732272 l -3.4893,0.557346 c 0,0 -1.9703,0.796801 -1.6352,2.854463 0.335,2.057652 2.6474,1.809438 2.6474,1.809438 0,0 11.8121,-2.351198 16.1301,8.234403 4.3179,10.585586 -9.7168,15.82243 -9.7168,15.82243 0,0 -1.5784,1.54333 -0.8399,3.13313 0.7385,1.58981 2.7674,1.46885 2.7674,1.46885 0,0 7.064,-3.93075 9.2659,-6.29918 2.2018,-2.36843 3.9943,-7.175824 3.9943,-7.175824 0,0 14.5496,3.52319 10.0767,15.398614 -4.4729,11.875404 -18.3329,3.456364 -19.8206,3.344074 -1.4877,-0.11229 -7.0171,2.79447 -7.0171,2.79447 0,0 -1.3923,0.97396 -0.5632,2.80802 0.8292,1.83406 2.6513,1.43207 2.6513,1.43207 l 4.5826,-1.96039 c 0,0 12.8871,6.95109 20.6373,-0.53606 7.7502,-7.487154 4.6968,-17.000974 4.6968,-17.000974 0,0 9.5825,-3.901217 6.992,-15.400561 -2.5906,-11.499341 -15.5864,-11.752648 -15.5864,-11.752648 0,0 -2.7373,-8.677456 -12.6699,-9.24265 -0.3104,-0.01764 -0.6142,-0.02418 -0.9115,-0.0213 z m 0.627,4.872908 c 0.9774,0.02527 2.0558,0.239347 3.2376,0.712165 7.5642,3.026017 5.0084,12.82089 5.0084,12.82089 0,0 -0.3225,2.153555 1.9507,2.593209 2.2733,0.439664 2.9784,-1.801699 2.9784,-1.801699 l 0.5031,-4.87484 c 0,0 7.9712,0.82721 10.1425,7.684795 2.1713,6.857585 -4.8264,10.187047 -4.8264,10.187047 0,0 -1.2438,-1.97607 -4.8903,-4.081398 -3.6466,-2.105331 -7.5668,-2.937674 -7.5668,-2.937674 0,0 -1.2887,-6.154021 -4.7761,-9.937405 -3.4875,-3.783383 -9.3878,-5.12255 -9.3878,-5.12255 0,0 2.3491,-5.379166 7.6267,-5.24254 z" style="fill:#f93;fill-opacity:1;stroke:none;stroke-width:.2;stroke-linecap:butt;stroke-linejoin:miter;stroke-dasharray:none;stroke-opacity:1"/><path style="fill:#f93;fill-opacity:1;stroke:none;stroke-width:.2;stroke-linecap:butt;stroke-linejoin:miter;stroke-dasharray:none;stroke-opacity:1" id="path1693-6" d="m 337.46397,74.002592 c 0,0 -2.153,-1.099142 -3.3843,0.723828 -1.2312,1.82297 0.4408,3.19582 0.4408,3.19582 l 23.7251,13.346746 c 0,0 1.7921,0.54101 2.9095,-1.0659 1.1173,-1.60691 -0.4773,-3.220784 -0.4773,-3.220784 z"/><path style="fill:#f93;fill-opacity:1;stroke:none;stroke-width:.2;stroke-linecap:butt;stroke-linejoin:miter;stroke-dasharray:none;stroke-opacity:1" id="path1693-1-2" d="m 299.94467,52.836451 c 0,0 -2.1531,-1.099142 -3.3843,0.723828 -1.2312,1.82297 0.4408,3.19582 0.4408,3.19582 l 28.9345,16.867274 c 0,0 1.7922,0.541007 2.9095,-1.065903 1.1174,-1.606909 -0.4772,-3.220769 -0.4772,-3.220769 z"/><path style="fill:#f93;fill-opacity:1;stroke:none;stroke-width:.2;stroke-linecap:butt;stroke-linejoin:miter;stroke-dasharray:none;stroke-opacity:1" id="path1693-9-6" d="m 313.43697,44.563099 c 0,0 -2.153,-1.099142 -3.3842,0.723828 -1.2312,1.82297 0.4408,3.19582 0.4408,3.19582 l 38.658,22.049401 c 0,0 1.7921,0.541007 2.9095,-1.065903 1.1174,-1.60691 -0.4772,-3.220766 -0.4772,-3.220766 z"/><path id="path4-4-1" fill="#f93" d="m 127.44917,0 c -6.1,0 -9.4,1.7 -9.7,1.9 l 0.5,5.7 c 0.2,0 26.7,3.2 40.7,37.2 19,46.000006 61.2,70.8 161.7,94.7 l 1.3,-5.9 c -0.1,0 -12.3,-3.8 -58.4,-27.2 -10,-5 -31.1,-21 -39.8,-27.6 -11.8,-9.1 -21.8,-21.3 -31.4,-33 -7,-8.6 -13.7,-16.7 -20.6,-23 -20.5,-18.5 -35.4,-22.6 -44.3,-22.8 z m -36.3,25.2 c -0.8,0 -1.5,0.6 -2,1.4 -16.6,32.2 -79,70.500006 -82.3,71.400006 l -2.9,1.8 c -0.9954,1.733844 -1.513,3.700754 -1.5,5.699994 l -1.99999995,4.4 c -0.3926,0.6983 -0.5338,1.51015 -0.4,2.3 0.1367,0.71338 0.5276,1.35295 1.09999995,1.8 9.7,7.5 69.8,-25.299994 89.7,-63.7 0.4,-0.7 0.5,-1.5 0.4,-2.3 -0.2,-0.8 7.8,-17 7.2,-17.5 l -4,-3.3 -2,-1.6 c -0.3733,-0.281113 -0.8332,-0.422635 -1.3,-0.4 z" style="fill:#f93;fill-opacity:1"/></g></svg>