<svg xmlns="http://www.w3.org/2000/svg" width="16.842" height="20" viewBox="0 0 16.842 20">
  <path id="directions_bus_24dp_5F6368_FILL0_wght400_GRAD0_opsz24" d="M162.105-860a1.019,1.019,0,0,1-.75-.3,1.019,1.019,0,0,1-.3-.75v-2.158a4.487,4.487,0,0,1-.763-1.171,3.4,3.4,0,0,1-.289-1.408v-10a3.356,3.356,0,0,1,2.026-3.2A15.087,15.087,0,0,1,168.421-880q4.526,0,6.474.974a3.349,3.349,0,0,1,1.947,3.237v10a3.4,3.4,0,0,1-.289,1.408,4.488,4.488,0,0,1-.763,1.171v2.158a1.019,1.019,0,0,1-.3.75,1.019,1.019,0,0,1-.75.3h-1.053a1.019,1.019,0,0,1-.75-.3,1.019,1.019,0,0,1-.3-.75v-1.053h-8.421v1.053a1.019,1.019,0,0,1-.3.75,1.019,1.019,0,0,1-.75.3Zm6.368-16.842h0Zm4.158,7.368h0Zm-10.526-2.105h12.632v-3.158H162.105Zm2.632,6.316a1.522,1.522,0,0,0,1.118-.461,1.522,1.522,0,0,0,.461-1.118,1.523,1.523,0,0,0-.461-1.118,1.523,1.523,0,0,0-1.118-.46,1.523,1.523,0,0,0-1.118.46,1.523,1.523,0,0,0-.461,1.118,1.522,1.522,0,0,0,.461,1.118A1.522,1.522,0,0,0,164.737-865.263Zm7.368,0a1.522,1.522,0,0,0,1.118-.461,1.522,1.522,0,0,0,.461-1.118,1.523,1.523,0,0,0-.461-1.118,1.523,1.523,0,0,0-1.118-.46,1.523,1.523,0,0,0-1.118.46,1.523,1.523,0,0,0-.461,1.118,1.522,1.522,0,0,0,.461,1.118A1.522,1.522,0,0,0,172.105-865.263Zm-9.526-11.579h11.789a3.367,3.367,0,0,0-1.7-.75,20.594,20.594,0,0,0-4.2-.3,18.485,18.485,0,0,0-4.118.329A4.787,4.787,0,0,0,162.579-876.842Zm1.632,12.632h8.421a2.027,2.027,0,0,0,1.487-.618,2.027,2.027,0,0,0,.618-1.487v-3.158H162.105v3.158a2.027,2.027,0,0,0,.618,1.487A2.027,2.027,0,0,0,164.211-864.211Z" transform="translate(-160 880)" fill="#5f6368"/>
</svg>
