<svg xmlns="http://www.w3.org/2000/svg" xmlns:xlink="http://www.w3.org/1999/xlink" width="150" height="100" x="0" y="0" enable-background="new 0 0 150 100" version="1.1" viewBox="0 0 150 100" xml:space="preserve"><style type="text/css">.st0{fill:#010101}.st1{fill:#fff}.st2{fill:#cbdb45}.st3{fill:#fff100}.st4{fill:#f6921e}.st5{fill:#ec1c24}g{display:none}g:target{display:inline}</style><g id="level1"><path d="M113.8,49.2l-38-38c-0.5-0.5-1.3-0.5-1.8,0l-38,38c-0.2,0.2-0.3,0.6-0.3,0.9c0,0.3,0.1,0.6,0.4,0.9l38,38 c0.2,0.2,0.6,0.4,0.9,0.4c0.3,0,0.6-0.1,0.9-0.4l38-38C114.3,50.5,114.3,49.7,113.8,49.2" class="st0"/><path d="M101.9,39.5l-4.7-4.7l0,0L82.7,20.2l0,0l-5-5l-1.5-1.5l-0.9-0.9c-0.1-0.1-0.2-0.1-0.3-0.1 c-0.1,0-0.3,0-0.4,0.1l-0.7,0.7h0L52.5,34.8l12.2-6.9l8.9,4.2l9.7-7.5l0.4,0.3l16.4,16.4c0.5,0.5,1.3,0.5,1.8,0 C102.4,40.8,102.4,40,101.9,39.5" class="st1"/><path d="M37.7,50.3l36.9,36.9c0.1,0.1,0.2,0.2,0.4,0.2c0.1,0,0.2-0.1,0.3-0.2l36.9-36.9c0.1-0.1,0.1-0.2,0.1-0.3H37.5 C37.5,50.1,37.6,50.3,37.7,50.3" class="st2"/><path d="M97.2,55.2c0.5,0.9-3.5,3.7-8.7,8.8c-5.8,5.8-12.8,13.9-13.9,14.6c-1.1,0.7-2.7,0.2-3.2-0.6 c-0.3-0.4-5.7-9.3-5.7-9.7c0-0.7,0.4-1.4,1.3-2c0.9-0.6,1.7-1.5,2.5-1.1c0.2,0.1,3.7,6,4.7,6c1.9,0,15.6-17,18.3-17.2 C93.2,54,96.5,53.7,97.2,55.2" class="st0"/></g><g id="level2"><path d="M113.8,49.2l-38-38c-0.5-0.5-1.3-0.5-1.8,0l-38,38c-0.2,0.2-0.4,0.6-0.4,0.9c0,0.3,0.1,0.6,0.4,0.9l38,38 c0.2,0.2,0.6,0.4,0.9,0.4c0.3,0,0.6-0.1,0.9-0.4l38-38C114.3,50.5,114.3,49.7,113.8,49.2" class="st0"/><path d="M37.7,50.3l36.9,36.9c0.1,0.1,0.2,0.1,0.3,0.1c0.1,0,0.3,0,0.3-0.1l36.9-36.9c0.1-0.1,0.1-0.2,0.1-0.3H37.6 C37.6,50.2,37.6,50.3,37.7,50.3" class="st3"/><path d="M71.3,55.3l0.7,14.5c0,2.1,5.7,2.1,5.7,0l0.7-14.5C78.4,53,71.3,53,71.3,55.3" class="st0"/><path d="M78,76c0,1.7-1.4,3.1-3.1,3.1c-1.7,0-3.1-1.4-3.1-3.1c0-1.7,1.4-3.1,3.1-3.1C76.6,72.9,78,74.3,78,76" class="st0"/><path d="M93.4,28.4c-0.8,0.8-1.2,1.9-1.2,2.9c0,1.1,0.4,2.1,1.2,2.9c0.6,0.6,1.4,1,2.3,1.1c0,1,0.4,1.9,1.1,2.6 c0.3,0.3,0.6,0.5,0.9,0.6c0.2,0.3,0.4,0.6,0.6,0.8c0.5,0.5,1.1,0.9,1.8,1.1c0.1,1.4,0.7,2.6,1.6,3.6c2.2,2.2,5.8,2.2,8,0 c1.1-1.1,1.7-2.5,1.7-4c0-1.5-0.6-2.9-1.7-4c-0.8-0.8-1.8-1.3-2.9-1.5c0.3-0.6,0.5-1.3,0.5-2c0-1.2-0.5-2.4-1.4-3.3 c-1.7-1.7-4.4-1.8-6.2-0.2c-0.2-0.3-0.3-0.5-0.6-0.7C97.6,26.8,95,26.8,93.4,28.4" class="st0"/><path d="M102.4,43.6c-0.9-0.9-1.4-2-1.4-3.3V40l-0.3-0.1c-0.7-0.2-1.2-0.5-1.7-1c-0.2-0.2-0.4-0.5-0.6-0.7l-0.1-0.1 L98.2,38c-0.3-0.1-0.6-0.3-0.8-0.6c-0.6-0.6-0.9-1.5-0.9-2.3l0-0.5l-0.5,0c-0.8-0.1-1.5-0.4-2.1-0.9c-1.3-1.3-1.3-3.3,0-4.6 c1.3-1.3,3.3-1.3,4.6,0c0.3,0.3,0.5,0.6,0.7,1l0.3,0.6l0.5-0.6l0.1-0.1c1.4-1.4,3.8-1.4,5.2,0c1.3,1.3,1.5,3.3,0.4,4.7l-0.5,0.6 l0.8,0.1c1.1,0.1,2.2,0.6,3,1.4c1.9,1.9,1.9,4.9,0,6.7C107.2,45.4,104.2,45.4,102.4,43.6" class="st1"/><path d="M109.7,36.2" class="st0"/><path d="M104.2,41.7l-6.9-6.9h0L82.7,20.2v0l-5-5l-1.5-1.5l-1-0.9c-0.1-0.1-0.2-0.1-0.3-0.1c-0.1,0-0.3,0-0.4,0.1 l-0.7,0.7l0,0L52.5,34.8l12.2-6.9l8.9,4.2l9.7-7.5l0.4,0.3l18.7,18.7c0.5,0.5,1.3,0.5,1.8,0C104.7,43.1,104.7,42.3,104.2,41.7" class="st1"/><path d="M103.9,36.3c-0.3-0.4-1-0.7-1.5-0.8c0,0,0,0,0,0c0,0-0.1,0-0.1,0c0,0,0,0.1,0,0.1c1.1,0.5,1.7,1.4,1.6,2.6 c-0.1,1.2-0.7,1.9-2,2.3c0,0,0,0,0,0.1c0,0,0,0.1,0.1,0.1c0.5,0,1.2-0.1,1.7-0.5c0.5-0.4,0.9-1.1,1-1.9c0-0.1,0-0.2,0-0.3 C104.5,37.4,104.3,36.8,103.9,36.3" class="st0"/></g><g id="level3"><path d="M123.6,36.5c-0.4,0-0.9,0.1-1.3,0.2c-0.9-3.1-3.7-5.2-7-5.2c-3.1,0-5.7,1.9-6.8,4.7c-0.8-0.4-1.7-0.6-2.6-0.6 c-1.6,0-3,0.6-4.1,1.6l-26-26c-0.5-0.5-1.3-0.5-1.8,0l-38,38c-0.2,0.2-0.4,0.5-0.4,0.9c0,0.3,0.1,0.7,0.4,0.9l38,38 c0.2,0.2,0.5,0.4,0.9,0.4c0.3,0,0.6-0.1,0.9-0.4l38-38c0.2-0.2,0.4-0.6,0.4-0.9h9.4c3.7,0,6.7-3.1,6.7-6.8 C130.3,39.6,127.3,36.5,123.6,36.5" class="st0"/><path d="M123.6,37.4c-0.5,0-1,0.1-1.5,0.2l-0.4,0.1l-0.1-0.4c-0.7-2.9-3.3-4.9-6.2-4.9c-2.8,0-5.3,1.8-6.1,4.5 l-0.2,0.5l-0.5-0.3c-0.8-0.5-1.7-0.7-2.6-0.7c-1.9,0-3.5,1-4.4,2.5l-4.1-4.2L82.7,20.2c0,0,0,0,0,0L77.5,15l-1.2-1.2l-0.9-0.9 c-0.1-0.1-0.2-0.1-0.4-0.1c-0.1,0-0.3,0.1-0.4,0.1l-0.7,0.7l0,0L52.6,34.8l12.2-6.9l8.9,4.2l6.7-5.1l16.6,16.6 c0.6,0.6,1.1,1.2,1.5,1.6l0.4,0.4c1.2,1.3,3.6,3.6,6.2,3.6h18.7c3.2,0,5.8-2.7,5.8-5.9C129.4,40,126.8,37.4,123.6,37.4" class="st1"/><path d="M82.4,25.5l20,20c0.3,0.3,0.7,0.3,1,0c0.3-0.3,0.3-0.7,0-1L83.4,24.6L82.4,25.5z" class="st0"/><path d="M115.2,42.9c-0.2-1.1-0.8-2.1-2-2.7c-1.1-0.5-2.6-0.6-3.7-0.2c-0.9,0.3-1.8,1-2.1,1.7c0,0.1,0,0.1,0,0.2 c0.1,0,0.1,0,0.2,0c1.4-1.4,3.4-1.5,4.9-0.9c1.7,0.8,2.5,2.3,2.2,4.5c0,0.1,0,0.1,0.1,0.1c0.1,0,0.1,0,0.1-0.1 C115.3,44.8,115.4,43.8,115.2,42.9" class="st0"/><path d="M37.7,50.3l36.9,36.9c0.1,0.1,0.2,0.1,0.4,0.1c0.1,0,0.2,0,0.3-0.1l36.9-36.9c0.1-0.1,0.1-0.2,0.1-0.3H37.6 C37.6,50.1,37.7,50.3,37.7,50.3" class="st4"/><path d="M66.4,54.3l0.7,14.6c0,2.1,5.7,2.1,5.7,0l0.7-14.6C73.5,52,66.4,52,66.4,54.3" class="st0"/><path d="M73,74.9c0,1.7-1.4,3.1-3.1,3.1c-1.7,0-3.1-1.4-3.1-3.1c0-1.7,1.4-3.1,3.1-3.1C71.6,71.9,73,73.2,73,74.9" class="st0"/><path d="M76.4,54.3l0.7,14.6c0,2.1,5.7,2.1,5.7,0l0.7-14.6C83.5,52,76.4,52,76.4,54.3" class="st0"/><path d="M83,74.9c0,1.7-1.4,3.1-3.1,3.1c-1.7,0-3.1-1.4-3.1-3.1c0-1.7,1.4-3.1,3.1-3.1C81.6,71.9,83,73.2,83,74.9" class="st0"/></g><g id="level4"><path d="M139.5,35c0-0.2,0-0.4,0-0.4c0-2.4-1.9-4.3-4.3-4.3c-0.5,0-1,0.1-1.5,0.3c-0.8-3.5-3.8-5.9-7.4-5.9 c-3.2,0-6.1,2.1-7.2,5.1c-1.2-0.7-2.5-1.1-3.9-1.1c-3.6,0-6.8,2.4-7.7,5.9c-0.9-0.7-2-1.1-3.2-1.1c-1.7,0-3.2,0.8-4.2,1.9 L75.9,11.2c-0.5-0.5-1.3-0.5-1.8,0l-38,38c-0.2,0.2-0.4,0.6-0.4,0.9c0,0.3,0.1,0.7,0.4,0.9l38,38c0.2,0.2,0.6,0.4,0.9,0.4 c0.3,0,0.6-0.1,0.9-0.4l38-38c0.3-0.2,0.4-0.6,0.4-0.9H137c4.2,0,7.7-3.5,7.7-7.8C144.7,38.9,142.6,36,139.5,35" class="st0"/><path d="M138.9,35.7l-0.4-0.1l0.1-1c0-1.9-1.5-3.4-3.4-3.4c-0.6,0-1.1,0.1-1.6,0.4l-0.5,0.3l-0.1-0.6 c-0.5-3.3-3.3-5.7-6.7-5.7c-3,0-5.7,2-6.5,4.9l-0.2,0.6l-0.5-0.3c-1.2-0.8-2.5-1.2-3.9-1.2c-3.4,0-6.4,2.4-7.1,5.8l-0.2,0.8 l-0.6-0.5c-0.9-0.8-2-1.2-3.2-1.2c-2,0-3.7,1.3-4.4,3L75.3,12.8c-0.1-0.1-0.2-0.1-0.4-0.1c-0.1,0-0.2,0.1-0.4,0.1l-0.7,0.7h0 L52.6,34.8l12.2-6.9l8.9,4.2l3.5-2.6l13.7,13.7c1.3,1.6,5.4,6,9.9,6H137c3.8,0,6.8-3.1,6.8-6.9C143.8,39.2,141.8,36.5,138.9,35.7" class="st1"/><path d="M103,44.1L83.5,24.7l-1.1,0.8L102,45.1c0.3,0.3,0.7,0.3,1,0C103.3,44.9,103.3,44.4,103,44.1 M80.3,27l-1.1,0.9 l17.3,17.3c0.3,0.3,0.7,0.3,1,0c0.3-0.3,0.3-0.7,0-1L80.3,27z" class="st0"/><path d="M37.8,50.4l36.9,36.9c0.1,0.1,0.2,0.1,0.4,0.1c0.1,0,0.2-0.1,0.3-0.1l36.9-36.9c0.1-0.1,0.1-0.2,0.1-0.3H37.6 C37.6,50.2,37.7,50.3,37.8,50.4" class="st5"/><path d="M87.1,55.5c0.1,1-2,3.2-3.4,4.6c-1.4,1.5-3,3.5-4.2,5c1.1,1.1,2.2,2.2,3.4,3.3c1.1,1.1,2.3,2.2,3.5,3.3 c-0.2,0.7-1,1.5-1.4,1.5c-0.1,0.1-1.7,2.3-3.4,1.9c0,0-2.4-1.7-3.2-2.7c-0.9-0.9-2.4-2.2-3.3-3.2c-1.2,1.4-5.3,5.2-6.2,6.4 c0,0-1.4,0.5-3.2-1.4c-0.3-0.3-0.6-0.6-0.8-1c0.1-0.2-1.2-1.6-0.4-2.5c1.1-1.1,5.3-5,6.5-6.3c-1.2-1.5-6.4-8.3-6.1-9.4 c0.2-0.7,2.6-1.9,3.1-2l1.3-0.3c0.6,0.3,5.2,6.3,6,7.1c1.5-1.6,6-6.5,7.7-7.8c0.4,0.1,0.7,0.3,1,0.5c0.3,0.2,2.1,1.7,2.1,1.7 L87.1,55.5z" class="st0"/><path d="M122.9,36.8c-1.7-1.5-3.5-2-5.4-1.9c-1.5,0-2.9,0.6-3.9,1.7c0,0,0,0.1,0,0.1c0,0,0.1,0,0.1,0 c2.9-1.7,6-1.3,8.3,0.8c2.4,2.2,2.8,4.8,1.3,8.1c0,0,0,0.1,0,0.1c0,0,0.1,0,0.1,0c0.9-1,1.5-2.4,1.5-3.9 C125,40.1,124.5,38.3,122.9,36.8" class="st0"/><path d="M114,42.9c-0.3-1.1-1-2.1-2.2-2.7c-1.1-0.6-2.5-0.6-3.6-0.2c-0.9,0.3-1.7,1-2.1,1.7c0,0.1,0,0.1,0,0.2 c0.1,0,0.1,0,0.2,0c1.4-1.4,3.1-1.7,4.9-0.9c1.9,0.9,2.5,2.3,2.2,4.5c0,0.1,0,0.1,0.1,0.1c0.1,0,0.1,0,0.2-0.1 C114.1,44.8,114.2,43.8,114,42.9" class="st0"/></g></svg>