<svg xmlns="http://www.w3.org/2000/svg" width="17.987" height="16.344" viewBox="0 0 17.987 16.344">
  <g id="Groupe_166" data-name="Groupe 166" transform="translate(-1537 -4365.557)">
    <path id="directions_bike_24dp_5F6368_FILL0_wght400_GRAD0_opsz24" d="M3.747-883.656A3.506,3.506,0,0,1,1.1-884.822a3.969,3.969,0,0,1-1.1-2.82,3.969,3.969,0,0,1,1.1-2.82,3.506,3.506,0,0,1,2.651-1.166A3.506,3.506,0,0,1,6.4-890.463a3.969,3.969,0,0,1,1.1,2.82,3.969,3.969,0,0,1-1.1,2.82A3.506,3.506,0,0,1,3.747-883.656Zm0-1.595a2.1,2.1,0,0,0,1.593-.7A2.383,2.383,0,0,0,6-887.642a2.383,2.383,0,0,0-.656-1.694,2.1,2.1,0,0,0-1.593-.7,2.1,2.1,0,0,0-1.593.7,2.383,2.383,0,0,0-.656,1.694,2.383,2.383,0,0,0,.656,1.694A2.1,2.1,0,0,0,3.747-885.25Zm4.5-.8v-3.986l-2.4-2.232a1.422,1.422,0,0,1-.337-.508,1.662,1.662,0,0,1-.112-.608,1.55,1.55,0,0,1,.122-.608,1.7,1.7,0,0,1,.328-.508l2.1-2.232a1.47,1.47,0,0,1,.515-.359,1.583,1.583,0,0,1,.609-.12,1.583,1.583,0,0,1,.609.12,1.47,1.47,0,0,1,.515.359l1.424,1.515a3.955,3.955,0,0,0,1.2.877,3.292,3.292,0,0,0,1.424.319v1.595a4.859,4.859,0,0,1-2.033-.438,5.407,5.407,0,0,1-1.714-1.236l-.6-.638-1.8,1.913,1.649,1.834v4.943Zm3.373-10.763a1.4,1.4,0,0,1-1.059-.468,1.586,1.586,0,0,1-.44-1.126,1.586,1.586,0,0,1,.44-1.126A1.4,1.4,0,0,1,11.617-900a1.4,1.4,0,0,1,1.059.468,1.586,1.586,0,0,1,.44,1.126,1.586,1.586,0,0,1-.44,1.126A1.4,1.4,0,0,1,11.617-896.811Zm2.623,13.155a3.506,3.506,0,0,1-2.651-1.166,3.969,3.969,0,0,1-1.1-2.82,3.969,3.969,0,0,1,1.1-2.82,3.506,3.506,0,0,1,2.651-1.166,3.506,3.506,0,0,1,2.651,1.166,3.969,3.969,0,0,1,1.1,2.82,3.969,3.969,0,0,1-1.1,2.82A3.506,3.506,0,0,1,14.24-883.656Zm0-1.595a2.1,2.1,0,0,0,1.593-.7,2.383,2.383,0,0,0,.656-1.694,2.383,2.383,0,0,0-.656-1.694,2.1,2.1,0,0,0-1.593-.7,2.1,2.1,0,0,0-1.593.7,2.383,2.383,0,0,0-.656,1.694,2.383,2.383,0,0,0,.656,1.694A2.1,2.1,0,0,0,14.24-885.25Z" transform="translate(1537 5265.557)" fill="#5f6368"/>
  </g>
</svg>
