<?xml version="1.0" encoding="UTF-8" standalone="no"?>
<svg
   id="svg2"
   width="16"
   height="16"
   version="1.1"
   viewBox="0 0 16 16"
   sodipodi:docname="safari-pinned-tab.svg"
   inkscape:version="1.2-dev (9ee32be, 2021-06-19)"
   xmlns:inkscape="http://www.inkscape.org/namespaces/inkscape"
   xmlns:sodipodi="http://sodipodi.sourceforge.net/DTD/sodipodi-0.dtd"
   xmlns="http://www.w3.org/2000/svg"
   xmlns:svg="http://www.w3.org/2000/svg">
  <defs
     id="defs1389" />
  <sodipodi:namedview
     id="namedview1387"
     pagecolor="#ffffff"
     bordercolor="#666666"
     borderopacity="1.0"
     inkscape:pageshadow="2"
     inkscape:pageopacity="0.0"
     inkscape:pagecheckerboard="0"
     showgrid="false"
     inkscape:zoom="11.799507"
     inkscape:cx="18.475348"
     inkscape:cy="13.348015"
     inkscape:window-width="1299"
     inkscape:window-height="1027"
     inkscape:window-x="82"
     inkscape:window-y="25"
     inkscape:window-maximized="0"
     inkscape:current-layer="svg2" />
  <metadata
     id="metadata7" />
  <g
     id="layer1"
     transform="matrix(0.02671591,0,0,0.02671591,1,-17.187929)">
    <g
       id="g12"
       transform="matrix(1.25,0,0,-1.25,-119.81876,1477.5845)">
      <g
         id="g2936"
         transform="translate(2.5228132,103.43534)">
        <g
           id="g3028">
          <g
             id="g874"
             transform="matrix(1.2691802,0,0,1.2634365,-100.35696,-186.5756)">
            <path
               id="path24"
               fill="#262323"
               fill-opacity="1"
               fill-rule="nonzero"
               stroke="none"
               d="m 337.02561,395.20948 1.312,-0.881 c 0.063,-0.047 2.523,-1.878 2.523,-1.878 0.338,-0.251 0.565,-0.636 0.647,-1.083 0.072,-0.435 -0.011,-0.897 -0.226,-1.276 -12.657,-21.115 -50.69,-38.67 -56.803,-34.423 -0.339,0.236 -0.596,0.62 -0.678,1.061 -0.03,0.144 -0.041,0.293 -0.03,0.441 0.009,0.298 0.082,0.579 0.225,0.836 l 1.334,2.4 c 0.03,0.821 0.195,2.232 0.944,3.18 l 1.804,0.975 c 2.135,0.375 36.301,12.437 46.897,30.135 0.461,0.749 1.353,0.979 2.051,0.513" />
            <path
               id="path26"
               fill="#f68712"
               fill-opacity="1"
               fill-rule="nonzero"
               stroke="none"
               d="m 223.68461,425.23648 c -13.305,-25.703 -62.9798,-56.306 -65.656,-56.895 l -2.2672,-1.437 c -0.9543,-1.379 -1.1589,-3.414 -1.1906,-4.594 l -1.6711,-3.493 c -0.1851,-0.364 -0.2773,-0.784 -0.2879,-1.206 -0.009,-0.215 0.0106,-0.43 0.0516,-0.641 0.1133,-0.625 0.4207,-1.164 0.8516,-1.503 7.7242,-5.964 55.6246,20.182 71.5026,50.856 0.277,0.548 0.38,1.205 0.277,1.841 -0.102,0.636 6.226,13.627 5.805,13.98 0,0 -3.108,2.575 -3.19,2.636 l -1.651,1.241 c -0.882,0.652 -2.01,0.308 -2.574,-0.785" />
            <path
               id="path28"
               fill="#f68712"
               fill-opacity="1"
               fill-rule="nonzero"
               stroke="none"
               d="m 246.44461,445.01348 0.37,-4.616 c 0.214,-0.021 21.324,-2.503 32.453,-29.653 15.078,-36.773 48.783,-56.59 128.83,-75.6919 l 1.087,4.7369 c -0.103,0.032 -9.817,3.083 -46.588,21.751 -7.97,4.051 -24.781,16.745 -31.644,22.018 -9.476,7.271 -17.406,16.979 -25.089,26.37 -5.59,6.852 -10.872,13.324 -16.36,18.309 -27.602,25.115 -42.443,17.13 -43.059,16.776" />
            <path
               id="path50"
               fill="#262323"
               fill-opacity="1"
               fill-rule="nonzero"
               stroke="none"
               d="m 379.50961,396.81048 c 4.811,-2.991 9.652,-7.031 14.781,-11.309 7.036,-5.857 14.288,-11.914 22.515,-16.166 5.948,-3.077 20.504,-10.477 27.191,-12.627 30.873,-9.898 38.833,-11.22 38.905,-11.226 l -0.359,-3.363 c -64.928,6.682 -93.524,17.616 -109.238,41.782 -11.621,17.841 -28.494,17.837 -28.658,17.832 l -0.78,3.164 c 0.461,0.292 11.283,7.015 35.643,-8.087" />
          </g>
        </g>
      </g>
    </g>
  </g>
</svg>
