<svg xmlns="http://www.w3.org/2000/svg" width="123.999" height="66.726" viewBox="0 0 123.999 66.726">
  <g id="undraw_connection-lost_am29" transform="translate(-368.866 -254.661)">
    <ellipse id="Ellipse_750" data-name="Ellipse 750" cx="23.126" cy="4.047" rx="23.126" ry="4.047" transform="translate(368.866 289.814)" fill="#090814"/>
    <ellipse id="Ellipse_751" data-name="Ellipse 751" cx="29.745" cy="4.047" rx="29.745" ry="4.047" transform="translate(433.375 313.294)" fill="#090814"/>
    <path id="Tracé_2008" data-name="Tracé 2008" d="M498.566,646.045a21.677,21.677,0,0,1-5.309-.59l.156-.611c9.562,2.444,27.338-3.175,29.262-9.249l.6.19C521.6,641.064,508.52,646.045,498.566,646.045Z" transform="translate(-69.525 -331.436)" fill="#2f2e41"/>
    <path id="Tracé_2009" data-name="Tracé 2009" d="M352.922,378.8c-2.24-.572-3.4-1.234-3.754-2.147-.443-1.134.388-2.412,1.537-4.181,1.754-2.7,4.156-6.394,3.766-12.035-.22-3.188-1.361-5.533-3.391-6.971-4.132-2.926-10.65-1.173-10.715-1.155l-.168-.608c.279-.077,6.866-1.852,11.245,1.246,2.194,1.553,3.425,4.057,3.658,7.444.4,5.851-2.166,9.805-3.867,12.422-1.047,1.611-1.8,2.775-1.479,3.608.271.694,1.327,1.256,3.323,1.765Z" transform="translate(67.446 -76.872)" fill="#2f2e41"/>
    <path id="Tracé_2010" data-name="Tracé 2010" d="M786.42,658.62l-3.2,5.414s-4.077,2.166-1.21,2.229,16.368,0,16.368,0,2.611,0-1.529-2.293l-3.005-5.809Z" transform="translate(-327.013 -351.63)" fill="#e6e6e6"/>
    <rect id="Rectangle_923" data-name="Rectangle 923" width="53.946" height="37.578" rx="18.046" transform="translate(435.984 270.272)" fill="#e6e6e6"/>
    <path id="Tracé_2011" data-name="Tracé 2011" d="M.42,0H49.9a.42.42,0,0,1,.42.42V29.96a.42.42,0,0,1-.42.42H.42A.42.42,0,0,1,0,29.96V.42A.42.42,0,0,1,.42,0Z" transform="translate(437.799 272.279)" fill="#337ab7"/>
    <circle id="Ellipse_752" data-name="Ellipse 752" cx="0.319" cy="0.319" r="0.319" transform="translate(462.639 271.068)" fill="#f2f2f2"/>
    <path id="Tracé_2012" data-name="Tracé 2012" d="M663.77,621.322v3.294a1.9,1.9,0,0,1-1.9,1.9H611.721a1.9,1.9,0,0,1-1.9-1.9v-3.294Z" transform="translate(-173.84 -318.663)" fill="#e6e6e6"/>
    <path id="Tracé_2013" data-name="Tracé 2013" d="M677.234,647.943v.637H642.968v-.51l.047-.127.845-2.293h32.674Z" transform="translate(-200.201 -329.871)" fill="#f2f2f2"/>
    <path id="Tracé_2014" data-name="Tracé 2014" d="M1043.923,743.361c-.062.267-.3.548-.831.815-1.91.955-5.8-.255-5.8-.255s-2.993-.509-2.993-1.847a2.408,2.408,0,0,1,.262-.156c.8-.425,3.467-1.474,8.189.044a1.97,1.97,0,0,1,.9.589A.937.937,0,0,1,1043.923,743.361Z" transform="translate(-553.703 -425.912)" fill="#f2f2f2"/>
    <path id="Tracé_2015" data-name="Tracé 2015" d="M1046.157,743.361c-2.339.9-4.423.963-6.563-.523a4.7,4.7,0,0,0-2.795-.92c.8-.425,3.467-1.474,8.19.044a1.971,1.971,0,0,1,.9.589A.938.938,0,0,1,1046.157,743.361Z" transform="translate(-555.938 -425.912)" fill="#e6e6e6"/>
    <path id="Tracé_2016" data-name="Tracé 2016" d="M677.234,667.465v.637H642.968v-.51l.047-.127Z" transform="translate(-200.201 -349.393)" opacity="0.1"/>
    <path id="Tracé_2017" data-name="Tracé 2017" d="M618.6,420.826H587.315a.943.943,0,0,1-.942-.942V409.33a.943.943,0,0,1,.942-.942H618.6a.943.943,0,0,1,.942.942v10.554A.943.943,0,0,1,618.6,420.826Z" transform="translate(-211.897 -153.727)" fill="#337ab7"/>
    <rect id="Rectangle_924" data-name="Rectangle 924" width="8.292" height="0.942" transform="translate(379.376 257.488)" fill="#f2f2f2"/>
    <circle id="Ellipse_753" data-name="Ellipse 753" cx="0.565" cy="0.565" r="0.565" transform="translate(398.033 257.488)" fill="#f2f2f2"/>
    <circle id="Ellipse_754" data-name="Ellipse 754" cx="0.565" cy="0.565" r="0.565" transform="translate(399.918 257.488)" fill="#f2f2f2"/>
    <circle id="Ellipse_755" data-name="Ellipse 755" cx="0.565" cy="0.565" r="0.565" transform="translate(401.802 257.488)" fill="#f2f2f2"/>
    <path id="Tracé_2018" data-name="Tracé 2018" d="M618.6,533.88H587.315a.943.943,0,0,1-.942-.942V522.384a.943.943,0,0,1,.942-.942H618.6a.943.943,0,0,1,.942.942v10.553a.943.943,0,0,1-.942.942Z" transform="translate(-211.897 -253.401)" fill="#e6e6e6"/>
    <rect id="Rectangle_925" data-name="Rectangle 925" width="8.292" height="0.942" transform="translate(379.376 270.868)" fill="#337ab7"/>
    <circle id="Ellipse_756" data-name="Ellipse 756" cx="0.565" cy="0.565" r="0.565" transform="translate(398.033 270.868)" fill="#337ab7"/>
    <circle id="Ellipse_757" data-name="Ellipse 757" cx="0.565" cy="0.565" r="0.565" transform="translate(399.918 270.868)" fill="#337ab7"/>
    <circle id="Ellipse_758" data-name="Ellipse 758" cx="0.565" cy="0.565" r="0.565" transform="translate(401.802 270.868)" fill="#337ab7"/>
    <path id="Tracé_2019" data-name="Tracé 2019" d="M618.6,646.934H587.315a.943.943,0,0,1-.942-.942V635.438a.943.943,0,0,1,.942-.942H618.6a.943.943,0,0,1,.942.942v10.554A.943.943,0,0,1,618.6,646.934Z" transform="translate(-211.897 -353.074)" fill="#e6e6e6"/>
    <rect id="Rectangle_926" data-name="Rectangle 926" width="8.292" height="0.942" transform="translate(379.376 284.249)" fill="#337ab7"/>
    <circle id="Ellipse_759" data-name="Ellipse 759" cx="0.565" cy="0.565" r="0.565" transform="translate(398.033 284.249)" fill="#337ab7"/>
    <circle id="Ellipse_760" data-name="Ellipse 760" cx="0.565" cy="0.565" r="0.565" transform="translate(399.918 284.249)" fill="#337ab7"/>
    <circle id="Ellipse_761" data-name="Ellipse 761" cx="0.565" cy="0.565" r="0.565" transform="translate(401.802 284.249)" fill="#337ab7"/>
    <g id="Groupe_211" data-name="Groupe 211" transform="translate(456.382 280.575)">
      <path id="Tracé_2020" data-name="Tracé 2020" d="M0,0H13.787V13.787H0Z" fill="none"/>
      <path id="Tracé_2021" data-name="Tracé 2021" d="M7.745,2a5.745,5.745,0,0,1,5.745,5.745A5.744,5.744,0,1,1,2,7.931l0-.186,0-.161A5.744,5.744,0,0,1,7.745,2ZM7.75,9.468l-.073,0a.574.574,0,0,0,0,1.141l.067,0,.073,0a.574.574,0,0,0,0-1.141ZM7.745,4.452a.574.574,0,0,0-.57.507l0,.067V8.165l0,.067a.574.574,0,0,0,1.141,0l0-.067V5.026l0-.067a.574.574,0,0,0-.571-.507Z" transform="translate(-0.851 -0.851)" fill="#f2f2f2"/>
    </g>
  </g>
</svg>
