<svg xmlns="http://www.w3.org/2000/svg" width="11.359" height="16.227" viewBox="0 0 11.359 16.227">
  <path id="accessible_24dp_5F6368_FILL0_wght400_GRAD0_opsz24" d="M205.679-876.755a1.562,1.562,0,0,1-1.146-.477,1.562,1.562,0,0,1-.477-1.146,1.562,1.562,0,0,1,.477-1.146,1.562,1.562,0,0,1,1.146-.477,1.562,1.562,0,0,1,1.146.477,1.562,1.562,0,0,1,.477,1.146,1.562,1.562,0,0,1-.477,1.146A1.562,1.562,0,0,1,205.679-876.755Zm4.057,12.981v-4.057h-4.057a1.562,1.562,0,0,1-1.146-.477,1.562,1.562,0,0,1-.477-1.146v-4.868a1.562,1.562,0,0,1,.477-1.146,1.562,1.562,0,0,1,1.146-.477,1.605,1.605,0,0,1,.842.213,3.333,3.333,0,0,1,.761.679,7.688,7.688,0,0,0,2.018,1.836,4.359,4.359,0,0,0,2.059.517v1.623a5.506,5.506,0,0,1-2.17-.466,7.728,7.728,0,0,1-1.886-1.116v2.8h2.434a1.562,1.562,0,0,1,1.146.477,1.562,1.562,0,0,1,.477,1.146v4.462Zm-5.679,0a3.91,3.91,0,0,1-2.87-1.187A3.91,3.91,0,0,1,200-867.83a3.924,3.924,0,0,1,.923-2.576,3.956,3.956,0,0,1,2.322-1.4v1.663a2.642,2.642,0,0,0-1.166.9,2.313,2.313,0,0,0-.456,1.41,2.347,2.347,0,0,0,.71,1.724,2.348,2.348,0,0,0,1.724.71,2.313,2.313,0,0,0,1.41-.456,2.642,2.642,0,0,0,.9-1.166h1.663a3.956,3.956,0,0,1-1.4,2.322A3.924,3.924,0,0,1,204.057-863.773Z" transform="translate(-200 880)" fill="#5f6368"/>
</svg>
