<svg xmlns="http://www.w3.org/2000/svg" width="13.5" height="15" viewBox="0 0 13.5 15">
  <path id="bus_railway_24dp_5F6368_FILL0_wght400_GRAD0_opsz24" d="M163.375-871.75a1.085,1.085,0,0,0-.8.328,1.085,1.085,0,0,0-.328.8,1.085,1.085,0,0,0,.328.8,1.085,1.085,0,0,0,.8.328,1.085,1.085,0,0,0,.8-.328,1.085,1.085,0,0,0,.328-.8,1.084,1.084,0,0,0-.328-.8A1.084,1.084,0,0,0,163.375-871.75Zm6.75-2.25a3.529,3.529,0,0,1,2.438.834A2.763,2.763,0,0,1,173.5-871v3a1.444,1.444,0,0,1-.441,1.059A1.445,1.445,0,0,1,172-866.5l1.5,1.5h-6.75l1.5-1.5a1.445,1.445,0,0,1-1.059-.441A1.444,1.444,0,0,1,166.75-868v-3a2.764,2.764,0,0,1,.938-2.166A3.529,3.529,0,0,1,170.125-874Zm0,4.875a.54.54,0,0,0-.394.169.54.54,0,0,0-.169.394.54.54,0,0,0,.169.394.54.54,0,0,0,.394.169.54.54,0,0,0,.394-.169.54.54,0,0,0,.169-.394.54.54,0,0,0-.169-.394A.54.54,0,0,0,170.125-869.125Zm-2.1-2.625a1.691,1.691,0,0,0-.112.356,2,2,0,0,0-.038.394v.75h4.5V-871a2.006,2.006,0,0,0-.037-.394,1.69,1.69,0,0,0-.113-.356ZM166-880a11.084,11.084,0,0,1,4.613.694A2.386,2.386,0,0,1,172-877v1.8a4.979,4.979,0,0,0-.712-.178q-.375-.066-.788-.1v-.769h-9V-874h4.875a3.7,3.7,0,0,0-.516.694,4.731,4.731,0,0,0-.366.806H161.5v2.25a1.444,1.444,0,0,0,.441,1.059,1.445,1.445,0,0,0,1.059.441h2.25v1.5H163v.75a.726.726,0,0,1-.216.534.726.726,0,0,1-.534.216h-.75a.726.726,0,0,1-.534-.216.725.725,0,0,1-.216-.534v-1.538a3.2,3.2,0,0,1-.544-.834,2.421,2.421,0,0,1-.206-1V-877a2.391,2.391,0,0,1,1.444-2.278A10.748,10.748,0,0,1,166-880Zm.038,2.25h0Zm-4.2,0h8.4a2.4,2.4,0,0,0-1.209-.534,14.669,14.669,0,0,0-2.991-.216,13.169,13.169,0,0,0-2.934.234A3.412,3.412,0,0,0,161.837-877.75ZM165.494-872.5Z" transform="translate(-160 880)" fill="#363636"/>
</svg>
