<svg xmlns="http://www.w3.org/2000/svg" width="12" height="12" viewBox="0 0 12 12">
  <path id="Tracé_1812" data-name="Tracé 1812" d="M12,1.388A.644.644,0,0,0,11.452,1,.452.452,0,0,0,11,1.31c-1.242-.178-1.585.465-2.646.465a4.64,4.64,0,0,1-1.935-.393V4.41a4.091,4.091,0,0,0,1.935.461c1.057,0,1.412-.639,2.646-.463v3.2c-.667.087-1.1.386-1.1.747a.426.426,0,0,0,.049.183L5.528,10.306A4.043,4.043,0,0,0,3.711,10C2.214,10,1,10.6,1,11.452S2.214,13,3.711,13s2.708-.694,2.708-1.548a.989.989,0,0,0-.2-.586l4.55-1.82A3.285,3.285,0,0,0,11.452,9C12.306,9,13,8.781,13,8.354c0-.361-.333-.659-1-.747" transform="translate(-1 -1)" fill="#fff"/>
</svg>
