<svg xmlns="http://www.w3.org/2000/svg" width="107.868" height="105" viewBox="0 0 107.868 105">
  <g id="undraw_hiking_0ckr" transform="translate(0.029)">
    <path id="Tracé_10" data-name="Tracé 10" d="M915.6,743.937a1.549,1.549,0,0,1,1.769-1.523" transform="translate(-819.812 -651.087)" fill="#3f3d56"/>
    <circle id="Ellipse_19" data-name="Ellipse 19" cx="0.844" cy="0.844" r="0.844" transform="translate(94.471 89.522)" fill="#337ab7"/>
    <rect id="Rectangle_29" data-name="Rectangle 29" width="0.238" height="1.668" transform="translate(95.178 91.787)" fill="#3f3d56"/>
    <path id="Tracé_11" data-name="Tracé 11" d="M231.588,245.636q0,.633-.041,1.256a19.021,19.021,0,0,1-1.782,6.906c-.008.018-.017.036-.025.053-.048.1-.1.2-.147.3a18.8,18.8,0,0,1-1.012,1.786,19.114,19.114,0,0,1-15.687,8.828l.189,10.882,2.468-1.3.441.838-2.89,1.522.353,20.21,0,.27-1.908.425,0-.271.6-32.573a19.077,19.077,0,0,1-13.5-5.872c-.12-.124-.239-.253-.356-.38l-.013-.015a19.155,19.155,0,0,1-3.485-5.393l.057.062a19.138,19.138,0,0,1,9.074-24.661l.2-.1a19.153,19.153,0,0,1,24.813,7.533c.116.2.229.4.337.6A19.034,19.034,0,0,1,231.588,245.636Z" transform="translate(-193.345 -203.459)" fill="#e5e5e5"/>
    <circle id="Ellipse_20" data-name="Ellipse 20" cx="25.079" cy="25.079" r="25.079" transform="translate(10.589 0)" fill="#337ab7"/>
    <path id="Tracé_12" data-name="Tracé 12" d="M281.434,117.084a25.081,25.081,0,0,0,41.789,26.543,25.081,25.081,0,1,1-41.789-26.543Z" transform="translate(-264.284 -108.756)" opacity="0.2" style="isolation: isolate"/>
    <path id="Tracé_13" data-name="Tracé 13" d="M263.212,259.4l-2.562-.718.005-.275.767-41.716.038-2.08v-.061l.134-7.288.195-10.564h0l.132-7.161h.07l.135,7.758.176,10.1.126,7.165v.053l.005.3h0l.243,13.966.025,1.388.5,28.864Z" transform="translate(-226.105 -164.217)" fill="#3f3d56"/>
    <rect id="Rectangle_30" data-name="Rectangle 30" width="4.685" height="1.24" transform="translate(35.666 65.044) rotate(-27.766)" fill="#3f3d56"/>
    <rect id="Rectangle_31" data-name="Rectangle 31" width="11.825" height="0.265" transform="translate(23.412 100.237)" fill="#cbcbcb"/>
    <rect id="Rectangle_32" data-name="Rectangle 32" width="11.825" height="0.265" transform="translate(45.169 104.735)" fill="#cbcbcb"/>
    <rect id="Rectangle_33" data-name="Rectangle 33" width="11.825" height="0.265" transform="translate(78.997 101.295)" fill="#cbcbcb"/>
    <path id="Tracé_14" data-name="Tracé 14" d="M837.565,686.005v-7.7S840.565,683.765,837.565,686.005Z" transform="translate(-752.149 -595.477)" fill="#f1f1f1"/>
    <path id="Tracé_15" data-name="Tracé 15" d="M801.781,702.336l-5.67-5.205S802.16,698.611,801.781,702.336Z" transform="translate(-716.185 -611.809)" fill="#f1f1f1"/>
    <path id="Tracé_16" data-name="Tracé 16" d="M394.565,700.005v-7.7S397.565,697.765,394.565,700.005Z" transform="translate(-367.903 -607.625)" fill="#f1f1f1"/>
    <path id="Tracé_17" data-name="Tracé 17" d="M358.781,716.336l-5.67-5.205S359.16,712.611,358.781,716.336Z" transform="translate(-331.945 -623.957)" fill="#f1f1f1"/>
    <path id="Tracé_18" data-name="Tracé 18" d="M548.565,729.714v-9.572S552.3,726.928,548.565,729.714Z" transform="translate(-501.478 -631.776)" fill="#f1f1f1"/>
    <path id="Tracé_19" data-name="Tracé 19" d="M504.068,750.021l-7.051-6.473S504.538,745.389,504.068,750.021Z" transform="translate(-456.761 -652.085)" fill="#f1f1f1"/>
    <path id="Tracé_20" data-name="Tracé 20" d="M199.838,687.9l-.073.255L177.5,681.833l-16.773,3.688-21.451,3.655-.029-.008-10.16-2.843-2.568-.719-7.845-2.2-6.543,1.454-1.913.425-4.159.925-.057-.258,4.22-.938,1.905-.423,6.555-1.457.032.008,7.81,2.186,2.558.716,10.208,2.858,21.386-3.643,16.833-3.7.033.008Z" transform="translate(-92 -591.135)" fill="#cbcbcb"/>
    <path id="Tracé_21" data-name="Tracé 21" d="M689.807,166.575l1.693-1.354a1.794,1.794,0,0,0-2.077,1.14,2.884,2.884,0,0,0-2.146.132l3.387,1.23A2.563,2.563,0,0,0,689.807,166.575Z" transform="translate(-621.789 -150.507)" fill="#3f3d56"/>
    <path id="Tracé_22" data-name="Tracé 22" d="M219.807,162.575l1.693-1.354a1.794,1.794,0,0,0-2.077,1.14,2.884,2.884,0,0,0-2.146.132l3.387,1.23A2.563,2.563,0,0,0,219.807,162.575Z" transform="translate(-214.136 -147.036)" fill="#3f3d56"/>
    <path id="Tracé_23" data-name="Tracé 23" d="M661.807,357.575l1.693-1.354a1.794,1.794,0,0,0-2.077,1.14,2.884,2.884,0,0,0-2.146.132l3.387,1.23A2.564,2.564,0,0,0,661.807,357.575Z" transform="translate(-597.503 -316.14)" fill="#3f3d56"/>
    <path id="Tracé_24" data-name="Tracé 24" d="M398.156,719.85l1.294.481,2.47-4.762-1.91-.709Z" transform="translate(-345.372 -620.028)" fill="#ffb7b7"/>
    <path id="Tracé_25" data-name="Tracé 25" d="M586.108,802.6l2.548.947h0a1.732,1.732,0,0,1,1.02,2.227l-.02.053-4.172-1.55Z" transform="translate(-533.498 -703.323)" fill="#2f2e41"/>
    <path id="Tracé_26" data-name="Tracé 26" d="M494.39,727.818h1.38l.657-5.324H494.39Z" transform="translate(-428.844 -626.653)" fill="#ffb7b7"/>
    <path id="Tracé_27" data-name="Tracé 27" d="M685.927,813.468h2.719a1.733,1.733,0,0,1,1.732,1.732v.056h-4.451Z" transform="translate(-620.617 -712.753)" fill="#2f2e41"/>
    <path id="Tracé_28" data-name="Tracé 28" d="M591.615,531.9l.45-.9,3.828,1.914-.113.788.732.957s1.238.676,1.013,2.927l-.225,2.139-.282,2.758,1.97,6.812L600,558.3l.732,7.262-3.547-.169-3.265-11.822-5.742,12.723-3.941-1.013,5.4-12.61.676-5.292a5.6,5.6,0,0,1,1.689-4.729l-.338-1.013v-1.249l-1.126-5.957Z" transform="translate(-532.401 -467.659)" fill="#2f2e41"/>
    <rect id="Rectangle_34" data-name="Rectangle 34" width="0.132" height="9.125" transform="translate(58.979 77.101) rotate(-15.751)" opacity="0.2"/>
    <rect id="Rectangle_35" data-name="Rectangle 35" width="5.517" height="0.563" transform="translate(64.846 75.317) rotate(180)" fill="#3f3d56"/>
    <ellipse id="Ellipse_21" data-name="Ellipse 21" cx="0.225" cy="0.563" rx="0.225" ry="0.563" transform="translate(64.626 74.529)" fill="#3f3d56"/>
    <circle id="Ellipse_22" data-name="Ellipse 22" cx="3.001" cy="3.001" r="3.001" transform="translate(58.286 61.242) rotate(-61.337)" fill="#ffb7b7"/>
    <circle id="Ellipse_23" data-name="Ellipse 23" cx="2.655" cy="2.655" r="2.655" transform="translate(55.1 53.656)" fill="#2f2e41"/>
    <path id="Tracé_29" data-name="Tracé 29" d="M602.822,476.586A2.655,2.655,0,1,0,608,477.675a2.655,2.655,0,0,1-5.179-1.089Z" transform="translate(-548.439 -420.556)" fill="#2f2e41"/>
    <path id="Tracé_30" data-name="Tracé 30" d="M641.779,482.337a3.139,3.139,0,1,1-1.873-2.527,1.287,1.287,0,0,1,1.7.154,4.865,4.865,0,0,1,1.239,1.681C642.391,481.709,642.235,482.273,641.779,482.337Z" transform="translate(-576.893 -423.124)" fill="#2f2e41"/>
    <path id="Tracé_31" data-name="Tracé 31" d="M599.434,538.729c.034.889.1,2.64.1,2.729s1.327,2.842,1.9,4.025h0l.11.225a.533.533,0,0,0,.49.3l2.506-.045a.534.534,0,0,0,.525-.521l.279-11.024a.273.273,0,0,0-.272-.28h-3.231a.727.727,0,0,0-.654.41l-1.551,3.209A2.052,2.052,0,0,0,599.434,538.729Z" transform="translate(-545.594 -470.464)" fill="#337ab7"/>
    <path id="Tracé_32" data-name="Tracé 32" d="M641,547.976a7.179,7.179,0,0,0,1.712-1.447,7.94,7.94,0,0,0,1.979-4.616,3.872,3.872,0,0,0-.864-3.237,2.852,2.852,0,0,0-2.154-.736l-.054.006-.821.695.233.275.735-.622a2.512,2.512,0,0,1,1.814.643,3.547,3.547,0,0,1,.754,2.945,7.583,7.583,0,0,1-1.88,4.4,6.965,6.965,0,0,1-1.626,1.381Z" transform="translate(-581.474 -473.753)" fill="#337ab7"/>
    <rect id="Rectangle_36" data-name="Rectangle 36" width="0.12" height="4.47" transform="matrix(0.201, -0.98, 0.98, 0.201, 54.828, 70.152)" fill="#3f3d56"/>
    <rect id="Rectangle_37" data-name="Rectangle 37" width="6.972" height="0.12" transform="matrix(0.041, -0.999, 0.999, 0.041, 57.455, 70.633)" fill="#3f3d56"/>
    <path id="Tracé_33" data-name="Tracé 33" d="M599.433,565.493c.034.889.1,2.64.1,2.729s1.327,2.842,1.9,4.025l-1.069-6.206a1.368,1.368,0,0,0-.888-1.055A2.015,2.015,0,0,0,599.433,565.493Z" transform="translate(-545.598 -497.225)" fill="#3f3d56"/>
    <path id="Tracé_34" data-name="Tracé 34" d="M647.616,637.768a1.056,1.056,0,0,1,.343-1.582l-.217-2.4,1.428-.488.259,3.4a1.061,1.061,0,0,1-1.813,1.075Z" transform="translate(-587.199 -556.477)" fill="#ffb7b7"/>
    <path id="Tracé_35" data-name="Tracé 35" d="M641.975,545.949a1.647,1.647,0,0,1,1.114-1.686,1.5,1.5,0,0,1,.941,0,1.647,1.647,0,0,1,1.116,1.568l.107,12.2-2.53.092Z" transform="translate(-582.492 -479.173)" fill="#cbcbcb"/>
  </g>
</svg>
