<?xml version="1.0" encoding="UTF-8" standalone="no"?>
<!-- Created with Inkscape (http://www.inkscape.org/) -->

<svg
   xmlns:dc="http://purl.org/dc/elements/1.1/"
   xmlns:cc="http://creativecommons.org/ns#"
   xmlns:rdf="http://www.w3.org/1999/02/22-rdf-syntax-ns#"
   xmlns:svg="http://www.w3.org/2000/svg"
   xmlns="http://www.w3.org/2000/svg"
   xmlns:sodipodi="http://sodipodi.sourceforge.net/DTD/sodipodi-0.dtd"
   xmlns:inkscape="http://www.inkscape.org/namespaces/inkscape"
   width="14"
   height="14"
   viewBox="0 0 14 14"
   id="svg2"
   version="1.1"
   inkscape:version="0.92.3 (2405546, 2018-03-11)"
   sodipodi:docname="images.svg">
  <defs
     id="defs4" />
  <sodipodi:namedview
     id="base"
     pagecolor="#ffffff"
     bordercolor="#666666"
     borderopacity="1.0"
     inkscape:pageopacity="0.0"
     inkscape:pageshadow="2"
     inkscape:zoom="5.6"
     inkscape:cx="48.487892"
     inkscape:cy="43.722543"
     inkscape:document-units="px"
     inkscape:current-layer="layer1"
     showgrid="false"
     units="px"
     inkscape:window-width="1280"
     inkscape:window-height="1002"
     inkscape:window-x="2552"
     inkscape:window-y="1016"
     inkscape:window-maximized="1" />
  <metadata
     id="metadata7">
    <rdf:RDF>
      <cc:Work
         rdf:about="">
        <dc:format>image/svg+xml</dc:format>
        <dc:type
           rdf:resource="http://purl.org/dc/dcmitype/StillImage" />
        <dc:title></dc:title>
      </cc:Work>
    </rdf:RDF>
  </metadata>
  <g
     inkscape:label="Layer 1"
     inkscape:groupmode="layer"
     id="layer1"
     transform="translate(0,-1038.3622)">
    <rect
       style="fill:#ffffff;fill-opacity:1;stroke:none;stroke-width:0.18321098;stroke-opacity:1"
       id="rect4186"
       width="10.975087"
       height="9.7494402"
       x="1.6935878"
       y="1040.541" />
    <path
       style="fill:#ffaa45;fill-opacity:1;stroke-width:0.18321098"
       d="M 1,1045.3622 V 1040.3622 H 7.0000002 13 V 1045.3622 1050.3622 H 7.0000002 1 Z M 6.3737188,1047.3276 C 7.5318574,1047.8553 7.5989932,1047.8339 7.0107574,1047.1252 6.454336,1046.4547 6.5316852,1046.1429 7.51377,1045.0975 8.9358637,1043.5838 9.36869,1043.5645 10.842775,1044.9493 L 12,1046.0365 V 1043.6993 1041.3622 H 7.0000002 1.9999997 V 1045.1462 1048.9303 L 3.539574,1047.834 C 4.8557166,1046.8969 5.2670233,1046.8234 6.3737188,1047.3276 Z M 3,1043.3622 C 3,1042.6955 3.3333332,1042.3622 3.9999996,1042.3622 4.6666664,1042.3622 4.9999998,1042.6955 4.9999998,1043.3622 4.9999998,1044.0289 4.6666664,1044.3622 3.9999996,1044.3622 3.3333332,1044.3622 3,1044.0289 3,1043.3622 Z"
       id="path4147"
       inkscape:connector-curvature="0" />
  </g>
</svg>
