<?xml version="1.0" encoding="UTF-8" standalone="no"?>
<!-- Created with Inkscape (http://www.inkscape.org/) -->

<svg
   xmlns:dc="http://purl.org/dc/elements/1.1/"
   xmlns:cc="http://creativecommons.org/ns#"
   xmlns:rdf="http://www.w3.org/1999/02/22-rdf-syntax-ns#"
   xmlns:svg="http://www.w3.org/2000/svg"
   xmlns="http://www.w3.org/2000/svg"
   xmlns:xlink="http://www.w3.org/1999/xlink"
   xmlns:sodipodi="http://sodipodi.sourceforge.net/DTD/sodipodi-0.dtd"
   xmlns:inkscape="http://www.inkscape.org/namespaces/inkscape"
   width="14"
   height="14"
   id="svg1306"
   sodipodi:version="0.32"
   inkscape:version="0.92.3 (2405546, 2018-03-11)"
   sodipodi:docname="outings.svg"
   inkscape:output_extension="org.inkscape.output.svg.inkscape"
   sodipodi:modified="true"
   inkscape:export-filename="/home/tai/svgc2c/weather.png"
   inkscape:export-xdpi="30"
   inkscape:export-ydpi="30"
   version="1.1">
  <defs
     id="defs1308">
    <linearGradient
       id="linearGradient6527">
      <stop
         style="stop-color:#ffffff;stop-opacity:1;"
         offset="0"
         id="stop6530" />
      <stop
         style="stop-color:#ffffff;stop-opacity:0;"
         offset="1"
         id="stop6532" />
    </linearGradient>
    <linearGradient
       id="linearGradient6538">
      <stop
         style="stop-color:#ffffff;stop-opacity:1;"
         offset="0"
         id="stop6540" />
      <stop
         style="stop-color:#ffffff;stop-opacity:0;"
         offset="1"
         id="stop6542" />
    </linearGradient>
    <linearGradient
       inkscape:collect="always"
       id="linearGradient6497">
      <stop
         style="stop-color:#ffffff;stop-opacity:1;"
         offset="0"
         id="stop6499" />
      <stop
         style="stop-color:#ffffff;stop-opacity:0;"
         offset="1"
         id="stop6501" />
    </linearGradient>
    <linearGradient
       inkscape:collect="always"
       xlink:href="#linearGradient6497"
       id="linearGradient3848"
       gradientUnits="userSpaceOnUse"
       x1="287.5173"
       y1="-439.75281"
       x2="289.67633"
       y2="-436.32199" />
  </defs>
  <sodipodi:namedview
     id="base"
     pagecolor="#ffffff"
     bordercolor="#666666"
     borderopacity="1.0"
     inkscape:pageopacity="0.0"
     inkscape:pageshadow="2"
     inkscape:zoom="21.0827"
     inkscape:cx="6.7096937"
     inkscape:cy="15.901254"
     inkscape:current-layer="layer1"
     showgrid="true"
     inkscape:grid-bbox="true"
     inkscape:document-units="px"
     inkscape:window-width="1280"
     inkscape:window-height="1002"
     inkscape:window-x="2552"
     inkscape:window-y="1016"
     inkscape:showpageshadow="false"
     inkscape:window-maximized="1" />
  <metadata
     id="metadata1311">
    <rdf:RDF>
      <cc:Work
         rdf:about="">
        <dc:format>image/svg+xml</dc:format>
        <dc:type
           rdf:resource="http://purl.org/dc/dcmitype/StillImage" />
        <dc:title></dc:title>
        <dc:date>January 2006</dc:date>
        <dc:creator>
          <cc:Agent>
            <dc:title>Ryan Collier (pseudo)</dc:title>
          </cc:Agent>
        </dc:creator>
        <dc:publisher>
          <cc:Agent>
            <dc:title>http://www.tango-project.org</dc:title>
          </cc:Agent>
        </dc:publisher>
        <dc:source>http://www.pseudocode.org</dc:source>
        <dc:subject>
          <rdf:Bag>
            <rdf:li>weather</rdf:li>
            <rdf:li>applet</rdf:li>
            <rdf:li>notification</rdf:li>
          </rdf:Bag>
        </dc:subject>
        <cc:license
           rdf:resource="http://creativecommons.org/licenses/by-sa/2.0/" />
        <dc:contributor>
          <cc:Agent>
            <dc:title>Garrett LeSage</dc:title>
          </cc:Agent>
        </dc:contributor>
      </cc:Work>
      <cc:License
         rdf:about="http://creativecommons.org/licenses/by-sa/2.0/">
        <cc:permits
           rdf:resource="http://web.resource.org/cc/Reproduction" />
        <cc:permits
           rdf:resource="http://web.resource.org/cc/Distribution" />
        <cc:requires
           rdf:resource="http://web.resource.org/cc/Notice" />
        <cc:requires
           rdf:resource="http://web.resource.org/cc/Attribution" />
        <cc:permits
           rdf:resource="http://web.resource.org/cc/DerivativeWorks" />
        <cc:requires
           rdf:resource="http://web.resource.org/cc/ShareAlike" />
      </cc:License>
    </rdf:RDF>
  </metadata>
  <g
     id="layer1"
     inkscape:label="Layer 1"
     inkscape:groupmode="layer"
     transform="translate(0,-51)">
    <path
       inkscape:connector-curvature="0"
       style="opacity:1;fill:#ffffff;fill-opacity:1;stroke:#ffffff;stroke-width:0.14840268;stroke-linecap:square;stroke-linejoin:miter;stroke-miterlimit:4;stroke-dasharray:none;stroke-opacity:1"
       d="M 5.8504926,52.987745 5.3443552,54.761881 C 5.4989854,54.736865 5.7206381,54.691703 5.8821725,54.691703 6.0437066,54.691703 6.2336796,54.67255 6.3883099,54.697566 L 6.2369313,54.216306 Z M 2.8164596,54.261463 3.6437753,55.791962 C 3.8306187,55.530338 4.1553021,55.232921 4.4130439,55.043263 Z M 8.8907684,54.261463 7.2245821,55.07542 C 7.1344424,55.578964 7.4907266,56.062247 8.0888895,55.952747 Z M 3.3348892,56.827436 1.5554007,57.341197 3.3348892,57.983586 C 3.3108829,57.828615 3.1707135,57.541472 3.1707135,57.379691 3.1707135,57.213537 3.3095954,56.98638 3.3348892,56.827436 Z M 8.3660959,56.865929 C 8.3907416,57.022889 8.3358532,57.137443 8.435233,57.476161 8.5584876,57.896254 8.3590618,57.672179 8.3344163,57.829138 L 10.145584,57.347534 Z M 3.7388143,58.806635 2.8164596,60.427269 4.4447234,59.619648 C 4.5364217,59.114698 4.3355233,58.698446 3.7388143,58.806635 Z M 8.2789675,59.128204 C 8.0938868,59.38736 7.8657133,59.617625 7.6109809,59.806252 L 8.8907684,60.427269 Z M 5.3760347,60.351226 5.8504926,61.707323 6.3249504,60.351226 C 6.1703204,60.376242 6.0120269,60.389247 5.8504926,60.389247"
       id="path7492"
       sodipodi:nodetypes="ccsccccccccccccccsccsccccccccccccccsc" />
    <ellipse
       style="fill:#ffffff;fill-opacity:1;stroke:none;stroke-width:0.27959394"
       id="path7500"
       transform="matrix(0.99077019,-0.13555235,0.16806512,0.9857759,0,0)"
       inkscape:r_cx="true"
       inkscape:r_cy="true"
       cx="-3.7696261"
       cy="57.689674"
       rx="2.6217268"
       ry="2.69101" />
    <path
       inkscape:export-ydpi="30.959663"
       inkscape:export-xdpi="30.959663"
       style="fill:#ffffff;fill-opacity:1;stroke:#3d4d86;stroke-width:0.16254012;stroke-linecap:butt;stroke-linejoin:miter;stroke-miterlimit:2;stroke-dasharray:none;stroke-dashoffset:0;stroke-opacity:0.48453608"
       d="M 8.4020903,58.156488 C 7.7064546,58.156488 7.2407696,58.851819 7.0542602,59.490883 6.8418993,59.378814 6.5045812,59.364377 6.2577422,59.298368 5.083684,58.984405 4.4476521,59.722308 4.7260649,60.838488 4.7693318,61.011955 4.7758507,61.179687 4.8313678,61.339028 4.4106252,61.576434 3.6249423,62.044409 3.6249423,62.563738 3.6249423,63.32887 4.7309665,63.918733 5.4919035,63.91873 5.5461648,63.91873 11.258016,63.91873 11.312277,63.91873 12.073211,63.91873 12.918731,63.32887 12.918731,62.563738 12.918731,62.044409 12.393555,61.576434 11.972813,61.339028 12.028333,61.17969 12.04051,61.013977 12.078116,60.838488 12.293194,59.834804 11.685722,59.104353 10.546438,59.298368 10.295261,59.341142 10.059972,59.378814 9.8476107,59.490883 9.6611014,58.851819 9.0977261,58.156488 8.4020903,58.156488 Z"
       id="path3818"
       sodipodi:nodetypes="ccsscsssscsscc"
       inkscape:connector-curvature="0" />
  </g>
</svg>
