<?xml version="1.0" encoding="UTF-8" standalone="no"?>
<!-- Created with Inkscape (http://www.inkscape.org/) -->

<svg
   xmlns:dc="http://purl.org/dc/elements/1.1/"
   xmlns:cc="http://creativecommons.org/ns#"
   xmlns:rdf="http://www.w3.org/1999/02/22-rdf-syntax-ns#"
   xmlns:svg="http://www.w3.org/2000/svg"
   xmlns="http://www.w3.org/2000/svg"
   xmlns:sodipodi="http://sodipodi.sourceforge.net/DTD/sodipodi-0.dtd"
   xmlns:inkscape="http://www.inkscape.org/namespaces/inkscape"
   width="14"
   height="14"
   viewBox="0 0 14 14"
   id="svg2"
   version="1.1"
   inkscape:version="0.92.3 (2405546, 2018-03-11)"
   sodipodi:docname="profiles.svg">
  <defs
     id="defs4" />
  <sodipodi:namedview
     id="base"
     pagecolor="#ffffff"
     bordercolor="#666666"
     borderopacity="1.0"
     inkscape:pageopacity="0.0"
     inkscape:pageshadow="2"
     inkscape:zoom="7.9195959"
     inkscape:cx="-6.1616397"
     inkscape:cy="15.524144"
     inkscape:document-units="px"
     inkscape:current-layer="layer1"
     showgrid="false"
     units="px"
     inkscape:window-width="1280"
     inkscape:window-height="1002"
     inkscape:window-x="2552"
     inkscape:window-y="1016"
     inkscape:window-maximized="1" />
  <metadata
     id="metadata7">
    <rdf:RDF>
      <cc:Work
         rdf:about="">
        <dc:format>image/svg+xml</dc:format>
        <dc:type
           rdf:resource="http://purl.org/dc/dcmitype/StillImage" />
        <dc:title></dc:title>
      </cc:Work>
    </rdf:RDF>
  </metadata>
  <g
     inkscape:label="Layer 1"
     inkscape:groupmode="layer"
     id="layer1"
     transform="translate(0,-1042.6699)">
    <path
       style="fill:#ffaa45;fill-opacity:1;stroke-width:0.27529448"
       d="M 1.0588733,1055.5549 C 1.0263064,1055.4913 1,1055.0665 1,1054.6046 1,1053.6628 1.0647976,1053.3953 1.3453605,1053.1783 1.5743604,1053.0013 3.7180593,1051.7595 4.5118485,1051.344 L 5.1516583,1051.0091 V 1050.0097 1049.0102 L 4.9569973,1048.7436 C 4.6702653,1048.3507 4.6233265,1048.0348 4.651623,1046.6881 4.6787668,1045.3962 4.7409047,1045.1054 5.1039615,1044.5714 5.9420395,1043.3384 8.1522983,1043.3784 8.9520616,1044.6409 9.298324,1045.1876 9.3317538,1045.3863 9.3317538,1046.8981 9.3317538,1048.1828 9.3243505,1048.2803 9.2098437,1048.5037 9.1427929,1048.6346 9.0340253,1048.7925 8.9681374,1048.8548 8.8552121,1048.9617 8.848342,1049.0266 8.848342,1049.9859 V 1051.0035 L 9.6303321,1051.4094 C 10.463894,1051.842 12.191804,1052.8438 12.579981,1053.1195 12.952623,1053.3841 13,1053.5525 13,1054.6114 13,1055.2443 12.978923,1055.5492 12.931754,1055.5986 12.879554,1055.6531 11.482594,1055.6699 6.9906268,1055.6699 1.2424881,1055.6699 1.1164955,1055.6662 1.0588733,1055.5549 Z"
       id="path4181"
       inkscape:connector-curvature="0" />
  </g>
</svg>
