<?xml version="1.0" encoding="UTF-8" standalone="no"?>
<!-- Created with Inkscape (http://www.inkscape.org/) -->

<svg
   xmlns:dc="http://purl.org/dc/elements/1.1/"
   xmlns:cc="http://creativecommons.org/ns#"
   xmlns:rdf="http://www.w3.org/1999/02/22-rdf-syntax-ns#"
   xmlns:svg="http://www.w3.org/2000/svg"
   xmlns="http://www.w3.org/2000/svg"
   xmlns:sodipodi="http://sodipodi.sourceforge.net/DTD/sodipodi-0.dtd"
   xmlns:inkscape="http://www.inkscape.org/namespaces/inkscape"
   width="65"
   height="65"
   viewBox="0 0 45.000001 45.000001"
   id="svg2"
   version="1.1"
   inkscape:version="0.91 r13725"
   sodipodi:docname="profile.svg">
  <defs
     id="defs4" />
  <sodipodi:namedview
     id="base"
     pagecolor="#ffffff"
     bordercolor="#666666"
     borderopacity="1.0"
     inkscape:pageopacity="0.0"
     inkscape:pageshadow="2"
     inkscape:zoom="7.9195959"
     inkscape:cx="-6.1616397"
     inkscape:cy="15.524144"
     inkscape:document-units="px"
     inkscape:current-layer="layer1"
     showgrid="false"
     units="px"
     inkscape:window-width="1855"
     inkscape:window-height="1056"
     inkscape:window-x="65"
     inkscape:window-y="24"
     inkscape:window-maximized="1" />
  <metadata
     id="metadata7">
    <rdf:RDF>
      <cc:Work
         rdf:about="">
        <dc:format>image/svg+xml</dc:format>
        <dc:type
           rdf:resource="http://purl.org/dc/dcmitype/StillImage" />
        <dc:title></dc:title>
      </cc:Work>
    </rdf:RDF>
  </metadata>
  <g
     inkscape:label="Layer 1"
     inkscape:groupmode="layer"
     id="layer1"
     transform="translate(0,-1007.3622)">
    <path
       style="fill:#ffaa45;fill-opacity:1"
       d="m 0.32700255,1049.7759 c -0.12097037,-0.226 -0.21868627,-1.7345 -0.21868627,-3.3758 0,-3.3451 0.24069217,-4.2956 1.28284982,-5.0661 0.8506259,-0.6289 8.8134469,-5.0403 11.7619959,-6.5162 l 2.376589,-1.1897 0,-3.55 0,-3.5503 -0.723073,-0.9472 c -1.065073,-1.3954 -1.239428,-2.5177 -1.13432,-7.3016 0.100826,-4.5889 0.331639,-5.6218 1.680222,-7.5191 3.113061,-4.3798 11.323121,-4.2376 14.293861,0.2472 1.2862,1.9419 1.410376,2.6478 1.410376,8.0176 0,4.5637 -0.0275,4.9102 -0.452838,5.7039 -0.249062,0.4648 -0.653082,1.026 -0.897824,1.2474 -0.419464,0.3793 -0.444983,0.6098 -0.444983,4.0174 l 0,3.6151 2.904721,1.4416 c 3.096286,1.5367 9.51465,5.0954 10.956542,6.0748 1.384188,0.9402 1.560171,1.538 1.560171,5.2995 0,2.2484 -0.07829,3.3313 -0.253503,3.5066 -0.193895,0.1938 -5.38294,0.2535 -22.068459,0.2535 -21.3515999,0 -21.8196023,-0.013 -22.03364145,-0.4086 z"
       id="path4181"
       inkscape:connector-curvature="0" />
  </g>
</svg>
