<?xml version="1.0" encoding="UTF-8" standalone="no"?>
<!-- Created with Inkscape (http://www.inkscape.org/) -->

<svg
   xmlns:dc="http://purl.org/dc/elements/1.1/"
   xmlns:cc="http://creativecommons.org/ns#"
   xmlns:rdf="http://www.w3.org/1999/02/22-rdf-syntax-ns#"
   xmlns:svg="http://www.w3.org/2000/svg"
   xmlns="http://www.w3.org/2000/svg"
   xmlns:sodipodi="http://sodipodi.sourceforge.net/DTD/sodipodi-0.dtd"
   xmlns:inkscape="http://www.inkscape.org/namespaces/inkscape"
   width="14"
   height="14"
   viewBox="0 0 14 14"
   id="svg2"
   version="1.1"
   inkscape:version="0.92.3 (2405546, 2018-03-11)"
   sodipodi:docname="xreports.svg">
  <defs
     id="defs4" />
  <sodipodi:namedview
     id="base"
     pagecolor="#ffffff"
     bordercolor="#666666"
     borderopacity="1.0"
     inkscape:pageopacity="0.0"
     inkscape:pageshadow="2"
     inkscape:zoom="5.6"
     inkscape:cx="-8.3362278"
     inkscape:cy="0.5057793"
     inkscape:document-units="px"
     inkscape:current-layer="layer1"
     showgrid="false"
     units="px"
     inkscape:window-width="1280"
     inkscape:window-height="1002"
     inkscape:window-x="2552"
     inkscape:window-y="1016"
     inkscape:window-maximized="1" />
  <metadata
     id="metadata7">
    <rdf:RDF>
      <cc:Work
         rdf:about="">
        <dc:format>image/svg+xml</dc:format>
        <dc:type
           rdf:resource="http://purl.org/dc/dcmitype/StillImage" />
        <dc:title></dc:title>
      </cc:Work>
    </rdf:RDF>
  </metadata>
  <g
     inkscape:label="Layer 1"
     inkscape:groupmode="layer"
     id="layer1"
     transform="translate(0,-1038.3622)">
    <g
       id="g60"
       transform="matrix(0.45569259,0,0,-0.45567671,10.569558,1041.3885)">
      <path
         style="fill:#ffaa45;fill-opacity:1;fill-rule:nonzero;stroke:none"
         d="M 33.173828,4.7910156 C 26.539836,4.7910156 20.597214,8.2200883 17.28125,13.966797 13.963222,19.713505 13.963222,26.571651 17.28125,32.318359 L 32.554688,58.775391 C 32.682621,58.99618 32.91785,59.130859 33.175781,59.130859 33.429586,59.130859 33.666988,58.99618 33.794922,58.775391 L 49.068359,32.318359 C 52.386387,26.571651 52.386387,19.713505 49.068359,13.966797 45.750332,8.2200883 39.809884,4.7910156 33.173828,4.7910156 Z M 33.173828,9.0214844 C 40.862243,9.0214844 47.119141,15.278382 47.119141,22.966797 47.119141,30.655212 40.862243,36.910156 33.173828,36.910156 25.485413,36.910156 19.230469,30.655212 19.230469,22.966797 19.230469,15.276318 25.485413,9.0214844 33.173828,9.0214844 Z M 33.173828,10.455078 C 26.275714,10.455078 20.664062,16.068683 20.664062,22.966797 20.664063,23.988205 20.788425,24.9805 21.019531,25.929688 L 28.007812,16.060547 C 28.139873,15.870709 28.591797,15.269531 28.591797,15.269531 28.591797,15.269531 29.041657,15.870709 29.175781,16.060547 L 33.173828,21.708984 37.173828,16.060547 C 37.307952,15.870709 37.757812,15.755859 37.757812,15.755859 37.757812,15.755859 38.209626,15.870709 38.34375,16.060547 L 45.330078,25.929688 C 45.561185,24.978437 45.685547,23.986141 45.685547,22.966797 45.685547,16.068683 40.071942,10.455078 33.173828,10.455078 Z M 31.767578,22.201172 30.787109,23.367188 C 30.655049,23.521946 30.46589,23.614793 30.263672,23.623047 H 30.238282 C 30.044318,23.623047 29.860798,23.544497 29.72461,23.40625 L 28.578126,22.224609 27.507813,23.265625 C 27.233375,23.53181 26.798098,23.535385 26.519532,23.275425 L 25.396485,22.226596 21.56836,27.632846 C 23.421339,32.226086 27.924412,35.476596 33.173829,35.476596 38.423246,35.476596 42.928273,32.226086 44.781251,27.632846 L 40.935548,22.201206 39.953126,23.367222 C 39.823129,23.52198 39.63386,23.614827 39.431642,23.623081 H 39.406252 C 39.212288,23.623081 39.028768,23.544531 38.89258,23.406284 L 37.746096,22.224643 36.675783,23.265659 C 36.401344,23.531844 35.966068,23.535419 35.687502,23.275459 L 34.564455,22.22663 34.050783,22.947334 36.886721,26.95124 C 37.115764,27.275202 37.036744,27.720244 36.714846,27.949287 36.588975,28.038017 36.445114,28.082099 36.302736,28.082099 36.07782,28.082099 35.857113,27.975503 35.716799,27.777412 L 31.76758,22.20124 Z"
         transform="matrix(0.48462524,0,0,-0.48462524,-23.780035,6.7686832)"
         id="path62"
         inkscape:connector-curvature="0" />
    </g>
    <g
       id="g64"
       transform="matrix(0.41729575,0,0,-0.4172812,9.6163074,1043.5864)" />
  </g>
</svg>
