<svg xmlns="http://www.w3.org/2000/svg" viewBox="0 0 10.6 14" style="fill:#000"><path d="M38.9 66.3c-1 .4-2 .6-3 .6-1.2 0-2.3-.2-3.4-.5L20.7 93.6c-1 2.5-4 3.3-6.6 1.9-2.6-1.5-3.8-4.7-2.7-7.2l14.4-33.2h18.5V52l9.4-4.3c2.4-1.2 5.6.8 6.2 3.4l4.6 18.4c.7 2.6-1 5.2-3.5 5.9-2.6.6-5.3-1-6-3.6l-2.8-11.7ZM47.4 47.3c20.2-10 28-44.4 28-47.3h-2.7c-1 7.2-9.7 35.9-25.3 44.2Z" style="fill:#000" transform="translate(.3) scale(.13964)"/><path d="M10 39.8c1.1 1.6 3.3 2.4 5.1 1.6l10.7-4.2V52h18.5V34.8L61 8.3c1.2-1.9.6-4.5-1.3-5.7-2-1.2-4.5-.6-5.6 1.2L40 26.4h-8.6c-.5 0-1 0-1.6.3l-14.6 5.7L7.7 21a4.2 4.2 0 0 0-7 4.5Z" style="fill:#000" transform="translate(.3) scale(.13964)"/><path d="M33.8 24.9a7.4 7.4 0 1 0 0-14.8 7.4 7.4 0 0 0 0 14.8zM44.3 100V66.9l-3.1 1.4V100Z" style="fill:#000" transform="translate(.3) scale(.13964)"/></svg>