<svg xmlns="http://www.w3.org/2000/svg" xml:space="preserve" viewBox="0 0 14 14"><path d="M9.2 1.5c0 .7-.6 1.3-1.4 1.3-.7 0-1.2-.6-1.2-1.4C6.6.7 7.2.1 7.9.1c.8 0 1.4.6 1.3 1.4zM4.6 1a.5.5 0 0 0-.8 0l-.6 1-.4 1L2.5 6c0 .3.2.6.5.6l1.3.2c.3 0 .6-.1.7-.4l1-3.6c.1-.3 0-.7-.3-1zM13.9 7.9a5 5 0 0 0-2.1-.7H11.5a4.1 4.1 0 0 0-2 .5c-.2.2.3 1 .5.8.4-.3.8-.5 1.2-.5v5.6a.3.3 0 1 0 .7 0V8a4.4 4.4 0 0 1 1.8.4.2.2 0 0 0 .2-.4z" style="stroke-width:.14966621"/><path d="M11.7 6 7.4 3.3c-.5-.2-1 0-1.2.4A1 1 0 0 0 6 4l-.7 2.8h2.2l.4-1.5 3.3 1.5a.6.6 0 0 0 .5-1zM9 9.7 7.6 8.2H5.3v.2c0 .1 0 .2.2.3l2.3 2v2.6a.7.7 0 0 0 1.5 0v-3c0-.2 0-.4-.2-.6z"/><path d="M.3 11.3a.3.3 0 0 1 0-.7c2.8-.3 4.3-3.2 4.3-3.2l.3-.2h2.5l-.1.7H5c-.4.6-2 3-4.7 3.4z" style="stroke-width:.14966621"/><path d="m5.9 10.3-1.5 3.2a.7.7 0 0 1-1.3-.6l1.4-3.2a.7.7 0 1 1 1.4.6z" style="stroke-width:.14966621"/></svg>