<?xml version="1.0" encoding="UTF-8" standalone="no"?>
<svg
   xmlns:dc="http://purl.org/dc/elements/1.1/"
   xmlns:cc="http://creativecommons.org/ns#"
   xmlns:rdf="http://www.w3.org/1999/02/22-rdf-syntax-ns#"
   xmlns:svg="http://www.w3.org/2000/svg"
   xmlns="http://www.w3.org/2000/svg"
   xmlns:sodipodi="http://sodipodi.sourceforge.net/DTD/sodipodi-0.dtd"
   xmlns:inkscape="http://www.inkscape.org/namespaces/inkscape"
   version="1.1"
   x="0px"
   y="0px"
   viewBox="0 0 14 14"
   enable-background="new 0 0 90 90"
   xml:space="preserve"
   id="svg12"
   sodipodi:docname="MTB.svg"
   width="14"
   height="14"
   inkscape:version="0.92.2 5c3e80d, 2017-08-06"><metadata
     id="metadata18"><rdf:RDF><cc:Work
         rdf:about=""><dc:format>image/svg+xml</dc:format><dc:type
           rdf:resource="http://purl.org/dc/dcmitype/StillImage" /><dc:title></dc:title></cc:Work></rdf:RDF></metadata><defs
     id="defs16" /><sodipodi:namedview
     pagecolor="#ffffff"
     bordercolor="#666666"
     borderopacity="1"
     objecttolerance="10"
     gridtolerance="10"
     guidetolerance="10"
     inkscape:pageopacity="0"
     inkscape:pageshadow="2"
     inkscape:window-width="1301"
     inkscape:window-height="678"
     id="namedview14"
     showgrid="false"
     inkscape:zoom="3.9743056"
     inkscape:cx="55.064651"
     inkscape:cy="36.120697"
     inkscape:window-x="0"
     inkscape:window-y="0"
     inkscape:window-maximized="0"
     inkscape:current-layer="svg12" /><path
     d="m 4.0532905,6.990067 c 0.188522,0.165517 0.343453,0.366865 0.453594,0.592644 l -0.958288,0.25652 z m 0.89375,-1.505735 1.091842,1.688149 -0.650056,0.173864 C 5.2023395,6.897638 4.9022515,6.505732 4.5176745,6.208493 Z M 8.0065575,3.778674 6.5403185,6.697511 5.4301545,4.983099 Z m 0.352003,-3.145838 c -0.217228,0.07024 -0.305381,0.331034 -0.173864,0.518742 l 0.24288,0.358314 -0.583278,0.273418 c -0.198091,0.09304 -0.257539,0.345489 -0.122967,0.517317 l 0.496143,0.6299 -3.159275,1.478047 -0.220485,-0.342638 c -0.08184,-0.12826 -0.238605,-0.187911 -0.384985,-0.14414 -0.218246,0.06576 -0.311692,0.324519 -0.184247,0.514059 l 0.265886,0.412469 -1.996178,3.361641 c -0.15493,0.262221 0.08571,0.579207 0.379488,0.500622 l 1.773656,-0.47497 c 0.08673,0.921438 -0.503472,1.770602 -1.397222,2.011447 C 2.2804485,10.518446 1.2403185,9.919491 0.96893648,8.907863 0.69857148,7.896439 1.2997665,6.856513 2.3124115,6.584927 c 0.255299,-0.06779 0.522407,-0.08143 0.783406,-0.04011 l 0.486575,-0.814351 c -0.489629,-0.1419 -1.010203,-0.148415 -1.503292,-0.0169 -0.717647,0.193001 -1.33065002,0.66166 -1.70260402,1.305201 -0.371141,0.642319 -0.472731,1.405366 -0.280137,2.122606 0.399846,1.492705 1.93591602,2.378108 3.43106402,1.977244 1.37605,-0.369919 2.255345,-1.712173 2.044021,-3.117947 l 1.039112,-0.278915 c 0.136811,-0.01181 0.252449,-0.105051 0.293573,-0.235551 L 8.8127645,3.686443 10.911958,6.35731 c 0.279933,0.355057 0.814351,-0.06454 0.5334,-0.420816 l -1.134391,-1.44303 c 0.122967,-0.06555 0.254484,-0.118691 0.394349,-0.156966 1.013664,-0.271382 2.055015,0.328591 2.325176,1.339811 0.271382,1.01061 -0.33083,2.050739 -1.343272,2.322122 C 10.673556,8.269813 9.6334275,7.66984 9.3630625,6.659434 c -0.11462,-0.42733 -0.07207,-0.858936 0.08917,-1.235166 l -0.608524,-0.76773 c -0.412469,0.640487 -0.567196,1.44303 -0.354243,2.236004 0.399846,1.492706 1.9361195,2.378109 3.4310635,1.977244 1.494945,-0.40066 2.383402,-1.934897 1.983759,-3.427603 C 13.504442,3.949478 11.967151,3.063668 10.472206,3.464735 10.210392,3.534775 9.9687345,3.641653 9.7470275,3.776225 L 8.5214285,2.216743 9.0749845,1.957168 c 0.18954,-0.08795 0.255299,-0.324315 0.138643,-0.498383 L 8.7463935,0.770862 C 8.6619035,0.64362 8.5039205,0.587023 8.3585585,0.63283 Z"
     id="path2"
     inkscape:connector-curvature="0"
     style="clip-rule:evenodd;fill-rule:evenodd;stroke-width:0.20358774" /><path
     d="m 3.3152855,2.963101 1.036872,-0.276472 c 0.561699,-0.151469 0.759179,0.49309 0.309657,0.736784 l -0.755921,0.411451 c -0.374195,0.203384 -0.800711,0.07716 -0.913091,-0.312914 -0.06983,-0.242881 0.07838,-0.492886 0.322483,-0.558849 z"
     id="path4"
     inkscape:connector-curvature="0"
     style="stroke-width:0.20358774" /><path
     d="m 13.129639,9.506004 -3.08639,2.018573 c -0.4143005,0.234329 -0.5682135,0.0053 -0.3976065,-0.198295 l 0.296831,-0.355057 C 10.168252,10.700861 10.10799,10.624515 9.7846925,10.54593 l -1.934898,-0.466419 c -0.470898,-0.11462 -0.702988,-0.06902 -1.142941,0.284208 l -1.48558,1.189564 c -0.503472,0.479041 -0.957269,0.53116 -1.609157,0.53116 h -2.050536 c -0.460108,0 -0.498383,0.03176 -0.80030402,0.378062 l -0.618499,0.70645 C -0.16036452,13.515665 0.04647748,14 0.50658848,14 H 12.972673 c 0.698713,0 1.026286,-0.352818 1.026286,-0.934875 V 9.915216 C 13.999162,9.307303 13.530503,9.24419 13.129639,9.506004 Z"
     id="path6"
     inkscape:connector-curvature="0"
     style="stroke-width:0.20358774" /></svg>
