<svg xmlns="http://www.w3.org/2000/svg" xml:space="preserve" viewBox="0 0 14 14"><path d="M7.6 7a1 1 0 0 0-.6.3 1 1 0 0 0-.3.6c0 .3 0 .5.3.7.1.2.4.3.6.3.3 0 .5-.1.7-.3.2-.2.3-.4.3-.7l-.3-.6a.9.9 0 0 0-.7-.3z"/><path d="M13.9 4.8A7 7 0 0 0 9 .8C1.3-1.1-1.5 7.4.7 8.7c1.4.8 2.2 0 3-1L5.3 9c-.2.2-.2.4 0 .6L6.2 11l.3.1.3-.1.7-.8.7 1.5c.1.4.4.5.7.5h.2l1.6-.6v1.8c0 .3.2.5.5.5.4 0 .5-.2.5-.5V11c0-.2 0-.3-.2-.5a.6.6 0 0 0-.4-.2H11l-1.4.5L9 9.7h1c.2 0 .4-.2.4-.4V3.9c1.3.2 2.2.8 2.9 1.3.5.4.8.3.5-.4zM10 7c-.2 0-.4.2-.4.4v1.5H8.4c-.3 0-.6.1-.8.4l-1 1-2.6-3C5 5.7 6.3 4 8.7 3.7h1.4z"/></svg>