<svg xmlns="http://www.w3.org/2000/svg" version="1.1" id="Layer_1" x="0" y="0" xml:space="preserve" viewBox="0 0 14 14"><g id="g10" transform="matrix(.0259 0 0 .0259 -.3 -.5)"><path class="st0" d="M12.8 287.9c2.3 3.3 3.7 6.1 5.8 8.3 29.5 29.7 59.1 59.2 88.7 88.8l169.1 169.5c4.8 4.8 6.9 4.9 12.6 1.3a22 22 0 0 0 4.1-3.3l21-20.7 234.7-235c5.8-5.8 6.8-8.8.4-16.7l-3.3-3.5-117.4-117.4L295.2 25.5c-10.5-10.5-12.4-10.3-23 .3-38.6 38.6-77.2 77.1-115.7 115.8l-82.9 83.6C55.5 243.3 37.1 261 19 279.1c-2.3 2.3-3.9 5.4-6.2 8.8z" id="path4" style="fill:#fff"/><path d="M12.8 287.9c2.3-3.4 3.9-6.5 6.2-8.9 18.1-18 36.5-35.8 54.6-53.9l82.9-83.6L272.2 25.7c10.6-10.6 12.5-10.7 23-.3L428.5 159l117.4 117.4c1.1 1.1 2.3 2.2 3.3 3.5 6.4 7.9 5.5 10.9-.4 16.7a173371 173371 0 0 0-234.7 235l-21 20.7c-1.3 1.2-2.6 2.4-4.1 3.3-5.8 3.6-7.9 3.4-12.6-1.3L107.4 385l-88.7-88.8c-2.1-2.2-3.6-5-5.9-8.3zm13.5.3 2.8 3.1 134.6 134.8 115.8 116.1c3 3 5 3.6 8.3.3l250.7-251c.8-.8 1.4-1.8 2.5-3.3H26.3zM131.8 180l.8 1 2.3-1.2c24.4-13.9 48.9-27.7 73.3-41.7 3.5-2 6-2.5 9.8 0 12.8 8.3 26 16 38.9 24.1 2.5 1.5 4.1 1.5 6.4-.1 24.6-15.9 49.3-31.5 73.8-47.5 3.7-2.4 5.7-1.7 8.4 1l54.5 54.7 55.6 55.7c2.7 2.7 5.9 5.4 9.7 3.7 2.7-1.2 5.4-3.9 6.7-6.7 1.8-3.8-1-7-3.7-9.7L289.3 34c-5.6-5.6-5.8-5.5-11.5.1L165.2 146.8C154.3 158.1 143 169 131.8 180Z" id="path6"/><path class="st0" d="M131.8 180c11.2-11 22.5-21.9 33.6-33L278 34.3c5.7-5.7 5.9-5.7 11.5-.1l179 179.3c2.7 2.7 5.5 5.8 3.7 9.7-1.3 2.7-4 5.4-6.7 6.7-3.8 1.7-6.9-1-9.7-3.7l-55.6-55.7-54.5-54.7c-2.8-2.8-4.7-3.5-8.4-1-24.5 16-49.2 31.6-73.8 47.5-2.4 1.5-4 1.6-6.4.1-12.9-8.1-26.1-15.8-38.9-24.1-3.8-2.5-6.4-2-9.8 0-24.4 14-48.9 27.8-73.3 41.7l-2.3 1.2a7 7 0 0 0-1-1.2z" id="path8" style="fill:#fff"/></g><g id="g18" transform="matrix(.0259 0 0 .0259 -.3 -.5)"><circle cx="283.2" cy="390.4" r="73.1" id="circle12"/><circle class="st0" cx="284.4" cy="355.1" r="9" id="circle14" style="fill:#fff"/><path class="st0" id="polygon16" style="fill:#fff" d="M265.6 369.8v6.5h10.2v46.8h-10.2v7.4h36.3v-6.7h-8.6v-54z"/></g></svg>
