<?xml version="1.0" encoding="UTF-8" standalone="no"?>
<!-- Created with Inkscape (http://www.inkscape.org/) -->

<svg
   xmlns:dc="http://purl.org/dc/elements/1.1/"
   xmlns:cc="http://creativecommons.org/ns#"
   xmlns:rdf="http://www.w3.org/1999/02/22-rdf-syntax-ns#"
   xmlns:svg="http://www.w3.org/2000/svg"
   xmlns="http://www.w3.org/2000/svg"
   xmlns:sodipodi="http://sodipodi.sourceforge.net/DTD/sodipodi-0.dtd"
   xmlns:inkscape="http://www.inkscape.org/namespaces/inkscape"
   width="14"
   height="14"
   viewBox="0 0 14 14"
   id="svg2"
   version="1.1"
   inkscape:version="0.92.3 (2405546, 2018-03-11)"
   sodipodi:docname="base_camp.svg">
  <defs
     id="defs4">
    <clipPath
       clipPathUnits="userSpaceOnUse"
       id="clipPath304">
      <path
         d="m 0,368 595.28,0 0,-368 L 0,0 0,368 Z"
         id="path306"
         inkscape:connector-curvature="0" />
    </clipPath>
  </defs>
  <sodipodi:namedview
     id="base"
     pagecolor="#ffffff"
     bordercolor="#666666"
     borderopacity="1.0"
     inkscape:pageopacity="0.0"
     inkscape:pageshadow="2"
     inkscape:zoom="31.678384"
     inkscape:cx="8.1057562"
     inkscape:cy="4.4733721"
     inkscape:document-units="px"
     inkscape:current-layer="svg2"
     showgrid="true"
     units="px"
     inkscape:window-width="1280"
     inkscape:window-height="1002"
     inkscape:window-x="2552"
     inkscape:window-y="1016"
     inkscape:window-maximized="1"
     inkscape:snap-to-guides="false"
     inkscape:snap-others="false"
     inkscape:object-nodes="false"
     inkscape:snap-nodes="false"
     inkscape:snap-global="true">
    <inkscape:grid
       type="xygrid"
       id="grid18" />
  </sodipodi:namedview>
  <metadata
     id="metadata7">
    <rdf:RDF>
      <cc:Work
         rdf:about="">
        <dc:format>image/svg+xml</dc:format>
        <dc:type
           rdf:resource="http://purl.org/dc/dcmitype/StillImage" />
        <dc:title></dc:title>
      </cc:Work>
    </rdf:RDF>
  </metadata>
  <path
     style="fill:#ffaa45;fill-opacity:1;fill-rule:nonzero;stroke:none;stroke-width:0.27913088"
     d="M 4.2626124,4 4.14478,4.22071 1.672226,9.58947 H 1.1329 C 1.0594663,9.58947 1,9.68146 1,9.79478 1,9.90837 1.0594663,10 1.1329,10 H 6.6076751 7.3927117 12.867487 C 12.940666,10 13,9.90837 13,9.79478 13,9.68146 12.940534,9.58947 12.867101,9.58947 H 12.327775 L 9.8552209,4.22071 9.7373882,4 9.6191693,4.22071 7.1470017,9.58947 H 6.852999 L 4.3808313,4.22071 Z M 4.2626124,6.90374 4.9514507,9.58947 H 3.5741605 Z M 9.7373882,6.90374 10.425839,9.58947 H 9.0489363 Z"
     id="path196"
     inkscape:connector-curvature="0" />
</svg>
