<svg xmlns="http://www.w3.org/2000/svg" xmlns:svg="http://www.w3.org/2000/svg" id="svg2" width="14" height="14" version="1.1" viewBox="0 0 14 14"><metadata id="metadata7"/><path id="path188" fill="#ffaa45" fill-opacity="1" fill-rule="nonzero" stroke="none" stroke-width=".52" d="M 6.9647068,1.0014181 C 6.8981748,0.99369906 6.8301883,1.0177211 6.7825413,1.0676731 6.0196706,1.8726811 5.0802127,3.1882651 5.3524084,4.5208544 5.3637715,4.5774933 5.334917,4.6347542 5.2817174,4.6557322 5.2295508,4.6777585 5.1697718,4.6573092 5.1387818,4.6080123 4.9450942,4.2902047 4.767506,3.8146841 4.8331016,3.1874601 4.8434315,3.0867681 4.7822187,2.9907101 4.6851167,2.9587201 4.589564,2.9288271 4.4844352,2.9709251 4.4353678,3.0616531 4.0851805,3.7035611 3.7696297,4.5095135 3.7696297,5.3313029 3.7685965,7.1421766 5.2147664,8.6117461 6.9992751,8.6117461 8.7848168,8.6117461 10.231251,7.1421766 10.231251,5.3313029 10.231251,4.8755691 10.027555,4.2750118 9.7228198,3.6315301 9.6835658,3.5481451 9.5898711,3.5014391 9.4994837,3.5218931 9.4096123,3.5418211 9.3439865,3.6225781 9.3429533,3.7159271 9.3300407,4.3976929 9.148799,4.8604638 8.9261868,5.1735514 8.9003625,5.2102618 8.8517646,5.2213462 8.8119941,5.2003694 8.7737731,5.1788676 8.7563644,5.130585 8.7723759,5.089154 8.9288755,4.6701311 8.8533606,4.0481491 8.0553675,3.1728671 7.3074751,2.3537001 7.1230136,1.7084631 7.1581357,1.2380451 7.1653667,1.1457441 7.114666,1.0577121 7.0299599,1.0199531 7.0089126,1.0101211 6.9868838,1.0039901 6.9647068,1.0014181 Z M 2.7636425,7.8774127 C 2.4659688,7.8792318 2.1841958,8.0584385 2.0629473,8.3553999 1.9012827,8.7508237 2.0857393,9.2048053 2.474664,9.3689536 L 5.0043913,10.436143 2.4719451,11.497022 C 2.0830203,11.660121 1.8966218,12.114493 2.0582863,12.509392 2.1796639,12.80832 2.4649772,12.99014 2.7640309,12.99014 2.8611331,12.99014 2.96056,12.971365 3.0545632,12.930983 L 6.9992751,11.277747 10.93855,12.940843 C 11.034103,12.981224 11.133149,12.999999 11.231802,12.999999 11.530854,12.999999 11.815651,12.819891 11.937545,12.522012 12.09921,12.127113 11.913588,11.673001 11.524664,11.508853 L 8.9961017,10.440875 11.527382,9.3799961 C 11.916307,9.2163724 12.10271,8.7631795 11.942594,8.3672314 11.780931,7.9718073 11.333688,7.7826754 10.944764,7.9468234 L 7.0016055,9.5996651 3.0615545,7.9369639 C 2.9641943,7.8959269 2.862867,7.8768063 2.7636425,7.8774127 Z"/></svg>