<svg xmlns="http://www.w3.org/2000/svg" xmlns:svg="http://www.w3.org/2000/svg" id="svg4604" width="14" height="14" version="1.1" viewBox="0 0 14 14"><metadata id="metadata4609"/><path id="path332" fill="#ffaa45" fill-opacity="1" fill-rule="nonzero" stroke="none" stroke-width=".403" d="M 11.677,1 C 11.855252,1 12,1.141484 12,1.31584 V 12.635072 C 12,12.809029 11.855252,13 11.677,13 H 3.9127163 C 3.7968721,13 3.6894839,12.889413 3.6319699,12.791089 3.574456,12.693164 3.5751637,12.572016 3.6343093,12.474489 L 4.7951172,10.557 C 4.820407,10.515203 4.8419331,10.470734 4.8590649,10.424957 L 5.3113782,9.2038371 C 5.1816663,9.1317861 5.0780026,9.015221 5.0294624,8.8655463 L 5.0165947,8.8255907 2.9854737,12.888124 C 2.9503942,12.958981 2.8776881,13 2.8018186,13 2.7720419,13 2.7414869,12.993765 2.7125255,12.979832 2.6113664,12.931665 2.569198,12.812581 2.6185535,12.713461 L 3.6389883,10.672681 C 3.6312382,10.673477 3.6233613,10.676487 3.6152032,10.676487 3.5687022,10.676487 3.5209586,10.671252 3.4740501,10.660504 3.1448746,10.584473 2.9410982,10.262928 3.0190072,9.9416838 L 3.3625314,8.5226891 2.2656712,7.8757889 C 2.0502998,7.748804 1.9149321,7.4400915 2.0609603,7.0599335 2.2999899,6.4361557 3.0190072,4.5651815 3.0190072,4.5651815 3.1768646,4.1547698 3.6453936,3.946121 4.0663466,4.1001744 L 4.7487161,4.3498017 5.8330986,4.5393056 6.9588132,3.484858 C 7.0485513,3.399671 7.1681672,3.369031 7.2840109,3.380973 L 8.4015373,1.145362 C 8.4500773,1.04664 8.572102,1.005868 8.6744848,1.054035 8.7756442,1.102202 8.817423,1.220906 8.7680669,1.320025 L 7.6170073,3.622229 C 7.6781922,3.768719 7.6482248,3.943221 7.5238151,4.0594576 L 7.2886899,4.279404 5.7964459,7.2646584 6.1579067,8.3853179 6.6714381,8.0424607 C 6.8509142,7.9226413 6.9731823,7.7369723 7.0098934,7.5279847 L 7.4056678,5.2851436 C 7.4203521,5.2007525 7.4494556,5.1194862 7.4910613,5.0446489 L 8.2611641,3.656096 8.9443133,1.231742 C 8.9830638,1.095204 9.110633,1 9.256254,1 Z M 4.5697404,2.191438 C 5.0755368,2.191438 5.4860648,2.592074 5.4860648,3.085682 5.4860648,3.579689 5.0755368,3.979546 4.5697404,3.979546 4.0639441,3.979546 3.6538057,3.579689 3.6538057,3.085682 3.6538057,2.592074 4.0639441,2.191438 4.5697404,2.191438 Z M 6.4351434,5.079277 6.2483692,5.2543205 C 6.1720918,5.3263716 6.0697056,5.3654352 5.9652832,5.3654352 5.9416253,5.3654352 5.9175853,5.3633451 5.8939271,5.3589663 L 4.5475144,5.1241795 4.033983,6.4621214 4.9042966,6.2870779 C 5.2122609,6.2249788 5.517378,6.40014 5.6120109,6.6927224 L 5.6182498,6.7128905 Z M 4.6102927,7.5664183 4.2355742,7.6417632 4.3771173,7.7250991 C 4.6051336,7.8592491 4.7178788,8.1211267 4.6566938,8.373902 L 4.5334773,8.8834312 4.8380092,8.2734422 Z"/></svg>