<svg xmlns="http://www.w3.org/2000/svg" xmlns:svg="http://www.w3.org/2000/svg" id="svg4604" width="14" height="14" version="1.1" viewBox="0 0 14 14"><metadata id="metadata4609"/><path id="path308" fill="#ffaa45" fill-opacity="1" fill-rule="nonzero" stroke="none" stroke-width=".201" d="M 5.1117972,1.0002003 C 5.442205,0.99095871 5.4995622,1.3039209 5.394641,1.6124742 5.3799268,1.6560472 5.3632926,1.6965552 5.3446205,1.73514 4.8815512,1.2320117 4.0270565,1.4180694 3.8296804,2.0736795 L 3.7750954,2.2538536 C 3.618808,2.1850649 3.5050449,2.0631722 3.4845582,1.8662925 3.4165158,1.2160187 4.0887138,1.4842108 4.4817474,1.2430764 4.7551774,1.0751941 4.9616119,1.0044008 5.1117972,1.0002003 Z M 6.8691342,1.7507509 C 7.3890613,1.7302199 7.8273488,2.126553 7.8483115,2.6357474 7.8693504,3.1467759 7.4627412,3.5746324 6.9450622,3.5950735 6.4251355,3.6156047 5.9860935,3.2196692 5.9651157,2.7101081 5.9441518,2.2009138 6.3492072,1.7712811 6.8691342,1.7507509 Z M 9.1427129,1.6922786 C 9.3195985,1.6980717 9.4847898,1.8053982 9.5526542,1.9774419 L 10.366181,4.0491064 C 10.477692,4.3335306 10.271066,4.6419834 9.9601583,4.6542601 L 8.2015347,4.723702 8.2965768,7.0323058 10.176744,7.4363012 C 10.486029,7.5030683 10.680876,7.8200129 10.577559,8.1265143 10.35944,8.7704232 10.422381,8.5845673 9.9165982,10.07876 9.8219467,10.358811 9.5137055,10.510933 9.2273528,10.417886 8.94139,10.32521 8.7856842,10.023316 8.8806944,9.7428834 9.0318845,9.2959778 9.176829,8.8687622 9.3510862,8.3533395 L 8.2200295,8.1102294 6.9835334,8.1590539 C 6.5790436,9.4798364 6.6495243,9.250045 6.4960595,9.7510526 6.6300145,10.261662 7.0309501,11.7868 7.1745959,12.332308 7.2493976,12.618182 7.073513,12.909698 6.7819991,12.982944 6.4905016,13.056577 6.1928554,12.885035 6.1176645,12.598829 5.9584309,11.993669 5.5600746,10.478256 5.4012319,9.8734866 5.376343,9.7792877 5.3783411,9.6799872 5.4071551,9.5869896 5.5916773,8.9836846 5.8298221,8.2057966 5.9220987,7.9045205 L 5.7953704,4.8262563 4.0621226,4.8946961 C 3.7515898,4.9069597 3.5199287,4.6161697 3.6080726,4.3238814 3.6700678,4.1163945 4.1855762,2.4034155 4.2482756,2.1948136 4.3152696,1.9720497 4.5445925,1.8397936 4.7707547,1.8833939 5.0362372,1.9342912 5.1957693,2.1967124 5.1204984,2.4462585 5.0129256,2.8043402 4.7687112,3.616192 4.6591039,3.9795218 L 9.2898876,3.7891245 8.7039509,2.2972164 C 8.6138237,2.0674292 8.7309881,1.8097762 8.9652308,1.7215391 9.0236072,1.699576 9.0837543,1.6903459 9.1427159,1.6922772 Z M 10.381211,5.2467435 C 10.717645,5.2165563 11.364287,5.4554407 11.133832,6.0822258 11.019473,6.3939307 10.798596,6.2441605 10.335757,6.2661111 9.3037576,6.3156803 9.3661732,5.8252785 9.7237445,5.5065421 9.9025381,5.3473575 10.088513,5.2729993 10.381211,5.2467435 Z M 3.8937641,9.495508 C 4.1341252,9.4738901 4.7481195,9.6585469 4.9811782,9.9881342 5.0497301,10.085741 5.0846653,10.196177 5.0675185,10.317378 5.0614047,10.360244 5.0493096,10.403774 5.0290662,10.449771 4.7633455,11.049287 4.3111646,10.493301 3.8483259,10.515251 2.8163113,10.564453 2.8787416,10.07442 3.2363134,9.7556827 3.4150915,9.5961315 3.6010665,9.5217626 3.8937641,9.4955076 Z M 8.7025672,10.589094 C 8.8097199,10.694731 8.9413236,10.775339 9.0900224,10.823851 9.4391189,10.937204 9.8193167,10.850498 10.084296,10.59752 10.638201,10.609452 10.607994,10.996105 10.362016,11.300514 10.212075,11.486118 10.041259,11.588995 9.7564734,11.661604 9.4297367,11.745057 8.3122957,11.547105 8.4778047,10.901204 8.5246441,10.717466 8.6035979,10.627542 8.7025672,10.589094 Z"/></svg>