<svg xmlns="http://www.w3.org/2000/svg" xmlns:svg="http://www.w3.org/2000/svg" id="svg2" width="14" height="14" version="1.1" viewBox="0 0 14 14"><metadata id="metadata7"/><path id="path376" fill="#ffaa45" fill-opacity="1" fill-rule="nonzero" stroke="none" stroke-width=".42" d="M 6.9998599,3 C 10.128809,3 12.665077,3.8648349 12.665077,4.9314796 12.665077,5.594833 11.683065,6.1801769 10.187233,6.5276474 L 8.4881399,5.6770803 C 8.4881399,5.6775129 8.488533,5.6778968 8.488533,5.6783294 8.488533,5.925843 8.299044,6.1265228 8.065333,6.1265228 7.831622,6.1265228 7.642133,5.925843 7.642133,5.6783294 7.642133,5.5381296 7.7026829,5.4127376 7.7978834,5.3305215 L 6.9998599,4.9314796 7.650786,6.8163073 V 6.8492136 C 7.4370953,6.8578679 7.2200876,6.8621263 6.9998599,6.8621263 3.871319,6.8621263 1.3346435,5.9976916 1.3346435,4.9314796 1.3346435,3.8648349 3.871319,3 6.9998599,3 Z M 12.93292,5.9207538 C 13.127815,6.9700898 12.85466,7.9655115 12.665077,9.068936 12.553941,9.71325 11.708179,10.302573 10.245442,10.651775 10.235636,10.653939 10.225704,10.652803 10.217124,10.64761 L 7.650786,9.208061 V 10.945434 C 7.650786,10.9688 7.6335188,10.988321 7.6114547,10.988754 7.410431,10.99611 7.2066047,11 6.9998599,11 3.871319,11 1.5152384,10.11784 1.3346435,9.068936 1.1446511,7.9655115 0.87229813,6.9700898 1.0671935,5.9207538 1.3740414,6.2846679 1.9047048,6.6495974 2.7946049,6.9529313 3.9276127,7.3389139 5.4206765,7.5514942 6.9998599,7.5514942 7.2188619,7.5514942 7.4358695,7.5472199 7.650786,7.5389983 V 7.6235553 C 7.8832713,7.6477873 8.065333,7.8552815 8.065333,8.107988 8.065333,8.288862 7.9721542,8.445991 7.8344608,8.529938 L 8.8240252,9.085598 C 8.8240252,9.079973 8.8232387,9.074562 8.8232387,9.068936 8.8232387,8.806278 9.0243703,8.593252 9.2727904,8.593252 9.5212105,8.593252 9.7219487,8.806278 9.7219487,9.068936 9.7219487,9.238561 9.6377666,9.387348 9.5119218,9.471728 L 10.212404,9.864938 V 7.2270123 C 10.565831,7.1486907 10.899085,7.0572159 11.205115,6.9529313 12.095015,6.6495974 12.626072,6.2846679 12.93292,5.9207538 Z M 9.2574513,6.5172341 C 9.5929002,6.5172341 9.8651131,6.8055072 9.8651131,7.1611997 9.8651131,7.5164594 9.5929002,7.8047485 9.2574513,7.8047485 8.9215938,7.8047485 8.6493961,7.5164594 8.6493961,7.1611997 8.6493961,6.8055072 8.9215938,6.5172341 9.2574513,6.5172341 Z"/></svg>