<svg xmlns="http://www.w3.org/2000/svg" xmlns:svg="http://www.w3.org/2000/svg" id="svg2" width="14" height="14" version="1.1" viewBox="0 0 14 14"><metadata id="metadata7"/><path id="path204" fill="#ffaa45" fill-opacity="1" fill-rule="nonzero" stroke="none" stroke-width=".521" d="M 6.2425561,0.99999989 C 4.5853605,0.99999989 2.973302,1.2627915 1.4508213,1.780912 1.2492636,1.8495029 1.090014,2.038085 1.0277985,2.282372 0.96558293,2.5261313 1.0093503,2.7914245 1.1435507,2.9876982 L 1.3969438,3.3582859 C 1.6581461,3.7408088 1.9199123,4.1221759 2.1811147,4.5041711 2.323542,4.7120524 2.5449511,4.8084579 2.7598773,4.7620275 L 4.205732,6.7644111 C 4.171282,6.831946 4.1585991,6.911499 4.1771095,6.9911692 L 4.4873265,8.3404889 C 4.5109785,8.4407363 4.5780175,8.531183 4.6767397,8.5776133 L 4.7003111,8.5888432 5.3594691,8.898962 V 10.425369 L 5.0509361,10.800708 5.0265228,10.830079 C 4.9653356,10.905 4.9306491,11.003144 4.9347625,11.108667 L 4.9991632,12.624708 C 5.0084183,12.826258 5.166703,12.991701 5.3662038,12.999615 5.5775309,13.008057 5.7549031,12.839304 5.76313,12.622981 L 5.812798,11.3026 6.2109871,10.891843 6.608334,11.3026 6.6584232,12.622981 C 6.66665,12.824531 6.8237653,12.990646 7.0237805,12.999615 7.2345934,13.009112 7.4136492,12.841559 7.4223902,12.624708 L 7.4863699,11.108667 C 7.4904833,11.01053 7.4605175,10.910468 7.3941886,10.829215 L 7.3701965,10.800708 7.1260633,10.503115 V 8.898962 L 7.7852219,8.5888432 7.8104767,8.5767494 C 7.9020004,8.5334847 7.9735261,8.4486505 7.9982062,8.3404889 L 8.3084231,6.9911692 C 8.3264193,6.9120266 8.3143438,6.8324736 8.2793797,6.7644111 L 9.7252345,4.7620275 C 9.7601986,4.7699418 9.7963417,4.7741214 9.8313058,4.7741214 10.011268,4.7741214 10.184801,4.6777573 10.303576,4.5041711 L 11.341982,2.9876982 C 11.476182,2.7914245 11.519436,2.5261313 11.457735,2.282372 11.395519,2.038085 11.235755,1.8495029 11.034711,1.780912 9.5122307,1.2627915 7.9002656,0.99999989 6.2425561,0.99999989 Z M 6.2425561,4.1910286 C 7.0210214,4.1910286 7.7874015,4.2728446 8.531931,4.4337679 L 7.9586402,6.5916429 C 7.8393509,6.6069437 7.7328667,6.6914366 7.6943034,6.8175372 L 7.34452,7.9508966 6.7775433,8.1737677 H 5.7079895 L 5.1401707,7.9508966 4.7912295,6.8175372 C 4.7526661,6.693547 4.6473036,6.6074714 4.5264717,6.5916429 L 3.9536019,4.4337679 C 4.6976172,4.2728446 5.4635765,4.1910286 6.2425561,4.1910286 Z M 3.7460891,4.4812792 4.2827601,6.5048269 2.9762295,4.6950799 C 3.2297191,4.6143544 3.4864292,4.5430105 3.7460891,4.4812792 Z M 8.7394435,4.4812792 C 8.9991033,4.5430105 9.2559069,4.6143544 9.5088824,4.6950799 L 8.2023518,6.5048269 Z M 11.05579,6.681975 C 10.968894,6.681975 10.88917,6.7180959 10.833125,6.7761338 L 9.0042334,8.6545559 C 8.8870009,8.7780185 8.8870009,8.9769802 9.0042334,9.1020257 9.1260936,9.2275986 9.3180239,9.2275986 9.439884,9.1020257 L 10.750624,7.758321 V 12.527587 C 10.750624,12.702756 10.885597,12.842025 11.05579,12.842025 11.226497,12.842025 11.366007,12.702756 11.366007,12.527587 V 7.7570251 L 12.671275,9.1020257 C 12.793649,9.2275986 12.985393,9.2275986 13.107767,9.1020257 13.230142,8.9769802 13.230142,8.7780185 13.107767,8.6545559 L 11.278877,6.7761338 C 11.220775,6.7180959 11.143201,6.681975 11.05579,6.681975 Z M 6.1878363,6.5674553 C 5.9113376,6.5894668 5.6611119,6.7777035 5.5674029,7.0645958 5.4429718,7.4471187 5.6441646,7.8602626 6.0169436,7.9884737 6.3897225,8.1166848 6.7927634,7.9097053 6.9177087,7.5271827 7.0421402,7.1446598 6.8413682,6.7309881 6.4685892,6.6033046 6.3753945,6.5712519 6.2800026,6.560118 6.1878363,6.5674553 Z"/></svg>