<?xml version="1.0" encoding="UTF-8" standalone="no"?>
<!-- Created with Inkscape (http://www.inkscape.org/) -->

<svg
   xmlns:dc="http://purl.org/dc/elements/1.1/"
   xmlns:cc="http://creativecommons.org/ns#"
   xmlns:rdf="http://www.w3.org/1999/02/22-rdf-syntax-ns#"
   xmlns:svg="http://www.w3.org/2000/svg"
   xmlns="http://www.w3.org/2000/svg"
   xmlns:sodipodi="http://sodipodi.sourceforge.net/DTD/sodipodi-0.dtd"
   xmlns:inkscape="http://www.inkscape.org/namespaces/inkscape"
   width="14"
   height="14"
   viewBox="0 0 14 14"
   id="svg4604"
   version="1.1"
   inkscape:version="0.92.3 (2405546, 2018-03-11)"
   sodipodi:docname="shelter.svg">
  <defs
     id="defs4606">
    <clipPath
       clipPathUnits="userSpaceOnUse"
       id="clipPath286">
      <path
         d="m 513.739,235.444 21.56,0 0,25.556 -21.56,0 0,-25.556 z"
         id="path288"
         inkscape:connector-curvature="0" />
    </clipPath>
    <clipPath
       clipPathUnits="userSpaceOnUse"
       id="clipPath406">
      <path
         d="m 57.255,313.364 43.245,0 0,29.167 -43.245,0 0,-29.167 z"
         id="path408"
         inkscape:connector-curvature="0" />
    </clipPath>
  </defs>
  <sodipodi:namedview
     id="base"
     pagecolor="#ffffff"
     bordercolor="#666666"
     borderopacity="1.0"
     inkscape:pageopacity="0.0"
     inkscape:pageshadow="2"
     inkscape:zoom="31.678384"
     inkscape:cx="12.917391"
     inkscape:cy="4.1142472"
     inkscape:document-units="px"
     inkscape:current-layer="svg4604"
     showgrid="true"
     units="px"
     inkscape:window-width="1280"
     inkscape:window-height="1002"
     inkscape:window-x="2552"
     inkscape:window-y="1016"
     inkscape:window-maximized="1"
     inkscape:snap-global="false">
    <inkscape:grid
       type="xygrid"
       id="grid823" />
  </sodipodi:namedview>
  <metadata
     id="metadata4609">
    <rdf:RDF>
      <cc:Work
         rdf:about="">
        <dc:format>image/svg+xml</dc:format>
        <dc:type
           rdf:resource="http://purl.org/dc/dcmitype/StillImage" />
        <dc:title></dc:title>
      </cc:Work>
    </rdf:RDF>
  </metadata>
  <path
     d="M 7.1996379,1.085732 C 9.1024937,2.9485818 11.005307,4.8114754 12.908122,6.6743665 13.015784,6.9052982 13.023675,6.9921082 12.710194,7 H 11 V 12.69154 C 11,12.861193 10.933751,13 10.773,13 H 9.8653774 C 9.704103,13 9.5768639,12.861193 9.5768639,12.69154 V 8 H 4.426033 V 12.69154 C 4.426033,12.861193 4.2946048,13 4.1328069,13 H 3.225 C 3.0642493,13 3.007867,12.861011 3,12.69154 V 7 H 1.2895608 C 0.81529906,6.9865051 1.0671659,6.8019811 1.1078653,6.6611468 3.0078746,4.802421 4.9057645,2.9415328 6.8037826,1.0807746 6.914266,0.97226275 7.0881072,0.97226275 7.1996379,1.085732"
     style="fill:#ffaa45;fill-opacity:1;fill-rule:nonzero;stroke:none;stroke-width:0.53704756"
     id="path90"
     inkscape:connector-curvature="0"
     sodipodi:nodetypes="ccccssssccssssccccc" />
</svg>
