<svg xmlns="http://www.w3.org/2000/svg" xmlns:svg="http://www.w3.org/2000/svg" id="svg2" width="14" height="14" version="1.1" viewBox="0 0 14 14"><metadata id="metadata7"/><path id="path62" fill="#ffaa45" fill-opacity="1" fill-rule="nonzero" stroke="none" stroke-width=".219" d="M 6.9997876,1 C 5.5562089,1 4.263075,1.7572508 3.5415103,3.0263104 2.8194966,4.2953696 2.8194966,5.8098708 3.5415103,7.0789304 L 6.8650607,12.921501 C 6.8928993,12.970258 6.9440859,13 7.0002125,13 7.0554412,13 7.1071007,12.970258 7.1349396,12.921501 L 10.45849,7.0789304 C 11.180503,5.8098708 11.180503,4.2953696 10.45849,3.0263104 9.7364763,1.7572508 8.4438153,1 6.9997876,1 Z M 6.9997876,1.9342247 C 8.6728118,1.9342247 10.034334,3.3159508 10.034334,5.0138022 10.034334,6.7116536 8.6728118,8.0929481 6.9997876,8.0929481 5.326763,8.0929481 3.9656669,6.7116536 3.9656669,5.0138022 3.9656669,3.3154952 5.326763,1.9342247 6.9997876,1.9342247 Z M 6.9997876,2.2508089 C 5.4987352,2.2508089 4.2776213,3.490475 4.2776213,5.0138022 4.2776213,5.2393622 4.304683,5.458493 4.3549724,5.6681048 L 5.8756456,3.4886783 C 5.9043825,3.446756 6.0027225,3.3139964 6.0027225,3.3139964 6.0027225,3.3139964 6.1006136,3.446756 6.1297993,3.4886783 L 6.9997876,4.7360363 7.8702005,3.4886783 C 7.8993865,3.446756 7.9972776,3.4213931 7.9972776,3.4213931 7.9972776,3.4213931 8.0955937,3.446756 8.1247796,3.4886783 L 9.6450275,5.6681048 C 9.695317,5.4580374 9.7223787,5.2389065 9.7223787,5.0138022 9.7223787,3.490475 8.5008401,2.2508089 6.9997876,2.2508089 Z M 6.6937829,4.8447275 6.4804297,5.1022213 C 6.451693,5.1363971 6.4105313,5.1569007 6.366528,5.1587234 H 6.3610031 C 6.3187958,5.1587234 6.2788613,5.1413771 6.2492264,5.1108477 L 5.9997477,4.8499031 5.7668438,5.0797929 C 5.7071255,5.1385752 5.6124079,5.1393649 5.5517911,5.0819574 L 5.3074123,4.8503419 4.4743998,6.0442172 C 4.8776139,7.0585535 5.8574974,7.7763715 6.9997877,7.7763715 8.1420783,7.7763715 9.122387,7.0585535 9.5256012,6.0442172 L 8.6887634,4.8447348 8.474985,5.102229 C 8.4466972,5.1364048 8.4055118,5.1569084 8.3615085,5.1587311 H 8.3559834 C 8.3137766,5.1587311 8.2738418,5.1413844 8.2442068,5.110855 L 7.9947282,4.8499104 7.7618244,5.0798006 C 7.7021055,5.1385829 7.6073879,5.1393722 7.5467712,5.0819647 L 7.3023925,4.8503492 7.1906159,5.0095043 7.8077252,5.8936967 C 7.8575657,5.9652379 7.8403708,6.0635173 7.7703247,6.1140975 7.7429349,6.133692 7.71163,6.1434266 7.6806481,6.1434266 7.6317057,6.1434266 7.5836792,6.1198868 7.5531463,6.0761419 L 6.6937834,4.8447425 Z"/></svg>