<svg xmlns="http://www.w3.org/2000/svg" xmlns:svg="http://www.w3.org/2000/svg" id="svg4604" width="14" height="14" version="1.1" viewBox="0 0 14 14"><metadata id="metadata4609"/><path id="path372" fill="#ffaa45" fill-opacity="1" fill-rule="nonzero" stroke="none" stroke-width=".542" d="M 6.0086569,1 C 4.8995856,1 4,1.6705117 4,2.5015169 V 9.0725633 C 3.3828062,9.4845508 3,10.082994 3,10.749486 3,11.990604 4.3463046,13 6.0086569,13 7.6678761,13 9.016791,11.990604 9.016791,10.749486 9.016791,10.082994 8.6165677,9.4845508 8,9.0725633 V 2.5015169 C 8,1.6723861 7.112088,1 6.0086569,1 Z M 6.0086569,1.7509539 C 6.5644449,1.7509539 7,2.0857797 7,2.5015169 V 9.4496069 C 7.5996497,9.7097355 8.012858,10.19267 8.012858,10.749486 8.012858,11.576742 7.1145949,12.249045 6.0086569,12.249045 4.8995856,12.249045 4.0039319,11.576742 4.0039319,10.749486 4.0039319,10.194545 4.4003484,9.7097355 5,9.4496069 V 2.5015169 C 5,2.0857797 5.4553737,1.7509539 6.0086569,1.7509539 Z M 9.494158,2.6882767 C 9.342519,2.6882767 9.219355,2.7804044 9.219355,2.89383 9.219355,3.0067866 9.342519,3.0986 9.494158,3.0986 H 11.060244 C 11.211887,3.0986 11.334,3.0067866 11.334,2.89383 11.334,2.7804044 11.211887,2.6882767 11.060244,2.6882767 Z M 9.494158,3.6259908 C 9.342519,3.6259908 9.219355,3.717727 9.219355,3.8311525 9.219355,3.9441092 9.342519,4.0359226 9.494158,4.0359226 H 11.060244 C 11.211887,4.0359226 11.334,3.9441092 11.334,3.8311525 11.334,3.717727 11.211887,3.6259908 11.060244,3.6259908 Z M 9.494158,4.5633135 C 9.342519,4.5633135 9.219355,4.6550497 9.219355,4.7684751 9.219355,4.8814319 9.342519,4.9732454 9.494158,4.9732454 H 11.060244 C 11.211887,4.9732451 11.334,4.8814319 11.334,4.7684751 11.334,4.6550497 11.211887,4.5633135 11.060244,4.5633135 Z M 6.0086569,5.500636 C 5.7317023,5.500636 5.5,5.6708998 5.5,5.8757217 V 9.6856991 C 4.9122546,9.8394328 4.502759,10.256882 4.502759,10.749486 4.502759,11.370045 5.1765405,11.873568 6.0086569,11.873568 6.8382665,11.873568 7.5108921,11.370045 7.5108921,10.749486 7.5108921,10.256882 7.0896243,9.8394328 6.5,9.6856991 V 5.8757217 C 6.5,5.6690248 6.2874903,5.500636 6.0086569,5.500636 Z M 9.494158,5.500636 C 9.342519,5.500636 9.219355,5.5923723 9.219355,5.7057976 9.219355,5.8187545 9.342519,5.9105679 9.494158,5.9105679 H 11.060244 C 11.211887,5.9105679 11.334,5.8187545 11.334,5.7057976 11.334,5.5923723 11.211887,5.500636 11.060244,5.500636 Z M 9.494158,6.4379586 C 9.342519,6.4379586 9.219355,6.5300865 9.219355,6.6435119 9.219355,6.7564687 9.342519,6.8482819 9.494158,6.8482819 H 11.060244 C 11.211887,6.8482819 11.334,6.7564687 11.334,6.6435119 11.334,6.5300865 11.211887,6.4379586 11.060244,6.4379586 Z"/></svg>