<?xml version="1.0" encoding="iso-8859-1"?>
<!-- Generator: Adobe Illustrator 16.0.0, SVG Export Plug-In . SVG Version: 6.00 Build 0)  -->
<!DOCTYPE svg PUBLIC "-//W3C//DTD SVG 1.1//EN" "http://www.w3.org/Graphics/SVG/1.1/DTD/svg11.dtd">
<svg version="1.1" id="Capa_1" xmlns="http://www.w3.org/2000/svg" xmlns:xlink="http://www.w3.org/1999/xlink" x="0px" y="0px"
	 width="612px" height="612px" viewBox="0 0 612 612" style="enable-background:new 0 0 612 612;" xml:space="preserve">
<g>
	<g>
		<path d="M296.069,247.387c0-31.295-18.694-80.033-54.802-80.033c-11.294,0-23.479,5.647-30.461,14.382
			c-7.399,9.124-9.569,20.863-9.569,32.186c0,29.125,16.969,77.418,54.384,77.418c10.877,0,22.616-5.23,29.599-12.185
			C295.207,269.113,296.069,255.204,296.069,247.387z"/>
		<path d="M612,306C612,137.004,474.995,0,306,0C137.004,0,0,137.004,0,306c0,168.995,137.004,306,306,306
			C474.995,612,612,474.995,612,306z M400.164,247.165h23.535v47.068h47.068v23.535h-47.068v47.068h-23.535v-47.068h-47.068v-23.535
			h47.068V247.165z M141.233,422.252c0-15.661,7.817-37.832,33.493-53.077c26.956-16.523,63.509-18.693,83.065-20.001
			c-6.092-7.845-13.047-16.106-13.047-29.57c0-7.4,2.17-11.739,4.34-16.97c-4.785,0.417-9.569,0.863-13.937,0.863
			c-46.095,0-72.188-34.383-72.188-68.294c0-20.001,9.125-42.2,27.846-58.279C215.619,156.478,245.189,153,268.668,153h89.603
			l-27.846,15.634h-26.956l0,0c9.986,8.262,30.878,25.676,30.878,58.724c0,32.186-18.276,47.402-36.525,61.756
			c-5.647,5.647-12.184,11.739-12.184,21.309s6.537,14.8,11.294,18.694l15.662,12.184c19.139,16.079,36.525,30.879,36.525,60.922
			c0,40.865-39.585,82.203-114.388,82.203C171.694,484.454,141.233,454.438,141.233,422.252z"/>
		<path d="M272.59,361.775c-3.477-0.417-5.647-0.417-9.987-0.417c-3.922,0-27.401,0.862-45.677,6.982
			c-9.569,3.477-37.416,13.909-37.416,44.787s30.016,53.049,76.556,53.049c41.755,0,63.926-20.001,63.926-46.957
			C319.992,397.021,305.666,385.282,272.59,361.775z"/>
	</g>
</g>
<g>
</g>
<g>
</g>
<g>
</g>
<g>
</g>
<g>
</g>
<g>
</g>
<g>
</g>
<g>
</g>
<g>
</g>
<g>
</g>
<g>
</g>
<g>
</g>
<g>
</g>
<g>
</g>
<g>
</g>
</svg>
