<svg xmlns="http://www.w3.org/2000/svg" width="17.525" height="17.525" viewBox="0 0 17.525 17.525">
  <path id="Tracé_1806" data-name="Tracé 1806" d="M18.5,3H5.022A2.028,2.028,0,0,0,3,5.022V18.5a2.028,2.028,0,0,0,2.022,2.022H18.5A2.028,2.028,0,0,0,20.525,18.5V5.022A2.028,2.028,0,0,0,18.5,3Zm-3.566,9.241-4.044,4.044a.684.684,0,0,1-.957,0,.679.679,0,0,1,0-.957l3.572-3.566L9.936,8.2a.677.677,0,0,1,.957-.957l4.044,4.044A.679.679,0,0,1,14.937,12.241Z" transform="translate(-3 -3)" fill="#337ab7"/>
</svg>
