<svg xmlns="http://www.w3.org/2000/svg" width="16.8" height="16.8" viewBox="0 0 16.8 16.8">
  <path id="my_location_24dp_5F6368_FILL0_wght400_GRAD0_opsz24" d="M49.633-901.2v-1.534a6.719,6.719,0,0,1-4.114-1.985,6.72,6.72,0,0,1-1.985-4.114H42v-1.534h1.534a6.719,6.719,0,0,1,1.985-4.114,6.719,6.719,0,0,1,4.114-1.985V-918h1.534v1.534a6.719,6.719,0,0,1,4.114,1.985,6.719,6.719,0,0,1,1.985,4.114H58.8v1.534H57.266a6.72,6.72,0,0,1-1.985,4.114,6.719,6.719,0,0,1-4.114,1.985v1.534Zm.767-3.03a5.174,5.174,0,0,0,3.8-1.573,5.174,5.174,0,0,0,1.573-3.8,5.174,5.174,0,0,0-1.573-3.8,5.174,5.174,0,0,0-3.8-1.573,5.174,5.174,0,0,0-3.8,1.573,5.174,5.174,0,0,0-1.573,3.8,5.174,5.174,0,0,0,1.573,3.8A5.174,5.174,0,0,0,50.4-904.23Zm0-2.3a2.955,2.955,0,0,1-2.167-.9,2.955,2.955,0,0,1-.9-2.167,2.955,2.955,0,0,1,.9-2.167,2.955,2.955,0,0,1,2.167-.9,2.955,2.955,0,0,1,2.167.9,2.955,2.955,0,0,1,.9,2.167,2.955,2.955,0,0,1-.9,2.167A2.955,2.955,0,0,1,50.4-906.531Zm0-1.534a1.477,1.477,0,0,0,1.084-.451,1.477,1.477,0,0,0,.451-1.083,1.477,1.477,0,0,0-.451-1.084,1.478,1.478,0,0,0-1.084-.451,1.478,1.478,0,0,0-1.084.451,1.477,1.477,0,0,0-.451,1.084,1.477,1.477,0,0,0,.451,1.083A1.477,1.477,0,0,0,50.4-908.066ZM50.4-909.6Z" transform="translate(-42 918)" fill="#5f6368"/>
</svg>
