<svg xmlns="http://www.w3.org/2000/svg" width="17.525" height="17.525" viewBox="0 0 17.525 17.525"><path id="Tracé_1807" fill="#337ab7" d="M5.022,3H18.5a2.028,2.028,0,0,1,2.022,2.022V18.5A2.028,2.028,0,0,1,18.5,20.525H5.022A2.028,2.028,0,0,1,3,18.5V5.022A2.028,2.028,0,0,1,5.022,3Zm3.566,9.241,4.044,4.044a.684.684,0,0,0,.957,0,.679.679,0,0,0,0-.957l-3.572-3.566L13.589,8.2a.677.677,0,0,0-.957-.957L8.588,11.284A.679.679,0,0,0,8.588,12.241Z" data-name="Tracé 1807" transform="translate(-3 -3)"/></svg>