<svg xmlns="http://www.w3.org/2000/svg" width="15" height="15" viewBox="0 0 15 15"><path id="my_location_24dp_5F6368_FILL0_wght400_GRAD0_opsz24" fill="#fff" d="M48.815-903v-1.37a6,6,0,0,1-3.673-1.772,6,6,0,0,1-1.772-3.673H42v-1.37h1.37a6,6,0,0,1,1.772-3.673,6,6,0,0,1,3.673-1.772V-918h1.37v1.37a6,6,0,0,1,3.673,1.772,6,6,0,0,1,1.772,3.673H57v1.37H55.63a6,6,0,0,1-1.772,3.673,6,6,0,0,1-3.673,1.772V-903Zm.685-2.706a4.62,4.62,0,0,0,3.39-1.4,4.62,4.62,0,0,0,1.4-3.39,4.62,4.62,0,0,0-1.4-3.39,4.619,4.619,0,0,0-3.39-1.4,4.619,4.619,0,0,0-3.39,1.4,4.62,4.62,0,0,0-1.4,3.39,4.62,4.62,0,0,0,1.4,3.39A4.62,4.62,0,0,0,49.5-905.706Zm0-2.055a2.639,2.639,0,0,1-1.935-.8,2.639,2.639,0,0,1-.8-1.935,2.638,2.638,0,0,1,.8-1.935,2.638,2.638,0,0,1,1.935-.8,2.638,2.638,0,0,1,1.935.8,2.638,2.638,0,0,1,.8,1.935,2.639,2.639,0,0,1-.8,1.935A2.639,2.639,0,0,1,49.5-907.76Zm0-1.37a1.319,1.319,0,0,0,.967-.4,1.319,1.319,0,0,0,.4-.967,1.319,1.319,0,0,0-.4-.968,1.319,1.319,0,0,0-.967-.4,1.319,1.319,0,0,0-.967.4,1.319,1.319,0,0,0-.4.968,1.319,1.319,0,0,0,.4.967A1.319,1.319,0,0,0,49.5-909.13ZM49.5-910.5Z" transform="translate(-42 918)"/></svg>