<svg xmlns="http://www.w3.org/2000/svg" width="18" height="18" viewBox="0 0 18 18"><g id="Groupe_19" data-name="Groupe 19" transform="translate(-1 -1)"><path id="Tracé_1808" fill="#337ab7" d="M16,1H4A3,3,0,0,0,1,4V16a3,3,0,0,0,3,3H16a3,3,0,0,0,3-3V4A3,3,0,0,0,16,1Zm-.24,9.48-4.8,3.6a.617.617,0,0,1-.36.12.545.545,0,0,1-.27-.066A.586.586,0,0,1,10,13.6V11.2L6.16,14.08a.617.617,0,0,1-.36.12.545.545,0,0,1-.27-.066A.586.586,0,0,1,5.2,13.6V6.4a.6.6,0,0,1,.96-.48L10,8.8V6.4a.6.6,0,0,1,.96-.48l4.8,3.6A.608.608,0,0,1,16,10,.6.6,0,0,1,15.76,10.48Z" data-name="Tracé 1808"/><path id="Tracé_1809" fill="#337ab7" d="M21.2,14.4,18,16.8V12Z" data-name="Tracé 1809" transform="translate(-6.8 -4.4)"/><path id="Tracé_1810" fill="#337ab7" d="M13.2,14.4,10,16.8V12Z" data-name="Tracé 1810" transform="translate(-3.6 -4.4)"/></g></svg>