<svg xmlns="http://www.w3.org/2000/svg" width="23.4" height="26" viewBox="0 0 23.4 26"><path id="bus_railway_24dp_5F6368_FILL0_wght400_GRAD0_opsz24" fill="#fff" d="M165.85-865.7a1.88,1.88,0,0,0-1.381.569,1.88,1.88,0,0,0-.569,1.381,1.881,1.881,0,0,0,.569,1.381,1.88,1.88,0,0,0,1.381.569,1.88,1.88,0,0,0,1.381-.569,1.88,1.88,0,0,0,.569-1.381,1.88,1.88,0,0,0-.569-1.381A1.88,1.88,0,0,0,165.85-865.7Zm11.7-3.9a6.116,6.116,0,0,1,4.225,1.446A4.79,4.79,0,0,1,183.4-864.4v5.2a2.5,2.5,0,0,1-.764,1.836,2.5,2.5,0,0,1-1.836.764l2.6,2.6H171.7l2.6-2.6a2.5,2.5,0,0,1-1.836-.764,2.5,2.5,0,0,1-.764-1.836v-5.2a4.79,4.79,0,0,1,1.625-3.754A6.116,6.116,0,0,1,177.55-869.6Zm0,8.45a.936.936,0,0,0-.682.293.935.935,0,0,0-.293.682.936.936,0,0,0,.293.683.936.936,0,0,0,.682.292.937.937,0,0,0,.683-.292.936.936,0,0,0,.292-.683.936.936,0,0,0-.292-.682A.936.936,0,0,0,177.55-861.15Zm-3.64-4.55a2.929,2.929,0,0,0-.2.618,3.467,3.467,0,0,0-.065.682v1.3h7.8v-1.3a3.473,3.473,0,0,0-.065-.682,2.932,2.932,0,0,0-.2-.618ZM170.4-880q5.59,0,8,1.2a4.136,4.136,0,0,1,2.4,4v3.12a8.6,8.6,0,0,0-1.235-.309q-.65-.114-1.365-.179V-873.5H162.6v3.9h8.45a6.424,6.424,0,0,0-.894,1.2,8.2,8.2,0,0,0-.634,1.4H162.6v3.9a2.5,2.5,0,0,0,.764,1.836,2.5,2.5,0,0,0,1.836.764h3.9v2.6h-3.9v1.3a1.257,1.257,0,0,1-.374.926,1.257,1.257,0,0,1-.926.374h-1.3a1.257,1.257,0,0,1-.926-.374,1.256,1.256,0,0,1-.374-.926v-2.665a5.537,5.537,0,0,1-.942-1.446A4.2,4.2,0,0,1,160-862.45V-874.8a4.144,4.144,0,0,1,2.5-3.949Q165-880,170.4-880Zm.065,3.9h0Zm-7.28,0h14.56a4.159,4.159,0,0,0-2.1-.926,25.439,25.439,0,0,0-5.184-.374,22.828,22.828,0,0,0-5.086.406A5.911,5.911,0,0,0,163.185-876.1ZM169.522-867Z" transform="translate(-160 880)"/></svg>