<svg xmlns="http://www.w3.org/2000/svg" width="16.896" height="20.3" viewBox="0 0 16.896 20.3"><path id="Tracé_1909" fill="#5f6369" fill-rule="evenodd" stroke="#5f6369" stroke-width=".3" d="M19.531,18.1a4.042,4.042,0,0,1,4.042-4.042h8.51A4.042,4.042,0,0,1,36.126,18.1v6.085a6.471,6.471,0,0,1-3.319,5.65l3.132,3.133a.638.638,0,0,1-.9.9L34.159,33H21.552l-.932.877a.638.638,0,1,1-.9-.9l3.132-3.133a6.471,6.471,0,0,1-3.319-5.65ZM32.882,31.721l-1.344-1.344a6.468,6.468,0,0,1-1.881.28H26a6.468,6.468,0,0,1-1.881-.28l-1.344,1.344ZM23.573,15.339A2.766,2.766,0,0,0,20.807,18.1v6.085A5.191,5.191,0,0,0,26,29.381h3.66a5.191,5.191,0,0,0,5.191-5.191V18.1a2.766,2.766,0,0,0-2.766-2.766ZM22.083,18.1a1.49,1.49,0,0,1,1.489-1.489h8.51A1.49,1.49,0,0,1,33.572,18.1v2.99a4.03,4.03,0,0,1-4.031,4.031H26.114a4.03,4.03,0,0,1-4.031-4.031Zm1.489-.213a.213.213,0,0,0-.213.213v2.99a2.755,2.755,0,0,0,2.754,2.754h3.428A2.755,2.755,0,0,0,32.3,21.095V18.1a.213.213,0,0,0-.213-.213ZM25.7,26.827a.851.851,0,1,1-.851-.851A.851.851,0,0,1,25.7,26.827Zm5.319.851a.851.851,0,1,0-.851-.851A.851.851,0,0,0,31.019,27.678Z" data-name="Tracé 1909" transform="translate(-19.381 -13.912)"/></svg>