<svg xmlns="http://www.w3.org/2000/svg" width="14.545" height="20" viewBox="0 0 14.545 20">
  <path id="tram_24dp_5F6368_FILL0_wght400_GRAD0_opsz24" d="M160-905v-8.636a2.765,2.765,0,0,1,1.932-2.886,14.486,14.486,0,0,1,4.432-.75l.682-1.364h-4.318V-920h9.091v1.364h-2.955l-.682,1.364a14.348,14.348,0,0,1,4.534.739,2.762,2.762,0,0,1,1.83,2.9V-905a3.074,3.074,0,0,1-.92,2.261,3.074,3.074,0,0,1-2.261.92l1.364,1.364V-900h-1.818l-1.818-1.818h-3.636L163.636-900h-1.818v-.455l1.364-1.364a3.074,3.074,0,0,1-2.261-.92A3.074,3.074,0,0,1,160-905Zm11.364-3.182h0Zm-4.091,3.636a1.315,1.315,0,0,0,.966-.4,1.315,1.315,0,0,0,.4-.966,1.315,1.315,0,0,0-.4-.966,1.315,1.315,0,0,0-.966-.4,1.315,1.315,0,0,0-.966.4,1.315,1.315,0,0,0-.4.966,1.315,1.315,0,0,0,.4.966A1.315,1.315,0,0,0,167.273-904.545Zm-.045-10h0ZM161.818-910h10.909v-2.727H161.818Zm1.364,6.364h8.182a1.325,1.325,0,0,0,.977-.386,1.324,1.324,0,0,0,.386-.977v-3.182H161.818V-905a1.324,1.324,0,0,0,.386.977A1.324,1.324,0,0,0,163.182-903.636Zm4.045-11.818a13.989,13.989,0,0,0-3.909.33,3.944,3.944,0,0,0-1.136.58h10.227a2.749,2.749,0,0,0-1.182-.614A16.456,16.456,0,0,0,167.227-915.455Z" transform="translate(-160 920)" fill="#5f6368"/>
</svg>
