<svg xmlns="http://www.w3.org/2000/svg" width="28.5" height="28.5" viewBox="0 0 28.5 28.5"><g id="_34.Attention" data-name="34.Attention" transform="translate(-11 -11)"><path id="Tracé_39" fill="#ff5800" d="M25.25,11A14.25,14.25,0,1,0,39.5,25.25,14.25,14.25,0,0,0,25.25,11ZM23.5,17.267a1.749,1.749,0,0,1,1.749-1.749h0a1.749,1.749,0,0,1,1.749,1.749V27.391a1.749,1.749,0,0,1-1.749,1.749h0A1.749,1.749,0,0,1,23.5,27.391Zm3.288,17.075a2.149,2.149,0,1,1,.64-1.527,2.1,2.1,0,0,1-.64,1.527Z" data-name="Tracé 39"/></g></svg>