<svg xmlns="http://www.w3.org/2000/svg" width="616.593" height="218.321" xmlns:v="https://vecta.io/nano"><defs><clipPath id="A"><path d="M0 162.991h508.827V0H0z"/></clipPath><clipPath id="B"><path d="M0 .698h180.022v162.041H0z"/></clipPath></defs><g transform="matrix(1.33333 0 0 -1.33333 -28.238 216.982)"><g clip-path="url(#A)"><path d="M249.722 117.765h-7.515v7.515h7.515zm9.257 10.969h-6.569v6.569h6.569zm9.804-14.851h-9.157v9.158h9.157zm-4.44-10.78h-8.015v10.498H244.11v-3.821h-9.049v10.593l-1.366-.017c-13.91 0-31.893-12.295-31.893-33.254 0-14.916 8.184-24.783 15.995-33.509l17.303-18.96 17.303 18.96c7.811 8.726 15.995 18.593 15.995 33.509a33.338 33.338 0 0 1-4.055 16.001m0 0h-8.015v10.498H244.11v-3.821h-9.049v10.593l-1.851-.017c-17.658-.973-31.408-15.491-31.408-33.254 0-14.916 8.184-24.783 15.995-33.509l17.303-18.96 17.303 18.96c7.811 8.726 15.995 18.593 15.995 33.509a33.338 33.338 0 0 1-4.055 16.001" fill="#85bc21"/><path d="M301.353 88.025a7.14 7.14 0 0 1 2.741 2.775c.663 1.187.994 2.537.994 4.05s-.33 2.863-.994 4.05a7.134 7.134 0 0 1-2.74 2.775c-1.165.663-2.468.996-3.91.996s-2.747-.333-3.91-.996a7.14 7.14 0 0 1-2.742-2.775c-.663-1.187-.995-2.537-.995-4.05s.332-2.863.995-4.05a7.147 7.147 0 0 1 2.741-2.775c1.164-.663 2.466-.995 3.91-.995s2.746.332 3.91.995m-10.77-4.172c-2.037 1.094-3.63 2.601-4.783 4.521s-1.728 4.08-1.728 6.476.576 4.556 1.728 6.476 2.746 3.427 4.783 4.521 4.323 1.641 6.86 1.641 4.818-.547 6.843-1.64 3.618-2.602 4.783-4.522 1.745-4.079 1.745-6.476-.582-4.555-1.745-6.476-2.758-3.427-4.783-4.52-4.307-1.64-6.843-1.64-4.824.545-6.86 1.64m28.941 1.256c-1.944 1.932-2.915 4.69-2.915 8.274v13.685h5.655V93.593c0-4.376 1.816-6.563 5.446-6.563 1.77 0 3.12.53 4.05 1.59s1.396 2.716 1.396 4.973v13.476h5.586V93.384c0-3.585-.972-6.342-2.915-8.274s-4.66-2.897-8.15-2.897-6.21.965-8.153 2.897m31.192 17.35h-7.819v4.609h21.296v-4.608h-7.82V82.63h-5.657zm29.081-15.186c2.443 0 4.394.682 5.848 2.042s2.182 3.207 2.182 5.534-.728 4.172-2.182 5.534-3.405 2.042-5.848 2.042h-5.167V87.274zm-10.822 19.795h11.101c2.654 0 4.998-.506 7.034-1.519s3.62-2.438 4.75-4.276 1.693-3.98 1.693-6.424-.566-4.585-1.693-6.423-2.712-3.265-4.75-4.277-4.38-1.519-7.034-1.519h-11.1zm46.327-19.044a7.142 7.142 0 0 1 2.74 2.775c.662 1.187.995 2.537.995 4.05s-.333 2.863-.996 4.05a7.136 7.136 0 0 1-2.739 2.775c-1.165.663-2.468.996-3.91.996s-2.747-.333-3.91-.996a7.14 7.14 0 0 1-2.742-2.775c-.663-1.187-.995-2.537-.995-4.05s.332-2.863.995-4.05a7.147 7.147 0 0 1 2.741-2.775c1.164-.663 2.467-.995 3.91-.995s2.746.332 3.911.995m-10.77-4.172c-2.038 1.094-3.63 2.601-4.784 4.521s-1.728 4.08-1.728 6.476.576 4.556 1.728 6.476 2.746 3.427 4.783 4.521 4.324 1.641 6.86 1.641 4.818-.547 6.843-1.64 3.62-2.602 4.783-4.522 1.745-4.079 1.745-6.476-.582-4.555-1.745-6.476-2.758-3.427-4.783-4.52-4.306-1.64-6.843-1.64-4.823.545-6.86 1.64m41.981 4.171a7.145 7.145 0 0 1 2.74 2.775c.663 1.187.995 2.537.995 4.05s-.332 2.863-.995 4.05a7.138 7.138 0 0 1-2.74 2.775c-1.164.663-2.467.996-3.91.996s-2.746-.333-3.91-.996a7.14 7.14 0 0 1-2.741-2.775c-.664-1.187-.995-2.537-.995-4.05s.331-2.863.995-4.05a7.147 7.147 0 0 1 2.741-2.775c1.164-.663 2.466-.995 3.91-.995s2.746.332 3.91.995m-10.771-4.172c-2.036 1.094-3.629 2.601-4.783 4.521s-1.727 4.08-1.727 6.476.576 4.556 1.727 6.476 2.747 3.427 4.783 4.521 4.324 1.641 6.861 1.641 4.817-.547 6.843-1.64 3.619-2.602 4.783-4.522 1.745-4.079 1.745-6.476-.582-4.555-1.745-6.476-2.758-3.427-4.783-4.52-4.306-1.64-6.843-1.64-4.823.545-6.861 1.64m40.377 17.507c-.885.733-2.177 1.1-3.876 1.1h-4.607v-8.518h4.607c1.699 0 2.99.372 3.876 1.117s1.326 1.792 1.326 3.141c0 1.374-.442 2.427-1.326 3.16m1.43-18.729l-4.713 6.807h-5.201v-6.807h-5.657v24.437h10.58c2.164 0 4.042-.36 5.637-1.082s2.821-1.746 3.683-3.072 1.292-2.898 1.292-4.714-.437-3.38-1.31-4.695-2.11-2.322-3.718-3.02l5.482-7.854z" fill="#312b6c"/><path d="M310.517 73.234l-10.511-24.283h-5.551l-10.476 24.283h6.07l7.39-17.345 7.493 17.345zm3.746 0h5.62V48.951h-5.62zm15.524-23.918c-1.793.52-3.232 1.196-4.319 2.029l1.908 4.232c1.04-.763 2.277-1.376 3.712-1.84a13.92 13.92 0 0 1 4.302-.692c1.595 0 2.774.237 3.538.71s1.145 1.104 1.145 1.892c0 .577-.225 1.057-.677 1.439s-1.029.688-1.734.919-1.66.486-2.862.763l-4.545 1.319a7.377 7.377 0 0 0-3.035 2.116c-.845.97-1.267 2.266-1.267 3.885 0 1.41.381 2.688 1.146 3.833s1.913 2.053 3.451 2.723 3.417 1.007 5.637 1.007c1.55 0 3.065-.186 4.545-.555s2.775-.903 3.885-1.596l-1.734-4.267c-2.243 1.272-4.488 1.908-6.73 1.908-1.573 0-2.735-.255-3.487-.763s-1.127-1.18-1.127-2.012.434-1.452 1.3-1.856 2.192-.804 3.973-1.197l4.544-1.318a7.536 7.536 0 0 0 3.035-2.081c.844-.95 1.267-2.233 1.267-3.851a6.637 6.637 0 0 0-1.162-3.8c-.775-1.144-1.938-2.052-3.486-2.722s-3.435-1.006-5.655-1.006c-1.92 0-3.776.26-5.568.78m21.455 23.919h5.619V48.951h-5.619zM380 54.31a7.105 7.105 0 0 1 2.723 2.759c.66 1.179.99 2.52.99 4.024s-.33 2.844-.99 4.024A7.096 7.096 0 0 1 380 67.874c-1.157.66-2.45.99-3.886.99s-2.728-.33-3.885-.99a7.09 7.09 0 0 1-2.723-2.757c-.659-1.18-.988-2.521-.988-4.024s.33-2.845.988-4.024a7.099 7.099 0 0 1 2.723-2.758c1.157-.66 2.452-.99 3.885-.99s2.73.33 3.886.99m-10.702-4.146c-2.024 1.087-3.609 2.584-4.753 4.493s-1.717 4.052-1.717 6.435.572 4.527 1.717 6.435 2.73 3.405 4.753 4.492 4.296 1.63 6.816 1.63 4.787-.543 6.8-1.63 3.596-2.584 4.752-4.492 1.734-4.053 1.734-6.435-.578-4.528-1.734-6.435-2.74-3.406-4.752-4.493-4.279-1.63-6.8-1.63-4.793.543-6.816 1.63m48.34 23.069V48.951h-4.613l-12.108 14.743V48.951h-5.55v24.283h4.649l12.072-14.744v14.744z" fill="#85bc21"/><path d="M226.217 80.662l1.653 6.398h-.002c.073-.019 6.966-1.879 14.786-1.743v-6.536c-9.502-.693-16.437 1.881-16.437 1.881m-18.903-4.381l-3.187 5.788c7.886 4.342 15.795 5.161 16.128 5.193l.652-6.575c-.069-.007-6.94-.742-13.593-4.406m42.914 9.441c.068.01 6.893 1.093 13.353 5.089l3.158-5.834c-7.229-4.467-15.196-5.74-15.526-5.788l-.979 6.534m-55.669-16.377l-3.146 5.81 8.097 4.385 3.146-5.811zm76.725 18.281l-3.203 5.798 7.872 4.738 3.351-5.719z" fill="#312b6c"/><path d="M223.87 82.447c0 6.152 5.006 11.157 11.159 11.157s11.157-5.005 11.157-11.157-5.006-11.157-11.157-11.157-11.158 5.005-11.158 11.157m36.005-21.608L248.53 71.995c2.245 2.894 3.596 6.514 3.596 10.452 0 9.428-7.67 17.099-17.098 17.099s-17.1-7.671-17.1-17.1 7.67-17.098 17.1-17.098c3.344 0 6.458.98 9.097 2.647l11.585-11.393a2.96 2.96 0 0 1 2.083-.852 2.97 2.97 0 0 1 2.082 5.089" fill="#fff"/></g><g clip-path="url(#B)"><path d="M24.42 106.542v-4.132h1.823c1.37 0 2.17.797 2.17 2.099 0 1.204-.8 2.033-2.17 2.033zm-3.241 2.69h4.885c3.51 0 5.68-1.804 5.68-4.772 0-1.934-.934-3.376-2.577-4.128l4.996-7.074h-3.81l-4.267 6.46H24.42v-6.46h-3.242zm18.205 1.371l2.58 3.076h3.33l-2.969-3.076zm-3.147-1.375h9.308v-2.686h-6.067v-3.792h5.153v-2.686h-5.153v-4.11h6.067V93.26h-9.308zm16.331-2.686v-4.132h2.167c1.375 0 2.194.797 2.194 2.099 0 1.204-.819 2.033-2.194 2.033zm-3.24 2.69H54.6c3.51 0 5.658-1.804 5.658-4.772 0-2.937-2.149-4.741-5.658-4.741h-2.033v-6.461h-3.24zm23.042-.002h3.24v-9.719c0-4.196-2.466-6.707-6.482-6.707-3.993 0-6.455 2.511-6.455 6.707v9.72h3.24v-9.994c0-2.144 1.21-3.398 3.242-3.398 1.984 0 3.215 1.254 3.215 3.398zm10.515-8.989v-4.289h1.983c1.509 0 2.418.797 2.418 2.144 0 1.366-.91 2.145-2.418 2.145zm0 6.3v-3.605h1.53c1.232 0 1.962.66 1.962 1.827 0 1.115-.73 1.777-1.961 1.777zm-3.241 2.69h4.7c3.332 0 5.364-1.638 5.364-4.334 0-1.302-.591-2.422-1.71-3.152 1.688-.752 2.623-2.122 2.623-3.787 0-2.919-2.26-4.7-5.932-4.7h-5.045zm14.302-.001h3.241V96.207h6.067v-2.946h-9.308zm12.183 0h3.241V93.261h-3.241zm19.983-7.983c0 3.058-2.145 5.404-5.13 5.404-3.014 0-5.158-2.346-5.158-5.404s2.144-5.408 5.158-5.408c2.985 0 5.13 2.35 5.13 5.408m4.495-9.106c.345 0 .8.049 1.142.183v-2.735c-.524-.206-.981-.3-1.688-.3-1.782 0-3.425.729-4.996 2.1l-1.894 1.688a8.585 8.585 0 0 0-2.19-.273c-5.045 0-8.488 3.877-8.488 8.443s3.443 8.439 8.489 8.439c5.018 0 8.465-3.872 8.465-8.439 0-2.673-1.19-5.113-3.151-6.662l.958-.913c1.23-1.119 2.328-1.531 3.353-1.531m11.358 17.089h3.241v-9.719c0-4.196-2.467-6.707-6.483-6.707-3.993 0-6.455 2.511-6.455 6.707v9.72h3.241v-9.994c0-2.144 1.21-3.398 3.237-3.398 1.988 0 3.22 1.254 3.22 3.398zm7.275 0h9.308v-2.69h-6.066v-3.788h5.153v-2.69h-5.153v-4.11h6.066v-2.69h-9.308zM21.181 86.145h9.308v-2.69h-6.067v-3.788h5.154v-2.69h-5.154v-6.802h-3.241zm15.396-2.689v-4.132h1.827c1.37 0 2.167.797 2.167 2.1 0 1.204-.797 2.032-2.167 2.032zm-3.241 2.691h4.884c3.515 0 5.682-1.804 5.682-4.773 0-1.934-.936-3.376-2.579-4.127l4.996-7.074h-3.81l-4.262 6.46h-1.67v-6.46h-3.241zm24.07-9.06l-2.189 6.003-2.194-6.003zm-4.312 9.057h4.245l6.044-15.97H59.94l-1.53 4.155h-6.39l-1.527-4.155h-3.447zm12.772.001h4.15L77.157 74.6v11.546h3.246v-15.97h-4.155l-7.141 11.547V70.175h-3.241zm30.318-11.201l2.557-1.96c-1.232-1.688-3.148-2.879-5.476-3.175l-1.988-3.308h-2.874l2.006 3.353c-4.15.73-6.89 4.25-6.89 8.31 0 4.561 3.447 8.438 8.488 8.438 2.901 0 5.274-1.303 6.734-3.24l-2.557-1.984c-.913 1.302-2.35 2.19-4.177 2.19-3.009 0-5.153-2.352-5.153-5.405 0-3.062 2.144-5.408 5.153-5.408 1.827 0 3.264.886 4.177 2.19m13.619 2.142l-2.188 6.003-2.195-6.003zm-4.31 9.057h4.24l6.047-15.97h-3.446l-1.528 4.155h-6.388l-1.528-4.155h-3.446zm12.773.003h3.241v-15.97h-3.241zm8.644-11.592c.957-1.227 2.233-1.957 3.536-1.957 1.276 0 2.055.681 2.055 1.823 0 2.941-7.258 2.144-7.258 7.548 0 2.538 2.102 4.633 5.155 4.633 2.395 0 4.226-1.069 5.592-2.69l-2.37-2.149c-.935 1.213-1.986 2.01-3.195 2.01-1.142 0-1.9-.73-1.9-1.683 0-2.906 7.259-2.077 7.259-7.557-.045-3.014-2.395-4.813-5.314-4.813-2.696 0-4.496.98-5.91 2.668zm12.27 11.59h9.308v-2.69h-6.067v-3.788h5.154v-2.69h-5.154v-4.11h6.067v-2.692h-9.308z"/><g fill="#000091"><path d="M40.318 122.623l.013.008a.82.82 0 0 1 .16.108 1.397 1.397 0 0 1-.173-.116m7.832 2.614l-.054-.04c.032 0 .054.009.054.04"/><path d="M38.617 126.045c-.041.041.121 0 .161.081h-.323c-.04 0-.04.036-.04.08l-.644-.16c-.287-.086-.529-.283-.851-.363-.448-.166-.81-.524-1.289-.685-.045 0-.045.035-.045.076.045.125.201.161.282.286 0 .036 0 .076-.041.076.323.448.77.69 1.174 1.057v.116c.12.162.322.247.403.443.04.126.201.283.402.368-.035.036-.121.036-.121.121-.161 0-.322-.085-.483.04a.66.66 0 0 0 .255.143.14.14 0 0 0-.094.058c-.04.081.076.17.202.202.165.04.367.04.488.161-.282.045-.609-.08-.891.081.201.523.523.966 1.007 1.213.04 0 .125 0 .125-.04a.397.397 0 0 0-.326-.408c.326-.076.649-.076.971-.242-.04-.076-.121-.036-.161-.036.201-.125.443-.04.649-.206-.125-.125-.246 0-.367 0 1.254-.362 2.588-.644 3.636-1.455-.887-.443-1.818-.644-2.786-.846-.125 0-.201 0-.326.041 0-.04 0-.12-.036-.12-.166 0-.282 0-.408-.082-.161-.085-.402-.12-.523 0m-.829-2.812l-.008-.008-.461-.305c-.175-.103-.354-.174-.534-.264l-.008.01c-.014.022-.04.03-.067.017a2.141 2.141 0 0 1-.404-.309c-.022-.018-.035-.036-.058-.054l-.004-.004c-.023-.022-.045-.041-.058-.063l-.009-.009a.502.502 0 0 1-.09-.089c-.022-.027-.027-.04-.053-.059s-.094-.017-.09.032v.004l-.067-.036c-.027-.009-.045-.022-.063-.035-.009.004-.022.004-.031.004a.058.058 0 0 1-.027-.009 2.008 2.008 0 0 1-.148-.125 1.825 1.825 0 0 1-.237-.25l-.023-.023a.044.044 0 0 0-.013-.018v-.005c-.009-.018-.018-.027-.031-.045a.075.075 0 0 0-.032-.017.072.072 0 0 0-.017.027l-.045.08a.07.07 0 0 1-.014.022l.13.148.049.058.068.09c.008.013.017.022.022.036a2.458 2.458 0 0 1 .134.175c.005.004.009.013.018.017l.054.09.045.085.004.004.004.005.005.013c.013.032.027.063.036.1a.054.054 0 0 1 .013.035c.005.017.009.031.014.04l.018.073c0 .012 0 .021-.005.025.041.081.099.153.157.224l-.018-.013c-.058-.036-.094-.09-.148-.126-.045-.035-.125.018-.072.058l.09.081c.072.072.135.157.211.215l.125.09a.045.045 0 0 0 .018.018c.027.035.053.071.09.098.389.381 1.043.367 1.548.6.207.085.444-.04.649 0 .121 0 .243 0 .363-.076-.363-.197-.698-.425-1.03-.632m.726-.33a.332.332 0 0 0-.103-.122c.054-.004.089-.027.058-.062-.099-.085-.188-.17-.309-.215-.009 0-.031-.004-.063-.004l-.147-.144c-.049-.04-.273-.009-.202.05l.296.282.165.161c.032.031.054.067.09.09.031.026.246.04.215-.037m-1.876 6.05c-.041-.077-.085-.086-.121-.162a.376.376 0 0 0-.161-.162c-.04 0-.081 0-.081.045.041.157.161.318.322.358.041 0 .041-.04.041-.08m-3.354-2.664s-.044.036-.044.081c.528.684.931 1.33 1.294 2.06.528.285.962.693 1.379 1.132.684.725 1.41 1.374 2.256 1.777.327.121.73.076 1.052-.04-.121-.16-.322-.12-.483-.242-.04 0-.081 0-.121.04.04.041.04.081.04.117-.407-.439-.972-.645-1.294-1.165-.242-.407-.403-.93-.927-1.056-.161-.04.036.125-.04.085-1.254-.77-2.144-1.697-3.112-2.789m6.179-.89c-.081 0-.242-.037-.197.04.036.205.318.205.479.286.085.04.206.121.287.08.08-.12.201-.08.282-.16-.242-.247-.569-.126-.851-.247m6.214-2.892l.69.721h-.005l1.348 1.38.438.348c.041.045.041.121.081.161-.197-.08-.322-.242-.524-.322-.04 0-.08.04-.04.08l.434.327h-.031c-.036 0-.036.036-.036.076-.528.085-.931-.277-1.298-.604-.081-.04-.161.04-.197.04-.609-.202-1.052-.725-1.661-.972v.086c-.242-.086-.475-.229-.726-.287-.362-.076-.684-.036-1.012-.036-.487-.049-.976-.16-1.463-.264a3.318 3.318 0 0 1-.797-.313c-.009-.005-.023-.009-.027-.014l-.058-.072c-.09-.093-.161-.188-.282-.246-.247-.125-.448-.344-.667-.524-.014-.013-.041-.017-.068-.017l-.649-.623c-.013-.013-.076-.022-.125-.013l.004.004c.009.014.018.023.023.036l.107.171.121.188.17.246c.018.018.014.04 0 .053a.063.063 0 0 1-.058.018c.202.197.443.363.681.506v.005c-.027-.009-.068.013-.045.045l.067.107.013.04c-.009.01-.022.018-.031.031l-.192-.129c-.095-.094-.171-.269-.314-.269-.014 0-.04 0-.063.01l-.044.012c.009.014.009.018.013.023.009.022.018.035.022.045l.023.035a.117.117 0 0 1 .013.023l.032.054a.192.192 0 0 0 .017.04l.054.085a.339.339 0 0 0 .027.044c.009.027.022.05.04.077s0 .058-.031.067a.901.901 0 0 0 .278.242h-.009l.461.264.067.054a2.565 2.565 0 0 1-.645-.318s-.054-.023-.067-.036c0 0-.045-.018-.098.036a.04.04 0 0 0-.014.031c.04.085.161.121.242.206.044 0 .085 0 .085-.045 1.29 1.012 3.067.77 4.562 1.294l.363.242c.206.08.363.282.609.407.322.238.564.524.685.927 0 .036-.041.081-.041.081a6.324 6.324 0 0 0-1.777-1.335c-.851-.443-1.777-.362-2.664-.483.036.08.121.08.197.08 0 .122.085.162.166.242h.121c.04 0 .04.081.08.081.081 0 .201.045.161.045-.121.161-.362-.126-.564 0 .081.076.036.201.121.237h.161c0 .081.081.161.081.161l1.737.972c-.121 0-.202-.12-.322-.045.08 0 0 .125.08.125.443.121.806.363 1.254.524-.166 0-.282-.116-.448 0 .081.04.121.121.242.121v.125c0 .04.04.04.08.04-.04 0-.08.037-.08.037.04.084.161.04.241.125-.035 0-.12 0-.12.036.12.165.326.201.528.241-.04.085-.165 0-.165.085 0 .036.044.036.085.036h-.085c-.077.045-.037.125-.037.166.242.282.242.644.363.967-.045 0-.08 0-.08.04-.403-.439-1.053-.609-1.657-.765h-.201c-.206-.08-.489-.08-.69.04-.161.08-.241.201-.403.322a4.927 4.927 0 0 1-1.007.488 8.982 8.982 0 0 1-3.112.44c.444.245.936.268 1.415.406.685.202 1.33.443 2.055.403-.116.04-.282 0-.398 0-.569.04-1.133-.12-1.742-.24-.399-.078-.766-.243-1.169-.324-.241-.08-.367-.322-.644-.282v.121c.403.484.886.967 1.531 1.012.73.12 1.415 0 2.14-.085.528-.04 1.012-.162 1.535-.282.207 0 .242-.323.408-.367.242-.077.484 0 .725-.157 0 .08-.04.157 0 .241.161.162.363-.04.524.045.327.197-.282.56-.443.842 0 .045.045.085.045.085.318-.286.564-.609.967-.81.201-.077.685-.202.604.04-.202.448-.604.81-.927 1.21v.17c-.08 0-.08.035-.125.075v.161c-.161.081-.121.242-.201.363-.121.201-.036.488-.121.725a4.41 4.41 0 0 0-.162.69l-.362 1.938c-.081.766.443 1.375.806 2.06.286.488.609.971 1.133 1.294.12.487.442.89.77 1.29.322.397.855.634 1.249.81a9.812 9.812 0 0 0 1.069.411H21.188v-21.378h19.82c.77.556 1.535.815 2.609 1.348.506.246 1.666.78 2.06 1.173"/></g><path d="M80.163 141.361h-23s.046-.005.22-.099l.583-.313c.295-.152.582-.349.765-.64.08-.126.202-.363.126-.533-.081-.197-.126-.519-.327-.6-.237-.126-.564-.126-.846-.085-.162 0-.323.04-.484.085.605-.246 1.173-.524 1.576-1.092.036-.08.2-.12.363-.12.04 0 .04-.082.04-.122-.08-.085-.161-.12-.121-.247h.12c.203.086.162.49.444.368.206-.12.287-.408.166-.609a4.965 4.965 0 0 0-.488-.403.346.346 0 0 1 0-.282c.12-.162.16-.323.2-.484.122-.286.163-.604.288-.886.157-.609.322-1.213.277-1.822 0-.323-.156-.605-.04-.93.085-.324.283-.565.448-.848.16-.24.322-.402.443-.649.242-.403.685-.8.484-1.289-.121-.282-.564-.247-.846-.408-.246-.2-.041-.523.08-.725.202-.363-.246-.604-.524-.725.08-.12.238-.08.278-.16.04-.203.246-.324.125-.525-.165-.247-.65-.363-.403-.73.157-.282.054-.595-.045-.89-.12-.363-.443-.525-.725-.6a1.595 1.595 0 0 0-.765-.046.527.527 0 0 1-.242.085c-.69.076-1.375.278-2.06.278-.205-.04-.407-.08-.568-.16a3.24 3.24 0 0 1-.488-.43l-.01-.006-.084-.098c-.018-.018-.036-.045-.054-.063l-.031-.044a3.063 3.063 0 0 1-.318-.462c-.01-.008-.014-.022-.018-.03l-.031-.059a3.748 3.748 0 0 1-.31-.739c-.272-.926-.152-1.723.04-1.916.055-.049 1.33-.447 2.226-.842a8.51 8.51 0 0 0 .954-.483h22.582z" fill="#e1000f"/><path d="M58.534 133.56c.161-.04.403-.04.403-.12-.081-.322-.569-.402-.811-.725h-.12c-.121-.081-.076-.282-.202-.282-.121.04-.242 0-.363-.045.162-.161.363-.282.609-.237.036 0 .117-.085.117-.166 0 0 .045 0 .085.04.035 0 .08 0 .08-.04v-.161c-.12-.161-.326-.076-.483-.121.318-.08.644-.08.927 0 .241.085 0 .484.161.685-.081 0 0 .126-.081.126.081.08.161.2.242.237.081 0 .202.045.242.125 0 .08-.161.12-.121.206.246.16.443.398.362.64-.04.12-.362.12-.564.206-.201.08-.443 0-.685-.044-.206 0-.402-.121-.609-.162-.282-.076-.523-.242-.77-.403.287.12.569.16.896.242.237 0 .443.063.685 0" fill="gray"/><path d="M25.815 20.603l.116.362c-1.562.296-1.759.296-1.137 1.997l.636 1.751h1.723c.775 0 .788-.318.672-1.164h.443l1.034 2.83h-.447c-.385-.668-.694-1.165-1.54-1.165h-1.697l.9 2.481c.286.787.447.95 1.504.95h.752c1.093 0 1.223-.297 1.223-1.398h.434l.363 1.93h-6.483l-.117-.367c1.258-.26 1.374-.377.788-1.998l-1.41-3.85c-.587-1.607-.833-1.733-2.279-1.997l-.103-.362zm8.994 4.72c.224.764.103 1.431-.483 1.431-.694 0-.869-.528-1.572-2.04v.868c0 .622-.2 1.172-.765 1.172-.658 0-1.254-1.02-1.715-2.028h.305c.318.453.613.726.846.726.282 0 .438-.435 0-1.397l-1.267-2.816c-.233-.533.013-.869.528-.869.318 0 .461.081.587.421l1.244 3.3 1.07 1.231zm5.704 1.704l-.492.032-.55-.542h-.122c-2.677 0-4.988-3.004-4.988-5.185 0-.613.377-.962.963-.962.69 0 1.375.985 2.136 2.042l-.036-.376c-.094-1.079.237-1.666.797-1.666.658 0 1.258 1.021 1.715 2.028h-.305c-.314-.457-.609-.73-.846-.73-.246 0-.42.448 0 1.402zm-4.943-4.83c0 1.45 1.612 3.407 2.512 3.407a2.08 2.08 0 0 0 .551-.067l-.936-2.503c-.542-.658-1.375-1.455-1.764-1.455-.224 0-.363.188-.363.618m5.928 3.653h1.08l-1.716-4.683c-.148-.398.063-.797.475-.797.971 0 2.547.962 3.098 2.28h-.309c-.43-.462-1.263-1.07-1.983-1.205l1.576 4.405h1.607l.197.667h-1.558l.595 1.692h-.622l-1.11-1.692-1.33-.184zm7.665-3.214h-.399c-.5-.6-1.043-1.07-1.585-1.07-.55 0-.832.331-.832 1.07 0 .3.035.61.093.89l3.251 1.071c.636 1.504-.126 2.157-1.02 2.157-1.536 0-3.287-2.569-3.287-4.82 0-1.013.484-1.564 1.231-1.564.882 0 1.796.86 2.548 2.266m-1.115 3.25c.434 0 .81-.33.613-1.16l-2.019-.474c.35.94.936 1.634 1.406 1.634m7.212-.564c.22.765.103 1.432-.483 1.432-.694 0-.869-.528-1.57-2.04v.868c0 .622-.203 1.172-.767 1.172-.658 0-1.254-1.02-1.715-2.028h.305c.318.453.613.726.846.726.282 0 .434-.435 0-1.397L50.61 21.24c-.237-.533.013-.869.528-.869.318 0 .457.081.587.421l1.244 3.3 1.07 1.231zm.023-4.083c-.238-.533.01-.869.524-.869.322 0 .461.081.591.421l1.244 3.3c.573.707 1.755 1.454 2.23 1.454.34 0 .291-.28.071-.702l-1.916-3.676a.539.539 0 0 1 .47-.797c.936 0 2.055.846 2.503 2.028h-.305c-.308-.43-.823-.918-1.307-.994l1.648 3.322c.21.421.313.82.313 1.137 0 .542-.304.891-.868.891-.81 0-1.63-.913-2.606-2.04v.868c0 .622-.197 1.172-.766 1.172-.349 0-.689-.299-1.007-.738V25.9c.61.032.882-.882.448-1.844zm10.342 7.185a.77.77 0 0 1 .77.775.78.78 0 0 1-.77.775.772.772 0 0 1-.775-.775.76.76 0 0 1 .775-.775m-.33-2.35c.128.434-.167.68-.387.68-.94 0-2.054-.84-2.502-2.028h.304c.305.435.824.914 1.303 1l-1.795-4.675c-.166-.435.161-.68.39-.68.89 0 1.934.858 2.381 2.027h-.304c-.309-.43-.82-.918-1.303-.994zm1.454-.224h1.083l-1.715-4.683c-.152-.398.058-.797.466-.797.981 0 2.552.962 3.103 2.28h-.305c-.439-.462-1.272-1.07-1.988-1.205l1.576 4.405h1.612l.192.667h-1.558l.6 1.692h-.622l-1.119-1.692-1.325-.184zm7.02 1.504l2.292 2.136v.246h-1.23l-1.412-2.382zm.644-4.718h-.398c-.502-.6-1.043-1.07-1.585-1.07s-.833.331-.833 1.07c0 .3.036.61.094.89l3.255 1.071c.631 1.504-.13 2.157-1.025 2.157-1.536 0-3.286-2.569-3.286-4.82 0-1.013.483-1.564 1.235-1.564.878 0 1.796.86 2.543 2.266m-1.115 3.25c.435 0 .815-.33.614-1.16l-2.019-.474c.353.94.935 1.634 1.405 1.634M28.14 44.423l2.289 1.576v.24h-1.384l-1.271-1.816zm-.94-4.92c.775 0 .784-.314.668-1.156h.448l1.034 2.82h-.448c-.39-.666-.69-1.154-1.54-1.154H25.66l.859 2.355c.283.788.444.94 1.5.94h.752c1.093 0 1.223-.291 1.223-1.388h.434l.362 1.93h-6.478l-.116-.363c1.253-.264 1.37-.38.783-1.997l-1.41-3.855c-.587-1.607-.833-1.732-2.274-1.992l-.108-.367H28.4l1.289 2.046h-.497c-.82-.774-1.853-1.518-3.295-1.518-1.916 0-1.737.086-1.106 1.83l.685 1.869zm8.207-5.024c0 .753-.667 1.026-1.764 1.352-.936.282-1.361.363-1.361.668 0 .246.202.54.6.752 1.536.08 2.534 1.468 2.534 2.628 0 .25-.045.46-.13.649h1.308l.197.667h-2.064a1.61 1.61 0 0 1-.833.237c-1.634 0-2.69-1.432-2.69-2.596 0-.878.563-1.433 1.244-1.563-.761-.34-1.186-.74-1.186-1.21a.73.73 0 0 1 .317-.63c-1.76-.515-2.453-1.106-2.453-1.934 0-.815 1.065-1.155 2.337-1.155 2.149 0 3.944 1.164 3.944 2.135m-2.547 3.219c-.39 0-.542.327-.542.703 0 1.048.564 2.579 1.442 2.579.389 0 .542-.327.542-.703 0-1.04-.565-2.58-1.442-2.58m-2.431-3.795c0 .626.6 1.016 1.455 1.352.282-.14.707-.291 1.267-.48.895-.295 1.236-.411 1.236-.68 0-.577-.976-1.011-2.302-1.011-1.12 0-1.656.237-1.656.819M42.378 41.7l-.492.03-.551-.536h-.116c-2.678 0-4.988-3.01-4.988-5.19 0-.612.37-.961.958-.961.694 0 1.374.984 2.14 2.04l-.036-.375c-.094-1.08.233-1.665.797-1.665.658 0 1.259 1.02 1.715 2.027H41.5c-.317-.456-.613-.725-.846-.725-.246 0-.42.448 0 1.402zm-4.943-4.826c0 1.445 1.612 3.402 2.517 3.402.196 0 .384-.022.55-.067l-.94-2.503c-.542-.654-1.375-1.455-1.76-1.455-.223 0-.367.188-.367.623m6.224-.797l3.277 8.582-.108.125-2.055-.232v-.242l.403-.313c.363-.278.242-.547-.085-1.415L42.53 35.84a.538.538 0 0 1 .47-.796c.94 0 1.939.846 2.387 2.027h-.305c-.31-.43-.94-.913-1.423-.993m6.245 7.02c.425 0 .779.34.779.774a.782.782 0 0 1-.78.775.772.772 0 0 1-.774-.775c0-.434.34-.774.775-.774m-.327-2.346c.126.429-.165.68-.39.68-.94 0-2.05-.842-2.498-2.032h.3c.309.439.829.913 1.308.998l-1.796-4.67c-.165-.438.16-.684.386-.684.895 0 1.938.859 2.386 2.027h-.31c-.303-.43-.82-.913-1.302-.993zm1.455-.224h1.079l-1.715-4.688c-.152-.398.058-.796.47-.796.977 0 2.548.962 3.103 2.278h-.31c-.433-.457-1.266-1.07-1.982-1.2l1.57 4.406h1.613l.197.667h-1.562l.6 1.692h-.623l-1.115-1.692-1.325-.188zm7.02 1.504l2.288 2.13v.252h-1.231l-1.41-2.382zm.645-4.723h-.4c-.505-.6-1.042-1.066-1.583-1.066-.551 0-.833.327-.833 1.066a4.42 4.42 0 0 0 .094.89l3.25 1.075c.63 1.5-.13 2.158-1.021 2.158-1.535 0-3.29-2.574-3.29-4.826 0-1.012.483-1.562 1.235-1.562.883 0 1.796.859 2.548 2.265m-1.115 3.255c.434 0 .81-.332.609-1.164l-2.02-.471c.355.94.94 1.635 1.41 1.635M28.563 58.523h-4.276l-.112-.363c1.254-.26 1.37-.376.784-1.997l-1.384-3.85c-.59-1.607-.832-1.737-2.279-1.997l-.107-.362h6.505l1.411 2.507h-.498c-.792-.877-1.736-1.98-3.178-1.98-1.093 0-1.222.189-.636 1.832l1.384 3.85c.577 1.608.832 1.737 2.28 1.997zm4.732-.752a.77.77 0 0 1 .77.774.78.78 0 0 1-.77.779.772.772 0 0 1-.774-.78.76.76 0 0 1 .774-.773m-.33-2.346c.13.434-.167.68-.39.68-.936 0-2.055-.846-2.499-2.032h.304c.305.438.824.917 1.303.998l-1.795-4.67c-.166-.434.166-.685.39-.685.89 0 1.933.86 2.381 2.033h-.304c-.309-.43-.824-.918-1.303-.994zm6.383-.623c0 .954-.349 1.303-1.007 1.303-.824 0-1.594-.87-2.373-1.93l1.961 5.162-.103.126-2.055-.237v-.242l.398-.31c.363-.281.247-.572-.08-1.418l-2.118-5.45-.34-.997c0-.564.765-1.093 1.46-1.093 1.593 0 4.257 2.879 4.257 5.086M35.65 50.67c-.314 0-.775.295-.775.55 0 .086.144.449.318.905l.53 1.397c.563.667 1.423 1.383 1.902 1.383.291 0 .52-.188.52-.617 0-1.281-1.2-3.618-2.495-3.618m7.974 1.312h-.399c-.506-.596-1.047-1.066-1.589-1.066s-.833.327-.833 1.066a4.83 4.83 0 0 0 .094.895l3.255 1.07c.636 1.5-.13 2.158-1.02 2.158-1.54 0-3.287-2.57-3.287-4.826 0-1.012.48-1.563 1.231-1.563.882 0 1.796.86 2.548 2.266m-1.115 3.254c.434 0 .81-.331.61-1.163l-2.02-.47c.353.94.94 1.633 1.41 1.633m7.208-.564c.224.766.107 1.433-.479 1.433-.694 0-.873-.528-1.576-2.041v.868c0 .622-.202 1.173-.76 1.173-.659 0-1.259-1.02-1.716-2.032h.305c.318.456.61.729.846.729.277 0 .434-.434 0-1.401l-1.267-2.812c-.237-.532.01-.873.528-.873.314 0 .457.085.587.426l1.24 3.295 1.07 1.235zm.846.529h.855l-1.71-4.683c-.157-.4.054-.802.465-.802.976 0 2.548.968 3.103 2.279h-.309c-.434-.461-1.267-1.065-1.983-1.2l1.571 4.406h1.612l.197.667h-1.558l.595 1.692h-.622l-1.114-1.692-1.102-.184zm6.725 1.504l2.292 2.136v.246h-1.236l-1.41-2.382zm.65-4.723h-.404c-.506-.596-1.043-1.066-1.585-1.066-.55 0-.833.327-.833 1.066a4.51 4.51 0 0 0 .094.895l3.255 1.07c.631 1.5-.134 2.158-1.025 2.158-1.54 0-3.286-2.57-3.286-4.826 0-1.012.48-1.563 1.231-1.563.882 0 1.8.86 2.552 2.266m-1.12 3.254c.435 0 .811-.331.614-1.163l-2.019-.47c.35.94.94 1.633 1.405 1.633"/></g></g></svg>